G04 #@! TF.GenerationSoftware,KiCad,Pcbnew,5.1.5+dfsg1-2*
G04 #@! TF.CreationDate,2020-02-18T22:18:07+02:00*
G04 #@! TF.ProjectId,zxkbd,7a786b62-642e-46b6-9963-61645f706362,rev?*
G04 #@! TF.SameCoordinates,Original*
G04 #@! TF.FileFunction,Legend,Top*
G04 #@! TF.FilePolarity,Positive*
%FSLAX46Y46*%
G04 Gerber Fmt 4.6, Leading zero omitted, Abs format (unit mm)*
G04 Created by KiCad (PCBNEW 5.1.5+dfsg1-2) date 2020-02-18 22:18:07*
%MOMM*%
%LPD*%
G04 APERTURE LIST*
%ADD10C,0.150000*%
%ADD11C,0.120000*%
%ADD12C,0.010000*%
%ADD13C,0.127000*%
%ADD14C,0.340000*%
%ADD15C,0.050000*%
G04 APERTURE END LIST*
D10*
X132457142Y-143852380D02*
X132457142Y-142852380D01*
X132838095Y-142852380D01*
X132933333Y-142900000D01*
X132980952Y-142947619D01*
X133028571Y-143042857D01*
X133028571Y-143185714D01*
X132980952Y-143280952D01*
X132933333Y-143328571D01*
X132838095Y-143376190D01*
X132457142Y-143376190D01*
X133838095Y-143804761D02*
X133742857Y-143852380D01*
X133552380Y-143852380D01*
X133457142Y-143804761D01*
X133409523Y-143709523D01*
X133409523Y-143328571D01*
X133457142Y-143233333D01*
X133552380Y-143185714D01*
X133742857Y-143185714D01*
X133838095Y-143233333D01*
X133885714Y-143328571D01*
X133885714Y-143423809D01*
X133409523Y-143519047D01*
X134314285Y-143185714D02*
X134314285Y-143852380D01*
X134314285Y-143280952D02*
X134361904Y-143233333D01*
X134457142Y-143185714D01*
X134600000Y-143185714D01*
X134695238Y-143233333D01*
X134742857Y-143328571D01*
X134742857Y-143852380D01*
X135076190Y-143185714D02*
X135457142Y-143185714D01*
X135219047Y-142852380D02*
X135219047Y-143709523D01*
X135266666Y-143804761D01*
X135361904Y-143852380D01*
X135457142Y-143852380D01*
X136219047Y-143852380D02*
X136219047Y-143328571D01*
X136171428Y-143233333D01*
X136076190Y-143185714D01*
X135885714Y-143185714D01*
X135790476Y-143233333D01*
X136219047Y-143804761D02*
X136123809Y-143852380D01*
X135885714Y-143852380D01*
X135790476Y-143804761D01*
X135742857Y-143709523D01*
X135742857Y-143614285D01*
X135790476Y-143519047D01*
X135885714Y-143471428D01*
X136123809Y-143471428D01*
X136219047Y-143423809D01*
X137123809Y-143185714D02*
X137123809Y-143995238D01*
X137076190Y-144090476D01*
X137028571Y-144138095D01*
X136933333Y-144185714D01*
X136790476Y-144185714D01*
X136695238Y-144138095D01*
X137123809Y-143804761D02*
X137028571Y-143852380D01*
X136838095Y-143852380D01*
X136742857Y-143804761D01*
X136695238Y-143757142D01*
X136647619Y-143661904D01*
X136647619Y-143376190D01*
X136695238Y-143280952D01*
X136742857Y-143233333D01*
X136838095Y-143185714D01*
X137028571Y-143185714D01*
X137123809Y-143233333D01*
X137742857Y-143852380D02*
X137647619Y-143804761D01*
X137600000Y-143757142D01*
X137552380Y-143661904D01*
X137552380Y-143376190D01*
X137600000Y-143280952D01*
X137647619Y-143233333D01*
X137742857Y-143185714D01*
X137885714Y-143185714D01*
X137980952Y-143233333D01*
X138028571Y-143280952D01*
X138076190Y-143376190D01*
X138076190Y-143661904D01*
X138028571Y-143757142D01*
X137980952Y-143804761D01*
X137885714Y-143852380D01*
X137742857Y-143852380D01*
X138504761Y-143185714D02*
X138504761Y-143852380D01*
X138504761Y-143280952D02*
X138552380Y-143233333D01*
X138647619Y-143185714D01*
X138790476Y-143185714D01*
X138885714Y-143233333D01*
X138933333Y-143328571D01*
X138933333Y-143852380D01*
X139933333Y-143852380D02*
X139361904Y-143852380D01*
X139647619Y-143852380D02*
X139647619Y-142852380D01*
X139552380Y-142995238D01*
X139457142Y-143090476D01*
X139361904Y-143138095D01*
X140314285Y-142947619D02*
X140361904Y-142900000D01*
X140457142Y-142852380D01*
X140695238Y-142852380D01*
X140790476Y-142900000D01*
X140838095Y-142947619D01*
X140885714Y-143042857D01*
X140885714Y-143138095D01*
X140838095Y-143280952D01*
X140266666Y-143852380D01*
X140885714Y-143852380D01*
X141457142Y-143280952D02*
X141361904Y-143233333D01*
X141314285Y-143185714D01*
X141266666Y-143090476D01*
X141266666Y-143042857D01*
X141314285Y-142947619D01*
X141361904Y-142900000D01*
X141457142Y-142852380D01*
X141647619Y-142852380D01*
X141742857Y-142900000D01*
X141790476Y-142947619D01*
X141838095Y-143042857D01*
X141838095Y-143090476D01*
X141790476Y-143185714D01*
X141742857Y-143233333D01*
X141647619Y-143280952D01*
X141457142Y-143280952D01*
X141361904Y-143328571D01*
X141314285Y-143376190D01*
X141266666Y-143471428D01*
X141266666Y-143661904D01*
X141314285Y-143757142D01*
X141361904Y-143804761D01*
X141457142Y-143852380D01*
X141647619Y-143852380D01*
X141742857Y-143804761D01*
X141790476Y-143757142D01*
X141838095Y-143661904D01*
X141838095Y-143471428D01*
X141790476Y-143376190D01*
X141742857Y-143328571D01*
X141647619Y-143280952D01*
X142266666Y-143852380D02*
X142266666Y-142852380D01*
X142361904Y-143471428D02*
X142647619Y-143852380D01*
X142647619Y-143185714D02*
X142266666Y-143566666D01*
X144266666Y-143804761D02*
X144171428Y-143852380D01*
X143980952Y-143852380D01*
X143885714Y-143804761D01*
X143838095Y-143757142D01*
X143790476Y-143661904D01*
X143790476Y-143376190D01*
X143838095Y-143280952D01*
X143885714Y-143233333D01*
X143980952Y-143185714D01*
X144171428Y-143185714D01*
X144266666Y-143233333D01*
X144838095Y-143852380D02*
X144742857Y-143804761D01*
X144695238Y-143757142D01*
X144647619Y-143661904D01*
X144647619Y-143376190D01*
X144695238Y-143280952D01*
X144742857Y-143233333D01*
X144838095Y-143185714D01*
X144980952Y-143185714D01*
X145076190Y-143233333D01*
X145123809Y-143280952D01*
X145171428Y-143376190D01*
X145171428Y-143661904D01*
X145123809Y-143757142D01*
X145076190Y-143804761D01*
X144980952Y-143852380D01*
X144838095Y-143852380D01*
X145600000Y-143185714D02*
X145600000Y-143852380D01*
X145600000Y-143280952D02*
X145647619Y-143233333D01*
X145742857Y-143185714D01*
X145885714Y-143185714D01*
X145980952Y-143233333D01*
X146028571Y-143328571D01*
X146028571Y-143852380D01*
X146504761Y-143185714D02*
X146504761Y-143852380D01*
X146504761Y-143280952D02*
X146552380Y-143233333D01*
X146647619Y-143185714D01*
X146790476Y-143185714D01*
X146885714Y-143233333D01*
X146933333Y-143328571D01*
X146933333Y-143852380D01*
X147790476Y-143804761D02*
X147695238Y-143852380D01*
X147504761Y-143852380D01*
X147409523Y-143804761D01*
X147361904Y-143709523D01*
X147361904Y-143328571D01*
X147409523Y-143233333D01*
X147504761Y-143185714D01*
X147695238Y-143185714D01*
X147790476Y-143233333D01*
X147838095Y-143328571D01*
X147838095Y-143423809D01*
X147361904Y-143519047D01*
X148695238Y-143804761D02*
X148600000Y-143852380D01*
X148409523Y-143852380D01*
X148314285Y-143804761D01*
X148266666Y-143757142D01*
X148219047Y-143661904D01*
X148219047Y-143376190D01*
X148266666Y-143280952D01*
X148314285Y-143233333D01*
X148409523Y-143185714D01*
X148600000Y-143185714D01*
X148695238Y-143233333D01*
X148980952Y-143185714D02*
X149361904Y-143185714D01*
X149123809Y-142852380D02*
X149123809Y-143709523D01*
X149171428Y-143804761D01*
X149266666Y-143852380D01*
X149361904Y-143852380D01*
X149838095Y-143852380D02*
X149742857Y-143804761D01*
X149695238Y-143757142D01*
X149647619Y-143661904D01*
X149647619Y-143376190D01*
X149695238Y-143280952D01*
X149742857Y-143233333D01*
X149838095Y-143185714D01*
X149980952Y-143185714D01*
X150076190Y-143233333D01*
X150123809Y-143280952D01*
X150171428Y-143376190D01*
X150171428Y-143661904D01*
X150123809Y-143757142D01*
X150076190Y-143804761D01*
X149980952Y-143852380D01*
X149838095Y-143852380D01*
X150600000Y-143852380D02*
X150600000Y-143185714D01*
X150600000Y-143376190D02*
X150647619Y-143280952D01*
X150695238Y-143233333D01*
X150790476Y-143185714D01*
X150885714Y-143185714D01*
D11*
X87300000Y-146300000D02*
X87300000Y-144600000D01*
X85900000Y-146300000D02*
X88700000Y-146300000D01*
X89800000Y-144600000D02*
X89300000Y-145600000D01*
X90300000Y-145600000D02*
X89800000Y-144600000D01*
X84700000Y-144600000D02*
X84200000Y-145600000D01*
X85200000Y-145600000D02*
X84700000Y-144600000D01*
X89300000Y-145600000D02*
X94000000Y-145600000D01*
X79200000Y-145600000D02*
X85200000Y-145600000D01*
D10*
X86538095Y-146700000D02*
X86442857Y-146652380D01*
X86300000Y-146652380D01*
X86157142Y-146700000D01*
X86061904Y-146795238D01*
X86014285Y-146890476D01*
X85966666Y-147080952D01*
X85966666Y-147223809D01*
X86014285Y-147414285D01*
X86061904Y-147509523D01*
X86157142Y-147604761D01*
X86300000Y-147652380D01*
X86395238Y-147652380D01*
X86538095Y-147604761D01*
X86585714Y-147557142D01*
X86585714Y-147223809D01*
X86395238Y-147223809D01*
X87014285Y-147652380D02*
X87014285Y-146652380D01*
X87585714Y-147652380D01*
X87585714Y-146652380D01*
X88061904Y-147652380D02*
X88061904Y-146652380D01*
X88300000Y-146652380D01*
X88442857Y-146700000D01*
X88538095Y-146795238D01*
X88585714Y-146890476D01*
X88633333Y-147080952D01*
X88633333Y-147223809D01*
X88585714Y-147414285D01*
X88538095Y-147509523D01*
X88442857Y-147604761D01*
X88300000Y-147652380D01*
X88061904Y-147652380D01*
X89342857Y-145952380D02*
X89914285Y-145952380D01*
X89628571Y-146952380D02*
X89628571Y-145952380D01*
X90200000Y-146666666D02*
X90676190Y-146666666D01*
X90104761Y-146952380D02*
X90438095Y-145952380D01*
X90771428Y-146952380D01*
X91104761Y-146952380D02*
X91104761Y-145952380D01*
X91485714Y-145952380D01*
X91580952Y-146000000D01*
X91628571Y-146047619D01*
X91676190Y-146142857D01*
X91676190Y-146285714D01*
X91628571Y-146380952D01*
X91580952Y-146428571D01*
X91485714Y-146476190D01*
X91104761Y-146476190D01*
X92866666Y-146952380D02*
X92866666Y-145952380D01*
X93342857Y-146952380D02*
X93342857Y-145952380D01*
X93914285Y-146952380D01*
X93914285Y-145952380D01*
X79176190Y-145952380D02*
X79747619Y-145952380D01*
X79461904Y-146952380D02*
X79461904Y-145952380D01*
X80033333Y-146666666D02*
X80509523Y-146666666D01*
X79938095Y-146952380D02*
X80271428Y-145952380D01*
X80604761Y-146952380D01*
X80938095Y-146952380D02*
X80938095Y-145952380D01*
X81319047Y-145952380D01*
X81414285Y-146000000D01*
X81461904Y-146047619D01*
X81509523Y-146142857D01*
X81509523Y-146285714D01*
X81461904Y-146380952D01*
X81414285Y-146428571D01*
X81319047Y-146476190D01*
X80938095Y-146476190D01*
X82890476Y-145952380D02*
X83080952Y-145952380D01*
X83176190Y-146000000D01*
X83271428Y-146095238D01*
X83319047Y-146285714D01*
X83319047Y-146619047D01*
X83271428Y-146809523D01*
X83176190Y-146904761D01*
X83080952Y-146952380D01*
X82890476Y-146952380D01*
X82795238Y-146904761D01*
X82700000Y-146809523D01*
X82652380Y-146619047D01*
X82652380Y-146285714D01*
X82700000Y-146095238D01*
X82795238Y-146000000D01*
X82890476Y-145952380D01*
X83747619Y-145952380D02*
X83747619Y-146761904D01*
X83795238Y-146857142D01*
X83842857Y-146904761D01*
X83938095Y-146952380D01*
X84128571Y-146952380D01*
X84223809Y-146904761D01*
X84271428Y-146857142D01*
X84319047Y-146761904D01*
X84319047Y-145952380D01*
X84652380Y-145952380D02*
X85223809Y-145952380D01*
X84938095Y-146952380D02*
X84938095Y-145952380D01*
X186109523Y-137952380D02*
X185776190Y-137476190D01*
X185538095Y-137952380D02*
X185538095Y-136952380D01*
X185919047Y-136952380D01*
X186014285Y-137000000D01*
X186061904Y-137047619D01*
X186109523Y-137142857D01*
X186109523Y-137285714D01*
X186061904Y-137380952D01*
X186014285Y-137428571D01*
X185919047Y-137476190D01*
X185538095Y-137476190D01*
X186109523Y-132852380D02*
X185633333Y-132852380D01*
X185633333Y-131852380D01*
D11*
X154000000Y-122900000D02*
X152700000Y-124200000D01*
X161400000Y-122900000D02*
X154000000Y-122900000D01*
X161400000Y-120700000D02*
X161400000Y-122900000D01*
X142500000Y-120700000D02*
X161400000Y-120700000D01*
X141100000Y-119300000D02*
X142500000Y-120700000D01*
X132100000Y-119300000D02*
X141100000Y-119300000D01*
X130700000Y-120700000D02*
X132100000Y-119300000D01*
X111800000Y-120700000D02*
X130700000Y-120700000D01*
X111800000Y-122900000D02*
X111800000Y-120700000D01*
X119300000Y-122900000D02*
X111800000Y-122900000D01*
X120600000Y-124200000D02*
X119300000Y-122900000D01*
X120600000Y-124200000D02*
X152600000Y-124200000D01*
D10*
X132266666Y-119935714D02*
X132790476Y-119935714D01*
X132266666Y-120602380D01*
X132790476Y-120602380D01*
X133076190Y-120602380D02*
X133600000Y-119935714D01*
X133076190Y-119935714D02*
X133600000Y-120602380D01*
X133980952Y-120602380D02*
X133980952Y-119602380D01*
X134076190Y-120221428D02*
X134361904Y-120602380D01*
X134361904Y-119935714D02*
X133980952Y-120316666D01*
X134790476Y-120602380D02*
X134790476Y-119602380D01*
X134790476Y-119983333D02*
X134885714Y-119935714D01*
X135076190Y-119935714D01*
X135171428Y-119983333D01*
X135219047Y-120030952D01*
X135266666Y-120126190D01*
X135266666Y-120411904D01*
X135219047Y-120507142D01*
X135171428Y-120554761D01*
X135076190Y-120602380D01*
X134885714Y-120602380D01*
X134790476Y-120554761D01*
X136123809Y-120602380D02*
X136123809Y-119602380D01*
X136123809Y-120554761D02*
X136028571Y-120602380D01*
X135838095Y-120602380D01*
X135742857Y-120554761D01*
X135695238Y-120507142D01*
X135647619Y-120411904D01*
X135647619Y-120126190D01*
X135695238Y-120030952D01*
X135742857Y-119983333D01*
X135838095Y-119935714D01*
X136028571Y-119935714D01*
X136123809Y-119983333D01*
X137361904Y-120602380D02*
X137361904Y-119935714D01*
X137361904Y-120126190D02*
X137409523Y-120030952D01*
X137457142Y-119983333D01*
X137552380Y-119935714D01*
X137647619Y-119935714D01*
X138361904Y-120554761D02*
X138266666Y-120602380D01*
X138076190Y-120602380D01*
X137980952Y-120554761D01*
X137933333Y-120459523D01*
X137933333Y-120078571D01*
X137980952Y-119983333D01*
X138076190Y-119935714D01*
X138266666Y-119935714D01*
X138361904Y-119983333D01*
X138409523Y-120078571D01*
X138409523Y-120173809D01*
X137933333Y-120269047D01*
X138742857Y-119935714D02*
X138980952Y-120602380D01*
X139219047Y-119935714D01*
X140885714Y-120602380D02*
X140314285Y-120602380D01*
X140600000Y-120602380D02*
X140600000Y-119602380D01*
X140504761Y-119745238D01*
X140409523Y-119840476D01*
X140314285Y-119888095D01*
X113100000Y-122157142D02*
X113052380Y-122204761D01*
X112909523Y-122252380D01*
X112814285Y-122252380D01*
X112671428Y-122204761D01*
X112576190Y-122109523D01*
X112528571Y-122014285D01*
X112480952Y-121823809D01*
X112480952Y-121680952D01*
X112528571Y-121490476D01*
X112576190Y-121395238D01*
X112671428Y-121300000D01*
X112814285Y-121252380D01*
X112909523Y-121252380D01*
X113052380Y-121300000D01*
X113100000Y-121347619D01*
X113671428Y-122252380D02*
X113576190Y-122204761D01*
X113528571Y-122157142D01*
X113480952Y-122061904D01*
X113480952Y-121776190D01*
X113528571Y-121680952D01*
X113576190Y-121633333D01*
X113671428Y-121585714D01*
X113814285Y-121585714D01*
X113909523Y-121633333D01*
X113957142Y-121680952D01*
X114004761Y-121776190D01*
X114004761Y-122061904D01*
X113957142Y-122157142D01*
X113909523Y-122204761D01*
X113814285Y-122252380D01*
X113671428Y-122252380D01*
X114433333Y-121585714D02*
X114433333Y-122585714D01*
X114433333Y-121633333D02*
X114528571Y-121585714D01*
X114719047Y-121585714D01*
X114814285Y-121633333D01*
X114861904Y-121680952D01*
X114909523Y-121776190D01*
X114909523Y-122061904D01*
X114861904Y-122157142D01*
X114814285Y-122204761D01*
X114719047Y-122252380D01*
X114528571Y-122252380D01*
X114433333Y-122204761D01*
X115242857Y-121585714D02*
X115480952Y-122252380D01*
X115719047Y-121585714D02*
X115480952Y-122252380D01*
X115385714Y-122490476D01*
X115338095Y-122538095D01*
X115242857Y-122585714D01*
X116100000Y-122252380D02*
X116100000Y-121585714D01*
X116100000Y-121776190D02*
X116147619Y-121680952D01*
X116195238Y-121633333D01*
X116290476Y-121585714D01*
X116385714Y-121585714D01*
X116719047Y-122252380D02*
X116719047Y-121585714D01*
X116719047Y-121252380D02*
X116671428Y-121300000D01*
X116719047Y-121347619D01*
X116766666Y-121300000D01*
X116719047Y-121252380D01*
X116719047Y-121347619D01*
X117623809Y-121585714D02*
X117623809Y-122395238D01*
X117576190Y-122490476D01*
X117528571Y-122538095D01*
X117433333Y-122585714D01*
X117290476Y-122585714D01*
X117195238Y-122538095D01*
X117623809Y-122204761D02*
X117528571Y-122252380D01*
X117338095Y-122252380D01*
X117242857Y-122204761D01*
X117195238Y-122157142D01*
X117147619Y-122061904D01*
X117147619Y-121776190D01*
X117195238Y-121680952D01*
X117242857Y-121633333D01*
X117338095Y-121585714D01*
X117528571Y-121585714D01*
X117623809Y-121633333D01*
X118100000Y-122252380D02*
X118100000Y-121252380D01*
X118528571Y-122252380D02*
X118528571Y-121728571D01*
X118480952Y-121633333D01*
X118385714Y-121585714D01*
X118242857Y-121585714D01*
X118147619Y-121633333D01*
X118100000Y-121680952D01*
X118861904Y-121585714D02*
X119242857Y-121585714D01*
X119004761Y-121252380D02*
X119004761Y-122109523D01*
X119052380Y-122204761D01*
X119147619Y-122252380D01*
X119242857Y-122252380D01*
X121147619Y-121490476D02*
X121052380Y-121442857D01*
X120861904Y-121442857D01*
X120766666Y-121490476D01*
X120671428Y-121585714D01*
X120623809Y-121680952D01*
X120623809Y-121871428D01*
X120671428Y-121966666D01*
X120766666Y-122061904D01*
X120861904Y-122109523D01*
X121052380Y-122109523D01*
X121147619Y-122061904D01*
X120957142Y-121109523D02*
X120719047Y-121157142D01*
X120480952Y-121300000D01*
X120338095Y-121538095D01*
X120290476Y-121776190D01*
X120338095Y-122014285D01*
X120480952Y-122252380D01*
X120719047Y-122395238D01*
X120957142Y-122442857D01*
X121195238Y-122395238D01*
X121433333Y-122252380D01*
X121576190Y-122014285D01*
X121623809Y-121776190D01*
X121576190Y-121538095D01*
X121433333Y-121300000D01*
X121195238Y-121157142D01*
X120957142Y-121109523D01*
X122766666Y-121347619D02*
X122814285Y-121300000D01*
X122909523Y-121252380D01*
X123147619Y-121252380D01*
X123242857Y-121300000D01*
X123290476Y-121347619D01*
X123338095Y-121442857D01*
X123338095Y-121538095D01*
X123290476Y-121680952D01*
X122719047Y-122252380D01*
X123338095Y-122252380D01*
X123957142Y-121252380D02*
X124052380Y-121252380D01*
X124147619Y-121300000D01*
X124195238Y-121347619D01*
X124242857Y-121442857D01*
X124290476Y-121633333D01*
X124290476Y-121871428D01*
X124242857Y-122061904D01*
X124195238Y-122157142D01*
X124147619Y-122204761D01*
X124052380Y-122252380D01*
X123957142Y-122252380D01*
X123861904Y-122204761D01*
X123814285Y-122157142D01*
X123766666Y-122061904D01*
X123719047Y-121871428D01*
X123719047Y-121633333D01*
X123766666Y-121442857D01*
X123814285Y-121347619D01*
X123861904Y-121300000D01*
X123957142Y-121252380D01*
X124671428Y-121347619D02*
X124719047Y-121300000D01*
X124814285Y-121252380D01*
X125052380Y-121252380D01*
X125147619Y-121300000D01*
X125195238Y-121347619D01*
X125242857Y-121442857D01*
X125242857Y-121538095D01*
X125195238Y-121680952D01*
X124623809Y-122252380D01*
X125242857Y-122252380D01*
X125861904Y-121252380D02*
X125957142Y-121252380D01*
X126052380Y-121300000D01*
X126100000Y-121347619D01*
X126147619Y-121442857D01*
X126195238Y-121633333D01*
X126195238Y-121871428D01*
X126147619Y-122061904D01*
X126100000Y-122157142D01*
X126052380Y-122204761D01*
X125957142Y-122252380D01*
X125861904Y-122252380D01*
X125766666Y-122204761D01*
X125719047Y-122157142D01*
X125671428Y-122061904D01*
X125623809Y-121871428D01*
X125623809Y-121633333D01*
X125671428Y-121442857D01*
X125719047Y-121347619D01*
X125766666Y-121300000D01*
X125861904Y-121252380D01*
X127671428Y-121252380D02*
X127671428Y-121966666D01*
X127623809Y-122109523D01*
X127528571Y-122204761D01*
X127385714Y-122252380D01*
X127290476Y-122252380D01*
X128290476Y-122252380D02*
X128195238Y-122204761D01*
X128147619Y-122157142D01*
X128100000Y-122061904D01*
X128100000Y-121776190D01*
X128147619Y-121680952D01*
X128195238Y-121633333D01*
X128290476Y-121585714D01*
X128433333Y-121585714D01*
X128528571Y-121633333D01*
X128576190Y-121680952D01*
X128623809Y-121776190D01*
X128623809Y-122061904D01*
X128576190Y-122157142D01*
X128528571Y-122204761D01*
X128433333Y-122252380D01*
X128290476Y-122252380D01*
X129052380Y-122252380D02*
X129052380Y-121252380D01*
X129480952Y-122252380D02*
X129480952Y-121728571D01*
X129433333Y-121633333D01*
X129338095Y-121585714D01*
X129195238Y-121585714D01*
X129100000Y-121633333D01*
X129052380Y-121680952D01*
X129957142Y-121585714D02*
X129957142Y-122252380D01*
X129957142Y-121680952D02*
X130004761Y-121633333D01*
X130100000Y-121585714D01*
X130242857Y-121585714D01*
X130338095Y-121633333D01*
X130385714Y-121728571D01*
X130385714Y-122252380D01*
X131480952Y-121252380D02*
X132052380Y-121252380D01*
X131766666Y-122252380D02*
X131766666Y-121252380D01*
X132338095Y-122204761D02*
X132433333Y-122252380D01*
X132623809Y-122252380D01*
X132719047Y-122204761D01*
X132766666Y-122109523D01*
X132766666Y-122061904D01*
X132719047Y-121966666D01*
X132623809Y-121919047D01*
X132480952Y-121919047D01*
X132385714Y-121871428D01*
X132338095Y-121776190D01*
X132338095Y-121728571D01*
X132385714Y-121633333D01*
X132480952Y-121585714D01*
X132623809Y-121585714D01*
X132719047Y-121633333D01*
X133195238Y-122252380D02*
X133195238Y-121585714D01*
X133195238Y-121252380D02*
X133147619Y-121300000D01*
X133195238Y-121347619D01*
X133242857Y-121300000D01*
X133195238Y-121252380D01*
X133195238Y-121347619D01*
X133814285Y-122252380D02*
X133719047Y-122204761D01*
X133671428Y-122157142D01*
X133623809Y-122061904D01*
X133623809Y-121776190D01*
X133671428Y-121680952D01*
X133719047Y-121633333D01*
X133814285Y-121585714D01*
X133957142Y-121585714D01*
X134052380Y-121633333D01*
X134100000Y-121680952D01*
X134147619Y-121776190D01*
X134147619Y-122061904D01*
X134100000Y-122157142D01*
X134052380Y-122204761D01*
X133957142Y-122252380D01*
X133814285Y-122252380D01*
X134576190Y-122252380D02*
X134576190Y-121585714D01*
X134576190Y-121680952D02*
X134623809Y-121633333D01*
X134719047Y-121585714D01*
X134861904Y-121585714D01*
X134957142Y-121633333D01*
X135004761Y-121728571D01*
X135004761Y-122252380D01*
X135004761Y-121728571D02*
X135052380Y-121633333D01*
X135147619Y-121585714D01*
X135290476Y-121585714D01*
X135385714Y-121633333D01*
X135433333Y-121728571D01*
X135433333Y-122252380D01*
X135909523Y-122252380D02*
X135909523Y-121252380D01*
X135909523Y-121633333D02*
X136004761Y-121585714D01*
X136195238Y-121585714D01*
X136290476Y-121633333D01*
X136338095Y-121680952D01*
X136385714Y-121776190D01*
X136385714Y-122061904D01*
X136338095Y-122157142D01*
X136290476Y-122204761D01*
X136195238Y-122252380D01*
X136004761Y-122252380D01*
X135909523Y-122204761D01*
X136814285Y-122252380D02*
X136814285Y-121585714D01*
X136814285Y-121252380D02*
X136766666Y-121300000D01*
X136814285Y-121347619D01*
X136861904Y-121300000D01*
X136814285Y-121252380D01*
X136814285Y-121347619D01*
X137290476Y-122252380D02*
X137290476Y-121252380D01*
X137385714Y-121871428D02*
X137671428Y-122252380D01*
X137671428Y-121585714D02*
X137290476Y-121966666D01*
X138528571Y-122252380D02*
X138528571Y-121728571D01*
X138480952Y-121633333D01*
X138385714Y-121585714D01*
X138195238Y-121585714D01*
X138100000Y-121633333D01*
X138528571Y-122204761D02*
X138433333Y-122252380D01*
X138195238Y-122252380D01*
X138100000Y-122204761D01*
X138052380Y-122109523D01*
X138052380Y-122014285D01*
X138100000Y-121919047D01*
X138195238Y-121871428D01*
X138433333Y-121871428D01*
X138528571Y-121823809D01*
X138957142Y-122204761D02*
X139052380Y-122252380D01*
X139242857Y-122252380D01*
X139338095Y-122204761D01*
X139385714Y-122109523D01*
X139385714Y-122061904D01*
X139338095Y-121966666D01*
X139242857Y-121919047D01*
X139100000Y-121919047D01*
X139004761Y-121871428D01*
X138957142Y-121776190D01*
X138957142Y-121728571D01*
X139004761Y-121633333D01*
X139100000Y-121585714D01*
X139242857Y-121585714D01*
X139338095Y-121633333D01*
X141338095Y-121585714D02*
X140576190Y-121871428D01*
X141338095Y-122157142D01*
X141814285Y-121585714D02*
X141814285Y-122252380D01*
X141814285Y-121680952D02*
X141861904Y-121633333D01*
X141957142Y-121585714D01*
X142100000Y-121585714D01*
X142195238Y-121633333D01*
X142242857Y-121728571D01*
X142242857Y-122252380D01*
X143147619Y-121585714D02*
X143147619Y-122252380D01*
X142719047Y-121585714D02*
X142719047Y-122109523D01*
X142766666Y-122204761D01*
X142861904Y-122252380D01*
X143004761Y-122252380D01*
X143100000Y-122204761D01*
X143147619Y-122157142D01*
X144052380Y-122204761D02*
X143957142Y-122252380D01*
X143766666Y-122252380D01*
X143671428Y-122204761D01*
X143623809Y-122157142D01*
X143576190Y-122061904D01*
X143576190Y-121776190D01*
X143623809Y-121680952D01*
X143671428Y-121633333D01*
X143766666Y-121585714D01*
X143957142Y-121585714D01*
X144052380Y-121633333D01*
X144623809Y-122252380D02*
X144528571Y-122204761D01*
X144480952Y-122109523D01*
X144480952Y-121252380D01*
X145385714Y-122204761D02*
X145290476Y-122252380D01*
X145100000Y-122252380D01*
X145004761Y-122204761D01*
X144957142Y-122109523D01*
X144957142Y-121728571D01*
X145004761Y-121633333D01*
X145100000Y-121585714D01*
X145290476Y-121585714D01*
X145385714Y-121633333D01*
X145433333Y-121728571D01*
X145433333Y-121823809D01*
X144957142Y-121919047D01*
X146290476Y-122252380D02*
X146290476Y-121728571D01*
X146242857Y-121633333D01*
X146147619Y-121585714D01*
X145957142Y-121585714D01*
X145861904Y-121633333D01*
X146290476Y-122204761D02*
X146195238Y-122252380D01*
X145957142Y-122252380D01*
X145861904Y-122204761D01*
X145814285Y-122109523D01*
X145814285Y-122014285D01*
X145861904Y-121919047D01*
X145957142Y-121871428D01*
X146195238Y-121871428D01*
X146290476Y-121823809D01*
X146766666Y-122252380D02*
X146766666Y-121585714D01*
X146766666Y-121776190D02*
X146814285Y-121680952D01*
X146861904Y-121633333D01*
X146957142Y-121585714D01*
X147052380Y-121585714D01*
X148004761Y-121776190D02*
X147957142Y-121728571D01*
X147861904Y-121680952D01*
X147766666Y-121680952D01*
X147671428Y-121728571D01*
X147623809Y-121776190D01*
X147576190Y-121871428D01*
X147576190Y-121966666D01*
X147623809Y-122061904D01*
X147671428Y-122109523D01*
X147766666Y-122157142D01*
X147861904Y-122157142D01*
X147957142Y-122109523D01*
X148004761Y-122061904D01*
X148004761Y-121680952D02*
X148004761Y-122061904D01*
X148052380Y-122109523D01*
X148100000Y-122109523D01*
X148195238Y-122061904D01*
X148242857Y-121966666D01*
X148242857Y-121728571D01*
X148147619Y-121585714D01*
X148004761Y-121490476D01*
X147814285Y-121442857D01*
X147623809Y-121490476D01*
X147480952Y-121585714D01*
X147385714Y-121728571D01*
X147338095Y-121919047D01*
X147385714Y-122109523D01*
X147480952Y-122252380D01*
X147623809Y-122347619D01*
X147814285Y-122395238D01*
X148004761Y-122347619D01*
X148147619Y-122252380D01*
X148671428Y-122252380D02*
X148671428Y-121585714D01*
X148671428Y-121680952D02*
X148719047Y-121633333D01*
X148814285Y-121585714D01*
X148957142Y-121585714D01*
X149052380Y-121633333D01*
X149100000Y-121728571D01*
X149100000Y-122252380D01*
X149100000Y-121728571D02*
X149147619Y-121633333D01*
X149242857Y-121585714D01*
X149385714Y-121585714D01*
X149480952Y-121633333D01*
X149528571Y-121728571D01*
X149528571Y-122252380D01*
X150385714Y-122204761D02*
X150290476Y-122252380D01*
X150100000Y-122252380D01*
X150004761Y-122204761D01*
X149957142Y-122109523D01*
X149957142Y-121728571D01*
X150004761Y-121633333D01*
X150100000Y-121585714D01*
X150290476Y-121585714D01*
X150385714Y-121633333D01*
X150433333Y-121728571D01*
X150433333Y-121823809D01*
X149957142Y-121919047D01*
X150861904Y-122252380D02*
X150861904Y-121585714D01*
X150861904Y-121680952D02*
X150909523Y-121633333D01*
X151004761Y-121585714D01*
X151147619Y-121585714D01*
X151242857Y-121633333D01*
X151290476Y-121728571D01*
X151290476Y-122252380D01*
X151290476Y-121728571D02*
X151338095Y-121633333D01*
X151433333Y-121585714D01*
X151576190Y-121585714D01*
X151671428Y-121633333D01*
X151719047Y-121728571D01*
X151719047Y-122252380D01*
X152195238Y-122252380D02*
X152195238Y-121252380D01*
X152195238Y-121633333D02*
X152290476Y-121585714D01*
X152480952Y-121585714D01*
X152576190Y-121633333D01*
X152623809Y-121680952D01*
X152671428Y-121776190D01*
X152671428Y-122061904D01*
X152623809Y-122157142D01*
X152576190Y-122204761D01*
X152480952Y-122252380D01*
X152290476Y-122252380D01*
X152195238Y-122204761D01*
X153480952Y-122204761D02*
X153385714Y-122252380D01*
X153195238Y-122252380D01*
X153100000Y-122204761D01*
X153052380Y-122109523D01*
X153052380Y-121728571D01*
X153100000Y-121633333D01*
X153195238Y-121585714D01*
X153385714Y-121585714D01*
X153480952Y-121633333D01*
X153528571Y-121728571D01*
X153528571Y-121823809D01*
X153052380Y-121919047D01*
X153957142Y-122252380D02*
X153957142Y-121585714D01*
X153957142Y-121776190D02*
X154004761Y-121680952D01*
X154052380Y-121633333D01*
X154147619Y-121585714D01*
X154242857Y-121585714D01*
X154576190Y-122157142D02*
X154623809Y-122204761D01*
X154576190Y-122252380D01*
X154528571Y-122204761D01*
X154576190Y-122157142D01*
X154576190Y-122252380D01*
X154909523Y-121585714D02*
X155290476Y-121585714D01*
X155052380Y-122252380D02*
X155052380Y-121395238D01*
X155100000Y-121300000D01*
X155195238Y-121252380D01*
X155290476Y-121252380D01*
X155576190Y-122204761D02*
X155671428Y-122252380D01*
X155861904Y-122252380D01*
X155957142Y-122204761D01*
X156004761Y-122109523D01*
X156004761Y-122061904D01*
X155957142Y-121966666D01*
X155861904Y-121919047D01*
X155719047Y-121919047D01*
X155623809Y-121871428D01*
X155576190Y-121776190D01*
X155576190Y-121728571D01*
X155623809Y-121633333D01*
X155719047Y-121585714D01*
X155861904Y-121585714D01*
X155957142Y-121633333D01*
X156290476Y-121585714D02*
X156671428Y-121585714D01*
X156433333Y-122252380D02*
X156433333Y-121395238D01*
X156480952Y-121300000D01*
X156576190Y-121252380D01*
X156671428Y-121252380D01*
X157004761Y-122157142D02*
X157052380Y-122204761D01*
X157004761Y-122252380D01*
X156957142Y-122204761D01*
X157004761Y-122157142D01*
X157004761Y-122252380D01*
X157623809Y-122252380D02*
X157528571Y-122204761D01*
X157480952Y-122157142D01*
X157433333Y-122061904D01*
X157433333Y-121776190D01*
X157480952Y-121680952D01*
X157528571Y-121633333D01*
X157623809Y-121585714D01*
X157766666Y-121585714D01*
X157861904Y-121633333D01*
X157909523Y-121680952D01*
X157957142Y-121776190D01*
X157957142Y-122061904D01*
X157909523Y-122157142D01*
X157861904Y-122204761D01*
X157766666Y-122252380D01*
X157623809Y-122252380D01*
X158385714Y-122252380D02*
X158385714Y-121585714D01*
X158385714Y-121776190D02*
X158433333Y-121680952D01*
X158480952Y-121633333D01*
X158576190Y-121585714D01*
X158671428Y-121585714D01*
X159433333Y-121585714D02*
X159433333Y-122395238D01*
X159385714Y-122490476D01*
X159338095Y-122538095D01*
X159242857Y-122585714D01*
X159100000Y-122585714D01*
X159004761Y-122538095D01*
X159433333Y-122204761D02*
X159338095Y-122252380D01*
X159147619Y-122252380D01*
X159052380Y-122204761D01*
X159004761Y-122157142D01*
X158957142Y-122061904D01*
X158957142Y-121776190D01*
X159004761Y-121680952D01*
X159052380Y-121633333D01*
X159147619Y-121585714D01*
X159338095Y-121585714D01*
X159433333Y-121633333D01*
X159909523Y-121585714D02*
X160671428Y-121871428D01*
X159909523Y-122157142D01*
X121266666Y-123807142D02*
X121219047Y-123854761D01*
X121076190Y-123902380D01*
X120980952Y-123902380D01*
X120838095Y-123854761D01*
X120742857Y-123759523D01*
X120695238Y-123664285D01*
X120647619Y-123473809D01*
X120647619Y-123330952D01*
X120695238Y-123140476D01*
X120742857Y-123045238D01*
X120838095Y-122950000D01*
X120980952Y-122902380D01*
X121076190Y-122902380D01*
X121219047Y-122950000D01*
X121266666Y-122997619D01*
X121695238Y-123902380D02*
X121695238Y-123235714D01*
X121695238Y-123426190D02*
X121742857Y-123330952D01*
X121790476Y-123283333D01*
X121885714Y-123235714D01*
X121980952Y-123235714D01*
X122695238Y-123854761D02*
X122600000Y-123902380D01*
X122409523Y-123902380D01*
X122314285Y-123854761D01*
X122266666Y-123759523D01*
X122266666Y-123378571D01*
X122314285Y-123283333D01*
X122409523Y-123235714D01*
X122600000Y-123235714D01*
X122695238Y-123283333D01*
X122742857Y-123378571D01*
X122742857Y-123473809D01*
X122266666Y-123569047D01*
X123600000Y-123902380D02*
X123600000Y-123378571D01*
X123552380Y-123283333D01*
X123457142Y-123235714D01*
X123266666Y-123235714D01*
X123171428Y-123283333D01*
X123600000Y-123854761D02*
X123504761Y-123902380D01*
X123266666Y-123902380D01*
X123171428Y-123854761D01*
X123123809Y-123759523D01*
X123123809Y-123664285D01*
X123171428Y-123569047D01*
X123266666Y-123521428D01*
X123504761Y-123521428D01*
X123600000Y-123473809D01*
X123933333Y-123235714D02*
X124314285Y-123235714D01*
X124076190Y-122902380D02*
X124076190Y-123759523D01*
X124123809Y-123854761D01*
X124219047Y-123902380D01*
X124314285Y-123902380D01*
X124647619Y-123902380D02*
X124647619Y-123235714D01*
X124647619Y-122902380D02*
X124600000Y-122950000D01*
X124647619Y-122997619D01*
X124695238Y-122950000D01*
X124647619Y-122902380D01*
X124647619Y-122997619D01*
X125028571Y-123235714D02*
X125266666Y-123902380D01*
X125504761Y-123235714D01*
X126266666Y-123854761D02*
X126171428Y-123902380D01*
X125980952Y-123902380D01*
X125885714Y-123854761D01*
X125838095Y-123759523D01*
X125838095Y-123378571D01*
X125885714Y-123283333D01*
X125980952Y-123235714D01*
X126171428Y-123235714D01*
X126266666Y-123283333D01*
X126314285Y-123378571D01*
X126314285Y-123473809D01*
X125838095Y-123569047D01*
X128076190Y-123807142D02*
X128028571Y-123854761D01*
X127885714Y-123902380D01*
X127790476Y-123902380D01*
X127647619Y-123854761D01*
X127552380Y-123759523D01*
X127504761Y-123664285D01*
X127457142Y-123473809D01*
X127457142Y-123330952D01*
X127504761Y-123140476D01*
X127552380Y-123045238D01*
X127647619Y-122950000D01*
X127790476Y-122902380D01*
X127885714Y-122902380D01*
X128028571Y-122950000D01*
X128076190Y-122997619D01*
X128647619Y-123902380D02*
X128552380Y-123854761D01*
X128504761Y-123807142D01*
X128457142Y-123711904D01*
X128457142Y-123426190D01*
X128504761Y-123330952D01*
X128552380Y-123283333D01*
X128647619Y-123235714D01*
X128790476Y-123235714D01*
X128885714Y-123283333D01*
X128933333Y-123330952D01*
X128980952Y-123426190D01*
X128980952Y-123711904D01*
X128933333Y-123807142D01*
X128885714Y-123854761D01*
X128790476Y-123902380D01*
X128647619Y-123902380D01*
X129409523Y-123902380D02*
X129409523Y-123235714D01*
X129409523Y-123330952D02*
X129457142Y-123283333D01*
X129552380Y-123235714D01*
X129695238Y-123235714D01*
X129790476Y-123283333D01*
X129838095Y-123378571D01*
X129838095Y-123902380D01*
X129838095Y-123378571D02*
X129885714Y-123283333D01*
X129980952Y-123235714D01*
X130123809Y-123235714D01*
X130219047Y-123283333D01*
X130266666Y-123378571D01*
X130266666Y-123902380D01*
X130742857Y-123902380D02*
X130742857Y-123235714D01*
X130742857Y-123330952D02*
X130790476Y-123283333D01*
X130885714Y-123235714D01*
X131028571Y-123235714D01*
X131123809Y-123283333D01*
X131171428Y-123378571D01*
X131171428Y-123902380D01*
X131171428Y-123378571D02*
X131219047Y-123283333D01*
X131314285Y-123235714D01*
X131457142Y-123235714D01*
X131552380Y-123283333D01*
X131600000Y-123378571D01*
X131600000Y-123902380D01*
X132219047Y-123902380D02*
X132123809Y-123854761D01*
X132076190Y-123807142D01*
X132028571Y-123711904D01*
X132028571Y-123426190D01*
X132076190Y-123330952D01*
X132123809Y-123283333D01*
X132219047Y-123235714D01*
X132361904Y-123235714D01*
X132457142Y-123283333D01*
X132504761Y-123330952D01*
X132552380Y-123426190D01*
X132552380Y-123711904D01*
X132504761Y-123807142D01*
X132457142Y-123854761D01*
X132361904Y-123902380D01*
X132219047Y-123902380D01*
X132980952Y-123235714D02*
X132980952Y-123902380D01*
X132980952Y-123330952D02*
X133028571Y-123283333D01*
X133123809Y-123235714D01*
X133266666Y-123235714D01*
X133361904Y-123283333D01*
X133409523Y-123378571D01*
X133409523Y-123902380D01*
X133838095Y-123854761D02*
X133933333Y-123902380D01*
X134123809Y-123902380D01*
X134219047Y-123854761D01*
X134266666Y-123759523D01*
X134266666Y-123711904D01*
X134219047Y-123616666D01*
X134123809Y-123569047D01*
X133980952Y-123569047D01*
X133885714Y-123521428D01*
X133838095Y-123426190D01*
X133838095Y-123378571D01*
X133885714Y-123283333D01*
X133980952Y-123235714D01*
X134123809Y-123235714D01*
X134219047Y-123283333D01*
X135409523Y-123616666D02*
X135885714Y-123616666D01*
X135314285Y-123902380D02*
X135647619Y-122902380D01*
X135980952Y-123902380D01*
X136171428Y-123235714D02*
X136552380Y-123235714D01*
X136314285Y-122902380D02*
X136314285Y-123759523D01*
X136361904Y-123854761D01*
X136457142Y-123902380D01*
X136552380Y-123902380D01*
X136742857Y-123235714D02*
X137123809Y-123235714D01*
X136885714Y-122902380D02*
X136885714Y-123759523D01*
X136933333Y-123854761D01*
X137028571Y-123902380D01*
X137123809Y-123902380D01*
X137457142Y-123902380D02*
X137457142Y-123235714D01*
X137457142Y-123426190D02*
X137504761Y-123330952D01*
X137552380Y-123283333D01*
X137647619Y-123235714D01*
X137742857Y-123235714D01*
X138076190Y-123902380D02*
X138076190Y-123235714D01*
X138076190Y-122902380D02*
X138028571Y-122950000D01*
X138076190Y-122997619D01*
X138123809Y-122950000D01*
X138076190Y-122902380D01*
X138076190Y-122997619D01*
X138552380Y-123902380D02*
X138552380Y-122902380D01*
X138552380Y-123283333D02*
X138647619Y-123235714D01*
X138838095Y-123235714D01*
X138933333Y-123283333D01*
X138980952Y-123330952D01*
X139028571Y-123426190D01*
X139028571Y-123711904D01*
X138980952Y-123807142D01*
X138933333Y-123854761D01*
X138838095Y-123902380D01*
X138647619Y-123902380D01*
X138552380Y-123854761D01*
X139885714Y-123235714D02*
X139885714Y-123902380D01*
X139457142Y-123235714D02*
X139457142Y-123759523D01*
X139504761Y-123854761D01*
X139600000Y-123902380D01*
X139742857Y-123902380D01*
X139838095Y-123854761D01*
X139885714Y-123807142D01*
X140219047Y-123235714D02*
X140600000Y-123235714D01*
X140361904Y-122902380D02*
X140361904Y-123759523D01*
X140409523Y-123854761D01*
X140504761Y-123902380D01*
X140600000Y-123902380D01*
X140933333Y-123902380D02*
X140933333Y-123235714D01*
X140933333Y-122902380D02*
X140885714Y-122950000D01*
X140933333Y-122997619D01*
X140980952Y-122950000D01*
X140933333Y-122902380D01*
X140933333Y-122997619D01*
X141552380Y-123902380D02*
X141457142Y-123854761D01*
X141409523Y-123807142D01*
X141361904Y-123711904D01*
X141361904Y-123426190D01*
X141409523Y-123330952D01*
X141457142Y-123283333D01*
X141552380Y-123235714D01*
X141695238Y-123235714D01*
X141790476Y-123283333D01*
X141838095Y-123330952D01*
X141885714Y-123426190D01*
X141885714Y-123711904D01*
X141838095Y-123807142D01*
X141790476Y-123854761D01*
X141695238Y-123902380D01*
X141552380Y-123902380D01*
X142314285Y-123235714D02*
X142314285Y-123902380D01*
X142314285Y-123330952D02*
X142361904Y-123283333D01*
X142457142Y-123235714D01*
X142600000Y-123235714D01*
X142695238Y-123283333D01*
X142742857Y-123378571D01*
X142742857Y-123902380D01*
X143933333Y-123854761D02*
X144076190Y-123902380D01*
X144314285Y-123902380D01*
X144409523Y-123854761D01*
X144457142Y-123807142D01*
X144504761Y-123711904D01*
X144504761Y-123616666D01*
X144457142Y-123521428D01*
X144409523Y-123473809D01*
X144314285Y-123426190D01*
X144123809Y-123378571D01*
X144028571Y-123330952D01*
X143980952Y-123283333D01*
X143933333Y-123188095D01*
X143933333Y-123092857D01*
X143980952Y-122997619D01*
X144028571Y-122950000D01*
X144123809Y-122902380D01*
X144361904Y-122902380D01*
X144504761Y-122950000D01*
X144933333Y-123902380D02*
X144933333Y-122902380D01*
X145361904Y-123902380D02*
X145361904Y-123378571D01*
X145314285Y-123283333D01*
X145219047Y-123235714D01*
X145076190Y-123235714D01*
X144980952Y-123283333D01*
X144933333Y-123330952D01*
X146266666Y-123902380D02*
X146266666Y-123378571D01*
X146219047Y-123283333D01*
X146123809Y-123235714D01*
X145933333Y-123235714D01*
X145838095Y-123283333D01*
X146266666Y-123854761D02*
X146171428Y-123902380D01*
X145933333Y-123902380D01*
X145838095Y-123854761D01*
X145790476Y-123759523D01*
X145790476Y-123664285D01*
X145838095Y-123569047D01*
X145933333Y-123521428D01*
X146171428Y-123521428D01*
X146266666Y-123473809D01*
X146742857Y-123902380D02*
X146742857Y-123235714D01*
X146742857Y-123426190D02*
X146790476Y-123330952D01*
X146838095Y-123283333D01*
X146933333Y-123235714D01*
X147028571Y-123235714D01*
X147742857Y-123854761D02*
X147647619Y-123902380D01*
X147457142Y-123902380D01*
X147361904Y-123854761D01*
X147314285Y-123759523D01*
X147314285Y-123378571D01*
X147361904Y-123283333D01*
X147457142Y-123235714D01*
X147647619Y-123235714D01*
X147742857Y-123283333D01*
X147790476Y-123378571D01*
X147790476Y-123473809D01*
X147314285Y-123569047D01*
X148219047Y-123521428D02*
X148980952Y-123521428D01*
X149409523Y-123616666D02*
X149885714Y-123616666D01*
X149314285Y-123902380D02*
X149647619Y-122902380D01*
X149980952Y-123902380D01*
X150457142Y-123902380D02*
X150361904Y-123854761D01*
X150314285Y-123759523D01*
X150314285Y-122902380D01*
X150838095Y-123902380D02*
X150838095Y-123235714D01*
X150838095Y-122902380D02*
X150790476Y-122950000D01*
X150838095Y-122997619D01*
X150885714Y-122950000D01*
X150838095Y-122902380D01*
X150838095Y-122997619D01*
X151314285Y-123902380D02*
X151314285Y-122902380D01*
X151409523Y-123521428D02*
X151695238Y-123902380D01*
X151695238Y-123235714D02*
X151314285Y-123616666D01*
X152504761Y-123854761D02*
X152409523Y-123902380D01*
X152219047Y-123902380D01*
X152123809Y-123854761D01*
X152076190Y-123759523D01*
X152076190Y-123378571D01*
X152123809Y-123283333D01*
X152219047Y-123235714D01*
X152409523Y-123235714D01*
X152504761Y-123283333D01*
X152552380Y-123378571D01*
X152552380Y-123473809D01*
X152076190Y-123569047D01*
D11*
X205400000Y-105900000D02*
X206300000Y-105000000D01*
D10*
X215914285Y-123052380D02*
X215914285Y-122052380D01*
X216295238Y-122052380D01*
X216390476Y-122100000D01*
X216438095Y-122147619D01*
X216485714Y-122242857D01*
X216485714Y-122385714D01*
X216438095Y-122480952D01*
X216390476Y-122528571D01*
X216295238Y-122576190D01*
X215914285Y-122576190D01*
X216866666Y-123004761D02*
X217009523Y-123052380D01*
X217247619Y-123052380D01*
X217342857Y-123004761D01*
X217390476Y-122957142D01*
X217438095Y-122861904D01*
X217438095Y-122766666D01*
X217390476Y-122671428D01*
X217342857Y-122623809D01*
X217247619Y-122576190D01*
X217057142Y-122528571D01*
X216961904Y-122480952D01*
X216914285Y-122433333D01*
X216866666Y-122338095D01*
X216866666Y-122242857D01*
X216914285Y-122147619D01*
X216961904Y-122100000D01*
X217057142Y-122052380D01*
X217295238Y-122052380D01*
X217438095Y-122100000D01*
X218580952Y-122004761D02*
X217723809Y-123290476D01*
X218866666Y-122147619D02*
X218914285Y-122100000D01*
X219009523Y-122052380D01*
X219247619Y-122052380D01*
X219342857Y-122100000D01*
X219390476Y-122147619D01*
X219438095Y-122242857D01*
X219438095Y-122338095D01*
X219390476Y-122480952D01*
X218819047Y-123052380D01*
X219438095Y-123052380D01*
X220628571Y-123052380D02*
X220628571Y-122052380D01*
X220723809Y-122671428D02*
X221009523Y-123052380D01*
X221009523Y-122385714D02*
X220628571Y-122766666D01*
X221819047Y-123004761D02*
X221723809Y-123052380D01*
X221533333Y-123052380D01*
X221438095Y-123004761D01*
X221390476Y-122909523D01*
X221390476Y-122528571D01*
X221438095Y-122433333D01*
X221533333Y-122385714D01*
X221723809Y-122385714D01*
X221819047Y-122433333D01*
X221866666Y-122528571D01*
X221866666Y-122623809D01*
X221390476Y-122719047D01*
X222200000Y-122385714D02*
X222438095Y-123052380D01*
X222676190Y-122385714D02*
X222438095Y-123052380D01*
X222342857Y-123290476D01*
X222295238Y-123338095D01*
X222200000Y-123385714D01*
X223057142Y-123052380D02*
X223057142Y-122052380D01*
X223057142Y-122433333D02*
X223152380Y-122385714D01*
X223342857Y-122385714D01*
X223438095Y-122433333D01*
X223485714Y-122480952D01*
X223533333Y-122576190D01*
X223533333Y-122861904D01*
X223485714Y-122957142D01*
X223438095Y-123004761D01*
X223342857Y-123052380D01*
X223152380Y-123052380D01*
X223057142Y-123004761D01*
D11*
X209600000Y-105000000D02*
X209600000Y-113400000D01*
X205400000Y-113400000D02*
X205400000Y-105000000D01*
X213800000Y-113400000D02*
X205400000Y-113400000D01*
X213800000Y-105000000D02*
X213800000Y-113400000D01*
X205400000Y-105000000D02*
X213800000Y-105000000D01*
D10*
X210466666Y-105452380D02*
X210800000Y-106452380D01*
X211133333Y-105452380D01*
X212038095Y-106357142D02*
X211990476Y-106404761D01*
X211847619Y-106452380D01*
X211752380Y-106452380D01*
X211609523Y-106404761D01*
X211514285Y-106309523D01*
X211466666Y-106214285D01*
X211419047Y-106023809D01*
X211419047Y-105880952D01*
X211466666Y-105690476D01*
X211514285Y-105595238D01*
X211609523Y-105500000D01*
X211752380Y-105452380D01*
X211847619Y-105452380D01*
X211990476Y-105500000D01*
X212038095Y-105547619D01*
X213038095Y-106357142D02*
X212990476Y-106404761D01*
X212847619Y-106452380D01*
X212752380Y-106452380D01*
X212609523Y-106404761D01*
X212514285Y-106309523D01*
X212466666Y-106214285D01*
X212419047Y-106023809D01*
X212419047Y-105880952D01*
X212466666Y-105690476D01*
X212514285Y-105595238D01*
X212609523Y-105500000D01*
X212752380Y-105452380D01*
X212847619Y-105452380D01*
X212990476Y-105500000D01*
X213038095Y-105547619D01*
X210252380Y-107816666D02*
X210728571Y-107816666D01*
X210157142Y-108102380D02*
X210490476Y-107102380D01*
X210823809Y-108102380D01*
X211157142Y-107102380D02*
X211157142Y-107911904D01*
X211204761Y-108007142D01*
X211252380Y-108054761D01*
X211347619Y-108102380D01*
X211538095Y-108102380D01*
X211633333Y-108054761D01*
X211680952Y-108007142D01*
X211728571Y-107911904D01*
X211728571Y-107102380D01*
X211966666Y-108197619D02*
X212728571Y-108197619D01*
X213442857Y-108102380D02*
X212966666Y-108102380D01*
X212966666Y-107102380D01*
X210157142Y-109466666D02*
X210633333Y-109466666D01*
X210061904Y-109752380D02*
X210395238Y-108752380D01*
X210728571Y-109752380D01*
X211061904Y-108752380D02*
X211061904Y-109561904D01*
X211109523Y-109657142D01*
X211157142Y-109704761D01*
X211252380Y-109752380D01*
X211442857Y-109752380D01*
X211538095Y-109704761D01*
X211585714Y-109657142D01*
X211633333Y-109561904D01*
X211633333Y-108752380D01*
X211871428Y-109847619D02*
X212633333Y-109847619D01*
X213442857Y-109752380D02*
X213109523Y-109276190D01*
X212871428Y-109752380D02*
X212871428Y-108752380D01*
X213252380Y-108752380D01*
X213347619Y-108800000D01*
X213395238Y-108847619D01*
X213442857Y-108942857D01*
X213442857Y-109085714D01*
X213395238Y-109180952D01*
X213347619Y-109228571D01*
X213252380Y-109276190D01*
X212871428Y-109276190D01*
X211038095Y-110450000D02*
X210942857Y-110402380D01*
X210800000Y-110402380D01*
X210657142Y-110450000D01*
X210561904Y-110545238D01*
X210514285Y-110640476D01*
X210466666Y-110830952D01*
X210466666Y-110973809D01*
X210514285Y-111164285D01*
X210561904Y-111259523D01*
X210657142Y-111354761D01*
X210800000Y-111402380D01*
X210895238Y-111402380D01*
X211038095Y-111354761D01*
X211085714Y-111307142D01*
X211085714Y-110973809D01*
X210895238Y-110973809D01*
X211514285Y-111402380D02*
X211514285Y-110402380D01*
X212085714Y-111402380D01*
X212085714Y-110402380D01*
X212561904Y-111402380D02*
X212561904Y-110402380D01*
X212800000Y-110402380D01*
X212942857Y-110450000D01*
X213038095Y-110545238D01*
X213085714Y-110640476D01*
X213133333Y-110830952D01*
X213133333Y-110973809D01*
X213085714Y-111164285D01*
X213038095Y-111259523D01*
X212942857Y-111354761D01*
X212800000Y-111402380D01*
X212561904Y-111402380D01*
X211038095Y-112100000D02*
X210942857Y-112052380D01*
X210800000Y-112052380D01*
X210657142Y-112100000D01*
X210561904Y-112195238D01*
X210514285Y-112290476D01*
X210466666Y-112480952D01*
X210466666Y-112623809D01*
X210514285Y-112814285D01*
X210561904Y-112909523D01*
X210657142Y-113004761D01*
X210800000Y-113052380D01*
X210895238Y-113052380D01*
X211038095Y-113004761D01*
X211085714Y-112957142D01*
X211085714Y-112623809D01*
X210895238Y-112623809D01*
X211514285Y-113052380D02*
X211514285Y-112052380D01*
X212085714Y-113052380D01*
X212085714Y-112052380D01*
X212561904Y-113052380D02*
X212561904Y-112052380D01*
X212800000Y-112052380D01*
X212942857Y-112100000D01*
X213038095Y-112195238D01*
X213085714Y-112290476D01*
X213133333Y-112480952D01*
X213133333Y-112623809D01*
X213085714Y-112814285D01*
X213038095Y-112909523D01*
X212942857Y-113004761D01*
X212800000Y-113052380D01*
X212561904Y-113052380D01*
X206166666Y-105452380D02*
X206500000Y-106452380D01*
X206833333Y-105452380D01*
X207738095Y-106357142D02*
X207690476Y-106404761D01*
X207547619Y-106452380D01*
X207452380Y-106452380D01*
X207309523Y-106404761D01*
X207214285Y-106309523D01*
X207166666Y-106214285D01*
X207119047Y-106023809D01*
X207119047Y-105880952D01*
X207166666Y-105690476D01*
X207214285Y-105595238D01*
X207309523Y-105500000D01*
X207452380Y-105452380D01*
X207547619Y-105452380D01*
X207690476Y-105500000D01*
X207738095Y-105547619D01*
X208738095Y-106357142D02*
X208690476Y-106404761D01*
X208547619Y-106452380D01*
X208452380Y-106452380D01*
X208309523Y-106404761D01*
X208214285Y-106309523D01*
X208166666Y-106214285D01*
X208119047Y-106023809D01*
X208119047Y-105880952D01*
X208166666Y-105690476D01*
X208214285Y-105595238D01*
X208309523Y-105500000D01*
X208452380Y-105452380D01*
X208547619Y-105452380D01*
X208690476Y-105500000D01*
X208738095Y-105547619D01*
X205761904Y-108054761D02*
X205904761Y-108102380D01*
X206142857Y-108102380D01*
X206238095Y-108054761D01*
X206285714Y-108007142D01*
X206333333Y-107911904D01*
X206333333Y-107816666D01*
X206285714Y-107721428D01*
X206238095Y-107673809D01*
X206142857Y-107626190D01*
X205952380Y-107578571D01*
X205857142Y-107530952D01*
X205809523Y-107483333D01*
X205761904Y-107388095D01*
X205761904Y-107292857D01*
X205809523Y-107197619D01*
X205857142Y-107150000D01*
X205952380Y-107102380D01*
X206190476Y-107102380D01*
X206333333Y-107150000D01*
X206952380Y-107626190D02*
X206952380Y-108102380D01*
X206619047Y-107102380D02*
X206952380Y-107626190D01*
X207285714Y-107102380D01*
X207619047Y-108102380D02*
X207619047Y-107102380D01*
X208190476Y-108102380D01*
X208190476Y-107102380D01*
X209238095Y-108007142D02*
X209190476Y-108054761D01*
X209047619Y-108102380D01*
X208952380Y-108102380D01*
X208809523Y-108054761D01*
X208714285Y-107959523D01*
X208666666Y-107864285D01*
X208619047Y-107673809D01*
X208619047Y-107530952D01*
X208666666Y-107340476D01*
X208714285Y-107245238D01*
X208809523Y-107150000D01*
X208952380Y-107102380D01*
X209047619Y-107102380D01*
X209190476Y-107150000D01*
X209238095Y-107197619D01*
X206857142Y-109752380D02*
X206523809Y-109276190D01*
X206285714Y-109752380D02*
X206285714Y-108752380D01*
X206666666Y-108752380D01*
X206761904Y-108800000D01*
X206809523Y-108847619D01*
X206857142Y-108942857D01*
X206857142Y-109085714D01*
X206809523Y-109180952D01*
X206761904Y-109228571D01*
X206666666Y-109276190D01*
X206285714Y-109276190D01*
X207285714Y-109228571D02*
X207619047Y-109228571D01*
X207761904Y-109752380D02*
X207285714Y-109752380D01*
X207285714Y-108752380D01*
X207761904Y-108752380D01*
X208190476Y-109752380D02*
X208190476Y-108752380D01*
X208428571Y-108752380D01*
X208571428Y-108800000D01*
X208666666Y-108895238D01*
X208714285Y-108990476D01*
X208761904Y-109180952D01*
X208761904Y-109323809D01*
X208714285Y-109514285D01*
X208666666Y-109609523D01*
X208571428Y-109704761D01*
X208428571Y-109752380D01*
X208190476Y-109752380D01*
X206642857Y-110878571D02*
X206785714Y-110926190D01*
X206833333Y-110973809D01*
X206880952Y-111069047D01*
X206880952Y-111211904D01*
X206833333Y-111307142D01*
X206785714Y-111354761D01*
X206690476Y-111402380D01*
X206309523Y-111402380D01*
X206309523Y-110402380D01*
X206642857Y-110402380D01*
X206738095Y-110450000D01*
X206785714Y-110497619D01*
X206833333Y-110592857D01*
X206833333Y-110688095D01*
X206785714Y-110783333D01*
X206738095Y-110830952D01*
X206642857Y-110878571D01*
X206309523Y-110878571D01*
X207785714Y-111402380D02*
X207309523Y-111402380D01*
X207309523Y-110402380D01*
X208119047Y-110402380D02*
X208119047Y-111211904D01*
X208166666Y-111307142D01*
X208214285Y-111354761D01*
X208309523Y-111402380D01*
X208500000Y-111402380D01*
X208595238Y-111354761D01*
X208642857Y-111307142D01*
X208690476Y-111211904D01*
X208690476Y-110402380D01*
X206738095Y-112100000D02*
X206642857Y-112052380D01*
X206500000Y-112052380D01*
X206357142Y-112100000D01*
X206261904Y-112195238D01*
X206214285Y-112290476D01*
X206166666Y-112480952D01*
X206166666Y-112623809D01*
X206214285Y-112814285D01*
X206261904Y-112909523D01*
X206357142Y-113004761D01*
X206500000Y-113052380D01*
X206595238Y-113052380D01*
X206738095Y-113004761D01*
X206785714Y-112957142D01*
X206785714Y-112623809D01*
X206595238Y-112623809D01*
X207785714Y-113052380D02*
X207452380Y-112576190D01*
X207214285Y-113052380D02*
X207214285Y-112052380D01*
X207595238Y-112052380D01*
X207690476Y-112100000D01*
X207738095Y-112147619D01*
X207785714Y-112242857D01*
X207785714Y-112385714D01*
X207738095Y-112480952D01*
X207690476Y-112528571D01*
X207595238Y-112576190D01*
X207214285Y-112576190D01*
X208214285Y-113052380D02*
X208214285Y-112052380D01*
X208785714Y-113052380D01*
X208785714Y-112052380D01*
X150138095Y-138100000D02*
X150042857Y-138052380D01*
X149900000Y-138052380D01*
X149757142Y-138100000D01*
X149661904Y-138195238D01*
X149614285Y-138290476D01*
X149566666Y-138480952D01*
X149566666Y-138623809D01*
X149614285Y-138814285D01*
X149661904Y-138909523D01*
X149757142Y-139004761D01*
X149900000Y-139052380D01*
X149995238Y-139052380D01*
X150138095Y-139004761D01*
X150185714Y-138957142D01*
X150185714Y-138623809D01*
X149995238Y-138623809D01*
X150614285Y-139052380D02*
X150614285Y-138052380D01*
X151185714Y-139052380D01*
X151185714Y-138052380D01*
X151661904Y-139052380D02*
X151661904Y-138052380D01*
X151900000Y-138052380D01*
X152042857Y-138100000D01*
X152138095Y-138195238D01*
X152185714Y-138290476D01*
X152233333Y-138480952D01*
X152233333Y-138623809D01*
X152185714Y-138814285D01*
X152138095Y-138909523D01*
X152042857Y-139004761D01*
X151900000Y-139052380D01*
X151661904Y-139052380D01*
X149838095Y-135452380D02*
X150409523Y-135452380D01*
X150123809Y-136452380D02*
X150123809Y-135452380D01*
X150647619Y-135452380D02*
X151314285Y-136452380D01*
X151314285Y-135452380D02*
X150647619Y-136452380D01*
X151695238Y-136452380D02*
X151695238Y-135452380D01*
X151933333Y-135452380D01*
X152076190Y-135500000D01*
X152171428Y-135595238D01*
X152219047Y-135690476D01*
X152266666Y-135880952D01*
X152266666Y-136023809D01*
X152219047Y-136214285D01*
X152171428Y-136309523D01*
X152076190Y-136404761D01*
X151933333Y-136452380D01*
X151695238Y-136452380D01*
X150433333Y-133852380D02*
X150100000Y-133376190D01*
X149861904Y-133852380D02*
X149861904Y-132852380D01*
X150242857Y-132852380D01*
X150338095Y-132900000D01*
X150385714Y-132947619D01*
X150433333Y-133042857D01*
X150433333Y-133185714D01*
X150385714Y-133280952D01*
X150338095Y-133328571D01*
X150242857Y-133376190D01*
X149861904Y-133376190D01*
X150766666Y-132852380D02*
X151433333Y-133852380D01*
X151433333Y-132852380D02*
X150766666Y-133852380D01*
X151814285Y-133852380D02*
X151814285Y-132852380D01*
X152052380Y-132852380D01*
X152195238Y-132900000D01*
X152290476Y-132995238D01*
X152338095Y-133090476D01*
X152385714Y-133280952D01*
X152385714Y-133423809D01*
X152338095Y-133614285D01*
X152290476Y-133709523D01*
X152195238Y-133804761D01*
X152052380Y-133852380D01*
X151814285Y-133852380D01*
X149666666Y-130352380D02*
X150000000Y-131352380D01*
X150333333Y-130352380D01*
X151238095Y-131257142D02*
X151190476Y-131304761D01*
X151047619Y-131352380D01*
X150952380Y-131352380D01*
X150809523Y-131304761D01*
X150714285Y-131209523D01*
X150666666Y-131114285D01*
X150619047Y-130923809D01*
X150619047Y-130780952D01*
X150666666Y-130590476D01*
X150714285Y-130495238D01*
X150809523Y-130400000D01*
X150952380Y-130352380D01*
X151047619Y-130352380D01*
X151190476Y-130400000D01*
X151238095Y-130447619D01*
X152238095Y-131257142D02*
X152190476Y-131304761D01*
X152047619Y-131352380D01*
X151952380Y-131352380D01*
X151809523Y-131304761D01*
X151714285Y-131209523D01*
X151666666Y-131114285D01*
X151619047Y-130923809D01*
X151619047Y-130780952D01*
X151666666Y-130590476D01*
X151714285Y-130495238D01*
X151809523Y-130400000D01*
X151952380Y-130352380D01*
X152047619Y-130352380D01*
X152190476Y-130400000D01*
X152238095Y-130447619D01*
X180166666Y-128861904D02*
X180166666Y-128385714D01*
X180452380Y-128957142D02*
X179452380Y-128623809D01*
X180452380Y-128290476D01*
X179452380Y-128100000D02*
X180452380Y-127766666D01*
X179452380Y-127433333D01*
X180452380Y-126528571D02*
X179976190Y-126861904D01*
X180452380Y-127100000D02*
X179452380Y-127100000D01*
X179452380Y-126719047D01*
X179500000Y-126623809D01*
X179547619Y-126576190D01*
X179642857Y-126528571D01*
X179785714Y-126528571D01*
X179880952Y-126576190D01*
X179928571Y-126623809D01*
X179976190Y-126719047D01*
X179976190Y-127100000D01*
X180452380Y-125338095D02*
X179452380Y-125338095D01*
X180404761Y-124909523D02*
X180452380Y-124766666D01*
X180452380Y-124528571D01*
X180404761Y-124433333D01*
X180357142Y-124385714D01*
X180261904Y-124338095D01*
X180166666Y-124338095D01*
X180071428Y-124385714D01*
X180023809Y-124433333D01*
X179976190Y-124528571D01*
X179928571Y-124719047D01*
X179880952Y-124814285D01*
X179833333Y-124861904D01*
X179738095Y-124909523D01*
X179642857Y-124909523D01*
X179547619Y-124861904D01*
X179500000Y-124814285D01*
X179452380Y-124719047D01*
X179452380Y-124480952D01*
X179500000Y-124338095D01*
X180452380Y-123909523D02*
X179452380Y-123909523D01*
X179452380Y-123528571D01*
X179500000Y-123433333D01*
X179547619Y-123385714D01*
X179642857Y-123338095D01*
X179785714Y-123338095D01*
X179880952Y-123385714D01*
X179928571Y-123433333D01*
X179976190Y-123528571D01*
X179976190Y-123909523D01*
D12*
G36*
X143939878Y-126787776D02*
G01*
X144045612Y-126788355D01*
X144122132Y-126789922D01*
X144174372Y-126792972D01*
X144207263Y-126797996D01*
X144225737Y-126805489D01*
X144234727Y-126815944D01*
X144239163Y-126829853D01*
X144239594Y-126831654D01*
X144246333Y-126864145D01*
X144258808Y-126928252D01*
X144275719Y-127017151D01*
X144295771Y-127124019D01*
X144317664Y-127242033D01*
X144318429Y-127246178D01*
X144340359Y-127361831D01*
X144360877Y-127464014D01*
X144378659Y-127546598D01*
X144392381Y-127603456D01*
X144400718Y-127628458D01*
X144401116Y-127628901D01*
X144425677Y-127641110D01*
X144476315Y-127661456D01*
X144542095Y-127685545D01*
X144542461Y-127685674D01*
X144625317Y-127716818D01*
X144723000Y-127756491D01*
X144815077Y-127796381D01*
X144819434Y-127798353D01*
X144969407Y-127866420D01*
X145301498Y-127639639D01*
X145403374Y-127570504D01*
X145495657Y-127508697D01*
X145573003Y-127457733D01*
X145630064Y-127421127D01*
X145661495Y-127402394D01*
X145664479Y-127401004D01*
X145687321Y-127407190D01*
X145729982Y-127437035D01*
X145794128Y-127491947D01*
X145881421Y-127573334D01*
X145970535Y-127659922D01*
X146056441Y-127745247D01*
X146133327Y-127823108D01*
X146196564Y-127888697D01*
X146241523Y-127937205D01*
X146263576Y-127963825D01*
X146264396Y-127965195D01*
X146266834Y-127983463D01*
X146257650Y-128013295D01*
X146234574Y-128058721D01*
X146195337Y-128123770D01*
X146137670Y-128212470D01*
X146060795Y-128326657D01*
X145992570Y-128427162D01*
X145931582Y-128517303D01*
X145881356Y-128591849D01*
X145845416Y-128645565D01*
X145827287Y-128673218D01*
X145826146Y-128675095D01*
X145828359Y-128701590D01*
X145845138Y-128753086D01*
X145873142Y-128819851D01*
X145883122Y-128841172D01*
X145926672Y-128936159D01*
X145973134Y-129043937D01*
X146010877Y-129137192D01*
X146038073Y-129206406D01*
X146059675Y-129259006D01*
X146072158Y-129286497D01*
X146073709Y-129288616D01*
X146096668Y-129292124D01*
X146150786Y-129301738D01*
X146228868Y-129316089D01*
X146323719Y-129333807D01*
X146428143Y-129353525D01*
X146534944Y-129373874D01*
X146636926Y-129393486D01*
X146726894Y-129410991D01*
X146797653Y-129425022D01*
X146842006Y-129434209D01*
X146852885Y-129436807D01*
X146864122Y-129443218D01*
X146872605Y-129457697D01*
X146878714Y-129485133D01*
X146882832Y-129530411D01*
X146885341Y-129598420D01*
X146886621Y-129694047D01*
X146887054Y-129822180D01*
X146887077Y-129874701D01*
X146887077Y-130301845D01*
X146784500Y-130322091D01*
X146727431Y-130333070D01*
X146642269Y-130349095D01*
X146539372Y-130368233D01*
X146429096Y-130388551D01*
X146398615Y-130394132D01*
X146296855Y-130413917D01*
X146208205Y-130433373D01*
X146140108Y-130450697D01*
X146100004Y-130464088D01*
X146093323Y-130468079D01*
X146076919Y-130496342D01*
X146053399Y-130551109D01*
X146027316Y-130621588D01*
X146022142Y-130636769D01*
X145987956Y-130730896D01*
X145945523Y-130837101D01*
X145903997Y-130932473D01*
X145903792Y-130932916D01*
X145834640Y-131082525D01*
X146289512Y-131751617D01*
X145997500Y-132044116D01*
X145909180Y-132131170D01*
X145828625Y-132207909D01*
X145760360Y-132270237D01*
X145708908Y-132314056D01*
X145678794Y-132335270D01*
X145674474Y-132336616D01*
X145649111Y-132326016D01*
X145597358Y-132296547D01*
X145524868Y-132251705D01*
X145437294Y-132194984D01*
X145342612Y-132131462D01*
X145246516Y-132066668D01*
X145160837Y-132010287D01*
X145091016Y-131965788D01*
X145042494Y-131936639D01*
X145020782Y-131926308D01*
X144994293Y-131935050D01*
X144944062Y-131958087D01*
X144880451Y-131990631D01*
X144873708Y-131994249D01*
X144788046Y-132037210D01*
X144729306Y-132058279D01*
X144692772Y-132058503D01*
X144673731Y-132038928D01*
X144673620Y-132038654D01*
X144664102Y-132015472D01*
X144641403Y-131960441D01*
X144607282Y-131877822D01*
X144563500Y-131771872D01*
X144511816Y-131646852D01*
X144453992Y-131507020D01*
X144397991Y-131371637D01*
X144336447Y-131222234D01*
X144279939Y-131083832D01*
X144230161Y-130960673D01*
X144188806Y-130857002D01*
X144157568Y-130777059D01*
X144138141Y-130725088D01*
X144132154Y-130705692D01*
X144147168Y-130683443D01*
X144186439Y-130647982D01*
X144238807Y-130608887D01*
X144387941Y-130485245D01*
X144504511Y-130343522D01*
X144587118Y-130186704D01*
X144634366Y-130017775D01*
X144644857Y-129839722D01*
X144637231Y-129757539D01*
X144595682Y-129587031D01*
X144524123Y-129436459D01*
X144426995Y-129307309D01*
X144308734Y-129201064D01*
X144173780Y-129119210D01*
X144026571Y-129063232D01*
X143871544Y-129034615D01*
X143713139Y-129034844D01*
X143555794Y-129065405D01*
X143403946Y-129127782D01*
X143262035Y-129223460D01*
X143202803Y-129277572D01*
X143089203Y-129416520D01*
X143010106Y-129568361D01*
X142964986Y-129728667D01*
X142953316Y-129893012D01*
X142974569Y-130056971D01*
X143028220Y-130216118D01*
X143113740Y-130366025D01*
X143230605Y-130502267D01*
X143361193Y-130608887D01*
X143415588Y-130649642D01*
X143454014Y-130684718D01*
X143467846Y-130705726D01*
X143460603Y-130728635D01*
X143440005Y-130783365D01*
X143407746Y-130865672D01*
X143365521Y-130971315D01*
X143315023Y-131096050D01*
X143257948Y-131235636D01*
X143201854Y-131371670D01*
X143139967Y-131521201D01*
X143082644Y-131659767D01*
X143031644Y-131783107D01*
X142988727Y-131886964D01*
X142955653Y-131967080D01*
X142934181Y-132019195D01*
X142926225Y-132038654D01*
X142907429Y-132058423D01*
X142871074Y-132058365D01*
X142812479Y-132037441D01*
X142726968Y-131994613D01*
X142726292Y-131994249D01*
X142661907Y-131961012D01*
X142609861Y-131936802D01*
X142580512Y-131926404D01*
X142579217Y-131926308D01*
X142557124Y-131936855D01*
X142508348Y-131966184D01*
X142438331Y-132010827D01*
X142352514Y-132067314D01*
X142257388Y-132131462D01*
X142160540Y-132196411D01*
X142073253Y-132252896D01*
X142001181Y-132297421D01*
X141949977Y-132326490D01*
X141925526Y-132336616D01*
X141903010Y-132323307D01*
X141857742Y-132286112D01*
X141794244Y-132229128D01*
X141717039Y-132156449D01*
X141630651Y-132072171D01*
X141602399Y-132044016D01*
X141310287Y-131751416D01*
X141532631Y-131425104D01*
X141600202Y-131324897D01*
X141659507Y-131234963D01*
X141707217Y-131160510D01*
X141740007Y-131106751D01*
X141754548Y-131078894D01*
X141754974Y-131076912D01*
X141747308Y-131050655D01*
X141726689Y-130997837D01*
X141696685Y-130927310D01*
X141675625Y-130880093D01*
X141636248Y-130789694D01*
X141599165Y-130698366D01*
X141570415Y-130621200D01*
X141562605Y-130597692D01*
X141540417Y-130534916D01*
X141518727Y-130486411D01*
X141506813Y-130468079D01*
X141480523Y-130456859D01*
X141423142Y-130440954D01*
X141342118Y-130422167D01*
X141244895Y-130402299D01*
X141201385Y-130394132D01*
X141090896Y-130373829D01*
X140984916Y-130354170D01*
X140893801Y-130337088D01*
X140827908Y-130324518D01*
X140815500Y-130322091D01*
X140712923Y-130301845D01*
X140712923Y-129874701D01*
X140713153Y-129734246D01*
X140714099Y-129627979D01*
X140716141Y-129551013D01*
X140719662Y-129498460D01*
X140725043Y-129465433D01*
X140732666Y-129447045D01*
X140742912Y-129438408D01*
X140747115Y-129436807D01*
X140772470Y-129431127D01*
X140828484Y-129419795D01*
X140907964Y-129404179D01*
X141003712Y-129385647D01*
X141108533Y-129365569D01*
X141215232Y-129345312D01*
X141316613Y-129326246D01*
X141405479Y-129309739D01*
X141474637Y-129297159D01*
X141516889Y-129289875D01*
X141526290Y-129288616D01*
X141534807Y-129271763D01*
X141553660Y-129226870D01*
X141579324Y-129162430D01*
X141589123Y-129137192D01*
X141628648Y-129039686D01*
X141675192Y-128931959D01*
X141716877Y-128841172D01*
X141747550Y-128771753D01*
X141767956Y-128714710D01*
X141774768Y-128679777D01*
X141773682Y-128675095D01*
X141759285Y-128652991D01*
X141726412Y-128603831D01*
X141678590Y-128532848D01*
X141619348Y-128445278D01*
X141552215Y-128346357D01*
X141538941Y-128326830D01*
X141461046Y-128211140D01*
X141403787Y-128123044D01*
X141364881Y-128058486D01*
X141342044Y-128013411D01*
X141332994Y-127983763D01*
X141335448Y-127965485D01*
X141335511Y-127965369D01*
X141354827Y-127941361D01*
X141397551Y-127894947D01*
X141459051Y-127830937D01*
X141534698Y-127754145D01*
X141619861Y-127669382D01*
X141629465Y-127659922D01*
X141736790Y-127555989D01*
X141819615Y-127479675D01*
X141879605Y-127429571D01*
X141918423Y-127404270D01*
X141935520Y-127401004D01*
X141960473Y-127415250D01*
X142012255Y-127448156D01*
X142085520Y-127496208D01*
X142174920Y-127555890D01*
X142275111Y-127623688D01*
X142298501Y-127639639D01*
X142630593Y-127866420D01*
X142780565Y-127798353D01*
X142871770Y-127758685D01*
X142969669Y-127718791D01*
X143053831Y-127686983D01*
X143057538Y-127685674D01*
X143123369Y-127661576D01*
X143174116Y-127641200D01*
X143198842Y-127628936D01*
X143198884Y-127628901D01*
X143206729Y-127606734D01*
X143220066Y-127552217D01*
X143237570Y-127471480D01*
X143257917Y-127370650D01*
X143279782Y-127255856D01*
X143281571Y-127246178D01*
X143303504Y-127127904D01*
X143323640Y-127020542D01*
X143340680Y-126930917D01*
X143353328Y-126865851D01*
X143360284Y-126832168D01*
X143360406Y-126831654D01*
X143364639Y-126817325D01*
X143372871Y-126806507D01*
X143390033Y-126798706D01*
X143421058Y-126793429D01*
X143470878Y-126790182D01*
X143544424Y-126788472D01*
X143646629Y-126787807D01*
X143782425Y-126787693D01*
X143800000Y-126787692D01*
X143939878Y-126787776D01*
G37*
X143939878Y-126787776D02*
X144045612Y-126788355D01*
X144122132Y-126789922D01*
X144174372Y-126792972D01*
X144207263Y-126797996D01*
X144225737Y-126805489D01*
X144234727Y-126815944D01*
X144239163Y-126829853D01*
X144239594Y-126831654D01*
X144246333Y-126864145D01*
X144258808Y-126928252D01*
X144275719Y-127017151D01*
X144295771Y-127124019D01*
X144317664Y-127242033D01*
X144318429Y-127246178D01*
X144340359Y-127361831D01*
X144360877Y-127464014D01*
X144378659Y-127546598D01*
X144392381Y-127603456D01*
X144400718Y-127628458D01*
X144401116Y-127628901D01*
X144425677Y-127641110D01*
X144476315Y-127661456D01*
X144542095Y-127685545D01*
X144542461Y-127685674D01*
X144625317Y-127716818D01*
X144723000Y-127756491D01*
X144815077Y-127796381D01*
X144819434Y-127798353D01*
X144969407Y-127866420D01*
X145301498Y-127639639D01*
X145403374Y-127570504D01*
X145495657Y-127508697D01*
X145573003Y-127457733D01*
X145630064Y-127421127D01*
X145661495Y-127402394D01*
X145664479Y-127401004D01*
X145687321Y-127407190D01*
X145729982Y-127437035D01*
X145794128Y-127491947D01*
X145881421Y-127573334D01*
X145970535Y-127659922D01*
X146056441Y-127745247D01*
X146133327Y-127823108D01*
X146196564Y-127888697D01*
X146241523Y-127937205D01*
X146263576Y-127963825D01*
X146264396Y-127965195D01*
X146266834Y-127983463D01*
X146257650Y-128013295D01*
X146234574Y-128058721D01*
X146195337Y-128123770D01*
X146137670Y-128212470D01*
X146060795Y-128326657D01*
X145992570Y-128427162D01*
X145931582Y-128517303D01*
X145881356Y-128591849D01*
X145845416Y-128645565D01*
X145827287Y-128673218D01*
X145826146Y-128675095D01*
X145828359Y-128701590D01*
X145845138Y-128753086D01*
X145873142Y-128819851D01*
X145883122Y-128841172D01*
X145926672Y-128936159D01*
X145973134Y-129043937D01*
X146010877Y-129137192D01*
X146038073Y-129206406D01*
X146059675Y-129259006D01*
X146072158Y-129286497D01*
X146073709Y-129288616D01*
X146096668Y-129292124D01*
X146150786Y-129301738D01*
X146228868Y-129316089D01*
X146323719Y-129333807D01*
X146428143Y-129353525D01*
X146534944Y-129373874D01*
X146636926Y-129393486D01*
X146726894Y-129410991D01*
X146797653Y-129425022D01*
X146842006Y-129434209D01*
X146852885Y-129436807D01*
X146864122Y-129443218D01*
X146872605Y-129457697D01*
X146878714Y-129485133D01*
X146882832Y-129530411D01*
X146885341Y-129598420D01*
X146886621Y-129694047D01*
X146887054Y-129822180D01*
X146887077Y-129874701D01*
X146887077Y-130301845D01*
X146784500Y-130322091D01*
X146727431Y-130333070D01*
X146642269Y-130349095D01*
X146539372Y-130368233D01*
X146429096Y-130388551D01*
X146398615Y-130394132D01*
X146296855Y-130413917D01*
X146208205Y-130433373D01*
X146140108Y-130450697D01*
X146100004Y-130464088D01*
X146093323Y-130468079D01*
X146076919Y-130496342D01*
X146053399Y-130551109D01*
X146027316Y-130621588D01*
X146022142Y-130636769D01*
X145987956Y-130730896D01*
X145945523Y-130837101D01*
X145903997Y-130932473D01*
X145903792Y-130932916D01*
X145834640Y-131082525D01*
X146289512Y-131751617D01*
X145997500Y-132044116D01*
X145909180Y-132131170D01*
X145828625Y-132207909D01*
X145760360Y-132270237D01*
X145708908Y-132314056D01*
X145678794Y-132335270D01*
X145674474Y-132336616D01*
X145649111Y-132326016D01*
X145597358Y-132296547D01*
X145524868Y-132251705D01*
X145437294Y-132194984D01*
X145342612Y-132131462D01*
X145246516Y-132066668D01*
X145160837Y-132010287D01*
X145091016Y-131965788D01*
X145042494Y-131936639D01*
X145020782Y-131926308D01*
X144994293Y-131935050D01*
X144944062Y-131958087D01*
X144880451Y-131990631D01*
X144873708Y-131994249D01*
X144788046Y-132037210D01*
X144729306Y-132058279D01*
X144692772Y-132058503D01*
X144673731Y-132038928D01*
X144673620Y-132038654D01*
X144664102Y-132015472D01*
X144641403Y-131960441D01*
X144607282Y-131877822D01*
X144563500Y-131771872D01*
X144511816Y-131646852D01*
X144453992Y-131507020D01*
X144397991Y-131371637D01*
X144336447Y-131222234D01*
X144279939Y-131083832D01*
X144230161Y-130960673D01*
X144188806Y-130857002D01*
X144157568Y-130777059D01*
X144138141Y-130725088D01*
X144132154Y-130705692D01*
X144147168Y-130683443D01*
X144186439Y-130647982D01*
X144238807Y-130608887D01*
X144387941Y-130485245D01*
X144504511Y-130343522D01*
X144587118Y-130186704D01*
X144634366Y-130017775D01*
X144644857Y-129839722D01*
X144637231Y-129757539D01*
X144595682Y-129587031D01*
X144524123Y-129436459D01*
X144426995Y-129307309D01*
X144308734Y-129201064D01*
X144173780Y-129119210D01*
X144026571Y-129063232D01*
X143871544Y-129034615D01*
X143713139Y-129034844D01*
X143555794Y-129065405D01*
X143403946Y-129127782D01*
X143262035Y-129223460D01*
X143202803Y-129277572D01*
X143089203Y-129416520D01*
X143010106Y-129568361D01*
X142964986Y-129728667D01*
X142953316Y-129893012D01*
X142974569Y-130056971D01*
X143028220Y-130216118D01*
X143113740Y-130366025D01*
X143230605Y-130502267D01*
X143361193Y-130608887D01*
X143415588Y-130649642D01*
X143454014Y-130684718D01*
X143467846Y-130705726D01*
X143460603Y-130728635D01*
X143440005Y-130783365D01*
X143407746Y-130865672D01*
X143365521Y-130971315D01*
X143315023Y-131096050D01*
X143257948Y-131235636D01*
X143201854Y-131371670D01*
X143139967Y-131521201D01*
X143082644Y-131659767D01*
X143031644Y-131783107D01*
X142988727Y-131886964D01*
X142955653Y-131967080D01*
X142934181Y-132019195D01*
X142926225Y-132038654D01*
X142907429Y-132058423D01*
X142871074Y-132058365D01*
X142812479Y-132037441D01*
X142726968Y-131994613D01*
X142726292Y-131994249D01*
X142661907Y-131961012D01*
X142609861Y-131936802D01*
X142580512Y-131926404D01*
X142579217Y-131926308D01*
X142557124Y-131936855D01*
X142508348Y-131966184D01*
X142438331Y-132010827D01*
X142352514Y-132067314D01*
X142257388Y-132131462D01*
X142160540Y-132196411D01*
X142073253Y-132252896D01*
X142001181Y-132297421D01*
X141949977Y-132326490D01*
X141925526Y-132336616D01*
X141903010Y-132323307D01*
X141857742Y-132286112D01*
X141794244Y-132229128D01*
X141717039Y-132156449D01*
X141630651Y-132072171D01*
X141602399Y-132044016D01*
X141310287Y-131751416D01*
X141532631Y-131425104D01*
X141600202Y-131324897D01*
X141659507Y-131234963D01*
X141707217Y-131160510D01*
X141740007Y-131106751D01*
X141754548Y-131078894D01*
X141754974Y-131076912D01*
X141747308Y-131050655D01*
X141726689Y-130997837D01*
X141696685Y-130927310D01*
X141675625Y-130880093D01*
X141636248Y-130789694D01*
X141599165Y-130698366D01*
X141570415Y-130621200D01*
X141562605Y-130597692D01*
X141540417Y-130534916D01*
X141518727Y-130486411D01*
X141506813Y-130468079D01*
X141480523Y-130456859D01*
X141423142Y-130440954D01*
X141342118Y-130422167D01*
X141244895Y-130402299D01*
X141201385Y-130394132D01*
X141090896Y-130373829D01*
X140984916Y-130354170D01*
X140893801Y-130337088D01*
X140827908Y-130324518D01*
X140815500Y-130322091D01*
X140712923Y-130301845D01*
X140712923Y-129874701D01*
X140713153Y-129734246D01*
X140714099Y-129627979D01*
X140716141Y-129551013D01*
X140719662Y-129498460D01*
X140725043Y-129465433D01*
X140732666Y-129447045D01*
X140742912Y-129438408D01*
X140747115Y-129436807D01*
X140772470Y-129431127D01*
X140828484Y-129419795D01*
X140907964Y-129404179D01*
X141003712Y-129385647D01*
X141108533Y-129365569D01*
X141215232Y-129345312D01*
X141316613Y-129326246D01*
X141405479Y-129309739D01*
X141474637Y-129297159D01*
X141516889Y-129289875D01*
X141526290Y-129288616D01*
X141534807Y-129271763D01*
X141553660Y-129226870D01*
X141579324Y-129162430D01*
X141589123Y-129137192D01*
X141628648Y-129039686D01*
X141675192Y-128931959D01*
X141716877Y-128841172D01*
X141747550Y-128771753D01*
X141767956Y-128714710D01*
X141774768Y-128679777D01*
X141773682Y-128675095D01*
X141759285Y-128652991D01*
X141726412Y-128603831D01*
X141678590Y-128532848D01*
X141619348Y-128445278D01*
X141552215Y-128346357D01*
X141538941Y-128326830D01*
X141461046Y-128211140D01*
X141403787Y-128123044D01*
X141364881Y-128058486D01*
X141342044Y-128013411D01*
X141332994Y-127983763D01*
X141335448Y-127965485D01*
X141335511Y-127965369D01*
X141354827Y-127941361D01*
X141397551Y-127894947D01*
X141459051Y-127830937D01*
X141534698Y-127754145D01*
X141619861Y-127669382D01*
X141629465Y-127659922D01*
X141736790Y-127555989D01*
X141819615Y-127479675D01*
X141879605Y-127429571D01*
X141918423Y-127404270D01*
X141935520Y-127401004D01*
X141960473Y-127415250D01*
X142012255Y-127448156D01*
X142085520Y-127496208D01*
X142174920Y-127555890D01*
X142275111Y-127623688D01*
X142298501Y-127639639D01*
X142630593Y-127866420D01*
X142780565Y-127798353D01*
X142871770Y-127758685D01*
X142969669Y-127718791D01*
X143053831Y-127686983D01*
X143057538Y-127685674D01*
X143123369Y-127661576D01*
X143174116Y-127641200D01*
X143198842Y-127628936D01*
X143198884Y-127628901D01*
X143206729Y-127606734D01*
X143220066Y-127552217D01*
X143237570Y-127471480D01*
X143257917Y-127370650D01*
X143279782Y-127255856D01*
X143281571Y-127246178D01*
X143303504Y-127127904D01*
X143323640Y-127020542D01*
X143340680Y-126930917D01*
X143353328Y-126865851D01*
X143360284Y-126832168D01*
X143360406Y-126831654D01*
X143364639Y-126817325D01*
X143372871Y-126806507D01*
X143390033Y-126798706D01*
X143421058Y-126793429D01*
X143470878Y-126790182D01*
X143544424Y-126788472D01*
X143646629Y-126787807D01*
X143782425Y-126787693D01*
X143800000Y-126787692D01*
X143939878Y-126787776D01*
G36*
X148045224Y-133147838D02*
G01*
X148122528Y-133198361D01*
X148159814Y-133243590D01*
X148189353Y-133325663D01*
X148191699Y-133390607D01*
X148186385Y-133477445D01*
X147986115Y-133565103D01*
X147888739Y-133609887D01*
X147825113Y-133645913D01*
X147792029Y-133677117D01*
X147786280Y-133707436D01*
X147804658Y-133740805D01*
X147824923Y-133762923D01*
X147883889Y-133798393D01*
X147948024Y-133800879D01*
X148006926Y-133773235D01*
X148050197Y-133718320D01*
X148057936Y-133698928D01*
X148095006Y-133638364D01*
X148137654Y-133612552D01*
X148196154Y-133590471D01*
X148196154Y-133674184D01*
X148190982Y-133731150D01*
X148170723Y-133779189D01*
X148128262Y-133834346D01*
X148121951Y-133841514D01*
X148074720Y-133890585D01*
X148034121Y-133916920D01*
X147983328Y-133929035D01*
X147941220Y-133933003D01*
X147865902Y-133933991D01*
X147812286Y-133921466D01*
X147778838Y-133902869D01*
X147726268Y-133861975D01*
X147689879Y-133817748D01*
X147666850Y-133762126D01*
X147654359Y-133687047D01*
X147649587Y-133584449D01*
X147649206Y-133532376D01*
X147650501Y-133469948D01*
X147768471Y-133469948D01*
X147769839Y-133503438D01*
X147773249Y-133508923D01*
X147795753Y-133501472D01*
X147844182Y-133481753D01*
X147908908Y-133453718D01*
X147922443Y-133447692D01*
X148004244Y-133406096D01*
X148049312Y-133369538D01*
X148059217Y-133335296D01*
X148035526Y-133300648D01*
X148015960Y-133285339D01*
X147945360Y-133254721D01*
X147879280Y-133259780D01*
X147823959Y-133297151D01*
X147785636Y-133363473D01*
X147773349Y-133416116D01*
X147768471Y-133469948D01*
X147650501Y-133469948D01*
X147651730Y-133410720D01*
X147661032Y-133320710D01*
X147679460Y-133255167D01*
X147709360Y-133206912D01*
X147753080Y-133168767D01*
X147772141Y-133156440D01*
X147858726Y-133124336D01*
X147953522Y-133122316D01*
X148045224Y-133147838D01*
G37*
X148045224Y-133147838D02*
X148122528Y-133198361D01*
X148159814Y-133243590D01*
X148189353Y-133325663D01*
X148191699Y-133390607D01*
X148186385Y-133477445D01*
X147986115Y-133565103D01*
X147888739Y-133609887D01*
X147825113Y-133645913D01*
X147792029Y-133677117D01*
X147786280Y-133707436D01*
X147804658Y-133740805D01*
X147824923Y-133762923D01*
X147883889Y-133798393D01*
X147948024Y-133800879D01*
X148006926Y-133773235D01*
X148050197Y-133718320D01*
X148057936Y-133698928D01*
X148095006Y-133638364D01*
X148137654Y-133612552D01*
X148196154Y-133590471D01*
X148196154Y-133674184D01*
X148190982Y-133731150D01*
X148170723Y-133779189D01*
X148128262Y-133834346D01*
X148121951Y-133841514D01*
X148074720Y-133890585D01*
X148034121Y-133916920D01*
X147983328Y-133929035D01*
X147941220Y-133933003D01*
X147865902Y-133933991D01*
X147812286Y-133921466D01*
X147778838Y-133902869D01*
X147726268Y-133861975D01*
X147689879Y-133817748D01*
X147666850Y-133762126D01*
X147654359Y-133687047D01*
X147649587Y-133584449D01*
X147649206Y-133532376D01*
X147650501Y-133469948D01*
X147768471Y-133469948D01*
X147769839Y-133503438D01*
X147773249Y-133508923D01*
X147795753Y-133501472D01*
X147844182Y-133481753D01*
X147908908Y-133453718D01*
X147922443Y-133447692D01*
X148004244Y-133406096D01*
X148049312Y-133369538D01*
X148059217Y-133335296D01*
X148035526Y-133300648D01*
X148015960Y-133285339D01*
X147945360Y-133254721D01*
X147879280Y-133259780D01*
X147823959Y-133297151D01*
X147785636Y-133363473D01*
X147773349Y-133416116D01*
X147768471Y-133469948D01*
X147650501Y-133469948D01*
X147651730Y-133410720D01*
X147661032Y-133320710D01*
X147679460Y-133255167D01*
X147709360Y-133206912D01*
X147753080Y-133168767D01*
X147772141Y-133156440D01*
X147858726Y-133124336D01*
X147953522Y-133122316D01*
X148045224Y-133147838D01*
G36*
X147370807Y-133136782D02*
G01*
X147394161Y-133146988D01*
X147449902Y-133191134D01*
X147497569Y-133254967D01*
X147527048Y-133323087D01*
X147531846Y-133356670D01*
X147515760Y-133403556D01*
X147480475Y-133428365D01*
X147442644Y-133443387D01*
X147425321Y-133446155D01*
X147416886Y-133426066D01*
X147400230Y-133382351D01*
X147392923Y-133362598D01*
X147351948Y-133294271D01*
X147292622Y-133260191D01*
X147216552Y-133261239D01*
X147210918Y-133262581D01*
X147170305Y-133281836D01*
X147140448Y-133319375D01*
X147120055Y-133379809D01*
X147107836Y-133467751D01*
X147102500Y-133587813D01*
X147102000Y-133651698D01*
X147101752Y-133752403D01*
X147100126Y-133821054D01*
X147095801Y-133864673D01*
X147087454Y-133890282D01*
X147073765Y-133904903D01*
X147053411Y-133915558D01*
X147052234Y-133916095D01*
X147013038Y-133932667D01*
X146993619Y-133938769D01*
X146990635Y-133920319D01*
X146988081Y-133869323D01*
X146986140Y-133792308D01*
X146984997Y-133695805D01*
X146984769Y-133625184D01*
X146985932Y-133488525D01*
X146990479Y-133384851D01*
X146999999Y-133308108D01*
X147016081Y-133252246D01*
X147040313Y-133211212D01*
X147074286Y-133178954D01*
X147107833Y-133156440D01*
X147188499Y-133126476D01*
X147282381Y-133119718D01*
X147370807Y-133136782D01*
G37*
X147370807Y-133136782D02*
X147394161Y-133146988D01*
X147449902Y-133191134D01*
X147497569Y-133254967D01*
X147527048Y-133323087D01*
X147531846Y-133356670D01*
X147515760Y-133403556D01*
X147480475Y-133428365D01*
X147442644Y-133443387D01*
X147425321Y-133446155D01*
X147416886Y-133426066D01*
X147400230Y-133382351D01*
X147392923Y-133362598D01*
X147351948Y-133294271D01*
X147292622Y-133260191D01*
X147216552Y-133261239D01*
X147210918Y-133262581D01*
X147170305Y-133281836D01*
X147140448Y-133319375D01*
X147120055Y-133379809D01*
X147107836Y-133467751D01*
X147102500Y-133587813D01*
X147102000Y-133651698D01*
X147101752Y-133752403D01*
X147100126Y-133821054D01*
X147095801Y-133864673D01*
X147087454Y-133890282D01*
X147073765Y-133904903D01*
X147053411Y-133915558D01*
X147052234Y-133916095D01*
X147013038Y-133932667D01*
X146993619Y-133938769D01*
X146990635Y-133920319D01*
X146988081Y-133869323D01*
X146986140Y-133792308D01*
X146984997Y-133695805D01*
X146984769Y-133625184D01*
X146985932Y-133488525D01*
X146990479Y-133384851D01*
X146999999Y-133308108D01*
X147016081Y-133252246D01*
X147040313Y-133211212D01*
X147074286Y-133178954D01*
X147107833Y-133156440D01*
X147188499Y-133126476D01*
X147282381Y-133119718D01*
X147370807Y-133136782D01*
G36*
X146687333Y-133133528D02*
G01*
X146743590Y-133159117D01*
X146787747Y-133190124D01*
X146820101Y-133224795D01*
X146842438Y-133269520D01*
X146856546Y-133330692D01*
X146864211Y-133414701D01*
X146867220Y-133527940D01*
X146867538Y-133602509D01*
X146867538Y-133893420D01*
X146817773Y-133916095D01*
X146778576Y-133932667D01*
X146759157Y-133938769D01*
X146755442Y-133920610D01*
X146752495Y-133871648D01*
X146750691Y-133800153D01*
X146750308Y-133743385D01*
X146748661Y-133661371D01*
X146744222Y-133596309D01*
X146737740Y-133556467D01*
X146732590Y-133548000D01*
X146697977Y-133556646D01*
X146643640Y-133578823D01*
X146580722Y-133608886D01*
X146520368Y-133641192D01*
X146473721Y-133670098D01*
X146451926Y-133689961D01*
X146451839Y-133690175D01*
X146453714Y-133726935D01*
X146470525Y-133762026D01*
X146500039Y-133790528D01*
X146543116Y-133800061D01*
X146579932Y-133798950D01*
X146632074Y-133798133D01*
X146659444Y-133810349D01*
X146675882Y-133842624D01*
X146677955Y-133848710D01*
X146685081Y-133894739D01*
X146666024Y-133922687D01*
X146616353Y-133936007D01*
X146562697Y-133938470D01*
X146466142Y-133920210D01*
X146416159Y-133894131D01*
X146354429Y-133832868D01*
X146321690Y-133757670D01*
X146318753Y-133678211D01*
X146346424Y-133604167D01*
X146388047Y-133557769D01*
X146429604Y-133531793D01*
X146494922Y-133498907D01*
X146571038Y-133465557D01*
X146583726Y-133460461D01*
X146667333Y-133423565D01*
X146715530Y-133391046D01*
X146731030Y-133358718D01*
X146716550Y-133322394D01*
X146691692Y-133294000D01*
X146632939Y-133259039D01*
X146568293Y-133256417D01*
X146509008Y-133283358D01*
X146466339Y-133337088D01*
X146460739Y-133350950D01*
X146428133Y-133401936D01*
X146380530Y-133439787D01*
X146320461Y-133470850D01*
X146320461Y-133382768D01*
X146323997Y-133328951D01*
X146339156Y-133286534D01*
X146372768Y-133241279D01*
X146405035Y-133206420D01*
X146455209Y-133157062D01*
X146494193Y-133130547D01*
X146536064Y-133119911D01*
X146583460Y-133118154D01*
X146687333Y-133133528D01*
G37*
X146687333Y-133133528D02*
X146743590Y-133159117D01*
X146787747Y-133190124D01*
X146820101Y-133224795D01*
X146842438Y-133269520D01*
X146856546Y-133330692D01*
X146864211Y-133414701D01*
X146867220Y-133527940D01*
X146867538Y-133602509D01*
X146867538Y-133893420D01*
X146817773Y-133916095D01*
X146778576Y-133932667D01*
X146759157Y-133938769D01*
X146755442Y-133920610D01*
X146752495Y-133871648D01*
X146750691Y-133800153D01*
X146750308Y-133743385D01*
X146748661Y-133661371D01*
X146744222Y-133596309D01*
X146737740Y-133556467D01*
X146732590Y-133548000D01*
X146697977Y-133556646D01*
X146643640Y-133578823D01*
X146580722Y-133608886D01*
X146520368Y-133641192D01*
X146473721Y-133670098D01*
X146451926Y-133689961D01*
X146451839Y-133690175D01*
X146453714Y-133726935D01*
X146470525Y-133762026D01*
X146500039Y-133790528D01*
X146543116Y-133800061D01*
X146579932Y-133798950D01*
X146632074Y-133798133D01*
X146659444Y-133810349D01*
X146675882Y-133842624D01*
X146677955Y-133848710D01*
X146685081Y-133894739D01*
X146666024Y-133922687D01*
X146616353Y-133936007D01*
X146562697Y-133938470D01*
X146466142Y-133920210D01*
X146416159Y-133894131D01*
X146354429Y-133832868D01*
X146321690Y-133757670D01*
X146318753Y-133678211D01*
X146346424Y-133604167D01*
X146388047Y-133557769D01*
X146429604Y-133531793D01*
X146494922Y-133498907D01*
X146571038Y-133465557D01*
X146583726Y-133460461D01*
X146667333Y-133423565D01*
X146715530Y-133391046D01*
X146731030Y-133358718D01*
X146716550Y-133322394D01*
X146691692Y-133294000D01*
X146632939Y-133259039D01*
X146568293Y-133256417D01*
X146509008Y-133283358D01*
X146466339Y-133337088D01*
X146460739Y-133350950D01*
X146428133Y-133401936D01*
X146380530Y-133439787D01*
X146320461Y-133470850D01*
X146320461Y-133382768D01*
X146323997Y-133328951D01*
X146339156Y-133286534D01*
X146372768Y-133241279D01*
X146405035Y-133206420D01*
X146455209Y-133157062D01*
X146494193Y-133130547D01*
X146536064Y-133119911D01*
X146583460Y-133118154D01*
X146687333Y-133133528D01*
G36*
X146195929Y-133136662D02*
G01*
X146198911Y-133188068D01*
X146201247Y-133266192D01*
X146202749Y-133364857D01*
X146203231Y-133468343D01*
X146203231Y-133818533D01*
X146141401Y-133880363D01*
X146098793Y-133918462D01*
X146061390Y-133933895D01*
X146010270Y-133932918D01*
X145989978Y-133930433D01*
X145926554Y-133923200D01*
X145874095Y-133919055D01*
X145861308Y-133918672D01*
X145818199Y-133921176D01*
X145756544Y-133927462D01*
X145732638Y-133930433D01*
X145673922Y-133935028D01*
X145634464Y-133925046D01*
X145595338Y-133894228D01*
X145581215Y-133880363D01*
X145519385Y-133818533D01*
X145519385Y-133163503D01*
X145569150Y-133140829D01*
X145612002Y-133124034D01*
X145637073Y-133118154D01*
X145643501Y-133136736D01*
X145649509Y-133188655D01*
X145654697Y-133268172D01*
X145658664Y-133369546D01*
X145660577Y-133455192D01*
X145665923Y-133792231D01*
X145712560Y-133798825D01*
X145754976Y-133794214D01*
X145775760Y-133779287D01*
X145781570Y-133751377D01*
X145786530Y-133691925D01*
X145790246Y-133608466D01*
X145792324Y-133508532D01*
X145792624Y-133457104D01*
X145792923Y-133161054D01*
X145854454Y-133139604D01*
X145898004Y-133125020D01*
X145921694Y-133118219D01*
X145922377Y-133118154D01*
X145924754Y-133136642D01*
X145927366Y-133187906D01*
X145929995Y-133265649D01*
X145932421Y-133363574D01*
X145934115Y-133455192D01*
X145939461Y-133792231D01*
X146056692Y-133792231D01*
X146062072Y-133484746D01*
X146067451Y-133177261D01*
X146124601Y-133147707D01*
X146166797Y-133127413D01*
X146191770Y-133118204D01*
X146192491Y-133118154D01*
X146195929Y-133136662D01*
G37*
X146195929Y-133136662D02*
X146198911Y-133188068D01*
X146201247Y-133266192D01*
X146202749Y-133364857D01*
X146203231Y-133468343D01*
X146203231Y-133818533D01*
X146141401Y-133880363D01*
X146098793Y-133918462D01*
X146061390Y-133933895D01*
X146010270Y-133932918D01*
X145989978Y-133930433D01*
X145926554Y-133923200D01*
X145874095Y-133919055D01*
X145861308Y-133918672D01*
X145818199Y-133921176D01*
X145756544Y-133927462D01*
X145732638Y-133930433D01*
X145673922Y-133935028D01*
X145634464Y-133925046D01*
X145595338Y-133894228D01*
X145581215Y-133880363D01*
X145519385Y-133818533D01*
X145519385Y-133163503D01*
X145569150Y-133140829D01*
X145612002Y-133124034D01*
X145637073Y-133118154D01*
X145643501Y-133136736D01*
X145649509Y-133188655D01*
X145654697Y-133268172D01*
X145658664Y-133369546D01*
X145660577Y-133455192D01*
X145665923Y-133792231D01*
X145712560Y-133798825D01*
X145754976Y-133794214D01*
X145775760Y-133779287D01*
X145781570Y-133751377D01*
X145786530Y-133691925D01*
X145790246Y-133608466D01*
X145792324Y-133508532D01*
X145792624Y-133457104D01*
X145792923Y-133161054D01*
X145854454Y-133139604D01*
X145898004Y-133125020D01*
X145921694Y-133118219D01*
X145922377Y-133118154D01*
X145924754Y-133136642D01*
X145927366Y-133187906D01*
X145929995Y-133265649D01*
X145932421Y-133363574D01*
X145934115Y-133455192D01*
X145939461Y-133792231D01*
X146056692Y-133792231D01*
X146062072Y-133484746D01*
X146067451Y-133177261D01*
X146124601Y-133147707D01*
X146166797Y-133127413D01*
X146191770Y-133118204D01*
X146192491Y-133118154D01*
X146195929Y-133136662D01*
G36*
X145402081Y-133280289D02*
G01*
X145401833Y-133426320D01*
X145400872Y-133538655D01*
X145398794Y-133622678D01*
X145395193Y-133683769D01*
X145389665Y-133727309D01*
X145381804Y-133758679D01*
X145371207Y-133783262D01*
X145363182Y-133797294D01*
X145296728Y-133873388D01*
X145212470Y-133921084D01*
X145119249Y-133938199D01*
X145025900Y-133922546D01*
X144970312Y-133894418D01*
X144911957Y-133845760D01*
X144872186Y-133786333D01*
X144848190Y-133708507D01*
X144837161Y-133604652D01*
X144835599Y-133528462D01*
X144835809Y-133522986D01*
X144972308Y-133522986D01*
X144973141Y-133610355D01*
X144976961Y-133668192D01*
X144985746Y-133706029D01*
X145001474Y-133733398D01*
X145020266Y-133754042D01*
X145083375Y-133793890D01*
X145151137Y-133797295D01*
X145215179Y-133764025D01*
X145220164Y-133759517D01*
X145241439Y-133736067D01*
X145254779Y-133708166D01*
X145262001Y-133666641D01*
X145264923Y-133602316D01*
X145265385Y-133531200D01*
X145264383Y-133441858D01*
X145260238Y-133382258D01*
X145251236Y-133343089D01*
X145235667Y-133315040D01*
X145222902Y-133300144D01*
X145163600Y-133262575D01*
X145095301Y-133258057D01*
X145030110Y-133286753D01*
X145017528Y-133297406D01*
X144996111Y-133321063D01*
X144982744Y-133349251D01*
X144975566Y-133391245D01*
X144972719Y-133456319D01*
X144972308Y-133522986D01*
X144835809Y-133522986D01*
X144840322Y-133405765D01*
X144856362Y-133313577D01*
X144886528Y-133244269D01*
X144933629Y-133190211D01*
X144970312Y-133162505D01*
X145036990Y-133132572D01*
X145114272Y-133118678D01*
X145186110Y-133122397D01*
X145226308Y-133137400D01*
X145242082Y-133141670D01*
X145252550Y-133125750D01*
X145259856Y-133083089D01*
X145265385Y-133018106D01*
X145271437Y-132945732D01*
X145279844Y-132902187D01*
X145295141Y-132877287D01*
X145321864Y-132860845D01*
X145338654Y-132853564D01*
X145402154Y-132826963D01*
X145402081Y-133280289D01*
G37*
X145402081Y-133280289D02*
X145401833Y-133426320D01*
X145400872Y-133538655D01*
X145398794Y-133622678D01*
X145395193Y-133683769D01*
X145389665Y-133727309D01*
X145381804Y-133758679D01*
X145371207Y-133783262D01*
X145363182Y-133797294D01*
X145296728Y-133873388D01*
X145212470Y-133921084D01*
X145119249Y-133938199D01*
X145025900Y-133922546D01*
X144970312Y-133894418D01*
X144911957Y-133845760D01*
X144872186Y-133786333D01*
X144848190Y-133708507D01*
X144837161Y-133604652D01*
X144835599Y-133528462D01*
X144835809Y-133522986D01*
X144972308Y-133522986D01*
X144973141Y-133610355D01*
X144976961Y-133668192D01*
X144985746Y-133706029D01*
X145001474Y-133733398D01*
X145020266Y-133754042D01*
X145083375Y-133793890D01*
X145151137Y-133797295D01*
X145215179Y-133764025D01*
X145220164Y-133759517D01*
X145241439Y-133736067D01*
X145254779Y-133708166D01*
X145262001Y-133666641D01*
X145264923Y-133602316D01*
X145265385Y-133531200D01*
X145264383Y-133441858D01*
X145260238Y-133382258D01*
X145251236Y-133343089D01*
X145235667Y-133315040D01*
X145222902Y-133300144D01*
X145163600Y-133262575D01*
X145095301Y-133258057D01*
X145030110Y-133286753D01*
X145017528Y-133297406D01*
X144996111Y-133321063D01*
X144982744Y-133349251D01*
X144975566Y-133391245D01*
X144972719Y-133456319D01*
X144972308Y-133522986D01*
X144835809Y-133522986D01*
X144840322Y-133405765D01*
X144856362Y-133313577D01*
X144886528Y-133244269D01*
X144933629Y-133190211D01*
X144970312Y-133162505D01*
X145036990Y-133132572D01*
X145114272Y-133118678D01*
X145186110Y-133122397D01*
X145226308Y-133137400D01*
X145242082Y-133141670D01*
X145252550Y-133125750D01*
X145259856Y-133083089D01*
X145265385Y-133018106D01*
X145271437Y-132945732D01*
X145279844Y-132902187D01*
X145295141Y-132877287D01*
X145321864Y-132860845D01*
X145338654Y-132853564D01*
X145402154Y-132826963D01*
X145402081Y-133280289D01*
G36*
X144513362Y-133124670D02*
G01*
X144602117Y-133157421D01*
X144674022Y-133215350D01*
X144702144Y-133256128D01*
X144732802Y-133330954D01*
X144732165Y-133385058D01*
X144699987Y-133421446D01*
X144688081Y-133427633D01*
X144636675Y-133446925D01*
X144610422Y-133441982D01*
X144601530Y-133409587D01*
X144601077Y-133391692D01*
X144584797Y-133325859D01*
X144542365Y-133279807D01*
X144483388Y-133257564D01*
X144417475Y-133263161D01*
X144363895Y-133292229D01*
X144345798Y-133308810D01*
X144332971Y-133328925D01*
X144324306Y-133359332D01*
X144318696Y-133406788D01*
X144315035Y-133478050D01*
X144312215Y-133579875D01*
X144311484Y-133612115D01*
X144308820Y-133722410D01*
X144305792Y-133800036D01*
X144301250Y-133851396D01*
X144294046Y-133882890D01*
X144283033Y-133900920D01*
X144267060Y-133911888D01*
X144256834Y-133916733D01*
X144213406Y-133933301D01*
X144187842Y-133938769D01*
X144179395Y-133920507D01*
X144174239Y-133865296D01*
X144172346Y-133772499D01*
X144173689Y-133641478D01*
X144174107Y-133621269D01*
X144177058Y-133501733D01*
X144180548Y-133414449D01*
X144185514Y-133352591D01*
X144192893Y-133309336D01*
X144203624Y-133277860D01*
X144218645Y-133251339D01*
X144226502Y-133239975D01*
X144271553Y-133189692D01*
X144321940Y-133150581D01*
X144328108Y-133147167D01*
X144418458Y-133120212D01*
X144513362Y-133124670D01*
G37*
X144513362Y-133124670D02*
X144602117Y-133157421D01*
X144674022Y-133215350D01*
X144702144Y-133256128D01*
X144732802Y-133330954D01*
X144732165Y-133385058D01*
X144699987Y-133421446D01*
X144688081Y-133427633D01*
X144636675Y-133446925D01*
X144610422Y-133441982D01*
X144601530Y-133409587D01*
X144601077Y-133391692D01*
X144584797Y-133325859D01*
X144542365Y-133279807D01*
X144483388Y-133257564D01*
X144417475Y-133263161D01*
X144363895Y-133292229D01*
X144345798Y-133308810D01*
X144332971Y-133328925D01*
X144324306Y-133359332D01*
X144318696Y-133406788D01*
X144315035Y-133478050D01*
X144312215Y-133579875D01*
X144311484Y-133612115D01*
X144308820Y-133722410D01*
X144305792Y-133800036D01*
X144301250Y-133851396D01*
X144294046Y-133882890D01*
X144283033Y-133900920D01*
X144267060Y-133911888D01*
X144256834Y-133916733D01*
X144213406Y-133933301D01*
X144187842Y-133938769D01*
X144179395Y-133920507D01*
X144174239Y-133865296D01*
X144172346Y-133772499D01*
X144173689Y-133641478D01*
X144174107Y-133621269D01*
X144177058Y-133501733D01*
X144180548Y-133414449D01*
X144185514Y-133352591D01*
X144192893Y-133309336D01*
X144203624Y-133277860D01*
X144218645Y-133251339D01*
X144226502Y-133239975D01*
X144271553Y-133189692D01*
X144321940Y-133150581D01*
X144328108Y-133147167D01*
X144418458Y-133120212D01*
X144513362Y-133124670D01*
G36*
X143853501Y-133126303D02*
G01*
X143930060Y-133154733D01*
X143930936Y-133155279D01*
X143978285Y-133190127D01*
X144013241Y-133230852D01*
X144037825Y-133283925D01*
X144054062Y-133355814D01*
X144063975Y-133452992D01*
X144069586Y-133581928D01*
X144070077Y-133600298D01*
X144077141Y-133877287D01*
X144017695Y-133908028D01*
X143974681Y-133928802D01*
X143948710Y-133938646D01*
X143947509Y-133938769D01*
X143943014Y-133920606D01*
X143939444Y-133871612D01*
X143937248Y-133800031D01*
X143936769Y-133742068D01*
X143936758Y-133648170D01*
X143932466Y-133589203D01*
X143917503Y-133561079D01*
X143885482Y-133559706D01*
X143830014Y-133580998D01*
X143746269Y-133620136D01*
X143684689Y-133652643D01*
X143653017Y-133680845D01*
X143643706Y-133711582D01*
X143643692Y-133713104D01*
X143659057Y-133766054D01*
X143704547Y-133794660D01*
X143774166Y-133798803D01*
X143824313Y-133798084D01*
X143850754Y-133812527D01*
X143867243Y-133847218D01*
X143876733Y-133891416D01*
X143863057Y-133916493D01*
X143857907Y-133920082D01*
X143809425Y-133934496D01*
X143741531Y-133936537D01*
X143671612Y-133926983D01*
X143622068Y-133909522D01*
X143553570Y-133851364D01*
X143514634Y-133770408D01*
X143506923Y-133707160D01*
X143512807Y-133650111D01*
X143534101Y-133603542D01*
X143576265Y-133562181D01*
X143644759Y-133520755D01*
X143745044Y-133473993D01*
X143751154Y-133471350D01*
X143841490Y-133429617D01*
X143897235Y-133395391D01*
X143921129Y-133364635D01*
X143915913Y-133333311D01*
X143884328Y-133297383D01*
X143874883Y-133289116D01*
X143811617Y-133257058D01*
X143746064Y-133258407D01*
X143688972Y-133289838D01*
X143651093Y-133348024D01*
X143647574Y-133359446D01*
X143613300Y-133414837D01*
X143569809Y-133441518D01*
X143506923Y-133467960D01*
X143506923Y-133399548D01*
X143526052Y-133300110D01*
X143582831Y-133208902D01*
X143612378Y-133178389D01*
X143679542Y-133139228D01*
X143764956Y-133121500D01*
X143853501Y-133126303D01*
G37*
X143853501Y-133126303D02*
X143930060Y-133154733D01*
X143930936Y-133155279D01*
X143978285Y-133190127D01*
X144013241Y-133230852D01*
X144037825Y-133283925D01*
X144054062Y-133355814D01*
X144063975Y-133452992D01*
X144069586Y-133581928D01*
X144070077Y-133600298D01*
X144077141Y-133877287D01*
X144017695Y-133908028D01*
X143974681Y-133928802D01*
X143948710Y-133938646D01*
X143947509Y-133938769D01*
X143943014Y-133920606D01*
X143939444Y-133871612D01*
X143937248Y-133800031D01*
X143936769Y-133742068D01*
X143936758Y-133648170D01*
X143932466Y-133589203D01*
X143917503Y-133561079D01*
X143885482Y-133559706D01*
X143830014Y-133580998D01*
X143746269Y-133620136D01*
X143684689Y-133652643D01*
X143653017Y-133680845D01*
X143643706Y-133711582D01*
X143643692Y-133713104D01*
X143659057Y-133766054D01*
X143704547Y-133794660D01*
X143774166Y-133798803D01*
X143824313Y-133798084D01*
X143850754Y-133812527D01*
X143867243Y-133847218D01*
X143876733Y-133891416D01*
X143863057Y-133916493D01*
X143857907Y-133920082D01*
X143809425Y-133934496D01*
X143741531Y-133936537D01*
X143671612Y-133926983D01*
X143622068Y-133909522D01*
X143553570Y-133851364D01*
X143514634Y-133770408D01*
X143506923Y-133707160D01*
X143512807Y-133650111D01*
X143534101Y-133603542D01*
X143576265Y-133562181D01*
X143644759Y-133520755D01*
X143745044Y-133473993D01*
X143751154Y-133471350D01*
X143841490Y-133429617D01*
X143897235Y-133395391D01*
X143921129Y-133364635D01*
X143915913Y-133333311D01*
X143884328Y-133297383D01*
X143874883Y-133289116D01*
X143811617Y-133257058D01*
X143746064Y-133258407D01*
X143688972Y-133289838D01*
X143651093Y-133348024D01*
X143647574Y-133359446D01*
X143613300Y-133414837D01*
X143569809Y-133441518D01*
X143506923Y-133467960D01*
X143506923Y-133399548D01*
X143526052Y-133300110D01*
X143582831Y-133208902D01*
X143612378Y-133178389D01*
X143679542Y-133139228D01*
X143764956Y-133121500D01*
X143853501Y-133126303D01*
G36*
X142959846Y-132992120D02*
G01*
X142965572Y-133071980D01*
X142972149Y-133119039D01*
X142981262Y-133139566D01*
X142994598Y-133139829D01*
X142998923Y-133137378D01*
X143056444Y-133119636D01*
X143131268Y-133120672D01*
X143207339Y-133138910D01*
X143254918Y-133162505D01*
X143303702Y-133200198D01*
X143339364Y-133242855D01*
X143363845Y-133297057D01*
X143379087Y-133369384D01*
X143387030Y-133466419D01*
X143389616Y-133594742D01*
X143389662Y-133619358D01*
X143389692Y-133895870D01*
X143328161Y-133917320D01*
X143284459Y-133931912D01*
X143260482Y-133938706D01*
X143259777Y-133938769D01*
X143257415Y-133920345D01*
X143255406Y-133869526D01*
X143253901Y-133792993D01*
X143253053Y-133697430D01*
X143252923Y-133639329D01*
X143252651Y-133524771D01*
X143251252Y-133442667D01*
X143247849Y-133386393D01*
X143241567Y-133349326D01*
X143231529Y-133324844D01*
X143216861Y-133306325D01*
X143207702Y-133297406D01*
X143144789Y-133261466D01*
X143076136Y-133258775D01*
X143013848Y-133289170D01*
X143002329Y-133300144D01*
X142985433Y-133320779D01*
X142973714Y-133345256D01*
X142966233Y-133380647D01*
X142962054Y-133434026D01*
X142960237Y-133512466D01*
X142959846Y-133620617D01*
X142959846Y-133895870D01*
X142898315Y-133917320D01*
X142854613Y-133931912D01*
X142830636Y-133938706D01*
X142829930Y-133938769D01*
X142828126Y-133920069D01*
X142826500Y-133867322D01*
X142825117Y-133785557D01*
X142824042Y-133679805D01*
X142823340Y-133555094D01*
X142823077Y-133416455D01*
X142823077Y-132881806D01*
X142950077Y-132828236D01*
X142959846Y-132992120D01*
G37*
X142959846Y-132992120D02*
X142965572Y-133071980D01*
X142972149Y-133119039D01*
X142981262Y-133139566D01*
X142994598Y-133139829D01*
X142998923Y-133137378D01*
X143056444Y-133119636D01*
X143131268Y-133120672D01*
X143207339Y-133138910D01*
X143254918Y-133162505D01*
X143303702Y-133200198D01*
X143339364Y-133242855D01*
X143363845Y-133297057D01*
X143379087Y-133369384D01*
X143387030Y-133466419D01*
X143389616Y-133594742D01*
X143389662Y-133619358D01*
X143389692Y-133895870D01*
X143328161Y-133917320D01*
X143284459Y-133931912D01*
X143260482Y-133938706D01*
X143259777Y-133938769D01*
X143257415Y-133920345D01*
X143255406Y-133869526D01*
X143253901Y-133792993D01*
X143253053Y-133697430D01*
X143252923Y-133639329D01*
X143252651Y-133524771D01*
X143251252Y-133442667D01*
X143247849Y-133386393D01*
X143241567Y-133349326D01*
X143231529Y-133324844D01*
X143216861Y-133306325D01*
X143207702Y-133297406D01*
X143144789Y-133261466D01*
X143076136Y-133258775D01*
X143013848Y-133289170D01*
X143002329Y-133300144D01*
X142985433Y-133320779D01*
X142973714Y-133345256D01*
X142966233Y-133380647D01*
X142962054Y-133434026D01*
X142960237Y-133512466D01*
X142959846Y-133620617D01*
X142959846Y-133895870D01*
X142898315Y-133917320D01*
X142854613Y-133931912D01*
X142830636Y-133938706D01*
X142829930Y-133938769D01*
X142828126Y-133920069D01*
X142826500Y-133867322D01*
X142825117Y-133785557D01*
X142824042Y-133679805D01*
X142823340Y-133555094D01*
X142823077Y-133416455D01*
X142823077Y-132881806D01*
X142950077Y-132828236D01*
X142959846Y-132992120D01*
G36*
X141334254Y-133099745D02*
G01*
X141411286Y-133151567D01*
X141470816Y-133226412D01*
X141506378Y-133321654D01*
X141513571Y-133391756D01*
X141512754Y-133421009D01*
X141505914Y-133443407D01*
X141487112Y-133463474D01*
X141450408Y-133485733D01*
X141389862Y-133514709D01*
X141299534Y-133554927D01*
X141299077Y-133555129D01*
X141215933Y-133593210D01*
X141147753Y-133627025D01*
X141101505Y-133652933D01*
X141084158Y-133667295D01*
X141084154Y-133667411D01*
X141099443Y-133698685D01*
X141135196Y-133733157D01*
X141176242Y-133757990D01*
X141197037Y-133762923D01*
X141253770Y-133745862D01*
X141302627Y-133703133D01*
X141326465Y-133656155D01*
X141349397Y-133621522D01*
X141394318Y-133582081D01*
X141447123Y-133548009D01*
X141493710Y-133529480D01*
X141503452Y-133528462D01*
X141514418Y-133545215D01*
X141515079Y-133588039D01*
X141507020Y-133645781D01*
X141491827Y-133707289D01*
X141471086Y-133761409D01*
X141470038Y-133763510D01*
X141407621Y-133850660D01*
X141326726Y-133909939D01*
X141234856Y-133939034D01*
X141139513Y-133935634D01*
X141048198Y-133897428D01*
X141044138Y-133894741D01*
X140972306Y-133829642D01*
X140925073Y-133744705D01*
X140898934Y-133633021D01*
X140895426Y-133601643D01*
X140889213Y-133453536D01*
X140896661Y-133384468D01*
X141084154Y-133384468D01*
X141086590Y-133427552D01*
X141099914Y-133440126D01*
X141133132Y-133430719D01*
X141185494Y-133408483D01*
X141244024Y-133380610D01*
X141245479Y-133379872D01*
X141295089Y-133353777D01*
X141315000Y-133336363D01*
X141310090Y-133318107D01*
X141289416Y-133294120D01*
X141236819Y-133259406D01*
X141180177Y-133256856D01*
X141129369Y-133282119D01*
X141094276Y-133330847D01*
X141084154Y-133384468D01*
X140896661Y-133384468D01*
X140901992Y-133335036D01*
X140934778Y-133241055D01*
X140980421Y-133175215D01*
X141062802Y-133108681D01*
X141153546Y-133075676D01*
X141246185Y-133073573D01*
X141334254Y-133099745D01*
G37*
X141334254Y-133099745D02*
X141411286Y-133151567D01*
X141470816Y-133226412D01*
X141506378Y-133321654D01*
X141513571Y-133391756D01*
X141512754Y-133421009D01*
X141505914Y-133443407D01*
X141487112Y-133463474D01*
X141450408Y-133485733D01*
X141389862Y-133514709D01*
X141299534Y-133554927D01*
X141299077Y-133555129D01*
X141215933Y-133593210D01*
X141147753Y-133627025D01*
X141101505Y-133652933D01*
X141084158Y-133667295D01*
X141084154Y-133667411D01*
X141099443Y-133698685D01*
X141135196Y-133733157D01*
X141176242Y-133757990D01*
X141197037Y-133762923D01*
X141253770Y-133745862D01*
X141302627Y-133703133D01*
X141326465Y-133656155D01*
X141349397Y-133621522D01*
X141394318Y-133582081D01*
X141447123Y-133548009D01*
X141493710Y-133529480D01*
X141503452Y-133528462D01*
X141514418Y-133545215D01*
X141515079Y-133588039D01*
X141507020Y-133645781D01*
X141491827Y-133707289D01*
X141471086Y-133761409D01*
X141470038Y-133763510D01*
X141407621Y-133850660D01*
X141326726Y-133909939D01*
X141234856Y-133939034D01*
X141139513Y-133935634D01*
X141048198Y-133897428D01*
X141044138Y-133894741D01*
X140972306Y-133829642D01*
X140925073Y-133744705D01*
X140898934Y-133633021D01*
X140895426Y-133601643D01*
X140889213Y-133453536D01*
X140896661Y-133384468D01*
X141084154Y-133384468D01*
X141086590Y-133427552D01*
X141099914Y-133440126D01*
X141133132Y-133430719D01*
X141185494Y-133408483D01*
X141244024Y-133380610D01*
X141245479Y-133379872D01*
X141295089Y-133353777D01*
X141315000Y-133336363D01*
X141310090Y-133318107D01*
X141289416Y-133294120D01*
X141236819Y-133259406D01*
X141180177Y-133256856D01*
X141129369Y-133282119D01*
X141094276Y-133330847D01*
X141084154Y-133384468D01*
X140896661Y-133384468D01*
X140901992Y-133335036D01*
X140934778Y-133241055D01*
X140980421Y-133175215D01*
X141062802Y-133108681D01*
X141153546Y-133075676D01*
X141246185Y-133073573D01*
X141334254Y-133099745D01*
G36*
X139816886Y-133087256D02*
G01*
X139908464Y-133135409D01*
X139976049Y-133212905D01*
X140000057Y-133262727D01*
X140018738Y-133337533D01*
X140028301Y-133432052D01*
X140029208Y-133535210D01*
X140021921Y-133635935D01*
X140006903Y-133723153D01*
X139984615Y-133785791D01*
X139977765Y-133796579D01*
X139896632Y-133877105D01*
X139800266Y-133925336D01*
X139695701Y-133939450D01*
X139589968Y-133917629D01*
X139560543Y-133904547D01*
X139503241Y-133864231D01*
X139452950Y-133810775D01*
X139448197Y-133803995D01*
X139428878Y-133771321D01*
X139416108Y-133736394D01*
X139408564Y-133690414D01*
X139404924Y-133624584D01*
X139403865Y-133530105D01*
X139403846Y-133508923D01*
X139403894Y-133502182D01*
X139599231Y-133502182D01*
X139600368Y-133591349D01*
X139604841Y-133650520D01*
X139614246Y-133688741D01*
X139630176Y-133715053D01*
X139638308Y-133723846D01*
X139685058Y-133757261D01*
X139730447Y-133755737D01*
X139776340Y-133726752D01*
X139803712Y-133695809D01*
X139819923Y-133650643D01*
X139829026Y-133579420D01*
X139829651Y-133571114D01*
X139831204Y-133442037D01*
X139814965Y-133346172D01*
X139781152Y-133284107D01*
X139729984Y-133256432D01*
X139711720Y-133254923D01*
X139663760Y-133262513D01*
X139630953Y-133288808D01*
X139610895Y-133339095D01*
X139601178Y-133418664D01*
X139599231Y-133502182D01*
X139403894Y-133502182D01*
X139404574Y-133408249D01*
X139407629Y-133337906D01*
X139414322Y-133289163D01*
X139425960Y-133253288D01*
X139443853Y-133221548D01*
X139447808Y-133215648D01*
X139514267Y-133136104D01*
X139586685Y-133089929D01*
X139674849Y-133071599D01*
X139704787Y-133070703D01*
X139816886Y-133087256D01*
G37*
X139816886Y-133087256D02*
X139908464Y-133135409D01*
X139976049Y-133212905D01*
X140000057Y-133262727D01*
X140018738Y-133337533D01*
X140028301Y-133432052D01*
X140029208Y-133535210D01*
X140021921Y-133635935D01*
X140006903Y-133723153D01*
X139984615Y-133785791D01*
X139977765Y-133796579D01*
X139896632Y-133877105D01*
X139800266Y-133925336D01*
X139695701Y-133939450D01*
X139589968Y-133917629D01*
X139560543Y-133904547D01*
X139503241Y-133864231D01*
X139452950Y-133810775D01*
X139448197Y-133803995D01*
X139428878Y-133771321D01*
X139416108Y-133736394D01*
X139408564Y-133690414D01*
X139404924Y-133624584D01*
X139403865Y-133530105D01*
X139403846Y-133508923D01*
X139403894Y-133502182D01*
X139599231Y-133502182D01*
X139600368Y-133591349D01*
X139604841Y-133650520D01*
X139614246Y-133688741D01*
X139630176Y-133715053D01*
X139638308Y-133723846D01*
X139685058Y-133757261D01*
X139730447Y-133755737D01*
X139776340Y-133726752D01*
X139803712Y-133695809D01*
X139819923Y-133650643D01*
X139829026Y-133579420D01*
X139829651Y-133571114D01*
X139831204Y-133442037D01*
X139814965Y-133346172D01*
X139781152Y-133284107D01*
X139729984Y-133256432D01*
X139711720Y-133254923D01*
X139663760Y-133262513D01*
X139630953Y-133288808D01*
X139610895Y-133339095D01*
X139601178Y-133418664D01*
X139599231Y-133502182D01*
X139403894Y-133502182D01*
X139404574Y-133408249D01*
X139407629Y-133337906D01*
X139414322Y-133289163D01*
X139425960Y-133253288D01*
X139443853Y-133221548D01*
X139447808Y-133215648D01*
X139514267Y-133136104D01*
X139586685Y-133089929D01*
X139674849Y-133071599D01*
X139704787Y-133070703D01*
X139816886Y-133087256D01*
G36*
X142071664Y-133095089D02*
G01*
X142134367Y-133131358D01*
X142177961Y-133167358D01*
X142209845Y-133205075D01*
X142231810Y-133251199D01*
X142245649Y-133312421D01*
X142253153Y-133395431D01*
X142256117Y-133506919D01*
X142256461Y-133587062D01*
X142256461Y-133882065D01*
X142090385Y-133956515D01*
X142080615Y-133633402D01*
X142076579Y-133512729D01*
X142072344Y-133425141D01*
X142067097Y-133364650D01*
X142060025Y-133325268D01*
X142050311Y-133301007D01*
X142037144Y-133285880D01*
X142032919Y-133282606D01*
X141968909Y-133257034D01*
X141904208Y-133267153D01*
X141865692Y-133294000D01*
X141850025Y-133313024D01*
X141839180Y-133337988D01*
X141832288Y-133375834D01*
X141828479Y-133433502D01*
X141826883Y-133517935D01*
X141826615Y-133605928D01*
X141826563Y-133716323D01*
X141824672Y-133794463D01*
X141818345Y-133847165D01*
X141804983Y-133881242D01*
X141781985Y-133903511D01*
X141746754Y-133920787D01*
X141699697Y-133938738D01*
X141648303Y-133958278D01*
X141654421Y-133611485D01*
X141656884Y-133486468D01*
X141659767Y-133394082D01*
X141663898Y-133327881D01*
X141670107Y-133281420D01*
X141679226Y-133248256D01*
X141692083Y-133221944D01*
X141707584Y-133198729D01*
X141782371Y-133124569D01*
X141873628Y-133081684D01*
X141972883Y-133071412D01*
X142071664Y-133095089D01*
G37*
X142071664Y-133095089D02*
X142134367Y-133131358D01*
X142177961Y-133167358D01*
X142209845Y-133205075D01*
X142231810Y-133251199D01*
X142245649Y-133312421D01*
X142253153Y-133395431D01*
X142256117Y-133506919D01*
X142256461Y-133587062D01*
X142256461Y-133882065D01*
X142090385Y-133956515D01*
X142080615Y-133633402D01*
X142076579Y-133512729D01*
X142072344Y-133425141D01*
X142067097Y-133364650D01*
X142060025Y-133325268D01*
X142050311Y-133301007D01*
X142037144Y-133285880D01*
X142032919Y-133282606D01*
X141968909Y-133257034D01*
X141904208Y-133267153D01*
X141865692Y-133294000D01*
X141850025Y-133313024D01*
X141839180Y-133337988D01*
X141832288Y-133375834D01*
X141828479Y-133433502D01*
X141826883Y-133517935D01*
X141826615Y-133605928D01*
X141826563Y-133716323D01*
X141824672Y-133794463D01*
X141818345Y-133847165D01*
X141804983Y-133881242D01*
X141781985Y-133903511D01*
X141746754Y-133920787D01*
X141699697Y-133938738D01*
X141648303Y-133958278D01*
X141654421Y-133611485D01*
X141656884Y-133486468D01*
X141659767Y-133394082D01*
X141663898Y-133327881D01*
X141670107Y-133281420D01*
X141679226Y-133248256D01*
X141692083Y-133221944D01*
X141707584Y-133198729D01*
X141782371Y-133124569D01*
X141873628Y-133081684D01*
X141972883Y-133071412D01*
X142071664Y-133095089D01*
G36*
X140568886Y-133084505D02*
G01*
X140643539Y-133121727D01*
X140709431Y-133190261D01*
X140727577Y-133215648D01*
X140747345Y-133248866D01*
X140760172Y-133284945D01*
X140767510Y-133333098D01*
X140770813Y-133402536D01*
X140771538Y-133494206D01*
X140768263Y-133619830D01*
X140756877Y-133714154D01*
X140735041Y-133784523D01*
X140700419Y-133838286D01*
X140650670Y-133882788D01*
X140647014Y-133885423D01*
X140597985Y-133912377D01*
X140538945Y-133925712D01*
X140463859Y-133929000D01*
X140341795Y-133929000D01*
X140341744Y-134047497D01*
X140340608Y-134113492D01*
X140333686Y-134152202D01*
X140315598Y-134175419D01*
X140280962Y-134194933D01*
X140272645Y-134198920D01*
X140233720Y-134217603D01*
X140203583Y-134229403D01*
X140181174Y-134230422D01*
X140165433Y-134216761D01*
X140155302Y-134184522D01*
X140149723Y-134129804D01*
X140147635Y-134048711D01*
X140147981Y-133937344D01*
X140149700Y-133791802D01*
X140150237Y-133748269D01*
X140152172Y-133598205D01*
X140153904Y-133500042D01*
X140341692Y-133500042D01*
X140342748Y-133583364D01*
X140347438Y-133637880D01*
X140358051Y-133673837D01*
X140376872Y-133701482D01*
X140389650Y-133714965D01*
X140441890Y-133754417D01*
X140488142Y-133757628D01*
X140535867Y-133725049D01*
X140537077Y-133723846D01*
X140556494Y-133698668D01*
X140568307Y-133664447D01*
X140574265Y-133611748D01*
X140576120Y-133531131D01*
X140576154Y-133513271D01*
X140571670Y-133402175D01*
X140557074Y-133325161D01*
X140530650Y-133278147D01*
X140490683Y-133257050D01*
X140467584Y-133254923D01*
X140412762Y-133264900D01*
X140375158Y-133297752D01*
X140352523Y-133357857D01*
X140342606Y-133449598D01*
X140341692Y-133500042D01*
X140153904Y-133500042D01*
X140154222Y-133482060D01*
X140156873Y-133394679D01*
X140160606Y-133330905D01*
X140165907Y-133285582D01*
X140173258Y-133253555D01*
X140183143Y-133229668D01*
X140196046Y-133208764D01*
X140201579Y-133200898D01*
X140274969Y-133126595D01*
X140367760Y-133084467D01*
X140475096Y-133072722D01*
X140568886Y-133084505D01*
G37*
X140568886Y-133084505D02*
X140643539Y-133121727D01*
X140709431Y-133190261D01*
X140727577Y-133215648D01*
X140747345Y-133248866D01*
X140760172Y-133284945D01*
X140767510Y-133333098D01*
X140770813Y-133402536D01*
X140771538Y-133494206D01*
X140768263Y-133619830D01*
X140756877Y-133714154D01*
X140735041Y-133784523D01*
X140700419Y-133838286D01*
X140650670Y-133882788D01*
X140647014Y-133885423D01*
X140597985Y-133912377D01*
X140538945Y-133925712D01*
X140463859Y-133929000D01*
X140341795Y-133929000D01*
X140341744Y-134047497D01*
X140340608Y-134113492D01*
X140333686Y-134152202D01*
X140315598Y-134175419D01*
X140280962Y-134194933D01*
X140272645Y-134198920D01*
X140233720Y-134217603D01*
X140203583Y-134229403D01*
X140181174Y-134230422D01*
X140165433Y-134216761D01*
X140155302Y-134184522D01*
X140149723Y-134129804D01*
X140147635Y-134048711D01*
X140147981Y-133937344D01*
X140149700Y-133791802D01*
X140150237Y-133748269D01*
X140152172Y-133598205D01*
X140153904Y-133500042D01*
X140341692Y-133500042D01*
X140342748Y-133583364D01*
X140347438Y-133637880D01*
X140358051Y-133673837D01*
X140376872Y-133701482D01*
X140389650Y-133714965D01*
X140441890Y-133754417D01*
X140488142Y-133757628D01*
X140535867Y-133725049D01*
X140537077Y-133723846D01*
X140556494Y-133698668D01*
X140568307Y-133664447D01*
X140574265Y-133611748D01*
X140576120Y-133531131D01*
X140576154Y-133513271D01*
X140571670Y-133402175D01*
X140557074Y-133325161D01*
X140530650Y-133278147D01*
X140490683Y-133257050D01*
X140467584Y-133254923D01*
X140412762Y-133264900D01*
X140375158Y-133297752D01*
X140352523Y-133357857D01*
X140342606Y-133449598D01*
X140341692Y-133500042D01*
X140153904Y-133500042D01*
X140154222Y-133482060D01*
X140156873Y-133394679D01*
X140160606Y-133330905D01*
X140165907Y-133285582D01*
X140173258Y-133253555D01*
X140183143Y-133229668D01*
X140196046Y-133208764D01*
X140201579Y-133200898D01*
X140274969Y-133126595D01*
X140367760Y-133084467D01*
X140475096Y-133072722D01*
X140568886Y-133084505D01*
D13*
X214800000Y-135600000D02*
X214800000Y-123600000D01*
X214800000Y-123600000D02*
X225800000Y-123600000D01*
X214800000Y-135600000D02*
X225800000Y-135600000D01*
X225800000Y-135600000D02*
X225800000Y-134100000D01*
X225800000Y-134100000D02*
X226700000Y-134100000D01*
X225800000Y-125100000D02*
X225800000Y-123600000D01*
X226700000Y-125100000D02*
X225800000Y-125100000D01*
D14*
X222470000Y-136100000D02*
G75*
G03X222470000Y-136100000I-170000J0D01*
G01*
D11*
X110875000Y-115510000D02*
X110875000Y-117325000D01*
X110640000Y-115510000D02*
X110875000Y-115510000D01*
X110640000Y-111650000D02*
X110640000Y-115510000D01*
X110640000Y-107790000D02*
X110875000Y-107790000D01*
X110640000Y-111650000D02*
X110640000Y-107790000D01*
X123660000Y-115510000D02*
X123425000Y-115510000D01*
X123660000Y-111650000D02*
X123660000Y-115510000D01*
X123660000Y-107790000D02*
X123425000Y-107790000D01*
X123660000Y-111650000D02*
X123660000Y-107790000D01*
X96175000Y-115510000D02*
X96175000Y-117325000D01*
X95940000Y-115510000D02*
X96175000Y-115510000D01*
X95940000Y-111650000D02*
X95940000Y-115510000D01*
X95940000Y-107790000D02*
X96175000Y-107790000D01*
X95940000Y-111650000D02*
X95940000Y-107790000D01*
X108960000Y-115510000D02*
X108725000Y-115510000D01*
X108960000Y-111650000D02*
X108960000Y-115510000D01*
X108960000Y-107790000D02*
X108725000Y-107790000D01*
X108960000Y-111650000D02*
X108960000Y-107790000D01*
X197160000Y-111650000D02*
X197160000Y-107790000D01*
X197160000Y-107790000D02*
X196925000Y-107790000D01*
X197160000Y-111650000D02*
X197160000Y-115510000D01*
X197160000Y-115510000D02*
X196925000Y-115510000D01*
X184140000Y-111650000D02*
X184140000Y-107790000D01*
X184140000Y-107790000D02*
X184375000Y-107790000D01*
X184140000Y-111650000D02*
X184140000Y-115510000D01*
X184140000Y-115510000D02*
X184375000Y-115510000D01*
X184375000Y-115510000D02*
X184375000Y-117325000D01*
X131300000Y-125965000D02*
X127850000Y-125965000D01*
X131300000Y-125965000D02*
X133250000Y-125965000D01*
X131300000Y-134835000D02*
X129350000Y-134835000D01*
X131300000Y-134835000D02*
X133250000Y-134835000D01*
X134570000Y-138500000D02*
X134570000Y-136400000D01*
X128030000Y-138500000D02*
X128030000Y-136400000D01*
X199660000Y-136310000D02*
X199660000Y-133960000D01*
X199660000Y-129490000D02*
X199660000Y-131840000D01*
X193904437Y-129490000D02*
X199660000Y-129490000D01*
X193904437Y-136310000D02*
X199660000Y-136310000D01*
X192840000Y-135245563D02*
X192840000Y-133960000D01*
X192840000Y-130554437D02*
X192840000Y-131840000D01*
X192840000Y-130554437D02*
X193904437Y-129490000D01*
X192840000Y-135245563D02*
X193904437Y-136310000D01*
X191812500Y-131052500D02*
X192600000Y-131052500D01*
X192206250Y-130658750D02*
X192206250Y-131446250D01*
X184906250Y-125808750D02*
X184906250Y-126596250D01*
X184512500Y-126202500D02*
X185300000Y-126202500D01*
X185540000Y-130395563D02*
X186604437Y-131460000D01*
X185540000Y-125704437D02*
X186604437Y-124640000D01*
X185540000Y-125704437D02*
X185540000Y-126990000D01*
X185540000Y-130395563D02*
X185540000Y-129110000D01*
X186604437Y-131460000D02*
X192360000Y-131460000D01*
X186604437Y-124640000D02*
X192360000Y-124640000D01*
X192360000Y-124640000D02*
X192360000Y-126990000D01*
X192360000Y-131460000D02*
X192360000Y-129110000D01*
X199660000Y-126660000D02*
X199660000Y-124310000D01*
X199660000Y-119840000D02*
X199660000Y-122190000D01*
X193904437Y-119840000D02*
X199660000Y-119840000D01*
X193904437Y-126660000D02*
X199660000Y-126660000D01*
X192840000Y-125595563D02*
X192840000Y-124310000D01*
X192840000Y-120904437D02*
X192840000Y-122190000D01*
X192840000Y-120904437D02*
X193904437Y-119840000D01*
X192840000Y-125595563D02*
X193904437Y-126660000D01*
X191812500Y-121402500D02*
X192600000Y-121402500D01*
X192206250Y-121008750D02*
X192206250Y-121796250D01*
X158046252Y-140340000D02*
X157523748Y-140340000D01*
X158046252Y-138920000D02*
X157523748Y-138920000D01*
X171293748Y-140330000D02*
X171816252Y-140330000D01*
X171293748Y-138910000D02*
X171816252Y-138910000D01*
X91130000Y-141430000D02*
X91130000Y-142760000D01*
X89800000Y-141430000D02*
X91130000Y-141430000D01*
X88530000Y-141430000D02*
X88530000Y-144090000D01*
X88530000Y-144090000D02*
X83390000Y-144090000D01*
X88530000Y-141430000D02*
X83390000Y-141430000D01*
X83390000Y-141430000D02*
X83390000Y-144090000D01*
X182150000Y-138790000D02*
X184810000Y-138790000D01*
X182150000Y-133650000D02*
X182150000Y-138790000D01*
X184810000Y-133650000D02*
X184810000Y-138790000D01*
X182150000Y-133650000D02*
X184810000Y-133650000D01*
X182150000Y-132380000D02*
X182150000Y-131050000D01*
X182150000Y-131050000D02*
X183480000Y-131050000D01*
X214445000Y-115650000D02*
X214445000Y-136510000D01*
X214445000Y-136510000D02*
X205095000Y-136510000D01*
X205095000Y-136510000D02*
X205095000Y-115650000D01*
X205095000Y-115650000D02*
X214445000Y-115650000D01*
X204845000Y-115400000D02*
X204845000Y-117940000D01*
X204845000Y-115400000D02*
X207385000Y-115400000D01*
X152610000Y-139890000D02*
X155270000Y-139890000D01*
X152610000Y-132210000D02*
X152610000Y-139890000D01*
X155270000Y-132210000D02*
X155270000Y-139890000D01*
X152610000Y-132210000D02*
X155270000Y-132210000D01*
X152610000Y-130940000D02*
X152610000Y-129610000D01*
X152610000Y-129610000D02*
X153940000Y-129610000D01*
X179125000Y-122260000D02*
X179125000Y-138040000D01*
X179125000Y-138040000D02*
X169775000Y-138040000D01*
X169775000Y-138040000D02*
X169775000Y-122260000D01*
X169775000Y-122260000D02*
X179125000Y-122260000D01*
X169525000Y-122010000D02*
X169525000Y-124550000D01*
X169525000Y-122010000D02*
X172065000Y-122010000D01*
X203760000Y-121830000D02*
X203760000Y-120900000D01*
X203760000Y-118670000D02*
X203760000Y-119600000D01*
X203760000Y-118670000D02*
X201600000Y-118670000D01*
X203760000Y-121830000D02*
X202300000Y-121830000D01*
X202763748Y-131860000D02*
X203286252Y-131860000D01*
X202763748Y-130440000D02*
X203286252Y-130440000D01*
X202763748Y-127890000D02*
X203286252Y-127890000D01*
X202763748Y-129310000D02*
X203286252Y-129310000D01*
X202763748Y-125390000D02*
X203286252Y-125390000D01*
X202763748Y-126810000D02*
X203286252Y-126810000D01*
X202763748Y-122840000D02*
X203286252Y-122840000D01*
X202763748Y-124260000D02*
X203286252Y-124260000D01*
X201236252Y-116690000D02*
X200713748Y-116690000D01*
X201236252Y-118110000D02*
X200713748Y-118110000D01*
X117180000Y-138500000D02*
X117180000Y-136400000D01*
X123720000Y-138500000D02*
X123720000Y-136400000D01*
X113220000Y-138500000D02*
X113220000Y-136400000D01*
X106680000Y-138500000D02*
X106680000Y-136400000D01*
X92320000Y-138450000D02*
X92320000Y-136350000D01*
X85780000Y-138450000D02*
X85780000Y-136350000D01*
X96180000Y-138450000D02*
X96180000Y-136350000D01*
X102720000Y-138450000D02*
X102720000Y-136350000D01*
X120475000Y-134845000D02*
X122425000Y-134845000D01*
X120475000Y-134845000D02*
X118525000Y-134845000D01*
X120475000Y-125975000D02*
X122425000Y-125975000D01*
X120475000Y-125975000D02*
X117025000Y-125975000D01*
X109950000Y-125965000D02*
X106500000Y-125965000D01*
X109950000Y-125965000D02*
X111900000Y-125965000D01*
X109950000Y-134835000D02*
X108000000Y-134835000D01*
X109950000Y-134835000D02*
X111900000Y-134835000D01*
X89050000Y-134785000D02*
X91000000Y-134785000D01*
X89050000Y-134785000D02*
X87100000Y-134785000D01*
X89050000Y-125915000D02*
X91000000Y-125915000D01*
X89050000Y-125915000D02*
X85600000Y-125915000D01*
X99475000Y-134795000D02*
X101425000Y-134795000D01*
X99475000Y-134795000D02*
X97525000Y-134795000D01*
X99475000Y-125925000D02*
X101425000Y-125925000D01*
X99475000Y-125925000D02*
X96025000Y-125925000D01*
X182460000Y-111650000D02*
X182460000Y-107790000D01*
X182460000Y-107790000D02*
X182225000Y-107790000D01*
X182460000Y-111650000D02*
X182460000Y-115510000D01*
X182460000Y-115510000D02*
X182225000Y-115510000D01*
X169440000Y-111650000D02*
X169440000Y-107790000D01*
X169440000Y-107790000D02*
X169675000Y-107790000D01*
X169440000Y-111650000D02*
X169440000Y-115510000D01*
X169440000Y-115510000D02*
X169675000Y-115510000D01*
X169675000Y-115510000D02*
X169675000Y-117325000D01*
X188070000Y-149580000D02*
X188070000Y-144380000D01*
X109270000Y-149580000D02*
X188070000Y-149580000D01*
X106670000Y-144380000D02*
X188070000Y-144380000D01*
X109270000Y-149580000D02*
X109270000Y-146980000D01*
X109270000Y-146980000D02*
X106670000Y-146980000D01*
X106670000Y-146980000D02*
X106670000Y-144380000D01*
X108000000Y-149580000D02*
X106670000Y-149580000D01*
X106670000Y-149580000D02*
X106670000Y-148250000D01*
X167760000Y-111650000D02*
X167760000Y-107790000D01*
X167760000Y-107790000D02*
X167525000Y-107790000D01*
X167760000Y-111650000D02*
X167760000Y-115510000D01*
X167760000Y-115510000D02*
X167525000Y-115510000D01*
X154740000Y-111650000D02*
X154740000Y-107790000D01*
X154740000Y-107790000D02*
X154975000Y-107790000D01*
X154740000Y-111650000D02*
X154740000Y-115510000D01*
X154740000Y-115510000D02*
X154975000Y-115510000D01*
X154975000Y-115510000D02*
X154975000Y-117325000D01*
D10*
X215750000Y-103950000D02*
X226250000Y-103950000D01*
X215750000Y-121550000D02*
X215750000Y-103950000D01*
X226250000Y-121550000D02*
X215750000Y-121550000D01*
X226250000Y-103950000D02*
X226250000Y-121550000D01*
X158795000Y-135465000D02*
X159020000Y-135465000D01*
X158795000Y-128215000D02*
X159120000Y-128215000D01*
X166045000Y-128215000D02*
X165720000Y-128215000D01*
X166045000Y-135465000D02*
X165720000Y-135465000D01*
X158795000Y-135465000D02*
X158795000Y-135140000D01*
X166045000Y-135465000D02*
X166045000Y-135140000D01*
X166045000Y-128215000D02*
X166045000Y-128540000D01*
X158795000Y-128215000D02*
X158795000Y-128540000D01*
X159020000Y-135465000D02*
X159020000Y-136890000D01*
D11*
X153060000Y-111650000D02*
X153060000Y-107790000D01*
X153060000Y-107790000D02*
X152825000Y-107790000D01*
X153060000Y-111650000D02*
X153060000Y-115510000D01*
X153060000Y-115510000D02*
X152825000Y-115510000D01*
X140040000Y-111650000D02*
X140040000Y-107790000D01*
X140040000Y-107790000D02*
X140275000Y-107790000D01*
X140040000Y-111650000D02*
X140040000Y-115510000D01*
X140040000Y-115510000D02*
X140275000Y-115510000D01*
X140275000Y-115510000D02*
X140275000Y-117325000D01*
X125575000Y-115510000D02*
X125575000Y-117325000D01*
X125340000Y-115510000D02*
X125575000Y-115510000D01*
X125340000Y-111650000D02*
X125340000Y-115510000D01*
X125340000Y-107790000D02*
X125575000Y-107790000D01*
X125340000Y-111650000D02*
X125340000Y-107790000D01*
X138360000Y-115510000D02*
X138125000Y-115510000D01*
X138360000Y-111650000D02*
X138360000Y-115510000D01*
X138360000Y-107790000D02*
X138125000Y-107790000D01*
X138360000Y-111650000D02*
X138360000Y-107790000D01*
X81475000Y-115510000D02*
X81475000Y-117325000D01*
X81240000Y-115510000D02*
X81475000Y-115510000D01*
X81240000Y-111650000D02*
X81240000Y-115510000D01*
X81240000Y-107790000D02*
X81475000Y-107790000D01*
X81240000Y-111650000D02*
X81240000Y-107790000D01*
X94260000Y-115510000D02*
X94025000Y-115510000D01*
X94260000Y-111650000D02*
X94260000Y-115510000D01*
X94260000Y-107790000D02*
X94025000Y-107790000D01*
X94260000Y-111650000D02*
X94260000Y-107790000D01*
X160760000Y-137450000D02*
X168600000Y-137450000D01*
X160760000Y-137450000D02*
X160760000Y-138720000D01*
X168600000Y-137450000D02*
X168600000Y-138720000D01*
X160760000Y-141790000D02*
X168600000Y-141790000D01*
X160760000Y-141790000D02*
X160760000Y-140520000D01*
X168600000Y-141790000D02*
X168600000Y-140520000D01*
D15*
X224366340Y-135751844D02*
X224366340Y-136466830D01*
X224318674Y-136609827D01*
X224223342Y-136705158D01*
X224080345Y-136752824D01*
X223985014Y-136752824D01*
X224795331Y-135847175D02*
X224842997Y-135799510D01*
X224938328Y-135751844D01*
X225176657Y-135751844D01*
X225271988Y-135799510D01*
X225319654Y-135847175D01*
X225367320Y-135942507D01*
X225367320Y-136037838D01*
X225319654Y-136180835D01*
X224747665Y-136752824D01*
X225367320Y-136752824D01*
X215962046Y-136753276D02*
X215484913Y-136753276D01*
X215484913Y-135751296D01*
X216296040Y-136753276D02*
X216296040Y-135751296D01*
X216773173Y-136753276D02*
X216773173Y-135751296D01*
X217345733Y-136753276D01*
X217345733Y-135751296D01*
X217822866Y-136228430D02*
X218156860Y-136228430D01*
X218300000Y-136753276D02*
X217822866Y-136753276D01*
X217822866Y-135751296D01*
X218300000Y-135751296D01*
X218920273Y-135751296D02*
X219111126Y-135751296D01*
X219206553Y-135799010D01*
X219301980Y-135894436D01*
X219349693Y-136085290D01*
X219349693Y-136419283D01*
X219301980Y-136610136D01*
X219206553Y-136705563D01*
X219111126Y-136753276D01*
X218920273Y-136753276D01*
X218824846Y-136705563D01*
X218729420Y-136610136D01*
X218681706Y-136419283D01*
X218681706Y-136085290D01*
X218729420Y-135894436D01*
X218824846Y-135799010D01*
X218920273Y-135751296D01*
X219779113Y-135751296D02*
X219779113Y-136562423D01*
X219826826Y-136657850D01*
X219874540Y-136705563D01*
X219969966Y-136753276D01*
X220160820Y-136753276D01*
X220256246Y-136705563D01*
X220303960Y-136657850D01*
X220351673Y-136562423D01*
X220351673Y-135751296D01*
X220685666Y-135751296D02*
X221258226Y-135751296D01*
X220971946Y-136753276D02*
X220971946Y-135751296D01*
D10*
X109252380Y-112411904D02*
X110061904Y-112411904D01*
X110157142Y-112364285D01*
X110204761Y-112316666D01*
X110252380Y-112221428D01*
X110252380Y-112030952D01*
X110204761Y-111935714D01*
X110157142Y-111888095D01*
X110061904Y-111840476D01*
X109252380Y-111840476D01*
X110252380Y-111316666D02*
X110252380Y-111126190D01*
X110204761Y-111030952D01*
X110157142Y-110983333D01*
X110014285Y-110888095D01*
X109823809Y-110840476D01*
X109442857Y-110840476D01*
X109347619Y-110888095D01*
X109300000Y-110935714D01*
X109252380Y-111030952D01*
X109252380Y-111221428D01*
X109300000Y-111316666D01*
X109347619Y-111364285D01*
X109442857Y-111411904D01*
X109680952Y-111411904D01*
X109776190Y-111364285D01*
X109823809Y-111316666D01*
X109871428Y-111221428D01*
X109871428Y-111030952D01*
X109823809Y-110935714D01*
X109776190Y-110888095D01*
X109680952Y-110840476D01*
X111338095Y-117952380D02*
X112004761Y-117952380D01*
X111576190Y-118952380D01*
X112814285Y-118285714D02*
X112814285Y-118952380D01*
X112576190Y-117904761D02*
X112338095Y-118619047D01*
X112957142Y-118619047D01*
X113338095Y-118952380D02*
X113338095Y-117952380D01*
X113338095Y-118428571D02*
X113909523Y-118428571D01*
X113909523Y-118952380D02*
X113909523Y-117952380D01*
X114957142Y-118857142D02*
X114909523Y-118904761D01*
X114766666Y-118952380D01*
X114671428Y-118952380D01*
X114528571Y-118904761D01*
X114433333Y-118809523D01*
X114385714Y-118714285D01*
X114338095Y-118523809D01*
X114338095Y-118380952D01*
X114385714Y-118190476D01*
X114433333Y-118095238D01*
X114528571Y-118000000D01*
X114671428Y-117952380D01*
X114766666Y-117952380D01*
X114909523Y-118000000D01*
X114957142Y-118047619D01*
X115290476Y-117952380D02*
X115909523Y-117952380D01*
X115576190Y-118333333D01*
X115719047Y-118333333D01*
X115814285Y-118380952D01*
X115861904Y-118428571D01*
X115909523Y-118523809D01*
X115909523Y-118761904D01*
X115861904Y-118857142D01*
X115814285Y-118904761D01*
X115719047Y-118952380D01*
X115433333Y-118952380D01*
X115338095Y-118904761D01*
X115290476Y-118857142D01*
X116242857Y-117952380D02*
X116909523Y-117952380D01*
X116480952Y-118952380D01*
X117195238Y-117952380D02*
X117814285Y-117952380D01*
X117480952Y-118333333D01*
X117623809Y-118333333D01*
X117719047Y-118380952D01*
X117766666Y-118428571D01*
X117814285Y-118523809D01*
X117814285Y-118761904D01*
X117766666Y-118857142D01*
X117719047Y-118904761D01*
X117623809Y-118952380D01*
X117338095Y-118952380D01*
X117242857Y-118904761D01*
X117195238Y-118857142D01*
X94552380Y-112888095D02*
X95361904Y-112888095D01*
X95457142Y-112840476D01*
X95504761Y-112792857D01*
X95552380Y-112697619D01*
X95552380Y-112507142D01*
X95504761Y-112411904D01*
X95457142Y-112364285D01*
X95361904Y-112316666D01*
X94552380Y-112316666D01*
X95552380Y-111316666D02*
X95552380Y-111888095D01*
X95552380Y-111602380D02*
X94552380Y-111602380D01*
X94695238Y-111697619D01*
X94790476Y-111792857D01*
X94838095Y-111888095D01*
X94552380Y-110459523D02*
X94552380Y-110650000D01*
X94600000Y-110745238D01*
X94647619Y-110792857D01*
X94790476Y-110888095D01*
X94980952Y-110935714D01*
X95361904Y-110935714D01*
X95457142Y-110888095D01*
X95504761Y-110840476D01*
X95552380Y-110745238D01*
X95552380Y-110554761D01*
X95504761Y-110459523D01*
X95457142Y-110411904D01*
X95361904Y-110364285D01*
X95123809Y-110364285D01*
X95028571Y-110411904D01*
X94980952Y-110459523D01*
X94933333Y-110554761D01*
X94933333Y-110745238D01*
X94980952Y-110840476D01*
X95028571Y-110888095D01*
X95123809Y-110935714D01*
X96638095Y-117852380D02*
X97304761Y-117852380D01*
X96876190Y-118852380D01*
X98114285Y-118185714D02*
X98114285Y-118852380D01*
X97876190Y-117804761D02*
X97638095Y-118519047D01*
X98257142Y-118519047D01*
X98638095Y-118852380D02*
X98638095Y-117852380D01*
X98638095Y-118328571D02*
X99209523Y-118328571D01*
X99209523Y-118852380D02*
X99209523Y-117852380D01*
X100257142Y-118757142D02*
X100209523Y-118804761D01*
X100066666Y-118852380D01*
X99971428Y-118852380D01*
X99828571Y-118804761D01*
X99733333Y-118709523D01*
X99685714Y-118614285D01*
X99638095Y-118423809D01*
X99638095Y-118280952D01*
X99685714Y-118090476D01*
X99733333Y-117995238D01*
X99828571Y-117900000D01*
X99971428Y-117852380D01*
X100066666Y-117852380D01*
X100209523Y-117900000D01*
X100257142Y-117947619D01*
X100590476Y-117852380D02*
X101209523Y-117852380D01*
X100876190Y-118233333D01*
X101019047Y-118233333D01*
X101114285Y-118280952D01*
X101161904Y-118328571D01*
X101209523Y-118423809D01*
X101209523Y-118661904D01*
X101161904Y-118757142D01*
X101114285Y-118804761D01*
X101019047Y-118852380D01*
X100733333Y-118852380D01*
X100638095Y-118804761D01*
X100590476Y-118757142D01*
X101542857Y-117852380D02*
X102209523Y-117852380D01*
X101780952Y-118852380D01*
X102495238Y-117852380D02*
X103114285Y-117852380D01*
X102780952Y-118233333D01*
X102923809Y-118233333D01*
X103019047Y-118280952D01*
X103066666Y-118328571D01*
X103114285Y-118423809D01*
X103114285Y-118661904D01*
X103066666Y-118757142D01*
X103019047Y-118804761D01*
X102923809Y-118852380D01*
X102638095Y-118852380D01*
X102542857Y-118804761D01*
X102495238Y-118757142D01*
X182752380Y-112411904D02*
X183561904Y-112411904D01*
X183657142Y-112364285D01*
X183704761Y-112316666D01*
X183752380Y-112221428D01*
X183752380Y-112030952D01*
X183704761Y-111935714D01*
X183657142Y-111888095D01*
X183561904Y-111840476D01*
X182752380Y-111840476D01*
X183752380Y-110840476D02*
X183752380Y-111411904D01*
X183752380Y-111126190D02*
X182752380Y-111126190D01*
X182895238Y-111221428D01*
X182990476Y-111316666D01*
X183038095Y-111411904D01*
X187338095Y-117952380D02*
X188004761Y-117952380D01*
X187576190Y-118952380D01*
X188814285Y-118285714D02*
X188814285Y-118952380D01*
X188576190Y-117904761D02*
X188338095Y-118619047D01*
X188957142Y-118619047D01*
X189338095Y-118952380D02*
X189338095Y-117952380D01*
X189338095Y-118428571D02*
X189909523Y-118428571D01*
X189909523Y-118952380D02*
X189909523Y-117952380D01*
X190957142Y-118857142D02*
X190909523Y-118904761D01*
X190766666Y-118952380D01*
X190671428Y-118952380D01*
X190528571Y-118904761D01*
X190433333Y-118809523D01*
X190385714Y-118714285D01*
X190338095Y-118523809D01*
X190338095Y-118380952D01*
X190385714Y-118190476D01*
X190433333Y-118095238D01*
X190528571Y-118000000D01*
X190671428Y-117952380D01*
X190766666Y-117952380D01*
X190909523Y-118000000D01*
X190957142Y-118047619D01*
X191290476Y-117952380D02*
X191909523Y-117952380D01*
X191576190Y-118333333D01*
X191719047Y-118333333D01*
X191814285Y-118380952D01*
X191861904Y-118428571D01*
X191909523Y-118523809D01*
X191909523Y-118761904D01*
X191861904Y-118857142D01*
X191814285Y-118904761D01*
X191719047Y-118952380D01*
X191433333Y-118952380D01*
X191338095Y-118904761D01*
X191290476Y-118857142D01*
X192242857Y-117952380D02*
X192909523Y-117952380D01*
X192480952Y-118952380D01*
X193195238Y-117952380D02*
X193814285Y-117952380D01*
X193480952Y-118333333D01*
X193623809Y-118333333D01*
X193719047Y-118380952D01*
X193766666Y-118428571D01*
X193814285Y-118523809D01*
X193814285Y-118761904D01*
X193766666Y-118857142D01*
X193719047Y-118904761D01*
X193623809Y-118952380D01*
X193338095Y-118952380D01*
X193242857Y-118904761D01*
X193195238Y-118857142D01*
X130538095Y-124572380D02*
X130538095Y-125381904D01*
X130585714Y-125477142D01*
X130633333Y-125524761D01*
X130728571Y-125572380D01*
X130919047Y-125572380D01*
X131014285Y-125524761D01*
X131061904Y-125477142D01*
X131109523Y-125381904D01*
X131109523Y-124572380D01*
X131538095Y-124667619D02*
X131585714Y-124620000D01*
X131680952Y-124572380D01*
X131919047Y-124572380D01*
X132014285Y-124620000D01*
X132061904Y-124667619D01*
X132109523Y-124762857D01*
X132109523Y-124858095D01*
X132061904Y-125000952D01*
X131490476Y-125572380D01*
X132109523Y-125572380D01*
X125652380Y-132685714D02*
X125652380Y-132019047D01*
X126652380Y-132447619D01*
X125985714Y-131209523D02*
X126652380Y-131209523D01*
X125604761Y-131447619D02*
X126319047Y-131685714D01*
X126319047Y-131066666D01*
X126652380Y-130685714D02*
X125652380Y-130685714D01*
X126128571Y-130685714D02*
X126128571Y-130114285D01*
X126652380Y-130114285D02*
X125652380Y-130114285D01*
X126557142Y-129066666D02*
X126604761Y-129114285D01*
X126652380Y-129257142D01*
X126652380Y-129352380D01*
X126604761Y-129495238D01*
X126509523Y-129590476D01*
X126414285Y-129638095D01*
X126223809Y-129685714D01*
X126080952Y-129685714D01*
X125890476Y-129638095D01*
X125795238Y-129590476D01*
X125700000Y-129495238D01*
X125652380Y-129352380D01*
X125652380Y-129257142D01*
X125700000Y-129114285D01*
X125747619Y-129066666D01*
X125652380Y-128733333D02*
X125652380Y-128114285D01*
X126033333Y-128447619D01*
X126033333Y-128304761D01*
X126080952Y-128209523D01*
X126128571Y-128161904D01*
X126223809Y-128114285D01*
X126461904Y-128114285D01*
X126557142Y-128161904D01*
X126604761Y-128209523D01*
X126652380Y-128304761D01*
X126652380Y-128590476D01*
X126604761Y-128685714D01*
X126557142Y-128733333D01*
X125652380Y-127495238D02*
X125652380Y-127400000D01*
X125700000Y-127304761D01*
X125747619Y-127257142D01*
X125842857Y-127209523D01*
X126033333Y-127161904D01*
X126271428Y-127161904D01*
X126461904Y-127209523D01*
X126557142Y-127257142D01*
X126604761Y-127304761D01*
X126652380Y-127400000D01*
X126652380Y-127495238D01*
X126604761Y-127590476D01*
X126557142Y-127638095D01*
X126461904Y-127685714D01*
X126271428Y-127733333D01*
X126033333Y-127733333D01*
X125842857Y-127685714D01*
X125747619Y-127638095D01*
X125700000Y-127590476D01*
X125652380Y-127495238D01*
X135952380Y-138140476D02*
X135476190Y-138473809D01*
X135952380Y-138711904D02*
X134952380Y-138711904D01*
X134952380Y-138330952D01*
X135000000Y-138235714D01*
X135047619Y-138188095D01*
X135142857Y-138140476D01*
X135285714Y-138140476D01*
X135380952Y-138188095D01*
X135428571Y-138235714D01*
X135476190Y-138330952D01*
X135476190Y-138711904D01*
X135952380Y-137711904D02*
X134952380Y-137711904D01*
X135952380Y-137140476D01*
X134952380Y-137140476D01*
X135952380Y-136140476D02*
X135952380Y-136711904D01*
X135952380Y-136426190D02*
X134952380Y-136426190D01*
X135095238Y-136521428D01*
X135190476Y-136616666D01*
X135238095Y-136711904D01*
X130509523Y-137235714D02*
X130509523Y-137902380D01*
X130271428Y-136854761D02*
X130033333Y-137569047D01*
X130652380Y-137569047D01*
X131033333Y-137902380D02*
X131033333Y-136902380D01*
X131128571Y-137521428D02*
X131414285Y-137902380D01*
X131414285Y-137235714D02*
X131033333Y-137616666D01*
X131747619Y-136902380D02*
X132414285Y-136902380D01*
X131985714Y-137902380D01*
X196083333Y-128907142D02*
X196035714Y-128954761D01*
X195892857Y-129002380D01*
X195797619Y-129002380D01*
X195654761Y-128954761D01*
X195559523Y-128859523D01*
X195511904Y-128764285D01*
X195464285Y-128573809D01*
X195464285Y-128430952D01*
X195511904Y-128240476D01*
X195559523Y-128145238D01*
X195654761Y-128050000D01*
X195797619Y-128002380D01*
X195892857Y-128002380D01*
X196035714Y-128050000D01*
X196083333Y-128097619D01*
X196559523Y-129002380D02*
X196750000Y-129002380D01*
X196845238Y-128954761D01*
X196892857Y-128907142D01*
X196988095Y-128764285D01*
X197035714Y-128573809D01*
X197035714Y-128192857D01*
X196988095Y-128097619D01*
X196940476Y-128050000D01*
X196845238Y-128002380D01*
X196654761Y-128002380D01*
X196559523Y-128050000D01*
X196511904Y-128097619D01*
X196464285Y-128192857D01*
X196464285Y-128430952D01*
X196511904Y-128526190D01*
X196559523Y-128573809D01*
X196654761Y-128621428D01*
X196845238Y-128621428D01*
X196940476Y-128573809D01*
X196988095Y-128526190D01*
X197035714Y-128430952D01*
X194180952Y-130147619D02*
X194228571Y-130100000D01*
X194323809Y-130052380D01*
X194561904Y-130052380D01*
X194657142Y-130100000D01*
X194704761Y-130147619D01*
X194752380Y-130242857D01*
X194752380Y-130338095D01*
X194704761Y-130480952D01*
X194133333Y-131052380D01*
X194752380Y-131052380D01*
X195133333Y-130147619D02*
X195180952Y-130100000D01*
X195276190Y-130052380D01*
X195514285Y-130052380D01*
X195609523Y-130100000D01*
X195657142Y-130147619D01*
X195704761Y-130242857D01*
X195704761Y-130338095D01*
X195657142Y-130480952D01*
X195085714Y-131052380D01*
X195704761Y-131052380D01*
X196323809Y-130052380D02*
X196419047Y-130052380D01*
X196514285Y-130100000D01*
X196561904Y-130147619D01*
X196609523Y-130242857D01*
X196657142Y-130433333D01*
X196657142Y-130671428D01*
X196609523Y-130861904D01*
X196561904Y-130957142D01*
X196514285Y-131004761D01*
X196419047Y-131052380D01*
X196323809Y-131052380D01*
X196228571Y-131004761D01*
X196180952Y-130957142D01*
X196133333Y-130861904D01*
X196085714Y-130671428D01*
X196085714Y-130433333D01*
X196133333Y-130242857D01*
X196180952Y-130147619D01*
X196228571Y-130100000D01*
X196323809Y-130052380D01*
X197514285Y-130385714D02*
X197514285Y-131052380D01*
X197085714Y-130385714D02*
X197085714Y-130909523D01*
X197133333Y-131004761D01*
X197228571Y-131052380D01*
X197371428Y-131052380D01*
X197466666Y-131004761D01*
X197514285Y-130957142D01*
X198323809Y-130528571D02*
X197990476Y-130528571D01*
X197990476Y-131052380D02*
X197990476Y-130052380D01*
X198466666Y-130052380D01*
X188307142Y-124057142D02*
X188259523Y-124104761D01*
X188116666Y-124152380D01*
X188021428Y-124152380D01*
X187878571Y-124104761D01*
X187783333Y-124009523D01*
X187735714Y-123914285D01*
X187688095Y-123723809D01*
X187688095Y-123580952D01*
X187735714Y-123390476D01*
X187783333Y-123295238D01*
X187878571Y-123200000D01*
X188021428Y-123152380D01*
X188116666Y-123152380D01*
X188259523Y-123200000D01*
X188307142Y-123247619D01*
X189259523Y-124152380D02*
X188688095Y-124152380D01*
X188973809Y-124152380D02*
X188973809Y-123152380D01*
X188878571Y-123295238D01*
X188783333Y-123390476D01*
X188688095Y-123438095D01*
X189878571Y-123152380D02*
X189973809Y-123152380D01*
X190069047Y-123200000D01*
X190116666Y-123247619D01*
X190164285Y-123342857D01*
X190211904Y-123533333D01*
X190211904Y-123771428D01*
X190164285Y-123961904D01*
X190116666Y-124057142D01*
X190069047Y-124104761D01*
X189973809Y-124152380D01*
X189878571Y-124152380D01*
X189783333Y-124104761D01*
X189735714Y-124057142D01*
X189688095Y-123961904D01*
X189640476Y-123771428D01*
X189640476Y-123533333D01*
X189688095Y-123342857D01*
X189735714Y-123247619D01*
X189783333Y-123200000D01*
X189878571Y-123152380D01*
X186830952Y-125347619D02*
X186878571Y-125300000D01*
X186973809Y-125252380D01*
X187211904Y-125252380D01*
X187307142Y-125300000D01*
X187354761Y-125347619D01*
X187402380Y-125442857D01*
X187402380Y-125538095D01*
X187354761Y-125680952D01*
X186783333Y-126252380D01*
X187402380Y-126252380D01*
X187783333Y-125347619D02*
X187830952Y-125300000D01*
X187926190Y-125252380D01*
X188164285Y-125252380D01*
X188259523Y-125300000D01*
X188307142Y-125347619D01*
X188354761Y-125442857D01*
X188354761Y-125538095D01*
X188307142Y-125680952D01*
X187735714Y-126252380D01*
X188354761Y-126252380D01*
X188973809Y-125252380D02*
X189069047Y-125252380D01*
X189164285Y-125300000D01*
X189211904Y-125347619D01*
X189259523Y-125442857D01*
X189307142Y-125633333D01*
X189307142Y-125871428D01*
X189259523Y-126061904D01*
X189211904Y-126157142D01*
X189164285Y-126204761D01*
X189069047Y-126252380D01*
X188973809Y-126252380D01*
X188878571Y-126204761D01*
X188830952Y-126157142D01*
X188783333Y-126061904D01*
X188735714Y-125871428D01*
X188735714Y-125633333D01*
X188783333Y-125442857D01*
X188830952Y-125347619D01*
X188878571Y-125300000D01*
X188973809Y-125252380D01*
X190164285Y-125585714D02*
X190164285Y-126252380D01*
X189735714Y-125585714D02*
X189735714Y-126109523D01*
X189783333Y-126204761D01*
X189878571Y-126252380D01*
X190021428Y-126252380D01*
X190116666Y-126204761D01*
X190164285Y-126157142D01*
X190973809Y-125728571D02*
X190640476Y-125728571D01*
X190640476Y-126252380D02*
X190640476Y-125252380D01*
X191116666Y-125252380D01*
X195607142Y-119257142D02*
X195559523Y-119304761D01*
X195416666Y-119352380D01*
X195321428Y-119352380D01*
X195178571Y-119304761D01*
X195083333Y-119209523D01*
X195035714Y-119114285D01*
X194988095Y-118923809D01*
X194988095Y-118780952D01*
X195035714Y-118590476D01*
X195083333Y-118495238D01*
X195178571Y-118400000D01*
X195321428Y-118352380D01*
X195416666Y-118352380D01*
X195559523Y-118400000D01*
X195607142Y-118447619D01*
X196559523Y-119352380D02*
X195988095Y-119352380D01*
X196273809Y-119352380D02*
X196273809Y-118352380D01*
X196178571Y-118495238D01*
X196083333Y-118590476D01*
X195988095Y-118638095D01*
X196940476Y-118447619D02*
X196988095Y-118400000D01*
X197083333Y-118352380D01*
X197321428Y-118352380D01*
X197416666Y-118400000D01*
X197464285Y-118447619D01*
X197511904Y-118542857D01*
X197511904Y-118638095D01*
X197464285Y-118780952D01*
X196892857Y-119352380D01*
X197511904Y-119352380D01*
X194180952Y-120647619D02*
X194228571Y-120600000D01*
X194323809Y-120552380D01*
X194561904Y-120552380D01*
X194657142Y-120600000D01*
X194704761Y-120647619D01*
X194752380Y-120742857D01*
X194752380Y-120838095D01*
X194704761Y-120980952D01*
X194133333Y-121552380D01*
X194752380Y-121552380D01*
X195133333Y-120647619D02*
X195180952Y-120600000D01*
X195276190Y-120552380D01*
X195514285Y-120552380D01*
X195609523Y-120600000D01*
X195657142Y-120647619D01*
X195704761Y-120742857D01*
X195704761Y-120838095D01*
X195657142Y-120980952D01*
X195085714Y-121552380D01*
X195704761Y-121552380D01*
X196323809Y-120552380D02*
X196419047Y-120552380D01*
X196514285Y-120600000D01*
X196561904Y-120647619D01*
X196609523Y-120742857D01*
X196657142Y-120933333D01*
X196657142Y-121171428D01*
X196609523Y-121361904D01*
X196561904Y-121457142D01*
X196514285Y-121504761D01*
X196419047Y-121552380D01*
X196323809Y-121552380D01*
X196228571Y-121504761D01*
X196180952Y-121457142D01*
X196133333Y-121361904D01*
X196085714Y-121171428D01*
X196085714Y-120933333D01*
X196133333Y-120742857D01*
X196180952Y-120647619D01*
X196228571Y-120600000D01*
X196323809Y-120552380D01*
X197514285Y-120885714D02*
X197514285Y-121552380D01*
X197085714Y-120885714D02*
X197085714Y-121409523D01*
X197133333Y-121504761D01*
X197228571Y-121552380D01*
X197371428Y-121552380D01*
X197466666Y-121504761D01*
X197514285Y-121457142D01*
X198323809Y-121028571D02*
X197990476Y-121028571D01*
X197990476Y-121552380D02*
X197990476Y-120552380D01*
X198466666Y-120552380D01*
X157142142Y-141637142D02*
X157094523Y-141684761D01*
X156951666Y-141732380D01*
X156856428Y-141732380D01*
X156713571Y-141684761D01*
X156618333Y-141589523D01*
X156570714Y-141494285D01*
X156523095Y-141303809D01*
X156523095Y-141160952D01*
X156570714Y-140970476D01*
X156618333Y-140875238D01*
X156713571Y-140780000D01*
X156856428Y-140732380D01*
X156951666Y-140732380D01*
X157094523Y-140780000D01*
X157142142Y-140827619D01*
X158094523Y-141732380D02*
X157523095Y-141732380D01*
X157808809Y-141732380D02*
X157808809Y-140732380D01*
X157713571Y-140875238D01*
X157618333Y-140970476D01*
X157523095Y-141018095D01*
X158427857Y-140732380D02*
X159046904Y-140732380D01*
X158713571Y-141113333D01*
X158856428Y-141113333D01*
X158951666Y-141160952D01*
X158999285Y-141208571D01*
X159046904Y-141303809D01*
X159046904Y-141541904D01*
X158999285Y-141637142D01*
X158951666Y-141684761D01*
X158856428Y-141732380D01*
X158570714Y-141732380D01*
X158475476Y-141684761D01*
X158427857Y-141637142D01*
X156142142Y-137527619D02*
X156189761Y-137480000D01*
X156285000Y-137432380D01*
X156523095Y-137432380D01*
X156618333Y-137480000D01*
X156665952Y-137527619D01*
X156713571Y-137622857D01*
X156713571Y-137718095D01*
X156665952Y-137860952D01*
X156094523Y-138432380D01*
X156713571Y-138432380D01*
X157094523Y-137527619D02*
X157142142Y-137480000D01*
X157237380Y-137432380D01*
X157475476Y-137432380D01*
X157570714Y-137480000D01*
X157618333Y-137527619D01*
X157665952Y-137622857D01*
X157665952Y-137718095D01*
X157618333Y-137860952D01*
X157046904Y-138432380D01*
X157665952Y-138432380D01*
X158094523Y-137765714D02*
X158094523Y-138765714D01*
X158094523Y-137813333D02*
X158189761Y-137765714D01*
X158380238Y-137765714D01*
X158475476Y-137813333D01*
X158523095Y-137860952D01*
X158570714Y-137956190D01*
X158570714Y-138241904D01*
X158523095Y-138337142D01*
X158475476Y-138384761D01*
X158380238Y-138432380D01*
X158189761Y-138432380D01*
X158094523Y-138384761D01*
X159332619Y-137908571D02*
X158999285Y-137908571D01*
X158999285Y-138432380D02*
X158999285Y-137432380D01*
X159475476Y-137432380D01*
X170882142Y-141782142D02*
X170834523Y-141829761D01*
X170691666Y-141877380D01*
X170596428Y-141877380D01*
X170453571Y-141829761D01*
X170358333Y-141734523D01*
X170310714Y-141639285D01*
X170263095Y-141448809D01*
X170263095Y-141305952D01*
X170310714Y-141115476D01*
X170358333Y-141020238D01*
X170453571Y-140925000D01*
X170596428Y-140877380D01*
X170691666Y-140877380D01*
X170834523Y-140925000D01*
X170882142Y-140972619D01*
X171834523Y-141877380D02*
X171263095Y-141877380D01*
X171548809Y-141877380D02*
X171548809Y-140877380D01*
X171453571Y-141020238D01*
X171358333Y-141115476D01*
X171263095Y-141163095D01*
X172691666Y-141210714D02*
X172691666Y-141877380D01*
X172453571Y-140829761D02*
X172215476Y-141544047D01*
X172834523Y-141544047D01*
X173757142Y-139147619D02*
X173804761Y-139100000D01*
X173900000Y-139052380D01*
X174138095Y-139052380D01*
X174233333Y-139100000D01*
X174280952Y-139147619D01*
X174328571Y-139242857D01*
X174328571Y-139338095D01*
X174280952Y-139480952D01*
X173709523Y-140052380D01*
X174328571Y-140052380D01*
X174709523Y-139147619D02*
X174757142Y-139100000D01*
X174852380Y-139052380D01*
X175090476Y-139052380D01*
X175185714Y-139100000D01*
X175233333Y-139147619D01*
X175280952Y-139242857D01*
X175280952Y-139338095D01*
X175233333Y-139480952D01*
X174661904Y-140052380D01*
X175280952Y-140052380D01*
X175709523Y-139385714D02*
X175709523Y-140385714D01*
X175709523Y-139433333D02*
X175804761Y-139385714D01*
X175995238Y-139385714D01*
X176090476Y-139433333D01*
X176138095Y-139480952D01*
X176185714Y-139576190D01*
X176185714Y-139861904D01*
X176138095Y-139957142D01*
X176090476Y-140004761D01*
X175995238Y-140052380D01*
X175804761Y-140052380D01*
X175709523Y-140004761D01*
X176947619Y-139528571D02*
X176614285Y-139528571D01*
X176614285Y-140052380D02*
X176614285Y-139052380D01*
X177090476Y-139052380D01*
X91866666Y-141552380D02*
X91866666Y-142266666D01*
X91819047Y-142409523D01*
X91723809Y-142504761D01*
X91580952Y-142552380D01*
X91485714Y-142552380D01*
X92866666Y-142552380D02*
X92295238Y-142552380D01*
X92580952Y-142552380D02*
X92580952Y-141552380D01*
X92485714Y-141695238D01*
X92390476Y-141790476D01*
X92295238Y-141838095D01*
X183146666Y-129502380D02*
X183146666Y-130216666D01*
X183099047Y-130359523D01*
X183003809Y-130454761D01*
X182860952Y-130502380D01*
X182765714Y-130502380D01*
X183527619Y-129502380D02*
X184146666Y-129502380D01*
X183813333Y-129883333D01*
X183956190Y-129883333D01*
X184051428Y-129930952D01*
X184099047Y-129978571D01*
X184146666Y-130073809D01*
X184146666Y-130311904D01*
X184099047Y-130407142D01*
X184051428Y-130454761D01*
X183956190Y-130502380D01*
X183670476Y-130502380D01*
X183575238Y-130454761D01*
X183527619Y-130407142D01*
X187166666Y-136709523D02*
X187166666Y-136233333D01*
X187452380Y-136804761D02*
X186452380Y-136471428D01*
X187452380Y-136138095D01*
X186976190Y-135614285D02*
X187452380Y-135614285D01*
X186452380Y-135947619D02*
X186976190Y-135614285D01*
X186452380Y-135280952D01*
X187547619Y-135185714D02*
X187547619Y-134423809D01*
X187452380Y-134185714D02*
X186452380Y-134185714D01*
X187452380Y-133709523D02*
X186452380Y-133709523D01*
X187452380Y-133138095D01*
X186452380Y-133138095D01*
X205266666Y-114152380D02*
X205266666Y-114866666D01*
X205219047Y-115009523D01*
X205123809Y-115104761D01*
X204980952Y-115152380D01*
X204885714Y-115152380D01*
X206171428Y-114485714D02*
X206171428Y-115152380D01*
X205933333Y-114104761D02*
X205695238Y-114819047D01*
X206314285Y-114819047D01*
X207604761Y-115104761D02*
X207747619Y-115152380D01*
X207985714Y-115152380D01*
X208080952Y-115104761D01*
X208128571Y-115057142D01*
X208176190Y-114961904D01*
X208176190Y-114866666D01*
X208128571Y-114771428D01*
X208080952Y-114723809D01*
X207985714Y-114676190D01*
X207795238Y-114628571D01*
X207700000Y-114580952D01*
X207652380Y-114533333D01*
X207604761Y-114438095D01*
X207604761Y-114342857D01*
X207652380Y-114247619D01*
X207700000Y-114200000D01*
X207795238Y-114152380D01*
X208033333Y-114152380D01*
X208176190Y-114200000D01*
X209176190Y-115057142D02*
X209128571Y-115104761D01*
X208985714Y-115152380D01*
X208890476Y-115152380D01*
X208747619Y-115104761D01*
X208652380Y-115009523D01*
X208604761Y-114914285D01*
X208557142Y-114723809D01*
X208557142Y-114580952D01*
X208604761Y-114390476D01*
X208652380Y-114295238D01*
X208747619Y-114200000D01*
X208890476Y-114152380D01*
X208985714Y-114152380D01*
X209128571Y-114200000D01*
X209176190Y-114247619D01*
X209557142Y-114866666D02*
X210033333Y-114866666D01*
X209461904Y-115152380D02*
X209795238Y-114152380D01*
X210128571Y-115152380D01*
X211033333Y-115152380D02*
X210700000Y-114676190D01*
X210461904Y-115152380D02*
X210461904Y-114152380D01*
X210842857Y-114152380D01*
X210938095Y-114200000D01*
X210985714Y-114247619D01*
X211033333Y-114342857D01*
X211033333Y-114485714D01*
X210985714Y-114580952D01*
X210938095Y-114628571D01*
X210842857Y-114676190D01*
X210461904Y-114676190D01*
X211319047Y-114152380D02*
X211890476Y-114152380D01*
X211604761Y-115152380D02*
X211604761Y-114152380D01*
X153606666Y-128062380D02*
X153606666Y-128776666D01*
X153559047Y-128919523D01*
X153463809Y-129014761D01*
X153320952Y-129062380D01*
X153225714Y-129062380D01*
X154559047Y-128062380D02*
X154082857Y-128062380D01*
X154035238Y-128538571D01*
X154082857Y-128490952D01*
X154178095Y-128443333D01*
X154416190Y-128443333D01*
X154511428Y-128490952D01*
X154559047Y-128538571D01*
X154606666Y-128633809D01*
X154606666Y-128871904D01*
X154559047Y-128967142D01*
X154511428Y-129014761D01*
X154416190Y-129062380D01*
X154178095Y-129062380D01*
X154082857Y-129014761D01*
X154035238Y-128967142D01*
X150790476Y-141204761D02*
X150933333Y-141252380D01*
X151171428Y-141252380D01*
X151266666Y-141204761D01*
X151314285Y-141157142D01*
X151361904Y-141061904D01*
X151361904Y-140966666D01*
X151314285Y-140871428D01*
X151266666Y-140823809D01*
X151171428Y-140776190D01*
X150980952Y-140728571D01*
X150885714Y-140680952D01*
X150838095Y-140633333D01*
X150790476Y-140538095D01*
X150790476Y-140442857D01*
X150838095Y-140347619D01*
X150885714Y-140300000D01*
X150980952Y-140252380D01*
X151219047Y-140252380D01*
X151361904Y-140300000D01*
X151790476Y-140728571D02*
X152123809Y-140728571D01*
X152266666Y-141252380D02*
X151790476Y-141252380D01*
X151790476Y-140252380D01*
X152266666Y-140252380D01*
X153266666Y-141252380D02*
X152933333Y-140776190D01*
X152695238Y-141252380D02*
X152695238Y-140252380D01*
X153076190Y-140252380D01*
X153171428Y-140300000D01*
X153219047Y-140347619D01*
X153266666Y-140442857D01*
X153266666Y-140585714D01*
X153219047Y-140680952D01*
X153171428Y-140728571D01*
X153076190Y-140776190D01*
X152695238Y-140776190D01*
X153695238Y-141252380D02*
X153695238Y-140252380D01*
X154123809Y-140966666D02*
X154600000Y-140966666D01*
X154028571Y-141252380D02*
X154361904Y-140252380D01*
X154695238Y-141252380D01*
X155504761Y-141252380D02*
X155028571Y-141252380D01*
X155028571Y-140252380D01*
X174116666Y-120458380D02*
X174116666Y-121172666D01*
X174069047Y-121315523D01*
X173973809Y-121410761D01*
X173830952Y-121458380D01*
X173735714Y-121458380D01*
X175021428Y-120458380D02*
X174830952Y-120458380D01*
X174735714Y-120506000D01*
X174688095Y-120553619D01*
X174592857Y-120696476D01*
X174545238Y-120886952D01*
X174545238Y-121267904D01*
X174592857Y-121363142D01*
X174640476Y-121410761D01*
X174735714Y-121458380D01*
X174926190Y-121458380D01*
X175021428Y-121410761D01*
X175069047Y-121363142D01*
X175116666Y-121267904D01*
X175116666Y-121029809D01*
X175069047Y-120934571D01*
X175021428Y-120886952D01*
X174926190Y-120839333D01*
X174735714Y-120839333D01*
X174640476Y-120886952D01*
X174592857Y-120934571D01*
X174545238Y-121029809D01*
X203804761Y-118297619D02*
X203709523Y-118250000D01*
X203614285Y-118154761D01*
X203471428Y-118011904D01*
X203376190Y-117964285D01*
X203280952Y-117964285D01*
X203328571Y-118202380D02*
X203233333Y-118154761D01*
X203138095Y-118059523D01*
X203090476Y-117869047D01*
X203090476Y-117535714D01*
X203138095Y-117345238D01*
X203233333Y-117250000D01*
X203328571Y-117202380D01*
X203519047Y-117202380D01*
X203614285Y-117250000D01*
X203709523Y-117345238D01*
X203757142Y-117535714D01*
X203757142Y-117869047D01*
X203709523Y-118059523D01*
X203614285Y-118154761D01*
X203519047Y-118202380D01*
X203328571Y-118202380D01*
X204709523Y-118202380D02*
X204138095Y-118202380D01*
X204423809Y-118202380D02*
X204423809Y-117202380D01*
X204328571Y-117345238D01*
X204233333Y-117440476D01*
X204138095Y-117488095D01*
X200952380Y-131066666D02*
X200476190Y-131400000D01*
X200952380Y-131638095D02*
X199952380Y-131638095D01*
X199952380Y-131257142D01*
X200000000Y-131161904D01*
X200047619Y-131114285D01*
X200142857Y-131066666D01*
X200285714Y-131066666D01*
X200380952Y-131114285D01*
X200428571Y-131161904D01*
X200476190Y-131257142D01*
X200476190Y-131638095D01*
X199952380Y-130161904D02*
X199952380Y-130638095D01*
X200428571Y-130685714D01*
X200380952Y-130638095D01*
X200333333Y-130542857D01*
X200333333Y-130304761D01*
X200380952Y-130209523D01*
X200428571Y-130161904D01*
X200523809Y-130114285D01*
X200761904Y-130114285D01*
X200857142Y-130161904D01*
X200904761Y-130209523D01*
X200952380Y-130304761D01*
X200952380Y-130542857D01*
X200904761Y-130638095D01*
X200857142Y-130685714D01*
X200952380Y-128766666D02*
X200476190Y-129100000D01*
X200952380Y-129338095D02*
X199952380Y-129338095D01*
X199952380Y-128957142D01*
X200000000Y-128861904D01*
X200047619Y-128814285D01*
X200142857Y-128766666D01*
X200285714Y-128766666D01*
X200380952Y-128814285D01*
X200428571Y-128861904D01*
X200476190Y-128957142D01*
X200476190Y-129338095D01*
X199952380Y-127909523D02*
X199952380Y-128100000D01*
X200000000Y-128195238D01*
X200047619Y-128242857D01*
X200190476Y-128338095D01*
X200380952Y-128385714D01*
X200761904Y-128385714D01*
X200857142Y-128338095D01*
X200904761Y-128290476D01*
X200952380Y-128195238D01*
X200952380Y-128004761D01*
X200904761Y-127909523D01*
X200857142Y-127861904D01*
X200761904Y-127814285D01*
X200523809Y-127814285D01*
X200428571Y-127861904D01*
X200380952Y-127909523D01*
X200333333Y-128004761D01*
X200333333Y-128195238D01*
X200380952Y-128290476D01*
X200428571Y-128338095D01*
X200523809Y-128385714D01*
X200952380Y-126266666D02*
X200476190Y-126600000D01*
X200952380Y-126838095D02*
X199952380Y-126838095D01*
X199952380Y-126457142D01*
X200000000Y-126361904D01*
X200047619Y-126314285D01*
X200142857Y-126266666D01*
X200285714Y-126266666D01*
X200380952Y-126314285D01*
X200428571Y-126361904D01*
X200476190Y-126457142D01*
X200476190Y-126838095D01*
X199952380Y-125933333D02*
X199952380Y-125266666D01*
X200952380Y-125695238D01*
X200952380Y-121566666D02*
X200476190Y-121900000D01*
X200952380Y-122138095D02*
X199952380Y-122138095D01*
X199952380Y-121757142D01*
X200000000Y-121661904D01*
X200047619Y-121614285D01*
X200142857Y-121566666D01*
X200285714Y-121566666D01*
X200380952Y-121614285D01*
X200428571Y-121661904D01*
X200476190Y-121757142D01*
X200476190Y-122138095D01*
X200380952Y-120995238D02*
X200333333Y-121090476D01*
X200285714Y-121138095D01*
X200190476Y-121185714D01*
X200142857Y-121185714D01*
X200047619Y-121138095D01*
X200000000Y-121090476D01*
X199952380Y-120995238D01*
X199952380Y-120804761D01*
X200000000Y-120709523D01*
X200047619Y-120661904D01*
X200142857Y-120614285D01*
X200190476Y-120614285D01*
X200285714Y-120661904D01*
X200333333Y-120709523D01*
X200380952Y-120804761D01*
X200380952Y-120995238D01*
X200428571Y-121090476D01*
X200476190Y-121138095D01*
X200571428Y-121185714D01*
X200761904Y-121185714D01*
X200857142Y-121138095D01*
X200904761Y-121090476D01*
X200952380Y-120995238D01*
X200952380Y-120804761D01*
X200904761Y-120709523D01*
X200857142Y-120661904D01*
X200761904Y-120614285D01*
X200571428Y-120614285D01*
X200476190Y-120661904D01*
X200428571Y-120709523D01*
X200380952Y-120804761D01*
X200833333Y-116252380D02*
X200500000Y-115776190D01*
X200261904Y-116252380D02*
X200261904Y-115252380D01*
X200642857Y-115252380D01*
X200738095Y-115300000D01*
X200785714Y-115347619D01*
X200833333Y-115442857D01*
X200833333Y-115585714D01*
X200785714Y-115680952D01*
X200738095Y-115728571D01*
X200642857Y-115776190D01*
X200261904Y-115776190D01*
X201309523Y-116252380D02*
X201500000Y-116252380D01*
X201595238Y-116204761D01*
X201642857Y-116157142D01*
X201738095Y-116014285D01*
X201785714Y-115823809D01*
X201785714Y-115442857D01*
X201738095Y-115347619D01*
X201690476Y-115300000D01*
X201595238Y-115252380D01*
X201404761Y-115252380D01*
X201309523Y-115300000D01*
X201261904Y-115347619D01*
X201214285Y-115442857D01*
X201214285Y-115680952D01*
X201261904Y-115776190D01*
X201309523Y-115823809D01*
X201404761Y-115871428D01*
X201595238Y-115871428D01*
X201690476Y-115823809D01*
X201738095Y-115776190D01*
X201785714Y-115680952D01*
X125102380Y-138140476D02*
X124626190Y-138473809D01*
X125102380Y-138711904D02*
X124102380Y-138711904D01*
X124102380Y-138330952D01*
X124150000Y-138235714D01*
X124197619Y-138188095D01*
X124292857Y-138140476D01*
X124435714Y-138140476D01*
X124530952Y-138188095D01*
X124578571Y-138235714D01*
X124626190Y-138330952D01*
X124626190Y-138711904D01*
X125102380Y-137711904D02*
X124102380Y-137711904D01*
X125102380Y-137140476D01*
X124102380Y-137140476D01*
X124197619Y-136711904D02*
X124150000Y-136664285D01*
X124102380Y-136569047D01*
X124102380Y-136330952D01*
X124150000Y-136235714D01*
X124197619Y-136188095D01*
X124292857Y-136140476D01*
X124388095Y-136140476D01*
X124530952Y-136188095D01*
X125102380Y-136759523D01*
X125102380Y-136140476D01*
X120009523Y-137235714D02*
X120009523Y-137902380D01*
X119771428Y-136854761D02*
X119533333Y-137569047D01*
X120152380Y-137569047D01*
X120533333Y-137902380D02*
X120533333Y-136902380D01*
X120628571Y-137521428D02*
X120914285Y-137902380D01*
X120914285Y-137235714D02*
X120533333Y-137616666D01*
X121247619Y-136902380D02*
X121914285Y-136902380D01*
X121485714Y-137902380D01*
X114602380Y-138140476D02*
X114126190Y-138473809D01*
X114602380Y-138711904D02*
X113602380Y-138711904D01*
X113602380Y-138330952D01*
X113650000Y-138235714D01*
X113697619Y-138188095D01*
X113792857Y-138140476D01*
X113935714Y-138140476D01*
X114030952Y-138188095D01*
X114078571Y-138235714D01*
X114126190Y-138330952D01*
X114126190Y-138711904D01*
X114602380Y-137711904D02*
X113602380Y-137711904D01*
X114602380Y-137140476D01*
X113602380Y-137140476D01*
X113602380Y-136759523D02*
X113602380Y-136140476D01*
X113983333Y-136473809D01*
X113983333Y-136330952D01*
X114030952Y-136235714D01*
X114078571Y-136188095D01*
X114173809Y-136140476D01*
X114411904Y-136140476D01*
X114507142Y-136188095D01*
X114554761Y-136235714D01*
X114602380Y-136330952D01*
X114602380Y-136616666D01*
X114554761Y-136711904D01*
X114507142Y-136759523D01*
X109209523Y-137235714D02*
X109209523Y-137902380D01*
X108971428Y-136854761D02*
X108733333Y-137569047D01*
X109352380Y-137569047D01*
X109733333Y-137902380D02*
X109733333Y-136902380D01*
X109828571Y-137521428D02*
X110114285Y-137902380D01*
X110114285Y-137235714D02*
X109733333Y-137616666D01*
X110447619Y-136902380D02*
X111114285Y-136902380D01*
X110685714Y-137902380D01*
X93702380Y-138090476D02*
X93226190Y-138423809D01*
X93702380Y-138661904D02*
X92702380Y-138661904D01*
X92702380Y-138280952D01*
X92750000Y-138185714D01*
X92797619Y-138138095D01*
X92892857Y-138090476D01*
X93035714Y-138090476D01*
X93130952Y-138138095D01*
X93178571Y-138185714D01*
X93226190Y-138280952D01*
X93226190Y-138661904D01*
X93702380Y-137661904D02*
X92702380Y-137661904D01*
X93702380Y-137090476D01*
X92702380Y-137090476D01*
X93035714Y-136185714D02*
X93702380Y-136185714D01*
X92654761Y-136423809D02*
X93369047Y-136661904D01*
X93369047Y-136042857D01*
X88309523Y-137185714D02*
X88309523Y-137852380D01*
X88071428Y-136804761D02*
X87833333Y-137519047D01*
X88452380Y-137519047D01*
X88833333Y-137852380D02*
X88833333Y-136852380D01*
X88928571Y-137471428D02*
X89214285Y-137852380D01*
X89214285Y-137185714D02*
X88833333Y-137566666D01*
X89547619Y-136852380D02*
X90214285Y-136852380D01*
X89785714Y-137852380D01*
X104102380Y-138090476D02*
X103626190Y-138423809D01*
X104102380Y-138661904D02*
X103102380Y-138661904D01*
X103102380Y-138280952D01*
X103150000Y-138185714D01*
X103197619Y-138138095D01*
X103292857Y-138090476D01*
X103435714Y-138090476D01*
X103530952Y-138138095D01*
X103578571Y-138185714D01*
X103626190Y-138280952D01*
X103626190Y-138661904D01*
X104102380Y-137661904D02*
X103102380Y-137661904D01*
X104102380Y-137090476D01*
X103102380Y-137090476D01*
X103102380Y-136138095D02*
X103102380Y-136614285D01*
X103578571Y-136661904D01*
X103530952Y-136614285D01*
X103483333Y-136519047D01*
X103483333Y-136280952D01*
X103530952Y-136185714D01*
X103578571Y-136138095D01*
X103673809Y-136090476D01*
X103911904Y-136090476D01*
X104007142Y-136138095D01*
X104054761Y-136185714D01*
X104102380Y-136280952D01*
X104102380Y-136519047D01*
X104054761Y-136614285D01*
X104007142Y-136661904D01*
X99109523Y-137185714D02*
X99109523Y-137852380D01*
X98871428Y-136804761D02*
X98633333Y-137519047D01*
X99252380Y-137519047D01*
X99633333Y-137852380D02*
X99633333Y-136852380D01*
X99728571Y-137471428D02*
X100014285Y-137852380D01*
X100014285Y-137185714D02*
X99633333Y-137566666D01*
X100347619Y-136852380D02*
X101014285Y-136852380D01*
X100585714Y-137852380D01*
X119713095Y-124582380D02*
X119713095Y-125391904D01*
X119760714Y-125487142D01*
X119808333Y-125534761D01*
X119903571Y-125582380D01*
X120094047Y-125582380D01*
X120189285Y-125534761D01*
X120236904Y-125487142D01*
X120284523Y-125391904D01*
X120284523Y-124582380D01*
X120665476Y-124582380D02*
X121284523Y-124582380D01*
X120951190Y-124963333D01*
X121094047Y-124963333D01*
X121189285Y-125010952D01*
X121236904Y-125058571D01*
X121284523Y-125153809D01*
X121284523Y-125391904D01*
X121236904Y-125487142D01*
X121189285Y-125534761D01*
X121094047Y-125582380D01*
X120808333Y-125582380D01*
X120713095Y-125534761D01*
X120665476Y-125487142D01*
X114952380Y-132685714D02*
X114952380Y-132019047D01*
X115952380Y-132447619D01*
X115285714Y-131209523D02*
X115952380Y-131209523D01*
X114904761Y-131447619D02*
X115619047Y-131685714D01*
X115619047Y-131066666D01*
X115952380Y-130685714D02*
X114952380Y-130685714D01*
X115428571Y-130685714D02*
X115428571Y-130114285D01*
X115952380Y-130114285D02*
X114952380Y-130114285D01*
X115857142Y-129066666D02*
X115904761Y-129114285D01*
X115952380Y-129257142D01*
X115952380Y-129352380D01*
X115904761Y-129495238D01*
X115809523Y-129590476D01*
X115714285Y-129638095D01*
X115523809Y-129685714D01*
X115380952Y-129685714D01*
X115190476Y-129638095D01*
X115095238Y-129590476D01*
X115000000Y-129495238D01*
X114952380Y-129352380D01*
X114952380Y-129257142D01*
X115000000Y-129114285D01*
X115047619Y-129066666D01*
X114952380Y-128733333D02*
X114952380Y-128114285D01*
X115333333Y-128447619D01*
X115333333Y-128304761D01*
X115380952Y-128209523D01*
X115428571Y-128161904D01*
X115523809Y-128114285D01*
X115761904Y-128114285D01*
X115857142Y-128161904D01*
X115904761Y-128209523D01*
X115952380Y-128304761D01*
X115952380Y-128590476D01*
X115904761Y-128685714D01*
X115857142Y-128733333D01*
X114952380Y-127495238D02*
X114952380Y-127400000D01*
X115000000Y-127304761D01*
X115047619Y-127257142D01*
X115142857Y-127209523D01*
X115333333Y-127161904D01*
X115571428Y-127161904D01*
X115761904Y-127209523D01*
X115857142Y-127257142D01*
X115904761Y-127304761D01*
X115952380Y-127400000D01*
X115952380Y-127495238D01*
X115904761Y-127590476D01*
X115857142Y-127638095D01*
X115761904Y-127685714D01*
X115571428Y-127733333D01*
X115333333Y-127733333D01*
X115142857Y-127685714D01*
X115047619Y-127638095D01*
X115000000Y-127590476D01*
X114952380Y-127495238D01*
X109188095Y-124572380D02*
X109188095Y-125381904D01*
X109235714Y-125477142D01*
X109283333Y-125524761D01*
X109378571Y-125572380D01*
X109569047Y-125572380D01*
X109664285Y-125524761D01*
X109711904Y-125477142D01*
X109759523Y-125381904D01*
X109759523Y-124572380D01*
X110664285Y-124905714D02*
X110664285Y-125572380D01*
X110426190Y-124524761D02*
X110188095Y-125239047D01*
X110807142Y-125239047D01*
X104452380Y-132685714D02*
X104452380Y-132019047D01*
X105452380Y-132447619D01*
X104785714Y-131209523D02*
X105452380Y-131209523D01*
X104404761Y-131447619D02*
X105119047Y-131685714D01*
X105119047Y-131066666D01*
X105452380Y-130685714D02*
X104452380Y-130685714D01*
X104928571Y-130685714D02*
X104928571Y-130114285D01*
X105452380Y-130114285D02*
X104452380Y-130114285D01*
X105357142Y-129066666D02*
X105404761Y-129114285D01*
X105452380Y-129257142D01*
X105452380Y-129352380D01*
X105404761Y-129495238D01*
X105309523Y-129590476D01*
X105214285Y-129638095D01*
X105023809Y-129685714D01*
X104880952Y-129685714D01*
X104690476Y-129638095D01*
X104595238Y-129590476D01*
X104500000Y-129495238D01*
X104452380Y-129352380D01*
X104452380Y-129257142D01*
X104500000Y-129114285D01*
X104547619Y-129066666D01*
X104452380Y-128733333D02*
X104452380Y-128114285D01*
X104833333Y-128447619D01*
X104833333Y-128304761D01*
X104880952Y-128209523D01*
X104928571Y-128161904D01*
X105023809Y-128114285D01*
X105261904Y-128114285D01*
X105357142Y-128161904D01*
X105404761Y-128209523D01*
X105452380Y-128304761D01*
X105452380Y-128590476D01*
X105404761Y-128685714D01*
X105357142Y-128733333D01*
X104452380Y-127495238D02*
X104452380Y-127400000D01*
X104500000Y-127304761D01*
X104547619Y-127257142D01*
X104642857Y-127209523D01*
X104833333Y-127161904D01*
X105071428Y-127161904D01*
X105261904Y-127209523D01*
X105357142Y-127257142D01*
X105404761Y-127304761D01*
X105452380Y-127400000D01*
X105452380Y-127495238D01*
X105404761Y-127590476D01*
X105357142Y-127638095D01*
X105261904Y-127685714D01*
X105071428Y-127733333D01*
X104833333Y-127733333D01*
X104642857Y-127685714D01*
X104547619Y-127638095D01*
X104500000Y-127590476D01*
X104452380Y-127495238D01*
X88288095Y-124522380D02*
X88288095Y-125331904D01*
X88335714Y-125427142D01*
X88383333Y-125474761D01*
X88478571Y-125522380D01*
X88669047Y-125522380D01*
X88764285Y-125474761D01*
X88811904Y-125427142D01*
X88859523Y-125331904D01*
X88859523Y-124522380D01*
X89811904Y-124522380D02*
X89335714Y-124522380D01*
X89288095Y-124998571D01*
X89335714Y-124950952D01*
X89430952Y-124903333D01*
X89669047Y-124903333D01*
X89764285Y-124950952D01*
X89811904Y-124998571D01*
X89859523Y-125093809D01*
X89859523Y-125331904D01*
X89811904Y-125427142D01*
X89764285Y-125474761D01*
X89669047Y-125522380D01*
X89430952Y-125522380D01*
X89335714Y-125474761D01*
X89288095Y-125427142D01*
X84052380Y-132685714D02*
X84052380Y-132019047D01*
X85052380Y-132447619D01*
X84385714Y-131209523D02*
X85052380Y-131209523D01*
X84004761Y-131447619D02*
X84719047Y-131685714D01*
X84719047Y-131066666D01*
X85052380Y-130685714D02*
X84052380Y-130685714D01*
X84528571Y-130685714D02*
X84528571Y-130114285D01*
X85052380Y-130114285D02*
X84052380Y-130114285D01*
X84957142Y-129066666D02*
X85004761Y-129114285D01*
X85052380Y-129257142D01*
X85052380Y-129352380D01*
X85004761Y-129495238D01*
X84909523Y-129590476D01*
X84814285Y-129638095D01*
X84623809Y-129685714D01*
X84480952Y-129685714D01*
X84290476Y-129638095D01*
X84195238Y-129590476D01*
X84100000Y-129495238D01*
X84052380Y-129352380D01*
X84052380Y-129257142D01*
X84100000Y-129114285D01*
X84147619Y-129066666D01*
X84052380Y-128733333D02*
X84052380Y-128114285D01*
X84433333Y-128447619D01*
X84433333Y-128304761D01*
X84480952Y-128209523D01*
X84528571Y-128161904D01*
X84623809Y-128114285D01*
X84861904Y-128114285D01*
X84957142Y-128161904D01*
X85004761Y-128209523D01*
X85052380Y-128304761D01*
X85052380Y-128590476D01*
X85004761Y-128685714D01*
X84957142Y-128733333D01*
X84052380Y-127495238D02*
X84052380Y-127400000D01*
X84100000Y-127304761D01*
X84147619Y-127257142D01*
X84242857Y-127209523D01*
X84433333Y-127161904D01*
X84671428Y-127161904D01*
X84861904Y-127209523D01*
X84957142Y-127257142D01*
X85004761Y-127304761D01*
X85052380Y-127400000D01*
X85052380Y-127495238D01*
X85004761Y-127590476D01*
X84957142Y-127638095D01*
X84861904Y-127685714D01*
X84671428Y-127733333D01*
X84433333Y-127733333D01*
X84242857Y-127685714D01*
X84147619Y-127638095D01*
X84100000Y-127590476D01*
X84052380Y-127495238D01*
X98713095Y-124532380D02*
X98713095Y-125341904D01*
X98760714Y-125437142D01*
X98808333Y-125484761D01*
X98903571Y-125532380D01*
X99094047Y-125532380D01*
X99189285Y-125484761D01*
X99236904Y-125437142D01*
X99284523Y-125341904D01*
X99284523Y-124532380D01*
X100189285Y-124532380D02*
X99998809Y-124532380D01*
X99903571Y-124580000D01*
X99855952Y-124627619D01*
X99760714Y-124770476D01*
X99713095Y-124960952D01*
X99713095Y-125341904D01*
X99760714Y-125437142D01*
X99808333Y-125484761D01*
X99903571Y-125532380D01*
X100094047Y-125532380D01*
X100189285Y-125484761D01*
X100236904Y-125437142D01*
X100284523Y-125341904D01*
X100284523Y-125103809D01*
X100236904Y-125008571D01*
X100189285Y-124960952D01*
X100094047Y-124913333D01*
X99903571Y-124913333D01*
X99808333Y-124960952D01*
X99760714Y-125008571D01*
X99713095Y-125103809D01*
X94552380Y-132685714D02*
X94552380Y-132019047D01*
X95552380Y-132447619D01*
X94885714Y-131209523D02*
X95552380Y-131209523D01*
X94504761Y-131447619D02*
X95219047Y-131685714D01*
X95219047Y-131066666D01*
X95552380Y-130685714D02*
X94552380Y-130685714D01*
X95028571Y-130685714D02*
X95028571Y-130114285D01*
X95552380Y-130114285D02*
X94552380Y-130114285D01*
X95457142Y-129066666D02*
X95504761Y-129114285D01*
X95552380Y-129257142D01*
X95552380Y-129352380D01*
X95504761Y-129495238D01*
X95409523Y-129590476D01*
X95314285Y-129638095D01*
X95123809Y-129685714D01*
X94980952Y-129685714D01*
X94790476Y-129638095D01*
X94695238Y-129590476D01*
X94600000Y-129495238D01*
X94552380Y-129352380D01*
X94552380Y-129257142D01*
X94600000Y-129114285D01*
X94647619Y-129066666D01*
X94552380Y-128733333D02*
X94552380Y-128114285D01*
X94933333Y-128447619D01*
X94933333Y-128304761D01*
X94980952Y-128209523D01*
X95028571Y-128161904D01*
X95123809Y-128114285D01*
X95361904Y-128114285D01*
X95457142Y-128161904D01*
X95504761Y-128209523D01*
X95552380Y-128304761D01*
X95552380Y-128590476D01*
X95504761Y-128685714D01*
X95457142Y-128733333D01*
X94552380Y-127495238D02*
X94552380Y-127400000D01*
X94600000Y-127304761D01*
X94647619Y-127257142D01*
X94742857Y-127209523D01*
X94933333Y-127161904D01*
X95171428Y-127161904D01*
X95361904Y-127209523D01*
X95457142Y-127257142D01*
X95504761Y-127304761D01*
X95552380Y-127400000D01*
X95552380Y-127495238D01*
X95504761Y-127590476D01*
X95457142Y-127638095D01*
X95361904Y-127685714D01*
X95171428Y-127733333D01*
X94933333Y-127733333D01*
X94742857Y-127685714D01*
X94647619Y-127638095D01*
X94600000Y-127590476D01*
X94552380Y-127495238D01*
X168052380Y-112411904D02*
X168861904Y-112411904D01*
X168957142Y-112364285D01*
X169004761Y-112316666D01*
X169052380Y-112221428D01*
X169052380Y-112030952D01*
X169004761Y-111935714D01*
X168957142Y-111888095D01*
X168861904Y-111840476D01*
X168052380Y-111840476D01*
X168052380Y-111459523D02*
X168052380Y-110792857D01*
X169052380Y-111221428D01*
X172638095Y-117752380D02*
X173304761Y-117752380D01*
X172876190Y-118752380D01*
X174114285Y-118085714D02*
X174114285Y-118752380D01*
X173876190Y-117704761D02*
X173638095Y-118419047D01*
X174257142Y-118419047D01*
X174638095Y-118752380D02*
X174638095Y-117752380D01*
X174638095Y-118228571D02*
X175209523Y-118228571D01*
X175209523Y-118752380D02*
X175209523Y-117752380D01*
X176257142Y-118657142D02*
X176209523Y-118704761D01*
X176066666Y-118752380D01*
X175971428Y-118752380D01*
X175828571Y-118704761D01*
X175733333Y-118609523D01*
X175685714Y-118514285D01*
X175638095Y-118323809D01*
X175638095Y-118180952D01*
X175685714Y-117990476D01*
X175733333Y-117895238D01*
X175828571Y-117800000D01*
X175971428Y-117752380D01*
X176066666Y-117752380D01*
X176209523Y-117800000D01*
X176257142Y-117847619D01*
X176590476Y-117752380D02*
X177209523Y-117752380D01*
X176876190Y-118133333D01*
X177019047Y-118133333D01*
X177114285Y-118180952D01*
X177161904Y-118228571D01*
X177209523Y-118323809D01*
X177209523Y-118561904D01*
X177161904Y-118657142D01*
X177114285Y-118704761D01*
X177019047Y-118752380D01*
X176733333Y-118752380D01*
X176638095Y-118704761D01*
X176590476Y-118657142D01*
X177542857Y-117752380D02*
X178209523Y-117752380D01*
X177780952Y-118752380D01*
X178495238Y-117752380D02*
X179114285Y-117752380D01*
X178780952Y-118133333D01*
X178923809Y-118133333D01*
X179019047Y-118180952D01*
X179066666Y-118228571D01*
X179114285Y-118323809D01*
X179114285Y-118561904D01*
X179066666Y-118657142D01*
X179019047Y-118704761D01*
X178923809Y-118752380D01*
X178638095Y-118752380D01*
X178542857Y-118704761D01*
X178495238Y-118657142D01*
X105122380Y-147741904D02*
X105931904Y-147741904D01*
X106027142Y-147694285D01*
X106074761Y-147646666D01*
X106122380Y-147551428D01*
X106122380Y-147360952D01*
X106074761Y-147265714D01*
X106027142Y-147218095D01*
X105931904Y-147170476D01*
X105122380Y-147170476D01*
X105550952Y-146551428D02*
X105503333Y-146646666D01*
X105455714Y-146694285D01*
X105360476Y-146741904D01*
X105312857Y-146741904D01*
X105217619Y-146694285D01*
X105170000Y-146646666D01*
X105122380Y-146551428D01*
X105122380Y-146360952D01*
X105170000Y-146265714D01*
X105217619Y-146218095D01*
X105312857Y-146170476D01*
X105360476Y-146170476D01*
X105455714Y-146218095D01*
X105503333Y-146265714D01*
X105550952Y-146360952D01*
X105550952Y-146551428D01*
X105598571Y-146646666D01*
X105646190Y-146694285D01*
X105741428Y-146741904D01*
X105931904Y-146741904D01*
X106027142Y-146694285D01*
X106074761Y-146646666D01*
X106122380Y-146551428D01*
X106122380Y-146360952D01*
X106074761Y-146265714D01*
X106027142Y-146218095D01*
X105931904Y-146170476D01*
X105741428Y-146170476D01*
X105646190Y-146218095D01*
X105598571Y-146265714D01*
X105550952Y-146360952D01*
X153352380Y-112888095D02*
X154161904Y-112888095D01*
X154257142Y-112840476D01*
X154304761Y-112792857D01*
X154352380Y-112697619D01*
X154352380Y-112507142D01*
X154304761Y-112411904D01*
X154257142Y-112364285D01*
X154161904Y-112316666D01*
X153352380Y-112316666D01*
X154352380Y-111316666D02*
X154352380Y-111888095D01*
X154352380Y-111602380D02*
X153352380Y-111602380D01*
X153495238Y-111697619D01*
X153590476Y-111792857D01*
X153638095Y-111888095D01*
X153352380Y-110697619D02*
X153352380Y-110602380D01*
X153400000Y-110507142D01*
X153447619Y-110459523D01*
X153542857Y-110411904D01*
X153733333Y-110364285D01*
X153971428Y-110364285D01*
X154161904Y-110411904D01*
X154257142Y-110459523D01*
X154304761Y-110507142D01*
X154352380Y-110602380D01*
X154352380Y-110697619D01*
X154304761Y-110792857D01*
X154257142Y-110840476D01*
X154161904Y-110888095D01*
X153971428Y-110935714D01*
X153733333Y-110935714D01*
X153542857Y-110888095D01*
X153447619Y-110840476D01*
X153400000Y-110792857D01*
X153352380Y-110697619D01*
X155338095Y-117852380D02*
X156004761Y-117852380D01*
X155576190Y-118852380D01*
X156814285Y-118185714D02*
X156814285Y-118852380D01*
X156576190Y-117804761D02*
X156338095Y-118519047D01*
X156957142Y-118519047D01*
X157338095Y-118852380D02*
X157338095Y-117852380D01*
X157338095Y-118328571D02*
X157909523Y-118328571D01*
X157909523Y-118852380D02*
X157909523Y-117852380D01*
X158957142Y-118757142D02*
X158909523Y-118804761D01*
X158766666Y-118852380D01*
X158671428Y-118852380D01*
X158528571Y-118804761D01*
X158433333Y-118709523D01*
X158385714Y-118614285D01*
X158338095Y-118423809D01*
X158338095Y-118280952D01*
X158385714Y-118090476D01*
X158433333Y-117995238D01*
X158528571Y-117900000D01*
X158671428Y-117852380D01*
X158766666Y-117852380D01*
X158909523Y-117900000D01*
X158957142Y-117947619D01*
X159290476Y-117852380D02*
X159909523Y-117852380D01*
X159576190Y-118233333D01*
X159719047Y-118233333D01*
X159814285Y-118280952D01*
X159861904Y-118328571D01*
X159909523Y-118423809D01*
X159909523Y-118661904D01*
X159861904Y-118757142D01*
X159814285Y-118804761D01*
X159719047Y-118852380D01*
X159433333Y-118852380D01*
X159338095Y-118804761D01*
X159290476Y-118757142D01*
X160242857Y-117852380D02*
X160909523Y-117852380D01*
X160480952Y-118852380D01*
X161195238Y-117852380D02*
X161814285Y-117852380D01*
X161480952Y-118233333D01*
X161623809Y-118233333D01*
X161719047Y-118280952D01*
X161766666Y-118328571D01*
X161814285Y-118423809D01*
X161814285Y-118661904D01*
X161766666Y-118757142D01*
X161719047Y-118804761D01*
X161623809Y-118852380D01*
X161338095Y-118852380D01*
X161242857Y-118804761D01*
X161195238Y-118757142D01*
X214452380Y-106438095D02*
X215261904Y-106438095D01*
X215357142Y-106390476D01*
X215404761Y-106342857D01*
X215452380Y-106247619D01*
X215452380Y-106057142D01*
X215404761Y-105961904D01*
X215357142Y-105914285D01*
X215261904Y-105866666D01*
X214452380Y-105866666D01*
X215452380Y-104866666D02*
X215452380Y-105438095D01*
X215452380Y-105152380D02*
X214452380Y-105152380D01*
X214595238Y-105247619D01*
X214690476Y-105342857D01*
X214738095Y-105438095D01*
X215452380Y-103914285D02*
X215452380Y-104485714D01*
X215452380Y-104200000D02*
X214452380Y-104200000D01*
X214595238Y-104295238D01*
X214690476Y-104390476D01*
X214738095Y-104485714D01*
X166186904Y-126927380D02*
X166186904Y-127736904D01*
X166234523Y-127832142D01*
X166282142Y-127879761D01*
X166377380Y-127927380D01*
X166567857Y-127927380D01*
X166663095Y-127879761D01*
X166710714Y-127832142D01*
X166758333Y-127736904D01*
X166758333Y-126927380D01*
X167758333Y-127927380D02*
X167186904Y-127927380D01*
X167472619Y-127927380D02*
X167472619Y-126927380D01*
X167377380Y-127070238D01*
X167282142Y-127165476D01*
X167186904Y-127213095D01*
X168139285Y-127022619D02*
X168186904Y-126975000D01*
X168282142Y-126927380D01*
X168520238Y-126927380D01*
X168615476Y-126975000D01*
X168663095Y-127022619D01*
X168710714Y-127117857D01*
X168710714Y-127213095D01*
X168663095Y-127355952D01*
X168091666Y-127927380D01*
X168710714Y-127927380D01*
X156280952Y-125266666D02*
X156757142Y-125266666D01*
X156185714Y-125552380D02*
X156519047Y-124552380D01*
X156852380Y-125552380D01*
X157042857Y-124552380D02*
X157614285Y-124552380D01*
X157328571Y-125552380D02*
X157328571Y-124552380D01*
X157947619Y-125552380D02*
X157947619Y-124885714D01*
X157947619Y-124980952D02*
X157995238Y-124933333D01*
X158090476Y-124885714D01*
X158233333Y-124885714D01*
X158328571Y-124933333D01*
X158376190Y-125028571D01*
X158376190Y-125552380D01*
X158376190Y-125028571D02*
X158423809Y-124933333D01*
X158519047Y-124885714D01*
X158661904Y-124885714D01*
X158757142Y-124933333D01*
X158804761Y-125028571D01*
X158804761Y-125552380D01*
X159661904Y-125504761D02*
X159566666Y-125552380D01*
X159376190Y-125552380D01*
X159280952Y-125504761D01*
X159233333Y-125409523D01*
X159233333Y-125028571D01*
X159280952Y-124933333D01*
X159376190Y-124885714D01*
X159566666Y-124885714D01*
X159661904Y-124933333D01*
X159709523Y-125028571D01*
X159709523Y-125123809D01*
X159233333Y-125219047D01*
X160566666Y-124885714D02*
X160566666Y-125695238D01*
X160519047Y-125790476D01*
X160471428Y-125838095D01*
X160376190Y-125885714D01*
X160233333Y-125885714D01*
X160138095Y-125838095D01*
X160566666Y-125504761D02*
X160471428Y-125552380D01*
X160280952Y-125552380D01*
X160185714Y-125504761D01*
X160138095Y-125457142D01*
X160090476Y-125361904D01*
X160090476Y-125076190D01*
X160138095Y-124980952D01*
X160185714Y-124933333D01*
X160280952Y-124885714D01*
X160471428Y-124885714D01*
X160566666Y-124933333D01*
X161471428Y-125552380D02*
X161471428Y-125028571D01*
X161423809Y-124933333D01*
X161328571Y-124885714D01*
X161138095Y-124885714D01*
X161042857Y-124933333D01*
X161471428Y-125504761D02*
X161376190Y-125552380D01*
X161138095Y-125552380D01*
X161042857Y-125504761D01*
X160995238Y-125409523D01*
X160995238Y-125314285D01*
X161042857Y-125219047D01*
X161138095Y-125171428D01*
X161376190Y-125171428D01*
X161471428Y-125123809D01*
X161852380Y-124552380D02*
X162471428Y-124552380D01*
X162138095Y-124933333D01*
X162280952Y-124933333D01*
X162376190Y-124980952D01*
X162423809Y-125028571D01*
X162471428Y-125123809D01*
X162471428Y-125361904D01*
X162423809Y-125457142D01*
X162376190Y-125504761D01*
X162280952Y-125552380D01*
X161995238Y-125552380D01*
X161900000Y-125504761D01*
X161852380Y-125457142D01*
X162852380Y-124647619D02*
X162900000Y-124600000D01*
X162995238Y-124552380D01*
X163233333Y-124552380D01*
X163328571Y-124600000D01*
X163376190Y-124647619D01*
X163423809Y-124742857D01*
X163423809Y-124838095D01*
X163376190Y-124980952D01*
X162804761Y-125552380D01*
X163423809Y-125552380D01*
X163995238Y-124980952D02*
X163900000Y-124933333D01*
X163852380Y-124885714D01*
X163804761Y-124790476D01*
X163804761Y-124742857D01*
X163852380Y-124647619D01*
X163900000Y-124600000D01*
X163995238Y-124552380D01*
X164185714Y-124552380D01*
X164280952Y-124600000D01*
X164328571Y-124647619D01*
X164376190Y-124742857D01*
X164376190Y-124790476D01*
X164328571Y-124885714D01*
X164280952Y-124933333D01*
X164185714Y-124980952D01*
X163995238Y-124980952D01*
X163900000Y-125028571D01*
X163852380Y-125076190D01*
X163804761Y-125171428D01*
X163804761Y-125361904D01*
X163852380Y-125457142D01*
X163900000Y-125504761D01*
X163995238Y-125552380D01*
X164185714Y-125552380D01*
X164280952Y-125504761D01*
X164328571Y-125457142D01*
X164376190Y-125361904D01*
X164376190Y-125171428D01*
X164328571Y-125076190D01*
X164280952Y-125028571D01*
X164185714Y-124980952D01*
X164804761Y-125552380D02*
X164804761Y-124552380D01*
X165185714Y-124552380D01*
X165280952Y-124600000D01*
X165328571Y-124647619D01*
X165376190Y-124742857D01*
X165376190Y-124885714D01*
X165328571Y-124980952D01*
X165280952Y-125028571D01*
X165185714Y-125076190D01*
X164804761Y-125076190D01*
X165804761Y-125171428D02*
X166566666Y-125171428D01*
X166995238Y-125266666D02*
X167471428Y-125266666D01*
X166900000Y-125552380D02*
X167233333Y-124552380D01*
X167566666Y-125552380D01*
X167900000Y-124552380D02*
X167900000Y-125361904D01*
X167947619Y-125457142D01*
X167995238Y-125504761D01*
X168090476Y-125552380D01*
X168280952Y-125552380D01*
X168376190Y-125504761D01*
X168423809Y-125457142D01*
X168471428Y-125361904D01*
X168471428Y-124552380D01*
X138652380Y-112888095D02*
X139461904Y-112888095D01*
X139557142Y-112840476D01*
X139604761Y-112792857D01*
X139652380Y-112697619D01*
X139652380Y-112507142D01*
X139604761Y-112411904D01*
X139557142Y-112364285D01*
X139461904Y-112316666D01*
X138652380Y-112316666D01*
X139652380Y-111316666D02*
X139652380Y-111888095D01*
X139652380Y-111602380D02*
X138652380Y-111602380D01*
X138795238Y-111697619D01*
X138890476Y-111792857D01*
X138938095Y-111888095D01*
X138652380Y-110983333D02*
X138652380Y-110364285D01*
X139033333Y-110697619D01*
X139033333Y-110554761D01*
X139080952Y-110459523D01*
X139128571Y-110411904D01*
X139223809Y-110364285D01*
X139461904Y-110364285D01*
X139557142Y-110411904D01*
X139604761Y-110459523D01*
X139652380Y-110554761D01*
X139652380Y-110840476D01*
X139604761Y-110935714D01*
X139557142Y-110983333D01*
X143338095Y-117852380D02*
X144004761Y-117852380D01*
X143576190Y-118852380D01*
X144814285Y-118185714D02*
X144814285Y-118852380D01*
X144576190Y-117804761D02*
X144338095Y-118519047D01*
X144957142Y-118519047D01*
X145338095Y-118852380D02*
X145338095Y-117852380D01*
X145338095Y-118328571D02*
X145909523Y-118328571D01*
X145909523Y-118852380D02*
X145909523Y-117852380D01*
X146957142Y-118757142D02*
X146909523Y-118804761D01*
X146766666Y-118852380D01*
X146671428Y-118852380D01*
X146528571Y-118804761D01*
X146433333Y-118709523D01*
X146385714Y-118614285D01*
X146338095Y-118423809D01*
X146338095Y-118280952D01*
X146385714Y-118090476D01*
X146433333Y-117995238D01*
X146528571Y-117900000D01*
X146671428Y-117852380D01*
X146766666Y-117852380D01*
X146909523Y-117900000D01*
X146957142Y-117947619D01*
X147290476Y-117852380D02*
X147909523Y-117852380D01*
X147576190Y-118233333D01*
X147719047Y-118233333D01*
X147814285Y-118280952D01*
X147861904Y-118328571D01*
X147909523Y-118423809D01*
X147909523Y-118661904D01*
X147861904Y-118757142D01*
X147814285Y-118804761D01*
X147719047Y-118852380D01*
X147433333Y-118852380D01*
X147338095Y-118804761D01*
X147290476Y-118757142D01*
X148242857Y-117852380D02*
X148909523Y-117852380D01*
X148480952Y-118852380D01*
X149195238Y-117852380D02*
X149814285Y-117852380D01*
X149480952Y-118233333D01*
X149623809Y-118233333D01*
X149719047Y-118280952D01*
X149766666Y-118328571D01*
X149814285Y-118423809D01*
X149814285Y-118661904D01*
X149766666Y-118757142D01*
X149719047Y-118804761D01*
X149623809Y-118852380D01*
X149338095Y-118852380D01*
X149242857Y-118804761D01*
X149195238Y-118757142D01*
X123952380Y-112888095D02*
X124761904Y-112888095D01*
X124857142Y-112840476D01*
X124904761Y-112792857D01*
X124952380Y-112697619D01*
X124952380Y-112507142D01*
X124904761Y-112411904D01*
X124857142Y-112364285D01*
X124761904Y-112316666D01*
X123952380Y-112316666D01*
X124952380Y-111316666D02*
X124952380Y-111888095D01*
X124952380Y-111602380D02*
X123952380Y-111602380D01*
X124095238Y-111697619D01*
X124190476Y-111792857D01*
X124238095Y-111888095D01*
X124285714Y-110459523D02*
X124952380Y-110459523D01*
X123904761Y-110697619D02*
X124619047Y-110935714D01*
X124619047Y-110316666D01*
X128538095Y-117852380D02*
X129204761Y-117852380D01*
X128776190Y-118852380D01*
X130014285Y-118185714D02*
X130014285Y-118852380D01*
X129776190Y-117804761D02*
X129538095Y-118519047D01*
X130157142Y-118519047D01*
X130538095Y-118852380D02*
X130538095Y-117852380D01*
X130538095Y-118328571D02*
X131109523Y-118328571D01*
X131109523Y-118852380D02*
X131109523Y-117852380D01*
X132157142Y-118757142D02*
X132109523Y-118804761D01*
X131966666Y-118852380D01*
X131871428Y-118852380D01*
X131728571Y-118804761D01*
X131633333Y-118709523D01*
X131585714Y-118614285D01*
X131538095Y-118423809D01*
X131538095Y-118280952D01*
X131585714Y-118090476D01*
X131633333Y-117995238D01*
X131728571Y-117900000D01*
X131871428Y-117852380D01*
X131966666Y-117852380D01*
X132109523Y-117900000D01*
X132157142Y-117947619D01*
X132490476Y-117852380D02*
X133109523Y-117852380D01*
X132776190Y-118233333D01*
X132919047Y-118233333D01*
X133014285Y-118280952D01*
X133061904Y-118328571D01*
X133109523Y-118423809D01*
X133109523Y-118661904D01*
X133061904Y-118757142D01*
X133014285Y-118804761D01*
X132919047Y-118852380D01*
X132633333Y-118852380D01*
X132538095Y-118804761D01*
X132490476Y-118757142D01*
X133442857Y-117852380D02*
X134109523Y-117852380D01*
X133680952Y-118852380D01*
X134395238Y-117852380D02*
X135014285Y-117852380D01*
X134680952Y-118233333D01*
X134823809Y-118233333D01*
X134919047Y-118280952D01*
X134966666Y-118328571D01*
X135014285Y-118423809D01*
X135014285Y-118661904D01*
X134966666Y-118757142D01*
X134919047Y-118804761D01*
X134823809Y-118852380D01*
X134538095Y-118852380D01*
X134442857Y-118804761D01*
X134395238Y-118757142D01*
X79852380Y-112888095D02*
X80661904Y-112888095D01*
X80757142Y-112840476D01*
X80804761Y-112792857D01*
X80852380Y-112697619D01*
X80852380Y-112507142D01*
X80804761Y-112411904D01*
X80757142Y-112364285D01*
X80661904Y-112316666D01*
X79852380Y-112316666D01*
X80852380Y-111316666D02*
X80852380Y-111888095D01*
X80852380Y-111602380D02*
X79852380Y-111602380D01*
X79995238Y-111697619D01*
X80090476Y-111792857D01*
X80138095Y-111888095D01*
X79852380Y-110411904D02*
X79852380Y-110888095D01*
X80328571Y-110935714D01*
X80280952Y-110888095D01*
X80233333Y-110792857D01*
X80233333Y-110554761D01*
X80280952Y-110459523D01*
X80328571Y-110411904D01*
X80423809Y-110364285D01*
X80661904Y-110364285D01*
X80757142Y-110411904D01*
X80804761Y-110459523D01*
X80852380Y-110554761D01*
X80852380Y-110792857D01*
X80804761Y-110888095D01*
X80757142Y-110935714D01*
X83538095Y-117852380D02*
X84204761Y-117852380D01*
X83776190Y-118852380D01*
X85014285Y-118185714D02*
X85014285Y-118852380D01*
X84776190Y-117804761D02*
X84538095Y-118519047D01*
X85157142Y-118519047D01*
X85538095Y-118852380D02*
X85538095Y-117852380D01*
X85538095Y-118328571D02*
X86109523Y-118328571D01*
X86109523Y-118852380D02*
X86109523Y-117852380D01*
X87157142Y-118757142D02*
X87109523Y-118804761D01*
X86966666Y-118852380D01*
X86871428Y-118852380D01*
X86728571Y-118804761D01*
X86633333Y-118709523D01*
X86585714Y-118614285D01*
X86538095Y-118423809D01*
X86538095Y-118280952D01*
X86585714Y-118090476D01*
X86633333Y-117995238D01*
X86728571Y-117900000D01*
X86871428Y-117852380D01*
X86966666Y-117852380D01*
X87109523Y-117900000D01*
X87157142Y-117947619D01*
X87490476Y-117852380D02*
X88109523Y-117852380D01*
X87776190Y-118233333D01*
X87919047Y-118233333D01*
X88014285Y-118280952D01*
X88061904Y-118328571D01*
X88109523Y-118423809D01*
X88109523Y-118661904D01*
X88061904Y-118757142D01*
X88014285Y-118804761D01*
X87919047Y-118852380D01*
X87633333Y-118852380D01*
X87538095Y-118804761D01*
X87490476Y-118757142D01*
X88442857Y-117852380D02*
X89109523Y-117852380D01*
X88680952Y-118852380D01*
X89395238Y-117852380D02*
X90014285Y-117852380D01*
X89680952Y-118233333D01*
X89823809Y-118233333D01*
X89919047Y-118280952D01*
X89966666Y-118328571D01*
X90014285Y-118423809D01*
X90014285Y-118661904D01*
X89966666Y-118757142D01*
X89919047Y-118804761D01*
X89823809Y-118852380D01*
X89538095Y-118852380D01*
X89442857Y-118804761D01*
X89395238Y-118757142D01*
X166673809Y-136576190D02*
X166673809Y-137052380D01*
X166340476Y-136052380D02*
X166673809Y-136576190D01*
X167007142Y-136052380D01*
X167864285Y-137052380D02*
X167292857Y-137052380D01*
X167578571Y-137052380D02*
X167578571Y-136052380D01*
X167483333Y-136195238D01*
X167388095Y-136290476D01*
X167292857Y-136338095D01*
X162366666Y-143152380D02*
X161795238Y-143152380D01*
X162080952Y-143152380D02*
X162080952Y-142152380D01*
X161985714Y-142295238D01*
X161890476Y-142390476D01*
X161795238Y-142438095D01*
X163223809Y-142485714D02*
X163223809Y-143152380D01*
X162985714Y-142104761D02*
X162747619Y-142819047D01*
X163366666Y-142819047D01*
X163747619Y-143057142D02*
X163795238Y-143104761D01*
X163747619Y-143152380D01*
X163700000Y-143104761D01*
X163747619Y-143057142D01*
X163747619Y-143152380D01*
X164128571Y-142152380D02*
X164795238Y-142152380D01*
X164366666Y-143152380D01*
X165604761Y-142485714D02*
X165604761Y-143152380D01*
X165366666Y-142104761D02*
X165128571Y-142819047D01*
X165747619Y-142819047D01*
X166604761Y-142152380D02*
X166128571Y-142152380D01*
X166080952Y-142628571D01*
X166128571Y-142580952D01*
X166223809Y-142533333D01*
X166461904Y-142533333D01*
X166557142Y-142580952D01*
X166604761Y-142628571D01*
X166652380Y-142723809D01*
X166652380Y-142961904D01*
X166604761Y-143057142D01*
X166557142Y-143104761D01*
X166461904Y-143152380D01*
X166223809Y-143152380D01*
X166128571Y-143104761D01*
X166080952Y-143057142D01*
X167509523Y-142152380D02*
X167319047Y-142152380D01*
X167223809Y-142200000D01*
X167176190Y-142247619D01*
X167080952Y-142390476D01*
X167033333Y-142580952D01*
X167033333Y-142961904D01*
X167080952Y-143057142D01*
X167128571Y-143104761D01*
X167223809Y-143152380D01*
X167414285Y-143152380D01*
X167509523Y-143104761D01*
X167557142Y-143057142D01*
X167604761Y-142961904D01*
X167604761Y-142723809D01*
X167557142Y-142628571D01*
X167509523Y-142580952D01*
X167414285Y-142533333D01*
X167223809Y-142533333D01*
X167128571Y-142580952D01*
X167080952Y-142628571D01*
X167033333Y-142723809D01*
M02*
