G04 #@! TF.GenerationSoftware,KiCad,Pcbnew,5.1.5+dfsg1-2*
G04 #@! TF.CreationDate,2020-02-18T22:18:07+02:00*
G04 #@! TF.ProjectId,zxkbd,7a786b62-642e-46b6-9963-61645f706362,rev?*
G04 #@! TF.SameCoordinates,Original*
G04 #@! TF.FileFunction,Soldermask,Bot*
G04 #@! TF.FilePolarity,Negative*
%FSLAX46Y46*%
G04 Gerber Fmt 4.6, Leading zero omitted, Abs format (unit mm)*
G04 Created by KiCad (PCBNEW 5.1.5+dfsg1-2) date 2020-02-18 22:18:07*
%MOMM*%
%LPD*%
G04 APERTURE LIST*
%ADD10C,0.100000*%
G04 APERTURE END LIST*
D10*
G36*
X130973512Y-147353927D02*
G01*
X131122812Y-147383624D01*
X131286784Y-147451544D01*
X131434354Y-147550147D01*
X131559853Y-147675646D01*
X131658456Y-147823216D01*
X131726376Y-147987188D01*
X131761000Y-148161259D01*
X131761000Y-148338741D01*
X131726376Y-148512812D01*
X131658456Y-148676784D01*
X131559853Y-148824354D01*
X131434354Y-148949853D01*
X131286784Y-149048456D01*
X131122812Y-149116376D01*
X130973512Y-149146073D01*
X130948742Y-149151000D01*
X130771258Y-149151000D01*
X130746488Y-149146073D01*
X130597188Y-149116376D01*
X130433216Y-149048456D01*
X130285646Y-148949853D01*
X130160147Y-148824354D01*
X130061544Y-148676784D01*
X129993624Y-148512812D01*
X129959000Y-148338741D01*
X129959000Y-148161259D01*
X129993624Y-147987188D01*
X130061544Y-147823216D01*
X130160147Y-147675646D01*
X130285646Y-147550147D01*
X130433216Y-147451544D01*
X130597188Y-147383624D01*
X130746488Y-147353927D01*
X130771258Y-147349000D01*
X130948742Y-147349000D01*
X130973512Y-147353927D01*
G37*
G36*
X108901000Y-149151000D02*
G01*
X107099000Y-149151000D01*
X107099000Y-147349000D01*
X108901000Y-147349000D01*
X108901000Y-149151000D01*
G37*
G36*
X110653512Y-147353927D02*
G01*
X110802812Y-147383624D01*
X110966784Y-147451544D01*
X111114354Y-147550147D01*
X111239853Y-147675646D01*
X111338456Y-147823216D01*
X111406376Y-147987188D01*
X111441000Y-148161259D01*
X111441000Y-148338741D01*
X111406376Y-148512812D01*
X111338456Y-148676784D01*
X111239853Y-148824354D01*
X111114354Y-148949853D01*
X110966784Y-149048456D01*
X110802812Y-149116376D01*
X110653512Y-149146073D01*
X110628742Y-149151000D01*
X110451258Y-149151000D01*
X110426488Y-149146073D01*
X110277188Y-149116376D01*
X110113216Y-149048456D01*
X109965646Y-148949853D01*
X109840147Y-148824354D01*
X109741544Y-148676784D01*
X109673624Y-148512812D01*
X109639000Y-148338741D01*
X109639000Y-148161259D01*
X109673624Y-147987188D01*
X109741544Y-147823216D01*
X109840147Y-147675646D01*
X109965646Y-147550147D01*
X110113216Y-147451544D01*
X110277188Y-147383624D01*
X110426488Y-147353927D01*
X110451258Y-147349000D01*
X110628742Y-147349000D01*
X110653512Y-147353927D01*
G37*
G36*
X113193512Y-147353927D02*
G01*
X113342812Y-147383624D01*
X113506784Y-147451544D01*
X113654354Y-147550147D01*
X113779853Y-147675646D01*
X113878456Y-147823216D01*
X113946376Y-147987188D01*
X113981000Y-148161259D01*
X113981000Y-148338741D01*
X113946376Y-148512812D01*
X113878456Y-148676784D01*
X113779853Y-148824354D01*
X113654354Y-148949853D01*
X113506784Y-149048456D01*
X113342812Y-149116376D01*
X113193512Y-149146073D01*
X113168742Y-149151000D01*
X112991258Y-149151000D01*
X112966488Y-149146073D01*
X112817188Y-149116376D01*
X112653216Y-149048456D01*
X112505646Y-148949853D01*
X112380147Y-148824354D01*
X112281544Y-148676784D01*
X112213624Y-148512812D01*
X112179000Y-148338741D01*
X112179000Y-148161259D01*
X112213624Y-147987188D01*
X112281544Y-147823216D01*
X112380147Y-147675646D01*
X112505646Y-147550147D01*
X112653216Y-147451544D01*
X112817188Y-147383624D01*
X112966488Y-147353927D01*
X112991258Y-147349000D01*
X113168742Y-147349000D01*
X113193512Y-147353927D01*
G37*
G36*
X115733512Y-147353927D02*
G01*
X115882812Y-147383624D01*
X116046784Y-147451544D01*
X116194354Y-147550147D01*
X116319853Y-147675646D01*
X116418456Y-147823216D01*
X116486376Y-147987188D01*
X116521000Y-148161259D01*
X116521000Y-148338741D01*
X116486376Y-148512812D01*
X116418456Y-148676784D01*
X116319853Y-148824354D01*
X116194354Y-148949853D01*
X116046784Y-149048456D01*
X115882812Y-149116376D01*
X115733512Y-149146073D01*
X115708742Y-149151000D01*
X115531258Y-149151000D01*
X115506488Y-149146073D01*
X115357188Y-149116376D01*
X115193216Y-149048456D01*
X115045646Y-148949853D01*
X114920147Y-148824354D01*
X114821544Y-148676784D01*
X114753624Y-148512812D01*
X114719000Y-148338741D01*
X114719000Y-148161259D01*
X114753624Y-147987188D01*
X114821544Y-147823216D01*
X114920147Y-147675646D01*
X115045646Y-147550147D01*
X115193216Y-147451544D01*
X115357188Y-147383624D01*
X115506488Y-147353927D01*
X115531258Y-147349000D01*
X115708742Y-147349000D01*
X115733512Y-147353927D01*
G37*
G36*
X118273512Y-147353927D02*
G01*
X118422812Y-147383624D01*
X118586784Y-147451544D01*
X118734354Y-147550147D01*
X118859853Y-147675646D01*
X118958456Y-147823216D01*
X119026376Y-147987188D01*
X119061000Y-148161259D01*
X119061000Y-148338741D01*
X119026376Y-148512812D01*
X118958456Y-148676784D01*
X118859853Y-148824354D01*
X118734354Y-148949853D01*
X118586784Y-149048456D01*
X118422812Y-149116376D01*
X118273512Y-149146073D01*
X118248742Y-149151000D01*
X118071258Y-149151000D01*
X118046488Y-149146073D01*
X117897188Y-149116376D01*
X117733216Y-149048456D01*
X117585646Y-148949853D01*
X117460147Y-148824354D01*
X117361544Y-148676784D01*
X117293624Y-148512812D01*
X117259000Y-148338741D01*
X117259000Y-148161259D01*
X117293624Y-147987188D01*
X117361544Y-147823216D01*
X117460147Y-147675646D01*
X117585646Y-147550147D01*
X117733216Y-147451544D01*
X117897188Y-147383624D01*
X118046488Y-147353927D01*
X118071258Y-147349000D01*
X118248742Y-147349000D01*
X118273512Y-147353927D01*
G37*
G36*
X120813512Y-147353927D02*
G01*
X120962812Y-147383624D01*
X121126784Y-147451544D01*
X121274354Y-147550147D01*
X121399853Y-147675646D01*
X121498456Y-147823216D01*
X121566376Y-147987188D01*
X121601000Y-148161259D01*
X121601000Y-148338741D01*
X121566376Y-148512812D01*
X121498456Y-148676784D01*
X121399853Y-148824354D01*
X121274354Y-148949853D01*
X121126784Y-149048456D01*
X120962812Y-149116376D01*
X120813512Y-149146073D01*
X120788742Y-149151000D01*
X120611258Y-149151000D01*
X120586488Y-149146073D01*
X120437188Y-149116376D01*
X120273216Y-149048456D01*
X120125646Y-148949853D01*
X120000147Y-148824354D01*
X119901544Y-148676784D01*
X119833624Y-148512812D01*
X119799000Y-148338741D01*
X119799000Y-148161259D01*
X119833624Y-147987188D01*
X119901544Y-147823216D01*
X120000147Y-147675646D01*
X120125646Y-147550147D01*
X120273216Y-147451544D01*
X120437188Y-147383624D01*
X120586488Y-147353927D01*
X120611258Y-147349000D01*
X120788742Y-147349000D01*
X120813512Y-147353927D01*
G37*
G36*
X123353512Y-147353927D02*
G01*
X123502812Y-147383624D01*
X123666784Y-147451544D01*
X123814354Y-147550147D01*
X123939853Y-147675646D01*
X124038456Y-147823216D01*
X124106376Y-147987188D01*
X124141000Y-148161259D01*
X124141000Y-148338741D01*
X124106376Y-148512812D01*
X124038456Y-148676784D01*
X123939853Y-148824354D01*
X123814354Y-148949853D01*
X123666784Y-149048456D01*
X123502812Y-149116376D01*
X123353512Y-149146073D01*
X123328742Y-149151000D01*
X123151258Y-149151000D01*
X123126488Y-149146073D01*
X122977188Y-149116376D01*
X122813216Y-149048456D01*
X122665646Y-148949853D01*
X122540147Y-148824354D01*
X122441544Y-148676784D01*
X122373624Y-148512812D01*
X122339000Y-148338741D01*
X122339000Y-148161259D01*
X122373624Y-147987188D01*
X122441544Y-147823216D01*
X122540147Y-147675646D01*
X122665646Y-147550147D01*
X122813216Y-147451544D01*
X122977188Y-147383624D01*
X123126488Y-147353927D01*
X123151258Y-147349000D01*
X123328742Y-147349000D01*
X123353512Y-147353927D01*
G37*
G36*
X125893512Y-147353927D02*
G01*
X126042812Y-147383624D01*
X126206784Y-147451544D01*
X126354354Y-147550147D01*
X126479853Y-147675646D01*
X126578456Y-147823216D01*
X126646376Y-147987188D01*
X126681000Y-148161259D01*
X126681000Y-148338741D01*
X126646376Y-148512812D01*
X126578456Y-148676784D01*
X126479853Y-148824354D01*
X126354354Y-148949853D01*
X126206784Y-149048456D01*
X126042812Y-149116376D01*
X125893512Y-149146073D01*
X125868742Y-149151000D01*
X125691258Y-149151000D01*
X125666488Y-149146073D01*
X125517188Y-149116376D01*
X125353216Y-149048456D01*
X125205646Y-148949853D01*
X125080147Y-148824354D01*
X124981544Y-148676784D01*
X124913624Y-148512812D01*
X124879000Y-148338741D01*
X124879000Y-148161259D01*
X124913624Y-147987188D01*
X124981544Y-147823216D01*
X125080147Y-147675646D01*
X125205646Y-147550147D01*
X125353216Y-147451544D01*
X125517188Y-147383624D01*
X125666488Y-147353927D01*
X125691258Y-147349000D01*
X125868742Y-147349000D01*
X125893512Y-147353927D01*
G37*
G36*
X151293512Y-147353927D02*
G01*
X151442812Y-147383624D01*
X151606784Y-147451544D01*
X151754354Y-147550147D01*
X151879853Y-147675646D01*
X151978456Y-147823216D01*
X152046376Y-147987188D01*
X152081000Y-148161259D01*
X152081000Y-148338741D01*
X152046376Y-148512812D01*
X151978456Y-148676784D01*
X151879853Y-148824354D01*
X151754354Y-148949853D01*
X151606784Y-149048456D01*
X151442812Y-149116376D01*
X151293512Y-149146073D01*
X151268742Y-149151000D01*
X151091258Y-149151000D01*
X151066488Y-149146073D01*
X150917188Y-149116376D01*
X150753216Y-149048456D01*
X150605646Y-148949853D01*
X150480147Y-148824354D01*
X150381544Y-148676784D01*
X150313624Y-148512812D01*
X150279000Y-148338741D01*
X150279000Y-148161259D01*
X150313624Y-147987188D01*
X150381544Y-147823216D01*
X150480147Y-147675646D01*
X150605646Y-147550147D01*
X150753216Y-147451544D01*
X150917188Y-147383624D01*
X151066488Y-147353927D01*
X151091258Y-147349000D01*
X151268742Y-147349000D01*
X151293512Y-147353927D01*
G37*
G36*
X133513512Y-147353927D02*
G01*
X133662812Y-147383624D01*
X133826784Y-147451544D01*
X133974354Y-147550147D01*
X134099853Y-147675646D01*
X134198456Y-147823216D01*
X134266376Y-147987188D01*
X134301000Y-148161259D01*
X134301000Y-148338741D01*
X134266376Y-148512812D01*
X134198456Y-148676784D01*
X134099853Y-148824354D01*
X133974354Y-148949853D01*
X133826784Y-149048456D01*
X133662812Y-149116376D01*
X133513512Y-149146073D01*
X133488742Y-149151000D01*
X133311258Y-149151000D01*
X133286488Y-149146073D01*
X133137188Y-149116376D01*
X132973216Y-149048456D01*
X132825646Y-148949853D01*
X132700147Y-148824354D01*
X132601544Y-148676784D01*
X132533624Y-148512812D01*
X132499000Y-148338741D01*
X132499000Y-148161259D01*
X132533624Y-147987188D01*
X132601544Y-147823216D01*
X132700147Y-147675646D01*
X132825646Y-147550147D01*
X132973216Y-147451544D01*
X133137188Y-147383624D01*
X133286488Y-147353927D01*
X133311258Y-147349000D01*
X133488742Y-147349000D01*
X133513512Y-147353927D01*
G37*
G36*
X136053512Y-147353927D02*
G01*
X136202812Y-147383624D01*
X136366784Y-147451544D01*
X136514354Y-147550147D01*
X136639853Y-147675646D01*
X136738456Y-147823216D01*
X136806376Y-147987188D01*
X136841000Y-148161259D01*
X136841000Y-148338741D01*
X136806376Y-148512812D01*
X136738456Y-148676784D01*
X136639853Y-148824354D01*
X136514354Y-148949853D01*
X136366784Y-149048456D01*
X136202812Y-149116376D01*
X136053512Y-149146073D01*
X136028742Y-149151000D01*
X135851258Y-149151000D01*
X135826488Y-149146073D01*
X135677188Y-149116376D01*
X135513216Y-149048456D01*
X135365646Y-148949853D01*
X135240147Y-148824354D01*
X135141544Y-148676784D01*
X135073624Y-148512812D01*
X135039000Y-148338741D01*
X135039000Y-148161259D01*
X135073624Y-147987188D01*
X135141544Y-147823216D01*
X135240147Y-147675646D01*
X135365646Y-147550147D01*
X135513216Y-147451544D01*
X135677188Y-147383624D01*
X135826488Y-147353927D01*
X135851258Y-147349000D01*
X136028742Y-147349000D01*
X136053512Y-147353927D01*
G37*
G36*
X138593512Y-147353927D02*
G01*
X138742812Y-147383624D01*
X138906784Y-147451544D01*
X139054354Y-147550147D01*
X139179853Y-147675646D01*
X139278456Y-147823216D01*
X139346376Y-147987188D01*
X139381000Y-148161259D01*
X139381000Y-148338741D01*
X139346376Y-148512812D01*
X139278456Y-148676784D01*
X139179853Y-148824354D01*
X139054354Y-148949853D01*
X138906784Y-149048456D01*
X138742812Y-149116376D01*
X138593512Y-149146073D01*
X138568742Y-149151000D01*
X138391258Y-149151000D01*
X138366488Y-149146073D01*
X138217188Y-149116376D01*
X138053216Y-149048456D01*
X137905646Y-148949853D01*
X137780147Y-148824354D01*
X137681544Y-148676784D01*
X137613624Y-148512812D01*
X137579000Y-148338741D01*
X137579000Y-148161259D01*
X137613624Y-147987188D01*
X137681544Y-147823216D01*
X137780147Y-147675646D01*
X137905646Y-147550147D01*
X138053216Y-147451544D01*
X138217188Y-147383624D01*
X138366488Y-147353927D01*
X138391258Y-147349000D01*
X138568742Y-147349000D01*
X138593512Y-147353927D01*
G37*
G36*
X141133512Y-147353927D02*
G01*
X141282812Y-147383624D01*
X141446784Y-147451544D01*
X141594354Y-147550147D01*
X141719853Y-147675646D01*
X141818456Y-147823216D01*
X141886376Y-147987188D01*
X141921000Y-148161259D01*
X141921000Y-148338741D01*
X141886376Y-148512812D01*
X141818456Y-148676784D01*
X141719853Y-148824354D01*
X141594354Y-148949853D01*
X141446784Y-149048456D01*
X141282812Y-149116376D01*
X141133512Y-149146073D01*
X141108742Y-149151000D01*
X140931258Y-149151000D01*
X140906488Y-149146073D01*
X140757188Y-149116376D01*
X140593216Y-149048456D01*
X140445646Y-148949853D01*
X140320147Y-148824354D01*
X140221544Y-148676784D01*
X140153624Y-148512812D01*
X140119000Y-148338741D01*
X140119000Y-148161259D01*
X140153624Y-147987188D01*
X140221544Y-147823216D01*
X140320147Y-147675646D01*
X140445646Y-147550147D01*
X140593216Y-147451544D01*
X140757188Y-147383624D01*
X140906488Y-147353927D01*
X140931258Y-147349000D01*
X141108742Y-147349000D01*
X141133512Y-147353927D01*
G37*
G36*
X143673512Y-147353927D02*
G01*
X143822812Y-147383624D01*
X143986784Y-147451544D01*
X144134354Y-147550147D01*
X144259853Y-147675646D01*
X144358456Y-147823216D01*
X144426376Y-147987188D01*
X144461000Y-148161259D01*
X144461000Y-148338741D01*
X144426376Y-148512812D01*
X144358456Y-148676784D01*
X144259853Y-148824354D01*
X144134354Y-148949853D01*
X143986784Y-149048456D01*
X143822812Y-149116376D01*
X143673512Y-149146073D01*
X143648742Y-149151000D01*
X143471258Y-149151000D01*
X143446488Y-149146073D01*
X143297188Y-149116376D01*
X143133216Y-149048456D01*
X142985646Y-148949853D01*
X142860147Y-148824354D01*
X142761544Y-148676784D01*
X142693624Y-148512812D01*
X142659000Y-148338741D01*
X142659000Y-148161259D01*
X142693624Y-147987188D01*
X142761544Y-147823216D01*
X142860147Y-147675646D01*
X142985646Y-147550147D01*
X143133216Y-147451544D01*
X143297188Y-147383624D01*
X143446488Y-147353927D01*
X143471258Y-147349000D01*
X143648742Y-147349000D01*
X143673512Y-147353927D01*
G37*
G36*
X146213512Y-147353927D02*
G01*
X146362812Y-147383624D01*
X146526784Y-147451544D01*
X146674354Y-147550147D01*
X146799853Y-147675646D01*
X146898456Y-147823216D01*
X146966376Y-147987188D01*
X147001000Y-148161259D01*
X147001000Y-148338741D01*
X146966376Y-148512812D01*
X146898456Y-148676784D01*
X146799853Y-148824354D01*
X146674354Y-148949853D01*
X146526784Y-149048456D01*
X146362812Y-149116376D01*
X146213512Y-149146073D01*
X146188742Y-149151000D01*
X146011258Y-149151000D01*
X145986488Y-149146073D01*
X145837188Y-149116376D01*
X145673216Y-149048456D01*
X145525646Y-148949853D01*
X145400147Y-148824354D01*
X145301544Y-148676784D01*
X145233624Y-148512812D01*
X145199000Y-148338741D01*
X145199000Y-148161259D01*
X145233624Y-147987188D01*
X145301544Y-147823216D01*
X145400147Y-147675646D01*
X145525646Y-147550147D01*
X145673216Y-147451544D01*
X145837188Y-147383624D01*
X145986488Y-147353927D01*
X146011258Y-147349000D01*
X146188742Y-147349000D01*
X146213512Y-147353927D01*
G37*
G36*
X171613512Y-147353927D02*
G01*
X171762812Y-147383624D01*
X171926784Y-147451544D01*
X172074354Y-147550147D01*
X172199853Y-147675646D01*
X172298456Y-147823216D01*
X172366376Y-147987188D01*
X172401000Y-148161259D01*
X172401000Y-148338741D01*
X172366376Y-148512812D01*
X172298456Y-148676784D01*
X172199853Y-148824354D01*
X172074354Y-148949853D01*
X171926784Y-149048456D01*
X171762812Y-149116376D01*
X171613512Y-149146073D01*
X171588742Y-149151000D01*
X171411258Y-149151000D01*
X171386488Y-149146073D01*
X171237188Y-149116376D01*
X171073216Y-149048456D01*
X170925646Y-148949853D01*
X170800147Y-148824354D01*
X170701544Y-148676784D01*
X170633624Y-148512812D01*
X170599000Y-148338741D01*
X170599000Y-148161259D01*
X170633624Y-147987188D01*
X170701544Y-147823216D01*
X170800147Y-147675646D01*
X170925646Y-147550147D01*
X171073216Y-147451544D01*
X171237188Y-147383624D01*
X171386488Y-147353927D01*
X171411258Y-147349000D01*
X171588742Y-147349000D01*
X171613512Y-147353927D01*
G37*
G36*
X186853512Y-147353927D02*
G01*
X187002812Y-147383624D01*
X187166784Y-147451544D01*
X187314354Y-147550147D01*
X187439853Y-147675646D01*
X187538456Y-147823216D01*
X187606376Y-147987188D01*
X187641000Y-148161259D01*
X187641000Y-148338741D01*
X187606376Y-148512812D01*
X187538456Y-148676784D01*
X187439853Y-148824354D01*
X187314354Y-148949853D01*
X187166784Y-149048456D01*
X187002812Y-149116376D01*
X186853512Y-149146073D01*
X186828742Y-149151000D01*
X186651258Y-149151000D01*
X186626488Y-149146073D01*
X186477188Y-149116376D01*
X186313216Y-149048456D01*
X186165646Y-148949853D01*
X186040147Y-148824354D01*
X185941544Y-148676784D01*
X185873624Y-148512812D01*
X185839000Y-148338741D01*
X185839000Y-148161259D01*
X185873624Y-147987188D01*
X185941544Y-147823216D01*
X186040147Y-147675646D01*
X186165646Y-147550147D01*
X186313216Y-147451544D01*
X186477188Y-147383624D01*
X186626488Y-147353927D01*
X186651258Y-147349000D01*
X186828742Y-147349000D01*
X186853512Y-147353927D01*
G37*
G36*
X128433512Y-147353927D02*
G01*
X128582812Y-147383624D01*
X128746784Y-147451544D01*
X128894354Y-147550147D01*
X129019853Y-147675646D01*
X129118456Y-147823216D01*
X129186376Y-147987188D01*
X129221000Y-148161259D01*
X129221000Y-148338741D01*
X129186376Y-148512812D01*
X129118456Y-148676784D01*
X129019853Y-148824354D01*
X128894354Y-148949853D01*
X128746784Y-149048456D01*
X128582812Y-149116376D01*
X128433512Y-149146073D01*
X128408742Y-149151000D01*
X128231258Y-149151000D01*
X128206488Y-149146073D01*
X128057188Y-149116376D01*
X127893216Y-149048456D01*
X127745646Y-148949853D01*
X127620147Y-148824354D01*
X127521544Y-148676784D01*
X127453624Y-148512812D01*
X127419000Y-148338741D01*
X127419000Y-148161259D01*
X127453624Y-147987188D01*
X127521544Y-147823216D01*
X127620147Y-147675646D01*
X127745646Y-147550147D01*
X127893216Y-147451544D01*
X128057188Y-147383624D01*
X128206488Y-147353927D01*
X128231258Y-147349000D01*
X128408742Y-147349000D01*
X128433512Y-147353927D01*
G37*
G36*
X153833512Y-147353927D02*
G01*
X153982812Y-147383624D01*
X154146784Y-147451544D01*
X154294354Y-147550147D01*
X154419853Y-147675646D01*
X154518456Y-147823216D01*
X154586376Y-147987188D01*
X154621000Y-148161259D01*
X154621000Y-148338741D01*
X154586376Y-148512812D01*
X154518456Y-148676784D01*
X154419853Y-148824354D01*
X154294354Y-148949853D01*
X154146784Y-149048456D01*
X153982812Y-149116376D01*
X153833512Y-149146073D01*
X153808742Y-149151000D01*
X153631258Y-149151000D01*
X153606488Y-149146073D01*
X153457188Y-149116376D01*
X153293216Y-149048456D01*
X153145646Y-148949853D01*
X153020147Y-148824354D01*
X152921544Y-148676784D01*
X152853624Y-148512812D01*
X152819000Y-148338741D01*
X152819000Y-148161259D01*
X152853624Y-147987188D01*
X152921544Y-147823216D01*
X153020147Y-147675646D01*
X153145646Y-147550147D01*
X153293216Y-147451544D01*
X153457188Y-147383624D01*
X153606488Y-147353927D01*
X153631258Y-147349000D01*
X153808742Y-147349000D01*
X153833512Y-147353927D01*
G37*
G36*
X156373512Y-147353927D02*
G01*
X156522812Y-147383624D01*
X156686784Y-147451544D01*
X156834354Y-147550147D01*
X156959853Y-147675646D01*
X157058456Y-147823216D01*
X157126376Y-147987188D01*
X157161000Y-148161259D01*
X157161000Y-148338741D01*
X157126376Y-148512812D01*
X157058456Y-148676784D01*
X156959853Y-148824354D01*
X156834354Y-148949853D01*
X156686784Y-149048456D01*
X156522812Y-149116376D01*
X156373512Y-149146073D01*
X156348742Y-149151000D01*
X156171258Y-149151000D01*
X156146488Y-149146073D01*
X155997188Y-149116376D01*
X155833216Y-149048456D01*
X155685646Y-148949853D01*
X155560147Y-148824354D01*
X155461544Y-148676784D01*
X155393624Y-148512812D01*
X155359000Y-148338741D01*
X155359000Y-148161259D01*
X155393624Y-147987188D01*
X155461544Y-147823216D01*
X155560147Y-147675646D01*
X155685646Y-147550147D01*
X155833216Y-147451544D01*
X155997188Y-147383624D01*
X156146488Y-147353927D01*
X156171258Y-147349000D01*
X156348742Y-147349000D01*
X156373512Y-147353927D01*
G37*
G36*
X158913512Y-147353927D02*
G01*
X159062812Y-147383624D01*
X159226784Y-147451544D01*
X159374354Y-147550147D01*
X159499853Y-147675646D01*
X159598456Y-147823216D01*
X159666376Y-147987188D01*
X159701000Y-148161259D01*
X159701000Y-148338741D01*
X159666376Y-148512812D01*
X159598456Y-148676784D01*
X159499853Y-148824354D01*
X159374354Y-148949853D01*
X159226784Y-149048456D01*
X159062812Y-149116376D01*
X158913512Y-149146073D01*
X158888742Y-149151000D01*
X158711258Y-149151000D01*
X158686488Y-149146073D01*
X158537188Y-149116376D01*
X158373216Y-149048456D01*
X158225646Y-148949853D01*
X158100147Y-148824354D01*
X158001544Y-148676784D01*
X157933624Y-148512812D01*
X157899000Y-148338741D01*
X157899000Y-148161259D01*
X157933624Y-147987188D01*
X158001544Y-147823216D01*
X158100147Y-147675646D01*
X158225646Y-147550147D01*
X158373216Y-147451544D01*
X158537188Y-147383624D01*
X158686488Y-147353927D01*
X158711258Y-147349000D01*
X158888742Y-147349000D01*
X158913512Y-147353927D01*
G37*
G36*
X161453512Y-147353927D02*
G01*
X161602812Y-147383624D01*
X161766784Y-147451544D01*
X161914354Y-147550147D01*
X162039853Y-147675646D01*
X162138456Y-147823216D01*
X162206376Y-147987188D01*
X162241000Y-148161259D01*
X162241000Y-148338741D01*
X162206376Y-148512812D01*
X162138456Y-148676784D01*
X162039853Y-148824354D01*
X161914354Y-148949853D01*
X161766784Y-149048456D01*
X161602812Y-149116376D01*
X161453512Y-149146073D01*
X161428742Y-149151000D01*
X161251258Y-149151000D01*
X161226488Y-149146073D01*
X161077188Y-149116376D01*
X160913216Y-149048456D01*
X160765646Y-148949853D01*
X160640147Y-148824354D01*
X160541544Y-148676784D01*
X160473624Y-148512812D01*
X160439000Y-148338741D01*
X160439000Y-148161259D01*
X160473624Y-147987188D01*
X160541544Y-147823216D01*
X160640147Y-147675646D01*
X160765646Y-147550147D01*
X160913216Y-147451544D01*
X161077188Y-147383624D01*
X161226488Y-147353927D01*
X161251258Y-147349000D01*
X161428742Y-147349000D01*
X161453512Y-147353927D01*
G37*
G36*
X163993512Y-147353927D02*
G01*
X164142812Y-147383624D01*
X164306784Y-147451544D01*
X164454354Y-147550147D01*
X164579853Y-147675646D01*
X164678456Y-147823216D01*
X164746376Y-147987188D01*
X164781000Y-148161259D01*
X164781000Y-148338741D01*
X164746376Y-148512812D01*
X164678456Y-148676784D01*
X164579853Y-148824354D01*
X164454354Y-148949853D01*
X164306784Y-149048456D01*
X164142812Y-149116376D01*
X163993512Y-149146073D01*
X163968742Y-149151000D01*
X163791258Y-149151000D01*
X163766488Y-149146073D01*
X163617188Y-149116376D01*
X163453216Y-149048456D01*
X163305646Y-148949853D01*
X163180147Y-148824354D01*
X163081544Y-148676784D01*
X163013624Y-148512812D01*
X162979000Y-148338741D01*
X162979000Y-148161259D01*
X163013624Y-147987188D01*
X163081544Y-147823216D01*
X163180147Y-147675646D01*
X163305646Y-147550147D01*
X163453216Y-147451544D01*
X163617188Y-147383624D01*
X163766488Y-147353927D01*
X163791258Y-147349000D01*
X163968742Y-147349000D01*
X163993512Y-147353927D01*
G37*
G36*
X166533512Y-147353927D02*
G01*
X166682812Y-147383624D01*
X166846784Y-147451544D01*
X166994354Y-147550147D01*
X167119853Y-147675646D01*
X167218456Y-147823216D01*
X167286376Y-147987188D01*
X167321000Y-148161259D01*
X167321000Y-148338741D01*
X167286376Y-148512812D01*
X167218456Y-148676784D01*
X167119853Y-148824354D01*
X166994354Y-148949853D01*
X166846784Y-149048456D01*
X166682812Y-149116376D01*
X166533512Y-149146073D01*
X166508742Y-149151000D01*
X166331258Y-149151000D01*
X166306488Y-149146073D01*
X166157188Y-149116376D01*
X165993216Y-149048456D01*
X165845646Y-148949853D01*
X165720147Y-148824354D01*
X165621544Y-148676784D01*
X165553624Y-148512812D01*
X165519000Y-148338741D01*
X165519000Y-148161259D01*
X165553624Y-147987188D01*
X165621544Y-147823216D01*
X165720147Y-147675646D01*
X165845646Y-147550147D01*
X165993216Y-147451544D01*
X166157188Y-147383624D01*
X166306488Y-147353927D01*
X166331258Y-147349000D01*
X166508742Y-147349000D01*
X166533512Y-147353927D01*
G37*
G36*
X169073512Y-147353927D02*
G01*
X169222812Y-147383624D01*
X169386784Y-147451544D01*
X169534354Y-147550147D01*
X169659853Y-147675646D01*
X169758456Y-147823216D01*
X169826376Y-147987188D01*
X169861000Y-148161259D01*
X169861000Y-148338741D01*
X169826376Y-148512812D01*
X169758456Y-148676784D01*
X169659853Y-148824354D01*
X169534354Y-148949853D01*
X169386784Y-149048456D01*
X169222812Y-149116376D01*
X169073512Y-149146073D01*
X169048742Y-149151000D01*
X168871258Y-149151000D01*
X168846488Y-149146073D01*
X168697188Y-149116376D01*
X168533216Y-149048456D01*
X168385646Y-148949853D01*
X168260147Y-148824354D01*
X168161544Y-148676784D01*
X168093624Y-148512812D01*
X168059000Y-148338741D01*
X168059000Y-148161259D01*
X168093624Y-147987188D01*
X168161544Y-147823216D01*
X168260147Y-147675646D01*
X168385646Y-147550147D01*
X168533216Y-147451544D01*
X168697188Y-147383624D01*
X168846488Y-147353927D01*
X168871258Y-147349000D01*
X169048742Y-147349000D01*
X169073512Y-147353927D01*
G37*
G36*
X148753512Y-147353927D02*
G01*
X148902812Y-147383624D01*
X149066784Y-147451544D01*
X149214354Y-147550147D01*
X149339853Y-147675646D01*
X149438456Y-147823216D01*
X149506376Y-147987188D01*
X149541000Y-148161259D01*
X149541000Y-148338741D01*
X149506376Y-148512812D01*
X149438456Y-148676784D01*
X149339853Y-148824354D01*
X149214354Y-148949853D01*
X149066784Y-149048456D01*
X148902812Y-149116376D01*
X148753512Y-149146073D01*
X148728742Y-149151000D01*
X148551258Y-149151000D01*
X148526488Y-149146073D01*
X148377188Y-149116376D01*
X148213216Y-149048456D01*
X148065646Y-148949853D01*
X147940147Y-148824354D01*
X147841544Y-148676784D01*
X147773624Y-148512812D01*
X147739000Y-148338741D01*
X147739000Y-148161259D01*
X147773624Y-147987188D01*
X147841544Y-147823216D01*
X147940147Y-147675646D01*
X148065646Y-147550147D01*
X148213216Y-147451544D01*
X148377188Y-147383624D01*
X148526488Y-147353927D01*
X148551258Y-147349000D01*
X148728742Y-147349000D01*
X148753512Y-147353927D01*
G37*
G36*
X174153512Y-147353927D02*
G01*
X174302812Y-147383624D01*
X174466784Y-147451544D01*
X174614354Y-147550147D01*
X174739853Y-147675646D01*
X174838456Y-147823216D01*
X174906376Y-147987188D01*
X174941000Y-148161259D01*
X174941000Y-148338741D01*
X174906376Y-148512812D01*
X174838456Y-148676784D01*
X174739853Y-148824354D01*
X174614354Y-148949853D01*
X174466784Y-149048456D01*
X174302812Y-149116376D01*
X174153512Y-149146073D01*
X174128742Y-149151000D01*
X173951258Y-149151000D01*
X173926488Y-149146073D01*
X173777188Y-149116376D01*
X173613216Y-149048456D01*
X173465646Y-148949853D01*
X173340147Y-148824354D01*
X173241544Y-148676784D01*
X173173624Y-148512812D01*
X173139000Y-148338741D01*
X173139000Y-148161259D01*
X173173624Y-147987188D01*
X173241544Y-147823216D01*
X173340147Y-147675646D01*
X173465646Y-147550147D01*
X173613216Y-147451544D01*
X173777188Y-147383624D01*
X173926488Y-147353927D01*
X173951258Y-147349000D01*
X174128742Y-147349000D01*
X174153512Y-147353927D01*
G37*
G36*
X176693512Y-147353927D02*
G01*
X176842812Y-147383624D01*
X177006784Y-147451544D01*
X177154354Y-147550147D01*
X177279853Y-147675646D01*
X177378456Y-147823216D01*
X177446376Y-147987188D01*
X177481000Y-148161259D01*
X177481000Y-148338741D01*
X177446376Y-148512812D01*
X177378456Y-148676784D01*
X177279853Y-148824354D01*
X177154354Y-148949853D01*
X177006784Y-149048456D01*
X176842812Y-149116376D01*
X176693512Y-149146073D01*
X176668742Y-149151000D01*
X176491258Y-149151000D01*
X176466488Y-149146073D01*
X176317188Y-149116376D01*
X176153216Y-149048456D01*
X176005646Y-148949853D01*
X175880147Y-148824354D01*
X175781544Y-148676784D01*
X175713624Y-148512812D01*
X175679000Y-148338741D01*
X175679000Y-148161259D01*
X175713624Y-147987188D01*
X175781544Y-147823216D01*
X175880147Y-147675646D01*
X176005646Y-147550147D01*
X176153216Y-147451544D01*
X176317188Y-147383624D01*
X176466488Y-147353927D01*
X176491258Y-147349000D01*
X176668742Y-147349000D01*
X176693512Y-147353927D01*
G37*
G36*
X179233512Y-147353927D02*
G01*
X179382812Y-147383624D01*
X179546784Y-147451544D01*
X179694354Y-147550147D01*
X179819853Y-147675646D01*
X179918456Y-147823216D01*
X179986376Y-147987188D01*
X180021000Y-148161259D01*
X180021000Y-148338741D01*
X179986376Y-148512812D01*
X179918456Y-148676784D01*
X179819853Y-148824354D01*
X179694354Y-148949853D01*
X179546784Y-149048456D01*
X179382812Y-149116376D01*
X179233512Y-149146073D01*
X179208742Y-149151000D01*
X179031258Y-149151000D01*
X179006488Y-149146073D01*
X178857188Y-149116376D01*
X178693216Y-149048456D01*
X178545646Y-148949853D01*
X178420147Y-148824354D01*
X178321544Y-148676784D01*
X178253624Y-148512812D01*
X178219000Y-148338741D01*
X178219000Y-148161259D01*
X178253624Y-147987188D01*
X178321544Y-147823216D01*
X178420147Y-147675646D01*
X178545646Y-147550147D01*
X178693216Y-147451544D01*
X178857188Y-147383624D01*
X179006488Y-147353927D01*
X179031258Y-147349000D01*
X179208742Y-147349000D01*
X179233512Y-147353927D01*
G37*
G36*
X181773512Y-147353927D02*
G01*
X181922812Y-147383624D01*
X182086784Y-147451544D01*
X182234354Y-147550147D01*
X182359853Y-147675646D01*
X182458456Y-147823216D01*
X182526376Y-147987188D01*
X182561000Y-148161259D01*
X182561000Y-148338741D01*
X182526376Y-148512812D01*
X182458456Y-148676784D01*
X182359853Y-148824354D01*
X182234354Y-148949853D01*
X182086784Y-149048456D01*
X181922812Y-149116376D01*
X181773512Y-149146073D01*
X181748742Y-149151000D01*
X181571258Y-149151000D01*
X181546488Y-149146073D01*
X181397188Y-149116376D01*
X181233216Y-149048456D01*
X181085646Y-148949853D01*
X180960147Y-148824354D01*
X180861544Y-148676784D01*
X180793624Y-148512812D01*
X180759000Y-148338741D01*
X180759000Y-148161259D01*
X180793624Y-147987188D01*
X180861544Y-147823216D01*
X180960147Y-147675646D01*
X181085646Y-147550147D01*
X181233216Y-147451544D01*
X181397188Y-147383624D01*
X181546488Y-147353927D01*
X181571258Y-147349000D01*
X181748742Y-147349000D01*
X181773512Y-147353927D01*
G37*
G36*
X184313512Y-147353927D02*
G01*
X184462812Y-147383624D01*
X184626784Y-147451544D01*
X184774354Y-147550147D01*
X184899853Y-147675646D01*
X184998456Y-147823216D01*
X185066376Y-147987188D01*
X185101000Y-148161259D01*
X185101000Y-148338741D01*
X185066376Y-148512812D01*
X184998456Y-148676784D01*
X184899853Y-148824354D01*
X184774354Y-148949853D01*
X184626784Y-149048456D01*
X184462812Y-149116376D01*
X184313512Y-149146073D01*
X184288742Y-149151000D01*
X184111258Y-149151000D01*
X184086488Y-149146073D01*
X183937188Y-149116376D01*
X183773216Y-149048456D01*
X183625646Y-148949853D01*
X183500147Y-148824354D01*
X183401544Y-148676784D01*
X183333624Y-148512812D01*
X183299000Y-148338741D01*
X183299000Y-148161259D01*
X183333624Y-147987188D01*
X183401544Y-147823216D01*
X183500147Y-147675646D01*
X183625646Y-147550147D01*
X183773216Y-147451544D01*
X183937188Y-147383624D01*
X184086488Y-147353927D01*
X184111258Y-147349000D01*
X184288742Y-147349000D01*
X184313512Y-147353927D01*
G37*
G36*
X138593512Y-144813927D02*
G01*
X138742812Y-144843624D01*
X138906784Y-144911544D01*
X139054354Y-145010147D01*
X139179853Y-145135646D01*
X139278456Y-145283216D01*
X139346376Y-145447188D01*
X139381000Y-145621259D01*
X139381000Y-145798741D01*
X139346376Y-145972812D01*
X139278456Y-146136784D01*
X139179853Y-146284354D01*
X139054354Y-146409853D01*
X138906784Y-146508456D01*
X138742812Y-146576376D01*
X138593512Y-146606073D01*
X138568742Y-146611000D01*
X138391258Y-146611000D01*
X138366488Y-146606073D01*
X138217188Y-146576376D01*
X138053216Y-146508456D01*
X137905646Y-146409853D01*
X137780147Y-146284354D01*
X137681544Y-146136784D01*
X137613624Y-145972812D01*
X137579000Y-145798741D01*
X137579000Y-145621259D01*
X137613624Y-145447188D01*
X137681544Y-145283216D01*
X137780147Y-145135646D01*
X137905646Y-145010147D01*
X138053216Y-144911544D01*
X138217188Y-144843624D01*
X138366488Y-144813927D01*
X138391258Y-144809000D01*
X138568742Y-144809000D01*
X138593512Y-144813927D01*
G37*
G36*
X136053512Y-144813927D02*
G01*
X136202812Y-144843624D01*
X136366784Y-144911544D01*
X136514354Y-145010147D01*
X136639853Y-145135646D01*
X136738456Y-145283216D01*
X136806376Y-145447188D01*
X136841000Y-145621259D01*
X136841000Y-145798741D01*
X136806376Y-145972812D01*
X136738456Y-146136784D01*
X136639853Y-146284354D01*
X136514354Y-146409853D01*
X136366784Y-146508456D01*
X136202812Y-146576376D01*
X136053512Y-146606073D01*
X136028742Y-146611000D01*
X135851258Y-146611000D01*
X135826488Y-146606073D01*
X135677188Y-146576376D01*
X135513216Y-146508456D01*
X135365646Y-146409853D01*
X135240147Y-146284354D01*
X135141544Y-146136784D01*
X135073624Y-145972812D01*
X135039000Y-145798741D01*
X135039000Y-145621259D01*
X135073624Y-145447188D01*
X135141544Y-145283216D01*
X135240147Y-145135646D01*
X135365646Y-145010147D01*
X135513216Y-144911544D01*
X135677188Y-144843624D01*
X135826488Y-144813927D01*
X135851258Y-144809000D01*
X136028742Y-144809000D01*
X136053512Y-144813927D01*
G37*
G36*
X128433512Y-144813927D02*
G01*
X128582812Y-144843624D01*
X128746784Y-144911544D01*
X128894354Y-145010147D01*
X129019853Y-145135646D01*
X129118456Y-145283216D01*
X129186376Y-145447188D01*
X129221000Y-145621259D01*
X129221000Y-145798741D01*
X129186376Y-145972812D01*
X129118456Y-146136784D01*
X129019853Y-146284354D01*
X128894354Y-146409853D01*
X128746784Y-146508456D01*
X128582812Y-146576376D01*
X128433512Y-146606073D01*
X128408742Y-146611000D01*
X128231258Y-146611000D01*
X128206488Y-146606073D01*
X128057188Y-146576376D01*
X127893216Y-146508456D01*
X127745646Y-146409853D01*
X127620147Y-146284354D01*
X127521544Y-146136784D01*
X127453624Y-145972812D01*
X127419000Y-145798741D01*
X127419000Y-145621259D01*
X127453624Y-145447188D01*
X127521544Y-145283216D01*
X127620147Y-145135646D01*
X127745646Y-145010147D01*
X127893216Y-144911544D01*
X128057188Y-144843624D01*
X128206488Y-144813927D01*
X128231258Y-144809000D01*
X128408742Y-144809000D01*
X128433512Y-144813927D01*
G37*
G36*
X141133512Y-144813927D02*
G01*
X141282812Y-144843624D01*
X141446784Y-144911544D01*
X141594354Y-145010147D01*
X141719853Y-145135646D01*
X141818456Y-145283216D01*
X141886376Y-145447188D01*
X141921000Y-145621259D01*
X141921000Y-145798741D01*
X141886376Y-145972812D01*
X141818456Y-146136784D01*
X141719853Y-146284354D01*
X141594354Y-146409853D01*
X141446784Y-146508456D01*
X141282812Y-146576376D01*
X141133512Y-146606073D01*
X141108742Y-146611000D01*
X140931258Y-146611000D01*
X140906488Y-146606073D01*
X140757188Y-146576376D01*
X140593216Y-146508456D01*
X140445646Y-146409853D01*
X140320147Y-146284354D01*
X140221544Y-146136784D01*
X140153624Y-145972812D01*
X140119000Y-145798741D01*
X140119000Y-145621259D01*
X140153624Y-145447188D01*
X140221544Y-145283216D01*
X140320147Y-145135646D01*
X140445646Y-145010147D01*
X140593216Y-144911544D01*
X140757188Y-144843624D01*
X140906488Y-144813927D01*
X140931258Y-144809000D01*
X141108742Y-144809000D01*
X141133512Y-144813927D01*
G37*
G36*
X143673512Y-144813927D02*
G01*
X143822812Y-144843624D01*
X143986784Y-144911544D01*
X144134354Y-145010147D01*
X144259853Y-145135646D01*
X144358456Y-145283216D01*
X144426376Y-145447188D01*
X144461000Y-145621259D01*
X144461000Y-145798741D01*
X144426376Y-145972812D01*
X144358456Y-146136784D01*
X144259853Y-146284354D01*
X144134354Y-146409853D01*
X143986784Y-146508456D01*
X143822812Y-146576376D01*
X143673512Y-146606073D01*
X143648742Y-146611000D01*
X143471258Y-146611000D01*
X143446488Y-146606073D01*
X143297188Y-146576376D01*
X143133216Y-146508456D01*
X142985646Y-146409853D01*
X142860147Y-146284354D01*
X142761544Y-146136784D01*
X142693624Y-145972812D01*
X142659000Y-145798741D01*
X142659000Y-145621259D01*
X142693624Y-145447188D01*
X142761544Y-145283216D01*
X142860147Y-145135646D01*
X142985646Y-145010147D01*
X143133216Y-144911544D01*
X143297188Y-144843624D01*
X143446488Y-144813927D01*
X143471258Y-144809000D01*
X143648742Y-144809000D01*
X143673512Y-144813927D01*
G37*
G36*
X161453512Y-144813927D02*
G01*
X161602812Y-144843624D01*
X161766784Y-144911544D01*
X161914354Y-145010147D01*
X162039853Y-145135646D01*
X162138456Y-145283216D01*
X162206376Y-145447188D01*
X162241000Y-145621259D01*
X162241000Y-145798741D01*
X162206376Y-145972812D01*
X162138456Y-146136784D01*
X162039853Y-146284354D01*
X161914354Y-146409853D01*
X161766784Y-146508456D01*
X161602812Y-146576376D01*
X161453512Y-146606073D01*
X161428742Y-146611000D01*
X161251258Y-146611000D01*
X161226488Y-146606073D01*
X161077188Y-146576376D01*
X160913216Y-146508456D01*
X160765646Y-146409853D01*
X160640147Y-146284354D01*
X160541544Y-146136784D01*
X160473624Y-145972812D01*
X160439000Y-145798741D01*
X160439000Y-145621259D01*
X160473624Y-145447188D01*
X160541544Y-145283216D01*
X160640147Y-145135646D01*
X160765646Y-145010147D01*
X160913216Y-144911544D01*
X161077188Y-144843624D01*
X161226488Y-144813927D01*
X161251258Y-144809000D01*
X161428742Y-144809000D01*
X161453512Y-144813927D01*
G37*
G36*
X125893512Y-144813927D02*
G01*
X126042812Y-144843624D01*
X126206784Y-144911544D01*
X126354354Y-145010147D01*
X126479853Y-145135646D01*
X126578456Y-145283216D01*
X126646376Y-145447188D01*
X126681000Y-145621259D01*
X126681000Y-145798741D01*
X126646376Y-145972812D01*
X126578456Y-146136784D01*
X126479853Y-146284354D01*
X126354354Y-146409853D01*
X126206784Y-146508456D01*
X126042812Y-146576376D01*
X125893512Y-146606073D01*
X125868742Y-146611000D01*
X125691258Y-146611000D01*
X125666488Y-146606073D01*
X125517188Y-146576376D01*
X125353216Y-146508456D01*
X125205646Y-146409853D01*
X125080147Y-146284354D01*
X124981544Y-146136784D01*
X124913624Y-145972812D01*
X124879000Y-145798741D01*
X124879000Y-145621259D01*
X124913624Y-145447188D01*
X124981544Y-145283216D01*
X125080147Y-145135646D01*
X125205646Y-145010147D01*
X125353216Y-144911544D01*
X125517188Y-144843624D01*
X125666488Y-144813927D01*
X125691258Y-144809000D01*
X125868742Y-144809000D01*
X125893512Y-144813927D01*
G37*
G36*
X148753512Y-144813927D02*
G01*
X148902812Y-144843624D01*
X149066784Y-144911544D01*
X149214354Y-145010147D01*
X149339853Y-145135646D01*
X149438456Y-145283216D01*
X149506376Y-145447188D01*
X149541000Y-145621259D01*
X149541000Y-145798741D01*
X149506376Y-145972812D01*
X149438456Y-146136784D01*
X149339853Y-146284354D01*
X149214354Y-146409853D01*
X149066784Y-146508456D01*
X148902812Y-146576376D01*
X148753512Y-146606073D01*
X148728742Y-146611000D01*
X148551258Y-146611000D01*
X148526488Y-146606073D01*
X148377188Y-146576376D01*
X148213216Y-146508456D01*
X148065646Y-146409853D01*
X147940147Y-146284354D01*
X147841544Y-146136784D01*
X147773624Y-145972812D01*
X147739000Y-145798741D01*
X147739000Y-145621259D01*
X147773624Y-145447188D01*
X147841544Y-145283216D01*
X147940147Y-145135646D01*
X148065646Y-145010147D01*
X148213216Y-144911544D01*
X148377188Y-144843624D01*
X148526488Y-144813927D01*
X148551258Y-144809000D01*
X148728742Y-144809000D01*
X148753512Y-144813927D01*
G37*
G36*
X151293512Y-144813927D02*
G01*
X151442812Y-144843624D01*
X151606784Y-144911544D01*
X151754354Y-145010147D01*
X151879853Y-145135646D01*
X151978456Y-145283216D01*
X152046376Y-145447188D01*
X152081000Y-145621259D01*
X152081000Y-145798741D01*
X152046376Y-145972812D01*
X151978456Y-146136784D01*
X151879853Y-146284354D01*
X151754354Y-146409853D01*
X151606784Y-146508456D01*
X151442812Y-146576376D01*
X151293512Y-146606073D01*
X151268742Y-146611000D01*
X151091258Y-146611000D01*
X151066488Y-146606073D01*
X150917188Y-146576376D01*
X150753216Y-146508456D01*
X150605646Y-146409853D01*
X150480147Y-146284354D01*
X150381544Y-146136784D01*
X150313624Y-145972812D01*
X150279000Y-145798741D01*
X150279000Y-145621259D01*
X150313624Y-145447188D01*
X150381544Y-145283216D01*
X150480147Y-145135646D01*
X150605646Y-145010147D01*
X150753216Y-144911544D01*
X150917188Y-144843624D01*
X151066488Y-144813927D01*
X151091258Y-144809000D01*
X151268742Y-144809000D01*
X151293512Y-144813927D01*
G37*
G36*
X123353512Y-144813927D02*
G01*
X123502812Y-144843624D01*
X123666784Y-144911544D01*
X123814354Y-145010147D01*
X123939853Y-145135646D01*
X124038456Y-145283216D01*
X124106376Y-145447188D01*
X124141000Y-145621259D01*
X124141000Y-145798741D01*
X124106376Y-145972812D01*
X124038456Y-146136784D01*
X123939853Y-146284354D01*
X123814354Y-146409853D01*
X123666784Y-146508456D01*
X123502812Y-146576376D01*
X123353512Y-146606073D01*
X123328742Y-146611000D01*
X123151258Y-146611000D01*
X123126488Y-146606073D01*
X122977188Y-146576376D01*
X122813216Y-146508456D01*
X122665646Y-146409853D01*
X122540147Y-146284354D01*
X122441544Y-146136784D01*
X122373624Y-145972812D01*
X122339000Y-145798741D01*
X122339000Y-145621259D01*
X122373624Y-145447188D01*
X122441544Y-145283216D01*
X122540147Y-145135646D01*
X122665646Y-145010147D01*
X122813216Y-144911544D01*
X122977188Y-144843624D01*
X123126488Y-144813927D01*
X123151258Y-144809000D01*
X123328742Y-144809000D01*
X123353512Y-144813927D01*
G37*
G36*
X153833512Y-144813927D02*
G01*
X153982812Y-144843624D01*
X154146784Y-144911544D01*
X154294354Y-145010147D01*
X154419853Y-145135646D01*
X154518456Y-145283216D01*
X154586376Y-145447188D01*
X154621000Y-145621259D01*
X154621000Y-145798741D01*
X154586376Y-145972812D01*
X154518456Y-146136784D01*
X154419853Y-146284354D01*
X154294354Y-146409853D01*
X154146784Y-146508456D01*
X153982812Y-146576376D01*
X153833512Y-146606073D01*
X153808742Y-146611000D01*
X153631258Y-146611000D01*
X153606488Y-146606073D01*
X153457188Y-146576376D01*
X153293216Y-146508456D01*
X153145646Y-146409853D01*
X153020147Y-146284354D01*
X152921544Y-146136784D01*
X152853624Y-145972812D01*
X152819000Y-145798741D01*
X152819000Y-145621259D01*
X152853624Y-145447188D01*
X152921544Y-145283216D01*
X153020147Y-145135646D01*
X153145646Y-145010147D01*
X153293216Y-144911544D01*
X153457188Y-144843624D01*
X153606488Y-144813927D01*
X153631258Y-144809000D01*
X153808742Y-144809000D01*
X153833512Y-144813927D01*
G37*
G36*
X156373512Y-144813927D02*
G01*
X156522812Y-144843624D01*
X156686784Y-144911544D01*
X156834354Y-145010147D01*
X156959853Y-145135646D01*
X157058456Y-145283216D01*
X157126376Y-145447188D01*
X157161000Y-145621259D01*
X157161000Y-145798741D01*
X157126376Y-145972812D01*
X157058456Y-146136784D01*
X156959853Y-146284354D01*
X156834354Y-146409853D01*
X156686784Y-146508456D01*
X156522812Y-146576376D01*
X156373512Y-146606073D01*
X156348742Y-146611000D01*
X156171258Y-146611000D01*
X156146488Y-146606073D01*
X155997188Y-146576376D01*
X155833216Y-146508456D01*
X155685646Y-146409853D01*
X155560147Y-146284354D01*
X155461544Y-146136784D01*
X155393624Y-145972812D01*
X155359000Y-145798741D01*
X155359000Y-145621259D01*
X155393624Y-145447188D01*
X155461544Y-145283216D01*
X155560147Y-145135646D01*
X155685646Y-145010147D01*
X155833216Y-144911544D01*
X155997188Y-144843624D01*
X156146488Y-144813927D01*
X156171258Y-144809000D01*
X156348742Y-144809000D01*
X156373512Y-144813927D01*
G37*
G36*
X158913512Y-144813927D02*
G01*
X159062812Y-144843624D01*
X159226784Y-144911544D01*
X159374354Y-145010147D01*
X159499853Y-145135646D01*
X159598456Y-145283216D01*
X159666376Y-145447188D01*
X159701000Y-145621259D01*
X159701000Y-145798741D01*
X159666376Y-145972812D01*
X159598456Y-146136784D01*
X159499853Y-146284354D01*
X159374354Y-146409853D01*
X159226784Y-146508456D01*
X159062812Y-146576376D01*
X158913512Y-146606073D01*
X158888742Y-146611000D01*
X158711258Y-146611000D01*
X158686488Y-146606073D01*
X158537188Y-146576376D01*
X158373216Y-146508456D01*
X158225646Y-146409853D01*
X158100147Y-146284354D01*
X158001544Y-146136784D01*
X157933624Y-145972812D01*
X157899000Y-145798741D01*
X157899000Y-145621259D01*
X157933624Y-145447188D01*
X158001544Y-145283216D01*
X158100147Y-145135646D01*
X158225646Y-145010147D01*
X158373216Y-144911544D01*
X158537188Y-144843624D01*
X158686488Y-144813927D01*
X158711258Y-144809000D01*
X158888742Y-144809000D01*
X158913512Y-144813927D01*
G37*
G36*
X184313512Y-144813927D02*
G01*
X184462812Y-144843624D01*
X184626784Y-144911544D01*
X184774354Y-145010147D01*
X184899853Y-145135646D01*
X184998456Y-145283216D01*
X185066376Y-145447188D01*
X185101000Y-145621259D01*
X185101000Y-145798741D01*
X185066376Y-145972812D01*
X184998456Y-146136784D01*
X184899853Y-146284354D01*
X184774354Y-146409853D01*
X184626784Y-146508456D01*
X184462812Y-146576376D01*
X184313512Y-146606073D01*
X184288742Y-146611000D01*
X184111258Y-146611000D01*
X184086488Y-146606073D01*
X183937188Y-146576376D01*
X183773216Y-146508456D01*
X183625646Y-146409853D01*
X183500147Y-146284354D01*
X183401544Y-146136784D01*
X183333624Y-145972812D01*
X183299000Y-145798741D01*
X183299000Y-145621259D01*
X183333624Y-145447188D01*
X183401544Y-145283216D01*
X183500147Y-145135646D01*
X183625646Y-145010147D01*
X183773216Y-144911544D01*
X183937188Y-144843624D01*
X184086488Y-144813927D01*
X184111258Y-144809000D01*
X184288742Y-144809000D01*
X184313512Y-144813927D01*
G37*
G36*
X181773512Y-144813927D02*
G01*
X181922812Y-144843624D01*
X182086784Y-144911544D01*
X182234354Y-145010147D01*
X182359853Y-145135646D01*
X182458456Y-145283216D01*
X182526376Y-145447188D01*
X182561000Y-145621259D01*
X182561000Y-145798741D01*
X182526376Y-145972812D01*
X182458456Y-146136784D01*
X182359853Y-146284354D01*
X182234354Y-146409853D01*
X182086784Y-146508456D01*
X181922812Y-146576376D01*
X181773512Y-146606073D01*
X181748742Y-146611000D01*
X181571258Y-146611000D01*
X181546488Y-146606073D01*
X181397188Y-146576376D01*
X181233216Y-146508456D01*
X181085646Y-146409853D01*
X180960147Y-146284354D01*
X180861544Y-146136784D01*
X180793624Y-145972812D01*
X180759000Y-145798741D01*
X180759000Y-145621259D01*
X180793624Y-145447188D01*
X180861544Y-145283216D01*
X180960147Y-145135646D01*
X181085646Y-145010147D01*
X181233216Y-144911544D01*
X181397188Y-144843624D01*
X181546488Y-144813927D01*
X181571258Y-144809000D01*
X181748742Y-144809000D01*
X181773512Y-144813927D01*
G37*
G36*
X186853512Y-144813927D02*
G01*
X187002812Y-144843624D01*
X187166784Y-144911544D01*
X187314354Y-145010147D01*
X187439853Y-145135646D01*
X187538456Y-145283216D01*
X187606376Y-145447188D01*
X187641000Y-145621259D01*
X187641000Y-145798741D01*
X187606376Y-145972812D01*
X187538456Y-146136784D01*
X187439853Y-146284354D01*
X187314354Y-146409853D01*
X187166784Y-146508456D01*
X187002812Y-146576376D01*
X186853512Y-146606073D01*
X186828742Y-146611000D01*
X186651258Y-146611000D01*
X186626488Y-146606073D01*
X186477188Y-146576376D01*
X186313216Y-146508456D01*
X186165646Y-146409853D01*
X186040147Y-146284354D01*
X185941544Y-146136784D01*
X185873624Y-145972812D01*
X185839000Y-145798741D01*
X185839000Y-145621259D01*
X185873624Y-145447188D01*
X185941544Y-145283216D01*
X186040147Y-145135646D01*
X186165646Y-145010147D01*
X186313216Y-144911544D01*
X186477188Y-144843624D01*
X186626488Y-144813927D01*
X186651258Y-144809000D01*
X186828742Y-144809000D01*
X186853512Y-144813927D01*
G37*
G36*
X120813512Y-144813927D02*
G01*
X120962812Y-144843624D01*
X121126784Y-144911544D01*
X121274354Y-145010147D01*
X121399853Y-145135646D01*
X121498456Y-145283216D01*
X121566376Y-145447188D01*
X121601000Y-145621259D01*
X121601000Y-145798741D01*
X121566376Y-145972812D01*
X121498456Y-146136784D01*
X121399853Y-146284354D01*
X121274354Y-146409853D01*
X121126784Y-146508456D01*
X120962812Y-146576376D01*
X120813512Y-146606073D01*
X120788742Y-146611000D01*
X120611258Y-146611000D01*
X120586488Y-146606073D01*
X120437188Y-146576376D01*
X120273216Y-146508456D01*
X120125646Y-146409853D01*
X120000147Y-146284354D01*
X119901544Y-146136784D01*
X119833624Y-145972812D01*
X119799000Y-145798741D01*
X119799000Y-145621259D01*
X119833624Y-145447188D01*
X119901544Y-145283216D01*
X120000147Y-145135646D01*
X120125646Y-145010147D01*
X120273216Y-144911544D01*
X120437188Y-144843624D01*
X120586488Y-144813927D01*
X120611258Y-144809000D01*
X120788742Y-144809000D01*
X120813512Y-144813927D01*
G37*
G36*
X130973512Y-144813927D02*
G01*
X131122812Y-144843624D01*
X131286784Y-144911544D01*
X131434354Y-145010147D01*
X131559853Y-145135646D01*
X131658456Y-145283216D01*
X131726376Y-145447188D01*
X131761000Y-145621259D01*
X131761000Y-145798741D01*
X131726376Y-145972812D01*
X131658456Y-146136784D01*
X131559853Y-146284354D01*
X131434354Y-146409853D01*
X131286784Y-146508456D01*
X131122812Y-146576376D01*
X130973512Y-146606073D01*
X130948742Y-146611000D01*
X130771258Y-146611000D01*
X130746488Y-146606073D01*
X130597188Y-146576376D01*
X130433216Y-146508456D01*
X130285646Y-146409853D01*
X130160147Y-146284354D01*
X130061544Y-146136784D01*
X129993624Y-145972812D01*
X129959000Y-145798741D01*
X129959000Y-145621259D01*
X129993624Y-145447188D01*
X130061544Y-145283216D01*
X130160147Y-145135646D01*
X130285646Y-145010147D01*
X130433216Y-144911544D01*
X130597188Y-144843624D01*
X130746488Y-144813927D01*
X130771258Y-144809000D01*
X130948742Y-144809000D01*
X130973512Y-144813927D01*
G37*
G36*
X171613512Y-144813927D02*
G01*
X171762812Y-144843624D01*
X171926784Y-144911544D01*
X172074354Y-145010147D01*
X172199853Y-145135646D01*
X172298456Y-145283216D01*
X172366376Y-145447188D01*
X172401000Y-145621259D01*
X172401000Y-145798741D01*
X172366376Y-145972812D01*
X172298456Y-146136784D01*
X172199853Y-146284354D01*
X172074354Y-146409853D01*
X171926784Y-146508456D01*
X171762812Y-146576376D01*
X171613512Y-146606073D01*
X171588742Y-146611000D01*
X171411258Y-146611000D01*
X171386488Y-146606073D01*
X171237188Y-146576376D01*
X171073216Y-146508456D01*
X170925646Y-146409853D01*
X170800147Y-146284354D01*
X170701544Y-146136784D01*
X170633624Y-145972812D01*
X170599000Y-145798741D01*
X170599000Y-145621259D01*
X170633624Y-145447188D01*
X170701544Y-145283216D01*
X170800147Y-145135646D01*
X170925646Y-145010147D01*
X171073216Y-144911544D01*
X171237188Y-144843624D01*
X171386488Y-144813927D01*
X171411258Y-144809000D01*
X171588742Y-144809000D01*
X171613512Y-144813927D01*
G37*
G36*
X118273512Y-144813927D02*
G01*
X118422812Y-144843624D01*
X118586784Y-144911544D01*
X118734354Y-145010147D01*
X118859853Y-145135646D01*
X118958456Y-145283216D01*
X119026376Y-145447188D01*
X119061000Y-145621259D01*
X119061000Y-145798741D01*
X119026376Y-145972812D01*
X118958456Y-146136784D01*
X118859853Y-146284354D01*
X118734354Y-146409853D01*
X118586784Y-146508456D01*
X118422812Y-146576376D01*
X118273512Y-146606073D01*
X118248742Y-146611000D01*
X118071258Y-146611000D01*
X118046488Y-146606073D01*
X117897188Y-146576376D01*
X117733216Y-146508456D01*
X117585646Y-146409853D01*
X117460147Y-146284354D01*
X117361544Y-146136784D01*
X117293624Y-145972812D01*
X117259000Y-145798741D01*
X117259000Y-145621259D01*
X117293624Y-145447188D01*
X117361544Y-145283216D01*
X117460147Y-145135646D01*
X117585646Y-145010147D01*
X117733216Y-144911544D01*
X117897188Y-144843624D01*
X118046488Y-144813927D01*
X118071258Y-144809000D01*
X118248742Y-144809000D01*
X118273512Y-144813927D01*
G37*
G36*
X163993512Y-144813927D02*
G01*
X164142812Y-144843624D01*
X164306784Y-144911544D01*
X164454354Y-145010147D01*
X164579853Y-145135646D01*
X164678456Y-145283216D01*
X164746376Y-145447188D01*
X164781000Y-145621259D01*
X164781000Y-145798741D01*
X164746376Y-145972812D01*
X164678456Y-146136784D01*
X164579853Y-146284354D01*
X164454354Y-146409853D01*
X164306784Y-146508456D01*
X164142812Y-146576376D01*
X163993512Y-146606073D01*
X163968742Y-146611000D01*
X163791258Y-146611000D01*
X163766488Y-146606073D01*
X163617188Y-146576376D01*
X163453216Y-146508456D01*
X163305646Y-146409853D01*
X163180147Y-146284354D01*
X163081544Y-146136784D01*
X163013624Y-145972812D01*
X162979000Y-145798741D01*
X162979000Y-145621259D01*
X163013624Y-145447188D01*
X163081544Y-145283216D01*
X163180147Y-145135646D01*
X163305646Y-145010147D01*
X163453216Y-144911544D01*
X163617188Y-144843624D01*
X163766488Y-144813927D01*
X163791258Y-144809000D01*
X163968742Y-144809000D01*
X163993512Y-144813927D01*
G37*
G36*
X166533512Y-144813927D02*
G01*
X166682812Y-144843624D01*
X166846784Y-144911544D01*
X166994354Y-145010147D01*
X167119853Y-145135646D01*
X167218456Y-145283216D01*
X167286376Y-145447188D01*
X167321000Y-145621259D01*
X167321000Y-145798741D01*
X167286376Y-145972812D01*
X167218456Y-146136784D01*
X167119853Y-146284354D01*
X166994354Y-146409853D01*
X166846784Y-146508456D01*
X166682812Y-146576376D01*
X166533512Y-146606073D01*
X166508742Y-146611000D01*
X166331258Y-146611000D01*
X166306488Y-146606073D01*
X166157188Y-146576376D01*
X165993216Y-146508456D01*
X165845646Y-146409853D01*
X165720147Y-146284354D01*
X165621544Y-146136784D01*
X165553624Y-145972812D01*
X165519000Y-145798741D01*
X165519000Y-145621259D01*
X165553624Y-145447188D01*
X165621544Y-145283216D01*
X165720147Y-145135646D01*
X165845646Y-145010147D01*
X165993216Y-144911544D01*
X166157188Y-144843624D01*
X166306488Y-144813927D01*
X166331258Y-144809000D01*
X166508742Y-144809000D01*
X166533512Y-144813927D01*
G37*
G36*
X115733512Y-144813927D02*
G01*
X115882812Y-144843624D01*
X116046784Y-144911544D01*
X116194354Y-145010147D01*
X116319853Y-145135646D01*
X116418456Y-145283216D01*
X116486376Y-145447188D01*
X116521000Y-145621259D01*
X116521000Y-145798741D01*
X116486376Y-145972812D01*
X116418456Y-146136784D01*
X116319853Y-146284354D01*
X116194354Y-146409853D01*
X116046784Y-146508456D01*
X115882812Y-146576376D01*
X115733512Y-146606073D01*
X115708742Y-146611000D01*
X115531258Y-146611000D01*
X115506488Y-146606073D01*
X115357188Y-146576376D01*
X115193216Y-146508456D01*
X115045646Y-146409853D01*
X114920147Y-146284354D01*
X114821544Y-146136784D01*
X114753624Y-145972812D01*
X114719000Y-145798741D01*
X114719000Y-145621259D01*
X114753624Y-145447188D01*
X114821544Y-145283216D01*
X114920147Y-145135646D01*
X115045646Y-145010147D01*
X115193216Y-144911544D01*
X115357188Y-144843624D01*
X115506488Y-144813927D01*
X115531258Y-144809000D01*
X115708742Y-144809000D01*
X115733512Y-144813927D01*
G37*
G36*
X169073512Y-144813927D02*
G01*
X169222812Y-144843624D01*
X169386784Y-144911544D01*
X169534354Y-145010147D01*
X169659853Y-145135646D01*
X169758456Y-145283216D01*
X169826376Y-145447188D01*
X169861000Y-145621259D01*
X169861000Y-145798741D01*
X169826376Y-145972812D01*
X169758456Y-146136784D01*
X169659853Y-146284354D01*
X169534354Y-146409853D01*
X169386784Y-146508456D01*
X169222812Y-146576376D01*
X169073512Y-146606073D01*
X169048742Y-146611000D01*
X168871258Y-146611000D01*
X168846488Y-146606073D01*
X168697188Y-146576376D01*
X168533216Y-146508456D01*
X168385646Y-146409853D01*
X168260147Y-146284354D01*
X168161544Y-146136784D01*
X168093624Y-145972812D01*
X168059000Y-145798741D01*
X168059000Y-145621259D01*
X168093624Y-145447188D01*
X168161544Y-145283216D01*
X168260147Y-145135646D01*
X168385646Y-145010147D01*
X168533216Y-144911544D01*
X168697188Y-144843624D01*
X168846488Y-144813927D01*
X168871258Y-144809000D01*
X169048742Y-144809000D01*
X169073512Y-144813927D01*
G37*
G36*
X113193512Y-144813927D02*
G01*
X113342812Y-144843624D01*
X113506784Y-144911544D01*
X113654354Y-145010147D01*
X113779853Y-145135646D01*
X113878456Y-145283216D01*
X113946376Y-145447188D01*
X113981000Y-145621259D01*
X113981000Y-145798741D01*
X113946376Y-145972812D01*
X113878456Y-146136784D01*
X113779853Y-146284354D01*
X113654354Y-146409853D01*
X113506784Y-146508456D01*
X113342812Y-146576376D01*
X113193512Y-146606073D01*
X113168742Y-146611000D01*
X112991258Y-146611000D01*
X112966488Y-146606073D01*
X112817188Y-146576376D01*
X112653216Y-146508456D01*
X112505646Y-146409853D01*
X112380147Y-146284354D01*
X112281544Y-146136784D01*
X112213624Y-145972812D01*
X112179000Y-145798741D01*
X112179000Y-145621259D01*
X112213624Y-145447188D01*
X112281544Y-145283216D01*
X112380147Y-145135646D01*
X112505646Y-145010147D01*
X112653216Y-144911544D01*
X112817188Y-144843624D01*
X112966488Y-144813927D01*
X112991258Y-144809000D01*
X113168742Y-144809000D01*
X113193512Y-144813927D01*
G37*
G36*
X174153512Y-144813927D02*
G01*
X174302812Y-144843624D01*
X174466784Y-144911544D01*
X174614354Y-145010147D01*
X174739853Y-145135646D01*
X174838456Y-145283216D01*
X174906376Y-145447188D01*
X174941000Y-145621259D01*
X174941000Y-145798741D01*
X174906376Y-145972812D01*
X174838456Y-146136784D01*
X174739853Y-146284354D01*
X174614354Y-146409853D01*
X174466784Y-146508456D01*
X174302812Y-146576376D01*
X174153512Y-146606073D01*
X174128742Y-146611000D01*
X173951258Y-146611000D01*
X173926488Y-146606073D01*
X173777188Y-146576376D01*
X173613216Y-146508456D01*
X173465646Y-146409853D01*
X173340147Y-146284354D01*
X173241544Y-146136784D01*
X173173624Y-145972812D01*
X173139000Y-145798741D01*
X173139000Y-145621259D01*
X173173624Y-145447188D01*
X173241544Y-145283216D01*
X173340147Y-145135646D01*
X173465646Y-145010147D01*
X173613216Y-144911544D01*
X173777188Y-144843624D01*
X173926488Y-144813927D01*
X173951258Y-144809000D01*
X174128742Y-144809000D01*
X174153512Y-144813927D01*
G37*
G36*
X176693512Y-144813927D02*
G01*
X176842812Y-144843624D01*
X177006784Y-144911544D01*
X177154354Y-145010147D01*
X177279853Y-145135646D01*
X177378456Y-145283216D01*
X177446376Y-145447188D01*
X177481000Y-145621259D01*
X177481000Y-145798741D01*
X177446376Y-145972812D01*
X177378456Y-146136784D01*
X177279853Y-146284354D01*
X177154354Y-146409853D01*
X177006784Y-146508456D01*
X176842812Y-146576376D01*
X176693512Y-146606073D01*
X176668742Y-146611000D01*
X176491258Y-146611000D01*
X176466488Y-146606073D01*
X176317188Y-146576376D01*
X176153216Y-146508456D01*
X176005646Y-146409853D01*
X175880147Y-146284354D01*
X175781544Y-146136784D01*
X175713624Y-145972812D01*
X175679000Y-145798741D01*
X175679000Y-145621259D01*
X175713624Y-145447188D01*
X175781544Y-145283216D01*
X175880147Y-145135646D01*
X176005646Y-145010147D01*
X176153216Y-144911544D01*
X176317188Y-144843624D01*
X176466488Y-144813927D01*
X176491258Y-144809000D01*
X176668742Y-144809000D01*
X176693512Y-144813927D01*
G37*
G36*
X110653512Y-144813927D02*
G01*
X110802812Y-144843624D01*
X110966784Y-144911544D01*
X111114354Y-145010147D01*
X111239853Y-145135646D01*
X111338456Y-145283216D01*
X111406376Y-145447188D01*
X111441000Y-145621259D01*
X111441000Y-145798741D01*
X111406376Y-145972812D01*
X111338456Y-146136784D01*
X111239853Y-146284354D01*
X111114354Y-146409853D01*
X110966784Y-146508456D01*
X110802812Y-146576376D01*
X110653512Y-146606073D01*
X110628742Y-146611000D01*
X110451258Y-146611000D01*
X110426488Y-146606073D01*
X110277188Y-146576376D01*
X110113216Y-146508456D01*
X109965646Y-146409853D01*
X109840147Y-146284354D01*
X109741544Y-146136784D01*
X109673624Y-145972812D01*
X109639000Y-145798741D01*
X109639000Y-145621259D01*
X109673624Y-145447188D01*
X109741544Y-145283216D01*
X109840147Y-145135646D01*
X109965646Y-145010147D01*
X110113216Y-144911544D01*
X110277188Y-144843624D01*
X110426488Y-144813927D01*
X110451258Y-144809000D01*
X110628742Y-144809000D01*
X110653512Y-144813927D01*
G37*
G36*
X179233512Y-144813927D02*
G01*
X179382812Y-144843624D01*
X179546784Y-144911544D01*
X179694354Y-145010147D01*
X179819853Y-145135646D01*
X179918456Y-145283216D01*
X179986376Y-145447188D01*
X180021000Y-145621259D01*
X180021000Y-145798741D01*
X179986376Y-145972812D01*
X179918456Y-146136784D01*
X179819853Y-146284354D01*
X179694354Y-146409853D01*
X179546784Y-146508456D01*
X179382812Y-146576376D01*
X179233512Y-146606073D01*
X179208742Y-146611000D01*
X179031258Y-146611000D01*
X179006488Y-146606073D01*
X178857188Y-146576376D01*
X178693216Y-146508456D01*
X178545646Y-146409853D01*
X178420147Y-146284354D01*
X178321544Y-146136784D01*
X178253624Y-145972812D01*
X178219000Y-145798741D01*
X178219000Y-145621259D01*
X178253624Y-145447188D01*
X178321544Y-145283216D01*
X178420147Y-145135646D01*
X178545646Y-145010147D01*
X178693216Y-144911544D01*
X178857188Y-144843624D01*
X179006488Y-144813927D01*
X179031258Y-144809000D01*
X179208742Y-144809000D01*
X179233512Y-144813927D01*
G37*
G36*
X108113512Y-144813927D02*
G01*
X108262812Y-144843624D01*
X108426784Y-144911544D01*
X108574354Y-145010147D01*
X108699853Y-145135646D01*
X108798456Y-145283216D01*
X108866376Y-145447188D01*
X108901000Y-145621259D01*
X108901000Y-145798741D01*
X108866376Y-145972812D01*
X108798456Y-146136784D01*
X108699853Y-146284354D01*
X108574354Y-146409853D01*
X108426784Y-146508456D01*
X108262812Y-146576376D01*
X108113512Y-146606073D01*
X108088742Y-146611000D01*
X107911258Y-146611000D01*
X107886488Y-146606073D01*
X107737188Y-146576376D01*
X107573216Y-146508456D01*
X107425646Y-146409853D01*
X107300147Y-146284354D01*
X107201544Y-146136784D01*
X107133624Y-145972812D01*
X107099000Y-145798741D01*
X107099000Y-145621259D01*
X107133624Y-145447188D01*
X107201544Y-145283216D01*
X107300147Y-145135646D01*
X107425646Y-145010147D01*
X107573216Y-144911544D01*
X107737188Y-144843624D01*
X107886488Y-144813927D01*
X107911258Y-144809000D01*
X108088742Y-144809000D01*
X108113512Y-144813927D01*
G37*
G36*
X146213512Y-144813927D02*
G01*
X146362812Y-144843624D01*
X146526784Y-144911544D01*
X146674354Y-145010147D01*
X146799853Y-145135646D01*
X146898456Y-145283216D01*
X146966376Y-145447188D01*
X147001000Y-145621259D01*
X147001000Y-145798741D01*
X146966376Y-145972812D01*
X146898456Y-146136784D01*
X146799853Y-146284354D01*
X146674354Y-146409853D01*
X146526784Y-146508456D01*
X146362812Y-146576376D01*
X146213512Y-146606073D01*
X146188742Y-146611000D01*
X146011258Y-146611000D01*
X145986488Y-146606073D01*
X145837188Y-146576376D01*
X145673216Y-146508456D01*
X145525646Y-146409853D01*
X145400147Y-146284354D01*
X145301544Y-146136784D01*
X145233624Y-145972812D01*
X145199000Y-145798741D01*
X145199000Y-145621259D01*
X145233624Y-145447188D01*
X145301544Y-145283216D01*
X145400147Y-145135646D01*
X145525646Y-145010147D01*
X145673216Y-144911544D01*
X145837188Y-144843624D01*
X145986488Y-144813927D01*
X146011258Y-144809000D01*
X146188742Y-144809000D01*
X146213512Y-144813927D01*
G37*
G36*
X133513512Y-144813927D02*
G01*
X133662812Y-144843624D01*
X133826784Y-144911544D01*
X133974354Y-145010147D01*
X134099853Y-145135646D01*
X134198456Y-145283216D01*
X134266376Y-145447188D01*
X134301000Y-145621259D01*
X134301000Y-145798741D01*
X134266376Y-145972812D01*
X134198456Y-146136784D01*
X134099853Y-146284354D01*
X133974354Y-146409853D01*
X133826784Y-146508456D01*
X133662812Y-146576376D01*
X133513512Y-146606073D01*
X133488742Y-146611000D01*
X133311258Y-146611000D01*
X133286488Y-146606073D01*
X133137188Y-146576376D01*
X132973216Y-146508456D01*
X132825646Y-146409853D01*
X132700147Y-146284354D01*
X132601544Y-146136784D01*
X132533624Y-145972812D01*
X132499000Y-145798741D01*
X132499000Y-145621259D01*
X132533624Y-145447188D01*
X132601544Y-145283216D01*
X132700147Y-145135646D01*
X132825646Y-145010147D01*
X132973216Y-144911544D01*
X133137188Y-144843624D01*
X133286488Y-144813927D01*
X133311258Y-144809000D01*
X133488742Y-144809000D01*
X133513512Y-144813927D01*
G37*
G36*
X87373512Y-141863927D02*
G01*
X87522812Y-141893624D01*
X87686784Y-141961544D01*
X87834354Y-142060147D01*
X87959853Y-142185646D01*
X88058456Y-142333216D01*
X88126376Y-142497188D01*
X88161000Y-142671259D01*
X88161000Y-142848741D01*
X88126376Y-143022812D01*
X88058456Y-143186784D01*
X87959853Y-143334354D01*
X87834354Y-143459853D01*
X87686784Y-143558456D01*
X87522812Y-143626376D01*
X87373512Y-143656073D01*
X87348742Y-143661000D01*
X87171258Y-143661000D01*
X87146488Y-143656073D01*
X86997188Y-143626376D01*
X86833216Y-143558456D01*
X86685646Y-143459853D01*
X86560147Y-143334354D01*
X86461544Y-143186784D01*
X86393624Y-143022812D01*
X86359000Y-142848741D01*
X86359000Y-142671259D01*
X86393624Y-142497188D01*
X86461544Y-142333216D01*
X86560147Y-142185646D01*
X86685646Y-142060147D01*
X86833216Y-141961544D01*
X86997188Y-141893624D01*
X87146488Y-141863927D01*
X87171258Y-141859000D01*
X87348742Y-141859000D01*
X87373512Y-141863927D01*
G37*
G36*
X90701000Y-143661000D02*
G01*
X88899000Y-143661000D01*
X88899000Y-141859000D01*
X90701000Y-141859000D01*
X90701000Y-143661000D01*
G37*
G36*
X84833512Y-141863927D02*
G01*
X84982812Y-141893624D01*
X85146784Y-141961544D01*
X85294354Y-142060147D01*
X85419853Y-142185646D01*
X85518456Y-142333216D01*
X85586376Y-142497188D01*
X85621000Y-142671259D01*
X85621000Y-142848741D01*
X85586376Y-143022812D01*
X85518456Y-143186784D01*
X85419853Y-143334354D01*
X85294354Y-143459853D01*
X85146784Y-143558456D01*
X84982812Y-143626376D01*
X84833512Y-143656073D01*
X84808742Y-143661000D01*
X84631258Y-143661000D01*
X84606488Y-143656073D01*
X84457188Y-143626376D01*
X84293216Y-143558456D01*
X84145646Y-143459853D01*
X84020147Y-143334354D01*
X83921544Y-143186784D01*
X83853624Y-143022812D01*
X83819000Y-142848741D01*
X83819000Y-142671259D01*
X83853624Y-142497188D01*
X83921544Y-142333216D01*
X84020147Y-142185646D01*
X84145646Y-142060147D01*
X84293216Y-141961544D01*
X84457188Y-141893624D01*
X84606488Y-141863927D01*
X84631258Y-141859000D01*
X84808742Y-141859000D01*
X84833512Y-141863927D01*
G37*
G36*
X111641000Y-143601000D02*
G01*
X110639000Y-143601000D01*
X110639000Y-142599000D01*
X111641000Y-142599000D01*
X111641000Y-143601000D01*
G37*
G36*
X110361000Y-143601000D02*
G01*
X109359000Y-143601000D01*
X109359000Y-142599000D01*
X110361000Y-142599000D01*
X110361000Y-143601000D01*
G37*
G36*
X112921000Y-143601000D02*
G01*
X111919000Y-143601000D01*
X111919000Y-142599000D01*
X112921000Y-142599000D01*
X112921000Y-143601000D01*
G37*
G36*
X109041000Y-143601000D02*
G01*
X108039000Y-143601000D01*
X108039000Y-142599000D01*
X109041000Y-142599000D01*
X109041000Y-143601000D01*
G37*
G36*
X114241000Y-143601000D02*
G01*
X113239000Y-143601000D01*
X113239000Y-142599000D01*
X114241000Y-142599000D01*
X114241000Y-143601000D01*
G37*
G36*
X179226000Y-142001000D02*
G01*
X177574000Y-142001000D01*
X177574000Y-140599000D01*
X179226000Y-140599000D01*
X179226000Y-142001000D01*
G37*
G36*
X171276000Y-142001000D02*
G01*
X169624000Y-142001000D01*
X169624000Y-140599000D01*
X171276000Y-140599000D01*
X171276000Y-142001000D01*
G37*
G36*
X112921000Y-140601000D02*
G01*
X111919000Y-140601000D01*
X111919000Y-139599000D01*
X112921000Y-139599000D01*
X112921000Y-140601000D01*
G37*
G36*
X114241000Y-140601000D02*
G01*
X113239000Y-140601000D01*
X113239000Y-139599000D01*
X114241000Y-139599000D01*
X114241000Y-140601000D01*
G37*
G36*
X111641000Y-140601000D02*
G01*
X110639000Y-140601000D01*
X110639000Y-139599000D01*
X111641000Y-139599000D01*
X111641000Y-140601000D01*
G37*
G36*
X109041000Y-140601000D02*
G01*
X108039000Y-140601000D01*
X108039000Y-139599000D01*
X109041000Y-139599000D01*
X109041000Y-140601000D01*
G37*
G36*
X110361000Y-140601000D02*
G01*
X109359000Y-140601000D01*
X109359000Y-139599000D01*
X110361000Y-139599000D01*
X110361000Y-140601000D01*
G37*
G36*
X154053512Y-137663927D02*
G01*
X154202812Y-137693624D01*
X154366784Y-137761544D01*
X154514354Y-137860147D01*
X154639853Y-137985646D01*
X154738456Y-138133216D01*
X154806376Y-138297188D01*
X154841000Y-138471259D01*
X154841000Y-138648741D01*
X154806376Y-138822812D01*
X154738456Y-138986784D01*
X154639853Y-139134354D01*
X154514354Y-139259853D01*
X154366784Y-139358456D01*
X154202812Y-139426376D01*
X154053512Y-139456073D01*
X154028742Y-139461000D01*
X153851258Y-139461000D01*
X153826488Y-139456073D01*
X153677188Y-139426376D01*
X153513216Y-139358456D01*
X153365646Y-139259853D01*
X153240147Y-139134354D01*
X153141544Y-138986784D01*
X153073624Y-138822812D01*
X153039000Y-138648741D01*
X153039000Y-138471259D01*
X153073624Y-138297188D01*
X153141544Y-138133216D01*
X153240147Y-137985646D01*
X153365646Y-137860147D01*
X153513216Y-137761544D01*
X153677188Y-137693624D01*
X153826488Y-137663927D01*
X153851258Y-137659000D01*
X154028742Y-137659000D01*
X154053512Y-137663927D01*
G37*
G36*
X183593512Y-136563927D02*
G01*
X183742812Y-136593624D01*
X183906784Y-136661544D01*
X184054354Y-136760147D01*
X184179853Y-136885646D01*
X184278456Y-137033216D01*
X184346376Y-137197188D01*
X184381000Y-137371259D01*
X184381000Y-137548741D01*
X184346376Y-137722812D01*
X184278456Y-137886784D01*
X184179853Y-138034354D01*
X184054354Y-138159853D01*
X183906784Y-138258456D01*
X183742812Y-138326376D01*
X183593512Y-138356073D01*
X183568742Y-138361000D01*
X183391258Y-138361000D01*
X183366488Y-138356073D01*
X183217188Y-138326376D01*
X183053216Y-138258456D01*
X182905646Y-138159853D01*
X182780147Y-138034354D01*
X182681544Y-137886784D01*
X182613624Y-137722812D01*
X182579000Y-137548741D01*
X182579000Y-137371259D01*
X182613624Y-137197188D01*
X182681544Y-137033216D01*
X182780147Y-136885646D01*
X182905646Y-136760147D01*
X183053216Y-136661544D01*
X183217188Y-136593624D01*
X183366488Y-136563927D01*
X183391258Y-136559000D01*
X183568742Y-136559000D01*
X183593512Y-136563927D01*
G37*
G36*
X171276000Y-137501000D02*
G01*
X169624000Y-137501000D01*
X169624000Y-136099000D01*
X171276000Y-136099000D01*
X171276000Y-137501000D01*
G37*
G36*
X179226000Y-137501000D02*
G01*
X177574000Y-137501000D01*
X177574000Y-136099000D01*
X179226000Y-136099000D01*
X179226000Y-137501000D01*
G37*
G36*
X154053512Y-135123927D02*
G01*
X154202812Y-135153624D01*
X154366784Y-135221544D01*
X154514354Y-135320147D01*
X154639853Y-135445646D01*
X154738456Y-135593216D01*
X154806376Y-135757188D01*
X154841000Y-135931259D01*
X154841000Y-136108741D01*
X154806376Y-136282812D01*
X154738456Y-136446784D01*
X154639853Y-136594354D01*
X154514354Y-136719853D01*
X154366784Y-136818456D01*
X154202812Y-136886376D01*
X154053512Y-136916073D01*
X154028742Y-136921000D01*
X153851258Y-136921000D01*
X153826488Y-136916073D01*
X153677188Y-136886376D01*
X153513216Y-136818456D01*
X153365646Y-136719853D01*
X153240147Y-136594354D01*
X153141544Y-136446784D01*
X153073624Y-136282812D01*
X153039000Y-136108741D01*
X153039000Y-135931259D01*
X153073624Y-135757188D01*
X153141544Y-135593216D01*
X153240147Y-135445646D01*
X153365646Y-135320147D01*
X153513216Y-135221544D01*
X153677188Y-135153624D01*
X153826488Y-135123927D01*
X153851258Y-135119000D01*
X154028742Y-135119000D01*
X154053512Y-135123927D01*
G37*
G36*
X183593512Y-134023927D02*
G01*
X183742812Y-134053624D01*
X183906784Y-134121544D01*
X184054354Y-134220147D01*
X184179853Y-134345646D01*
X184278456Y-134493216D01*
X184346376Y-134657188D01*
X184372771Y-134789890D01*
X184381000Y-134831258D01*
X184381000Y-135008742D01*
X184379447Y-135016548D01*
X184346376Y-135182812D01*
X184278456Y-135346784D01*
X184179853Y-135494354D01*
X184054354Y-135619853D01*
X183906784Y-135718456D01*
X183742812Y-135786376D01*
X183593512Y-135816073D01*
X183568742Y-135821000D01*
X183391258Y-135821000D01*
X183366488Y-135816073D01*
X183217188Y-135786376D01*
X183053216Y-135718456D01*
X182905646Y-135619853D01*
X182780147Y-135494354D01*
X182681544Y-135346784D01*
X182613624Y-135182812D01*
X182580553Y-135016548D01*
X182579000Y-135008742D01*
X182579000Y-134831258D01*
X182587229Y-134789890D01*
X182613624Y-134657188D01*
X182681544Y-134493216D01*
X182780147Y-134345646D01*
X182905646Y-134220147D01*
X183053216Y-134121544D01*
X183217188Y-134053624D01*
X183366488Y-134023927D01*
X183391258Y-134019000D01*
X183568742Y-134019000D01*
X183593512Y-134023927D01*
G37*
G36*
X218092205Y-133905200D02*
G01*
X218225097Y-133945513D01*
X218347571Y-134010977D01*
X218454923Y-134099077D01*
X218543023Y-134206429D01*
X218608487Y-134328903D01*
X218648800Y-134461795D01*
X218662411Y-134600000D01*
X218648800Y-134738205D01*
X218608487Y-134871097D01*
X218543023Y-134993571D01*
X218454923Y-135100923D01*
X218347571Y-135189023D01*
X218225097Y-135254487D01*
X218092205Y-135294800D01*
X217988636Y-135305000D01*
X216611364Y-135305000D01*
X216507795Y-135294800D01*
X216374903Y-135254487D01*
X216252429Y-135189023D01*
X216145077Y-135100923D01*
X216056977Y-134993571D01*
X215991513Y-134871097D01*
X215951200Y-134738205D01*
X215937589Y-134600000D01*
X215951200Y-134461795D01*
X215991513Y-134328903D01*
X216056977Y-134206429D01*
X216145077Y-134099077D01*
X216252429Y-134010977D01*
X216374903Y-133945513D01*
X216507795Y-133905200D01*
X216611364Y-133895000D01*
X217988636Y-133895000D01*
X218092205Y-133905200D01*
G37*
G36*
X224989890Y-133974017D02*
G01*
X225079119Y-134010977D01*
X225108364Y-134023091D01*
X225154061Y-134053625D01*
X225214988Y-134094335D01*
X225305665Y-134185012D01*
X225376910Y-134291638D01*
X225425983Y-134410110D01*
X225442514Y-134493216D01*
X225451000Y-134535882D01*
X225451000Y-134664118D01*
X225425983Y-134789890D01*
X225376909Y-134908364D01*
X225305665Y-135014988D01*
X225214988Y-135105665D01*
X225108364Y-135176909D01*
X225108363Y-135176910D01*
X225108362Y-135176910D01*
X224989890Y-135225983D01*
X224864119Y-135251000D01*
X224735881Y-135251000D01*
X224610110Y-135225983D01*
X224491638Y-135176910D01*
X224491637Y-135176910D01*
X224491636Y-135176909D01*
X224385012Y-135105665D01*
X224294335Y-135014988D01*
X224223091Y-134908364D01*
X224174017Y-134789890D01*
X224149000Y-134664118D01*
X224149000Y-134535882D01*
X224157487Y-134493216D01*
X224174017Y-134410110D01*
X224223090Y-134291638D01*
X224294335Y-134185012D01*
X224385012Y-134094335D01*
X224445939Y-134053625D01*
X224491636Y-134023091D01*
X224520882Y-134010977D01*
X224610110Y-133974017D01*
X224735881Y-133949000D01*
X224864119Y-133949000D01*
X224989890Y-133974017D01*
G37*
G36*
X222489890Y-133974017D02*
G01*
X222579119Y-134010977D01*
X222608364Y-134023091D01*
X222654061Y-134053625D01*
X222714988Y-134094335D01*
X222805665Y-134185012D01*
X222876910Y-134291638D01*
X222925983Y-134410110D01*
X222942514Y-134493216D01*
X222951000Y-134535882D01*
X222951000Y-134664118D01*
X222925983Y-134789890D01*
X222876909Y-134908364D01*
X222805665Y-135014988D01*
X222714988Y-135105665D01*
X222608364Y-135176909D01*
X222608363Y-135176910D01*
X222608362Y-135176910D01*
X222489890Y-135225983D01*
X222364119Y-135251000D01*
X222235881Y-135251000D01*
X222110110Y-135225983D01*
X221991638Y-135176910D01*
X221991637Y-135176910D01*
X221991636Y-135176909D01*
X221885012Y-135105665D01*
X221794335Y-135014988D01*
X221723091Y-134908364D01*
X221674017Y-134789890D01*
X221649000Y-134664118D01*
X221649000Y-134535882D01*
X221657487Y-134493216D01*
X221674017Y-134410110D01*
X221723090Y-134291638D01*
X221794335Y-134185012D01*
X221885012Y-134094335D01*
X221945939Y-134053625D01*
X221991636Y-134023091D01*
X222020882Y-134010977D01*
X222110110Y-133974017D01*
X222235881Y-133949000D01*
X222364119Y-133949000D01*
X222489890Y-133974017D01*
G37*
G36*
X134188674Y-133828465D02*
G01*
X134226367Y-133839899D01*
X134261103Y-133858466D01*
X134291548Y-133883452D01*
X134316534Y-133913897D01*
X134335101Y-133948633D01*
X134346535Y-133986326D01*
X134351000Y-134031661D01*
X134351000Y-134868339D01*
X134346535Y-134913674D01*
X134335101Y-134951367D01*
X134316534Y-134986103D01*
X134291548Y-135016548D01*
X134261103Y-135041534D01*
X134226367Y-135060101D01*
X134188674Y-135071535D01*
X134143339Y-135076000D01*
X133056661Y-135076000D01*
X133011326Y-135071535D01*
X132973633Y-135060101D01*
X132938897Y-135041534D01*
X132908452Y-135016548D01*
X132883466Y-134986103D01*
X132864899Y-134951367D01*
X132853465Y-134913674D01*
X132849000Y-134868339D01*
X132849000Y-134031661D01*
X132853465Y-133986326D01*
X132864899Y-133948633D01*
X132883466Y-133913897D01*
X132908452Y-133883452D01*
X132938897Y-133858466D01*
X132973633Y-133839899D01*
X133011326Y-133828465D01*
X133056661Y-133824000D01*
X134143339Y-133824000D01*
X134188674Y-133828465D01*
G37*
G36*
X154053512Y-132583927D02*
G01*
X154202812Y-132613624D01*
X154366784Y-132681544D01*
X154514354Y-132780147D01*
X154639853Y-132905646D01*
X154738456Y-133053216D01*
X154806376Y-133217188D01*
X154828871Y-133330282D01*
X154841000Y-133391258D01*
X154841000Y-133568742D01*
X154838607Y-133580770D01*
X154806376Y-133742812D01*
X154738456Y-133906784D01*
X154639853Y-134054354D01*
X154514354Y-134179853D01*
X154366784Y-134278456D01*
X154202812Y-134346376D01*
X154053512Y-134376073D01*
X154028742Y-134381000D01*
X153851258Y-134381000D01*
X153826488Y-134376073D01*
X153677188Y-134346376D01*
X153513216Y-134278456D01*
X153365646Y-134179853D01*
X153240147Y-134054354D01*
X153141544Y-133906784D01*
X153073624Y-133742812D01*
X153041393Y-133580770D01*
X153039000Y-133568742D01*
X153039000Y-133391258D01*
X153051129Y-133330282D01*
X153073624Y-133217188D01*
X153141544Y-133053216D01*
X153240147Y-132905646D01*
X153365646Y-132780147D01*
X153513216Y-132681544D01*
X153677188Y-132613624D01*
X153826488Y-132583927D01*
X153851258Y-132579000D01*
X154028742Y-132579000D01*
X154053512Y-132583927D01*
G37*
G36*
X173446778Y-131810547D02*
G01*
X173613224Y-131879491D01*
X173763022Y-131979583D01*
X173890417Y-132106978D01*
X173990509Y-132256776D01*
X174059453Y-132423222D01*
X174094600Y-132599918D01*
X174094600Y-132780082D01*
X174059453Y-132956778D01*
X173990509Y-133123224D01*
X173890417Y-133273022D01*
X173763022Y-133400417D01*
X173613224Y-133500509D01*
X173446778Y-133569453D01*
X173270082Y-133604600D01*
X173089918Y-133604600D01*
X172913222Y-133569453D01*
X172746776Y-133500509D01*
X172596978Y-133400417D01*
X172469583Y-133273022D01*
X172369491Y-133123224D01*
X172300547Y-132956778D01*
X172265400Y-132780082D01*
X172265400Y-132599918D01*
X172300547Y-132423222D01*
X172369491Y-132256776D01*
X172469583Y-132106978D01*
X172596978Y-131979583D01*
X172746776Y-131879491D01*
X172913222Y-131810547D01*
X173089918Y-131775400D01*
X173270082Y-131775400D01*
X173446778Y-131810547D01*
G37*
G36*
X175986778Y-131810547D02*
G01*
X176153224Y-131879491D01*
X176303022Y-131979583D01*
X176430417Y-132106978D01*
X176530509Y-132256776D01*
X176599453Y-132423222D01*
X176634600Y-132599918D01*
X176634600Y-132780082D01*
X176599453Y-132956778D01*
X176530509Y-133123224D01*
X176430417Y-133273022D01*
X176303022Y-133400417D01*
X176153224Y-133500509D01*
X175986778Y-133569453D01*
X175810082Y-133604600D01*
X175629918Y-133604600D01*
X175453222Y-133569453D01*
X175286776Y-133500509D01*
X175136978Y-133400417D01*
X175009583Y-133273022D01*
X174909491Y-133123224D01*
X174840547Y-132956778D01*
X174805400Y-132780082D01*
X174805400Y-132599918D01*
X174840547Y-132423222D01*
X174909491Y-132256776D01*
X175009583Y-132106978D01*
X175136978Y-131979583D01*
X175286776Y-131879491D01*
X175453222Y-131810547D01*
X175629918Y-131775400D01*
X175810082Y-131775400D01*
X175986778Y-131810547D01*
G37*
G36*
X162968674Y-132338465D02*
G01*
X163006367Y-132349899D01*
X163041103Y-132368466D01*
X163071548Y-132393452D01*
X163096534Y-132423897D01*
X163115101Y-132458633D01*
X163126535Y-132496326D01*
X163131000Y-132541661D01*
X163131000Y-133378339D01*
X163126535Y-133423674D01*
X163115101Y-133461367D01*
X163096534Y-133496103D01*
X163071548Y-133526548D01*
X163041103Y-133551534D01*
X163006367Y-133570101D01*
X162968674Y-133581535D01*
X162923339Y-133586000D01*
X161836661Y-133586000D01*
X161791326Y-133581535D01*
X161753633Y-133570101D01*
X161718897Y-133551534D01*
X161688452Y-133526548D01*
X161663466Y-133496103D01*
X161644899Y-133461367D01*
X161633465Y-133423674D01*
X161629000Y-133378339D01*
X161629000Y-132541661D01*
X161633465Y-132496326D01*
X161644899Y-132458633D01*
X161663466Y-132423897D01*
X161688452Y-132393452D01*
X161718897Y-132368466D01*
X161753633Y-132349899D01*
X161791326Y-132338465D01*
X161836661Y-132334000D01*
X162923339Y-132334000D01*
X162968674Y-132338465D01*
G37*
G36*
X111313674Y-131853465D02*
G01*
X111351367Y-131864899D01*
X111386103Y-131883466D01*
X111416548Y-131908452D01*
X111441534Y-131938897D01*
X111460101Y-131973633D01*
X111471535Y-132011326D01*
X111476000Y-132056661D01*
X111476000Y-133143339D01*
X111471535Y-133188674D01*
X111460101Y-133226367D01*
X111441534Y-133261103D01*
X111416548Y-133291548D01*
X111386103Y-133316534D01*
X111351367Y-133335101D01*
X111313674Y-133346535D01*
X111268339Y-133351000D01*
X110431661Y-133351000D01*
X110386326Y-133346535D01*
X110348633Y-133335101D01*
X110313897Y-133316534D01*
X110283452Y-133291548D01*
X110258466Y-133261103D01*
X110239899Y-133226367D01*
X110228465Y-133188674D01*
X110224000Y-133143339D01*
X110224000Y-132056661D01*
X110228465Y-132011326D01*
X110239899Y-131973633D01*
X110258466Y-131938897D01*
X110283452Y-131908452D01*
X110313897Y-131883466D01*
X110348633Y-131864899D01*
X110386326Y-131853465D01*
X110431661Y-131849000D01*
X111268339Y-131849000D01*
X111313674Y-131853465D01*
G37*
G36*
X113363674Y-131853465D02*
G01*
X113401367Y-131864899D01*
X113436103Y-131883466D01*
X113466548Y-131908452D01*
X113491534Y-131938897D01*
X113510101Y-131973633D01*
X113521535Y-132011326D01*
X113526000Y-132056661D01*
X113526000Y-133143339D01*
X113521535Y-133188674D01*
X113510101Y-133226367D01*
X113491534Y-133261103D01*
X113466548Y-133291548D01*
X113436103Y-133316534D01*
X113401367Y-133335101D01*
X113363674Y-133346535D01*
X113318339Y-133351000D01*
X112481661Y-133351000D01*
X112436326Y-133346535D01*
X112398633Y-133335101D01*
X112363897Y-133316534D01*
X112333452Y-133291548D01*
X112308466Y-133261103D01*
X112289899Y-133226367D01*
X112278465Y-133188674D01*
X112274000Y-133143339D01*
X112274000Y-132056661D01*
X112278465Y-132011326D01*
X112289899Y-131973633D01*
X112308466Y-131938897D01*
X112333452Y-131908452D01*
X112363897Y-131883466D01*
X112398633Y-131864899D01*
X112436326Y-131853465D01*
X112481661Y-131849000D01*
X113318339Y-131849000D01*
X113363674Y-131853465D01*
G37*
G36*
X184381000Y-133281000D02*
G01*
X182579000Y-133281000D01*
X182579000Y-131479000D01*
X184381000Y-131479000D01*
X184381000Y-133281000D01*
G37*
G36*
X134188674Y-131778465D02*
G01*
X134226367Y-131789899D01*
X134261103Y-131808466D01*
X134291548Y-131833452D01*
X134316534Y-131863897D01*
X134335101Y-131898633D01*
X134346535Y-131936326D01*
X134351000Y-131981661D01*
X134351000Y-132818339D01*
X134346535Y-132863674D01*
X134335101Y-132901367D01*
X134316534Y-132936103D01*
X134291548Y-132966548D01*
X134261103Y-132991534D01*
X134226367Y-133010101D01*
X134188674Y-133021535D01*
X134143339Y-133026000D01*
X133056661Y-133026000D01*
X133011326Y-133021535D01*
X132973633Y-133010101D01*
X132938897Y-132991534D01*
X132908452Y-132966548D01*
X132883466Y-132936103D01*
X132864899Y-132901367D01*
X132853465Y-132863674D01*
X132849000Y-132818339D01*
X132849000Y-131981661D01*
X132853465Y-131936326D01*
X132864899Y-131898633D01*
X132883466Y-131863897D01*
X132908452Y-131833452D01*
X132938897Y-131808466D01*
X132973633Y-131789899D01*
X133011326Y-131778465D01*
X133056661Y-131774000D01*
X134143339Y-131774000D01*
X134188674Y-131778465D01*
G37*
G36*
X218092205Y-131405200D02*
G01*
X218225097Y-131445513D01*
X218347571Y-131510977D01*
X218454923Y-131599077D01*
X218543023Y-131706429D01*
X218608487Y-131828903D01*
X218648800Y-131961795D01*
X218662411Y-132100000D01*
X218648800Y-132238205D01*
X218608487Y-132371097D01*
X218543023Y-132493571D01*
X218454923Y-132600923D01*
X218347571Y-132689023D01*
X218225097Y-132754487D01*
X218092205Y-132794800D01*
X217988636Y-132805000D01*
X216611364Y-132805000D01*
X216507795Y-132794800D01*
X216374903Y-132754487D01*
X216252429Y-132689023D01*
X216145077Y-132600923D01*
X216056977Y-132493571D01*
X215991513Y-132371097D01*
X215951200Y-132238205D01*
X215937589Y-132100000D01*
X215951200Y-131961795D01*
X215991513Y-131828903D01*
X216056977Y-131706429D01*
X216145077Y-131599077D01*
X216252429Y-131510977D01*
X216374903Y-131445513D01*
X216507795Y-131405200D01*
X216611364Y-131395000D01*
X217988636Y-131395000D01*
X218092205Y-131405200D01*
G37*
G36*
X211306778Y-130280547D02*
G01*
X211473224Y-130349491D01*
X211623022Y-130449583D01*
X211750417Y-130576978D01*
X211850509Y-130726776D01*
X211919453Y-130893222D01*
X211954600Y-131069918D01*
X211954600Y-131250082D01*
X211919453Y-131426778D01*
X211850509Y-131593224D01*
X211750417Y-131743022D01*
X211623022Y-131870417D01*
X211473224Y-131970509D01*
X211306778Y-132039453D01*
X211130082Y-132074600D01*
X210949918Y-132074600D01*
X210773222Y-132039453D01*
X210606776Y-131970509D01*
X210456978Y-131870417D01*
X210329583Y-131743022D01*
X210229491Y-131593224D01*
X210160547Y-131426778D01*
X210125400Y-131250082D01*
X210125400Y-131069918D01*
X210160547Y-130893222D01*
X210229491Y-130726776D01*
X210329583Y-130576978D01*
X210456978Y-130449583D01*
X210606776Y-130349491D01*
X210773222Y-130280547D01*
X210949918Y-130245400D01*
X211130082Y-130245400D01*
X211306778Y-130280547D01*
G37*
G36*
X208766778Y-130280547D02*
G01*
X208933224Y-130349491D01*
X209083022Y-130449583D01*
X209210417Y-130576978D01*
X209310509Y-130726776D01*
X209379453Y-130893222D01*
X209414600Y-131069918D01*
X209414600Y-131250082D01*
X209379453Y-131426778D01*
X209310509Y-131593224D01*
X209210417Y-131743022D01*
X209083022Y-131870417D01*
X208933224Y-131970509D01*
X208766778Y-132039453D01*
X208590082Y-132074600D01*
X208409918Y-132074600D01*
X208233222Y-132039453D01*
X208066776Y-131970509D01*
X207916978Y-131870417D01*
X207789583Y-131743022D01*
X207689491Y-131593224D01*
X207620547Y-131426778D01*
X207585400Y-131250082D01*
X207585400Y-131069918D01*
X207620547Y-130893222D01*
X207689491Y-130726776D01*
X207789583Y-130576978D01*
X207916978Y-130449583D01*
X208066776Y-130349491D01*
X208233222Y-130280547D01*
X208409918Y-130245400D01*
X208590082Y-130245400D01*
X208766778Y-130280547D01*
G37*
G36*
X87188674Y-130803465D02*
G01*
X87226367Y-130814899D01*
X87261103Y-130833466D01*
X87291548Y-130858452D01*
X87316534Y-130888897D01*
X87335101Y-130923633D01*
X87346535Y-130961326D01*
X87351000Y-131006661D01*
X87351000Y-131843339D01*
X87346535Y-131888674D01*
X87335101Y-131926367D01*
X87316534Y-131961103D01*
X87291548Y-131991548D01*
X87261103Y-132016534D01*
X87226367Y-132035101D01*
X87188674Y-132046535D01*
X87143339Y-132051000D01*
X86056661Y-132051000D01*
X86011326Y-132046535D01*
X85973633Y-132035101D01*
X85938897Y-132016534D01*
X85908452Y-131991548D01*
X85883466Y-131961103D01*
X85864899Y-131926367D01*
X85853465Y-131888674D01*
X85849000Y-131843339D01*
X85849000Y-131006661D01*
X85853465Y-130961326D01*
X85864899Y-130923633D01*
X85883466Y-130888897D01*
X85908452Y-130858452D01*
X85938897Y-130833466D01*
X85973633Y-130814899D01*
X86011326Y-130803465D01*
X86056661Y-130799000D01*
X87143339Y-130799000D01*
X87188674Y-130803465D01*
G37*
G36*
X154841000Y-131841000D02*
G01*
X153039000Y-131841000D01*
X153039000Y-130039000D01*
X154841000Y-130039000D01*
X154841000Y-131841000D01*
G37*
G36*
X162968674Y-130288465D02*
G01*
X163006367Y-130299899D01*
X163041103Y-130318466D01*
X163071548Y-130343452D01*
X163096534Y-130373897D01*
X163115101Y-130408633D01*
X163126535Y-130446326D01*
X163131000Y-130491661D01*
X163131000Y-131328339D01*
X163126535Y-131373674D01*
X163115101Y-131411367D01*
X163096534Y-131446103D01*
X163071548Y-131476548D01*
X163041103Y-131501534D01*
X163006367Y-131520101D01*
X162968674Y-131531535D01*
X162923339Y-131536000D01*
X161836661Y-131536000D01*
X161791326Y-131531535D01*
X161753633Y-131520101D01*
X161718897Y-131501534D01*
X161688452Y-131476548D01*
X161663466Y-131446103D01*
X161644899Y-131411367D01*
X161633465Y-131373674D01*
X161629000Y-131328339D01*
X161629000Y-130491661D01*
X161633465Y-130446326D01*
X161644899Y-130408633D01*
X161663466Y-130373897D01*
X161688452Y-130343452D01*
X161718897Y-130318466D01*
X161753633Y-130299899D01*
X161791326Y-130288465D01*
X161836661Y-130284000D01*
X162923339Y-130284000D01*
X162968674Y-130288465D01*
G37*
G36*
X175986778Y-129270547D02*
G01*
X176153224Y-129339491D01*
X176303022Y-129439583D01*
X176430417Y-129566978D01*
X176530509Y-129716776D01*
X176599453Y-129883222D01*
X176634600Y-130059918D01*
X176634600Y-130240082D01*
X176599453Y-130416778D01*
X176530509Y-130583224D01*
X176430417Y-130733022D01*
X176303022Y-130860417D01*
X176153224Y-130960509D01*
X175986778Y-131029453D01*
X175810082Y-131064600D01*
X175629918Y-131064600D01*
X175453222Y-131029453D01*
X175286776Y-130960509D01*
X175136978Y-130860417D01*
X175009583Y-130733022D01*
X174909491Y-130583224D01*
X174840547Y-130416778D01*
X174805400Y-130240082D01*
X174805400Y-130059918D01*
X174840547Y-129883222D01*
X174909491Y-129716776D01*
X175009583Y-129566978D01*
X175136978Y-129439583D01*
X175286776Y-129339491D01*
X175453222Y-129270547D01*
X175629918Y-129235400D01*
X175810082Y-129235400D01*
X175986778Y-129270547D01*
G37*
G36*
X173446778Y-129270547D02*
G01*
X173613224Y-129339491D01*
X173763022Y-129439583D01*
X173890417Y-129566978D01*
X173990509Y-129716776D01*
X174059453Y-129883222D01*
X174094600Y-130059918D01*
X174094600Y-130240082D01*
X174059453Y-130416778D01*
X173990509Y-130583224D01*
X173890417Y-130733022D01*
X173763022Y-130860417D01*
X173613224Y-130960509D01*
X173446778Y-131029453D01*
X173270082Y-131064600D01*
X173089918Y-131064600D01*
X172913222Y-131029453D01*
X172746776Y-130960509D01*
X172596978Y-130860417D01*
X172469583Y-130733022D01*
X172369491Y-130583224D01*
X172300547Y-130416778D01*
X172265400Y-130240082D01*
X172265400Y-130059918D01*
X172300547Y-129883222D01*
X172369491Y-129716776D01*
X172469583Y-129566978D01*
X172596978Y-129439583D01*
X172746776Y-129339491D01*
X172913222Y-129270547D01*
X173089918Y-129235400D01*
X173270082Y-129235400D01*
X173446778Y-129270547D01*
G37*
G36*
X222438205Y-128251200D02*
G01*
X222571097Y-128291513D01*
X222693571Y-128356977D01*
X222800923Y-128445077D01*
X222889023Y-128552429D01*
X222954487Y-128674903D01*
X222994800Y-128807795D01*
X223005000Y-128911364D01*
X223005000Y-130288636D01*
X222994800Y-130392205D01*
X222954487Y-130525097D01*
X222889023Y-130647571D01*
X222800923Y-130754922D01*
X222693570Y-130843023D01*
X222571096Y-130908487D01*
X222438204Y-130948800D01*
X222300000Y-130962411D01*
X222161795Y-130948800D01*
X222028903Y-130908487D01*
X221906429Y-130843023D01*
X221799078Y-130754923D01*
X221710977Y-130647570D01*
X221645513Y-130525096D01*
X221605200Y-130392204D01*
X221595000Y-130288635D01*
X221595001Y-128911364D01*
X221605201Y-128807795D01*
X221645514Y-128674903D01*
X221710978Y-128552429D01*
X221799078Y-128445077D01*
X221906430Y-128356977D01*
X222028904Y-128291513D01*
X222161796Y-128251200D01*
X222300000Y-128237589D01*
X222438205Y-128251200D01*
G37*
G36*
X217460017Y-128968075D02*
G01*
X217489890Y-128974017D01*
X217608364Y-129023091D01*
X217714988Y-129094335D01*
X217805665Y-129185012D01*
X217862818Y-129270547D01*
X217876910Y-129291638D01*
X217925983Y-129410110D01*
X217951000Y-129535881D01*
X217951000Y-129664119D01*
X217925983Y-129789890D01*
X217885952Y-129886534D01*
X217876909Y-129908364D01*
X217805665Y-130014988D01*
X217714988Y-130105665D01*
X217608364Y-130176909D01*
X217608363Y-130176910D01*
X217608362Y-130176910D01*
X217489890Y-130225983D01*
X217364119Y-130251000D01*
X217235881Y-130251000D01*
X217110110Y-130225983D01*
X216991638Y-130176910D01*
X216991637Y-130176910D01*
X216991636Y-130176909D01*
X216885012Y-130105665D01*
X216794335Y-130014988D01*
X216723091Y-129908364D01*
X216714049Y-129886534D01*
X216674017Y-129789890D01*
X216649000Y-129664119D01*
X216649000Y-129535881D01*
X216674017Y-129410110D01*
X216723090Y-129291638D01*
X216737183Y-129270547D01*
X216794335Y-129185012D01*
X216885012Y-129094335D01*
X216991636Y-129023091D01*
X217110110Y-128974017D01*
X217139983Y-128968075D01*
X217235881Y-128949000D01*
X217364119Y-128949000D01*
X217460017Y-128968075D01*
G37*
G36*
X87188674Y-128753465D02*
G01*
X87226367Y-128764899D01*
X87261103Y-128783466D01*
X87291548Y-128808452D01*
X87316534Y-128838897D01*
X87335101Y-128873633D01*
X87346535Y-128911326D01*
X87351000Y-128956661D01*
X87351000Y-129793339D01*
X87346535Y-129838674D01*
X87335101Y-129876367D01*
X87316534Y-129911103D01*
X87291548Y-129941548D01*
X87261103Y-129966534D01*
X87226367Y-129985101D01*
X87188674Y-129996535D01*
X87143339Y-130001000D01*
X86056661Y-130001000D01*
X86011326Y-129996535D01*
X85973633Y-129985101D01*
X85938897Y-129966534D01*
X85908452Y-129941548D01*
X85883466Y-129911103D01*
X85864899Y-129876367D01*
X85853465Y-129838674D01*
X85849000Y-129793339D01*
X85849000Y-128956661D01*
X85853465Y-128911326D01*
X85864899Y-128873633D01*
X85883466Y-128838897D01*
X85908452Y-128808452D01*
X85938897Y-128783466D01*
X85973633Y-128764899D01*
X86011326Y-128753465D01*
X86056661Y-128749000D01*
X87143339Y-128749000D01*
X87188674Y-128753465D01*
G37*
G36*
X204553674Y-128423465D02*
G01*
X204591367Y-128434899D01*
X204626103Y-128453466D01*
X204656548Y-128478452D01*
X204681534Y-128508897D01*
X204700101Y-128543633D01*
X204711535Y-128581326D01*
X204716000Y-128626661D01*
X204716000Y-129713339D01*
X204711535Y-129758674D01*
X204700101Y-129796367D01*
X204681534Y-129831103D01*
X204656548Y-129861548D01*
X204626103Y-129886534D01*
X204591367Y-129905101D01*
X204553674Y-129916535D01*
X204508339Y-129921000D01*
X203671661Y-129921000D01*
X203626326Y-129916535D01*
X203588633Y-129905101D01*
X203553897Y-129886534D01*
X203523452Y-129861548D01*
X203498466Y-129831103D01*
X203479899Y-129796367D01*
X203468465Y-129758674D01*
X203464000Y-129713339D01*
X203464000Y-128626661D01*
X203468465Y-128581326D01*
X203479899Y-128543633D01*
X203498466Y-128508897D01*
X203523452Y-128478452D01*
X203553897Y-128453466D01*
X203588633Y-128434899D01*
X203626326Y-128423465D01*
X203671661Y-128419000D01*
X204508339Y-128419000D01*
X204553674Y-128423465D01*
G37*
G36*
X202503674Y-128423465D02*
G01*
X202541367Y-128434899D01*
X202576103Y-128453466D01*
X202606548Y-128478452D01*
X202631534Y-128508897D01*
X202650101Y-128543633D01*
X202661535Y-128581326D01*
X202666000Y-128626661D01*
X202666000Y-129713339D01*
X202661535Y-129758674D01*
X202650101Y-129796367D01*
X202631534Y-129831103D01*
X202606548Y-129861548D01*
X202576103Y-129886534D01*
X202541367Y-129905101D01*
X202503674Y-129916535D01*
X202458339Y-129921000D01*
X201621661Y-129921000D01*
X201576326Y-129916535D01*
X201538633Y-129905101D01*
X201503897Y-129886534D01*
X201473452Y-129861548D01*
X201448466Y-129831103D01*
X201429899Y-129796367D01*
X201418465Y-129758674D01*
X201414000Y-129713339D01*
X201414000Y-128626661D01*
X201418465Y-128581326D01*
X201429899Y-128543633D01*
X201448466Y-128508897D01*
X201473452Y-128478452D01*
X201503897Y-128453466D01*
X201538633Y-128434899D01*
X201576326Y-128423465D01*
X201621661Y-128419000D01*
X202458339Y-128419000D01*
X202503674Y-128423465D01*
G37*
G36*
X211306778Y-127740547D02*
G01*
X211473224Y-127809491D01*
X211623022Y-127909583D01*
X211750417Y-128036978D01*
X211850509Y-128186776D01*
X211919453Y-128353222D01*
X211954600Y-128529918D01*
X211954600Y-128710082D01*
X211919453Y-128886778D01*
X211850509Y-129053224D01*
X211750417Y-129203022D01*
X211623022Y-129330417D01*
X211473224Y-129430509D01*
X211306778Y-129499453D01*
X211130082Y-129534600D01*
X210949918Y-129534600D01*
X210773222Y-129499453D01*
X210606776Y-129430509D01*
X210456978Y-129330417D01*
X210329583Y-129203022D01*
X210229491Y-129053224D01*
X210160547Y-128886778D01*
X210125400Y-128710082D01*
X210125400Y-128529918D01*
X210160547Y-128353222D01*
X210229491Y-128186776D01*
X210329583Y-128036978D01*
X210456978Y-127909583D01*
X210606776Y-127809491D01*
X210773222Y-127740547D01*
X210949918Y-127705400D01*
X211130082Y-127705400D01*
X211306778Y-127740547D01*
G37*
G36*
X208766778Y-127740547D02*
G01*
X208933224Y-127809491D01*
X209083022Y-127909583D01*
X209210417Y-128036978D01*
X209310509Y-128186776D01*
X209379453Y-128353222D01*
X209414600Y-128529918D01*
X209414600Y-128710082D01*
X209379453Y-128886778D01*
X209310509Y-129053224D01*
X209210417Y-129203022D01*
X209083022Y-129330417D01*
X208933224Y-129430509D01*
X208766778Y-129499453D01*
X208590082Y-129534600D01*
X208409918Y-129534600D01*
X208233222Y-129499453D01*
X208066776Y-129430509D01*
X207916978Y-129330417D01*
X207789583Y-129203022D01*
X207689491Y-129053224D01*
X207620547Y-128886778D01*
X207585400Y-128710082D01*
X207585400Y-128529918D01*
X207620547Y-128353222D01*
X207689491Y-128186776D01*
X207789583Y-128036978D01*
X207916978Y-127909583D01*
X208066776Y-127809491D01*
X208233222Y-127740547D01*
X208409918Y-127705400D01*
X208590082Y-127705400D01*
X208766778Y-127740547D01*
G37*
G36*
X174094600Y-128524600D02*
G01*
X172265400Y-128524600D01*
X172265400Y-126695400D01*
X174094600Y-126695400D01*
X174094600Y-128524600D01*
G37*
G36*
X175986778Y-126730547D02*
G01*
X176153224Y-126799491D01*
X176303022Y-126899583D01*
X176430417Y-127026978D01*
X176530509Y-127176776D01*
X176599453Y-127343222D01*
X176634600Y-127519918D01*
X176634600Y-127700082D01*
X176599453Y-127876778D01*
X176530509Y-128043224D01*
X176430417Y-128193022D01*
X176303022Y-128320417D01*
X176153224Y-128420509D01*
X175986778Y-128489453D01*
X175810082Y-128524600D01*
X175629918Y-128524600D01*
X175453222Y-128489453D01*
X175286776Y-128420509D01*
X175136978Y-128320417D01*
X175009583Y-128193022D01*
X174909491Y-128043224D01*
X174840547Y-127876778D01*
X174805400Y-127700082D01*
X174805400Y-127519918D01*
X174840547Y-127343222D01*
X174909491Y-127176776D01*
X175009583Y-127026978D01*
X175136978Y-126899583D01*
X175286776Y-126799491D01*
X175453222Y-126730547D01*
X175629918Y-126695400D01*
X175810082Y-126695400D01*
X175986778Y-126730547D01*
G37*
G36*
X202488674Y-126363465D02*
G01*
X202526367Y-126374899D01*
X202561103Y-126393466D01*
X202591548Y-126418452D01*
X202616534Y-126448897D01*
X202635101Y-126483633D01*
X202646535Y-126521326D01*
X202651000Y-126566661D01*
X202651000Y-127653339D01*
X202646535Y-127698674D01*
X202635101Y-127736367D01*
X202616534Y-127771103D01*
X202591548Y-127801548D01*
X202561103Y-127826534D01*
X202526367Y-127845101D01*
X202488674Y-127856535D01*
X202443339Y-127861000D01*
X201606661Y-127861000D01*
X201561326Y-127856535D01*
X201523633Y-127845101D01*
X201488897Y-127826534D01*
X201458452Y-127801548D01*
X201433466Y-127771103D01*
X201414899Y-127736367D01*
X201403465Y-127698674D01*
X201399000Y-127653339D01*
X201399000Y-126566661D01*
X201403465Y-126521326D01*
X201414899Y-126483633D01*
X201433466Y-126448897D01*
X201458452Y-126418452D01*
X201488897Y-126393466D01*
X201523633Y-126374899D01*
X201561326Y-126363465D01*
X201606661Y-126359000D01*
X202443339Y-126359000D01*
X202488674Y-126363465D01*
G37*
G36*
X204538674Y-126363465D02*
G01*
X204576367Y-126374899D01*
X204611103Y-126393466D01*
X204641548Y-126418452D01*
X204666534Y-126448897D01*
X204685101Y-126483633D01*
X204696535Y-126521326D01*
X204701000Y-126566661D01*
X204701000Y-127653339D01*
X204696535Y-127698674D01*
X204685101Y-127736367D01*
X204666534Y-127771103D01*
X204641548Y-127801548D01*
X204611103Y-127826534D01*
X204576367Y-127845101D01*
X204538674Y-127856535D01*
X204493339Y-127861000D01*
X203656661Y-127861000D01*
X203611326Y-127856535D01*
X203573633Y-127845101D01*
X203538897Y-127826534D01*
X203508452Y-127801548D01*
X203483466Y-127771103D01*
X203464899Y-127736367D01*
X203453465Y-127698674D01*
X203449000Y-127653339D01*
X203449000Y-126566661D01*
X203453465Y-126521326D01*
X203464899Y-126483633D01*
X203483466Y-126448897D01*
X203508452Y-126418452D01*
X203538897Y-126393466D01*
X203573633Y-126374899D01*
X203611326Y-126363465D01*
X203656661Y-126359000D01*
X204493339Y-126359000D01*
X204538674Y-126363465D01*
G37*
G36*
X218092205Y-126405200D02*
G01*
X218225097Y-126445513D01*
X218347571Y-126510977D01*
X218454923Y-126599077D01*
X218543023Y-126706429D01*
X218608487Y-126828903D01*
X218648800Y-126961795D01*
X218662411Y-127100000D01*
X218648800Y-127238205D01*
X218608487Y-127371097D01*
X218543023Y-127493571D01*
X218454923Y-127600923D01*
X218347571Y-127689023D01*
X218225097Y-127754487D01*
X218092205Y-127794800D01*
X217988636Y-127805000D01*
X216611364Y-127805000D01*
X216507795Y-127794800D01*
X216374903Y-127754487D01*
X216252429Y-127689023D01*
X216145077Y-127600923D01*
X216056977Y-127493571D01*
X215991513Y-127371097D01*
X215951200Y-127238205D01*
X215937589Y-127100000D01*
X215951200Y-126961795D01*
X215991513Y-126828903D01*
X216056977Y-126706429D01*
X216145077Y-126599077D01*
X216252429Y-126510977D01*
X216374903Y-126445513D01*
X216507795Y-126405200D01*
X216611364Y-126395000D01*
X217988636Y-126395000D01*
X218092205Y-126405200D01*
G37*
G36*
X208766778Y-125200547D02*
G01*
X208933224Y-125269491D01*
X209083022Y-125369583D01*
X209210417Y-125496978D01*
X209310509Y-125646776D01*
X209379453Y-125813222D01*
X209414600Y-125989918D01*
X209414600Y-126170082D01*
X209379453Y-126346778D01*
X209310509Y-126513224D01*
X209210417Y-126663022D01*
X209083022Y-126790417D01*
X208933224Y-126890509D01*
X208766778Y-126959453D01*
X208590082Y-126994600D01*
X208409918Y-126994600D01*
X208233222Y-126959453D01*
X208066776Y-126890509D01*
X207916978Y-126790417D01*
X207789583Y-126663022D01*
X207689491Y-126513224D01*
X207620547Y-126346778D01*
X207585400Y-126170082D01*
X207585400Y-125989918D01*
X207620547Y-125813222D01*
X207689491Y-125646776D01*
X207789583Y-125496978D01*
X207916978Y-125369583D01*
X208066776Y-125269491D01*
X208233222Y-125200547D01*
X208409918Y-125165400D01*
X208590082Y-125165400D01*
X208766778Y-125200547D01*
G37*
G36*
X211306778Y-125200547D02*
G01*
X211473224Y-125269491D01*
X211623022Y-125369583D01*
X211750417Y-125496978D01*
X211850509Y-125646776D01*
X211919453Y-125813222D01*
X211954600Y-125989918D01*
X211954600Y-126170082D01*
X211919453Y-126346778D01*
X211850509Y-126513224D01*
X211750417Y-126663022D01*
X211623022Y-126790417D01*
X211473224Y-126890509D01*
X211306778Y-126959453D01*
X211130082Y-126994600D01*
X210949918Y-126994600D01*
X210773222Y-126959453D01*
X210606776Y-126890509D01*
X210456978Y-126790417D01*
X210329583Y-126663022D01*
X210229491Y-126513224D01*
X210160547Y-126346778D01*
X210125400Y-126170082D01*
X210125400Y-125989918D01*
X210160547Y-125813222D01*
X210229491Y-125646776D01*
X210329583Y-125496978D01*
X210456978Y-125369583D01*
X210606776Y-125269491D01*
X210773222Y-125200547D01*
X210949918Y-125165400D01*
X211130082Y-125165400D01*
X211306778Y-125200547D01*
G37*
G36*
X202473674Y-124333465D02*
G01*
X202511367Y-124344899D01*
X202546103Y-124363466D01*
X202576548Y-124388452D01*
X202601534Y-124418897D01*
X202620101Y-124453633D01*
X202631535Y-124491326D01*
X202636000Y-124536661D01*
X202636000Y-125623339D01*
X202631535Y-125668674D01*
X202620101Y-125706367D01*
X202601534Y-125741103D01*
X202576548Y-125771548D01*
X202546103Y-125796534D01*
X202511367Y-125815101D01*
X202473674Y-125826535D01*
X202428339Y-125831000D01*
X201591661Y-125831000D01*
X201546326Y-125826535D01*
X201508633Y-125815101D01*
X201473897Y-125796534D01*
X201443452Y-125771548D01*
X201418466Y-125741103D01*
X201399899Y-125706367D01*
X201388465Y-125668674D01*
X201384000Y-125623339D01*
X201384000Y-124536661D01*
X201388465Y-124491326D01*
X201399899Y-124453633D01*
X201418466Y-124418897D01*
X201443452Y-124388452D01*
X201473897Y-124363466D01*
X201508633Y-124344899D01*
X201546326Y-124333465D01*
X201591661Y-124329000D01*
X202428339Y-124329000D01*
X202473674Y-124333465D01*
G37*
G36*
X204523674Y-124333465D02*
G01*
X204561367Y-124344899D01*
X204596103Y-124363466D01*
X204626548Y-124388452D01*
X204651534Y-124418897D01*
X204670101Y-124453633D01*
X204681535Y-124491326D01*
X204686000Y-124536661D01*
X204686000Y-125623339D01*
X204681535Y-125668674D01*
X204670101Y-125706367D01*
X204651534Y-125741103D01*
X204626548Y-125771548D01*
X204596103Y-125796534D01*
X204561367Y-125815101D01*
X204523674Y-125826535D01*
X204478339Y-125831000D01*
X203641661Y-125831000D01*
X203596326Y-125826535D01*
X203558633Y-125815101D01*
X203523897Y-125796534D01*
X203493452Y-125771548D01*
X203468466Y-125741103D01*
X203449899Y-125706367D01*
X203438465Y-125668674D01*
X203434000Y-125623339D01*
X203434000Y-124536661D01*
X203438465Y-124491326D01*
X203449899Y-124453633D01*
X203468466Y-124418897D01*
X203493452Y-124388452D01*
X203523897Y-124363466D01*
X203558633Y-124344899D01*
X203596326Y-124333465D01*
X203641661Y-124329000D01*
X204478339Y-124329000D01*
X204523674Y-124333465D01*
G37*
G36*
X218092205Y-123905200D02*
G01*
X218225097Y-123945513D01*
X218347571Y-124010977D01*
X218454923Y-124099077D01*
X218543023Y-124206429D01*
X218608487Y-124328903D01*
X218648800Y-124461795D01*
X218662411Y-124600000D01*
X218648800Y-124738205D01*
X218608487Y-124871097D01*
X218543023Y-124993571D01*
X218454923Y-125100923D01*
X218347571Y-125189023D01*
X218225097Y-125254487D01*
X218092205Y-125294800D01*
X217988636Y-125305000D01*
X216611364Y-125305000D01*
X216507795Y-125294800D01*
X216374903Y-125254487D01*
X216252429Y-125189023D01*
X216145077Y-125100923D01*
X216056977Y-124993571D01*
X215991513Y-124871097D01*
X215951200Y-124738205D01*
X215937589Y-124600000D01*
X215951200Y-124461795D01*
X215991513Y-124328903D01*
X216056977Y-124206429D01*
X216145077Y-124099077D01*
X216252429Y-124010977D01*
X216374903Y-123945513D01*
X216507795Y-123905200D01*
X216611364Y-123895000D01*
X217988636Y-123895000D01*
X218092205Y-123905200D01*
G37*
G36*
X224989890Y-123974017D02*
G01*
X225079119Y-124010977D01*
X225108364Y-124023091D01*
X225214988Y-124094335D01*
X225305665Y-124185012D01*
X225349367Y-124250416D01*
X225376910Y-124291638D01*
X225425983Y-124410110D01*
X225443270Y-124497017D01*
X225451000Y-124535882D01*
X225451000Y-124664118D01*
X225425983Y-124789890D01*
X225376909Y-124908364D01*
X225305665Y-125014988D01*
X225214988Y-125105665D01*
X225108364Y-125176909D01*
X225108363Y-125176910D01*
X225108362Y-125176910D01*
X224989890Y-125225983D01*
X224864119Y-125251000D01*
X224735881Y-125251000D01*
X224610110Y-125225983D01*
X224491638Y-125176910D01*
X224491637Y-125176910D01*
X224491636Y-125176909D01*
X224385012Y-125105665D01*
X224294335Y-125014988D01*
X224223091Y-124908364D01*
X224174017Y-124789890D01*
X224149000Y-124664118D01*
X224149000Y-124535882D01*
X224156731Y-124497017D01*
X224174017Y-124410110D01*
X224223090Y-124291638D01*
X224250634Y-124250416D01*
X224294335Y-124185012D01*
X224385012Y-124094335D01*
X224491636Y-124023091D01*
X224520882Y-124010977D01*
X224610110Y-123974017D01*
X224735881Y-123949000D01*
X224864119Y-123949000D01*
X224989890Y-123974017D01*
G37*
G36*
X222489890Y-123974017D02*
G01*
X222579119Y-124010977D01*
X222608364Y-124023091D01*
X222714988Y-124094335D01*
X222805665Y-124185012D01*
X222849367Y-124250416D01*
X222876910Y-124291638D01*
X222925983Y-124410110D01*
X222943270Y-124497017D01*
X222951000Y-124535882D01*
X222951000Y-124664118D01*
X222925983Y-124789890D01*
X222876909Y-124908364D01*
X222805665Y-125014988D01*
X222714988Y-125105665D01*
X222608364Y-125176909D01*
X222608363Y-125176910D01*
X222608362Y-125176910D01*
X222489890Y-125225983D01*
X222364119Y-125251000D01*
X222235881Y-125251000D01*
X222110110Y-125225983D01*
X221991638Y-125176910D01*
X221991637Y-125176910D01*
X221991636Y-125176909D01*
X221885012Y-125105665D01*
X221794335Y-125014988D01*
X221723091Y-124908364D01*
X221674017Y-124789890D01*
X221649000Y-124664118D01*
X221649000Y-124535882D01*
X221656731Y-124497017D01*
X221674017Y-124410110D01*
X221723090Y-124291638D01*
X221750634Y-124250416D01*
X221794335Y-124185012D01*
X221885012Y-124094335D01*
X221991636Y-124023091D01*
X222020882Y-124010977D01*
X222110110Y-123974017D01*
X222235881Y-123949000D01*
X222364119Y-123949000D01*
X222489890Y-123974017D01*
G37*
G36*
X211306778Y-122660547D02*
G01*
X211473224Y-122729491D01*
X211623022Y-122829583D01*
X211750417Y-122956978D01*
X211850509Y-123106776D01*
X211919453Y-123273222D01*
X211954600Y-123449918D01*
X211954600Y-123630082D01*
X211919453Y-123806778D01*
X211850509Y-123973224D01*
X211750417Y-124123022D01*
X211623022Y-124250417D01*
X211473224Y-124350509D01*
X211306778Y-124419453D01*
X211130082Y-124454600D01*
X210949918Y-124454600D01*
X210773222Y-124419453D01*
X210606776Y-124350509D01*
X210456978Y-124250417D01*
X210329583Y-124123022D01*
X210229491Y-123973224D01*
X210160547Y-123806778D01*
X210125400Y-123630082D01*
X210125400Y-123449918D01*
X210160547Y-123273222D01*
X210229491Y-123106776D01*
X210329583Y-122956978D01*
X210456978Y-122829583D01*
X210606776Y-122729491D01*
X210773222Y-122660547D01*
X210949918Y-122625400D01*
X211130082Y-122625400D01*
X211306778Y-122660547D01*
G37*
G36*
X208766778Y-122660547D02*
G01*
X208933224Y-122729491D01*
X209083022Y-122829583D01*
X209210417Y-122956978D01*
X209310509Y-123106776D01*
X209379453Y-123273222D01*
X209414600Y-123449918D01*
X209414600Y-123630082D01*
X209379453Y-123806778D01*
X209310509Y-123973224D01*
X209210417Y-124123022D01*
X209083022Y-124250417D01*
X208933224Y-124350509D01*
X208766778Y-124419453D01*
X208590082Y-124454600D01*
X208409918Y-124454600D01*
X208233222Y-124419453D01*
X208066776Y-124350509D01*
X207916978Y-124250417D01*
X207789583Y-124123022D01*
X207689491Y-123973224D01*
X207620547Y-123806778D01*
X207585400Y-123630082D01*
X207585400Y-123449918D01*
X207620547Y-123273222D01*
X207689491Y-123106776D01*
X207789583Y-122956978D01*
X207916978Y-122829583D01*
X208066776Y-122729491D01*
X208233222Y-122660547D01*
X208409918Y-122625400D01*
X208590082Y-122625400D01*
X208766778Y-122660547D01*
G37*
G36*
X202473674Y-122303465D02*
G01*
X202511367Y-122314899D01*
X202546103Y-122333466D01*
X202576548Y-122358452D01*
X202601534Y-122388897D01*
X202620101Y-122423633D01*
X202631535Y-122461326D01*
X202636000Y-122506661D01*
X202636000Y-123593339D01*
X202631535Y-123638674D01*
X202620101Y-123676367D01*
X202601534Y-123711103D01*
X202576548Y-123741548D01*
X202546103Y-123766534D01*
X202511367Y-123785101D01*
X202473674Y-123796535D01*
X202428339Y-123801000D01*
X201591661Y-123801000D01*
X201546326Y-123796535D01*
X201508633Y-123785101D01*
X201473897Y-123766534D01*
X201443452Y-123741548D01*
X201418466Y-123711103D01*
X201399899Y-123676367D01*
X201388465Y-123638674D01*
X201384000Y-123593339D01*
X201384000Y-122506661D01*
X201388465Y-122461326D01*
X201399899Y-122423633D01*
X201418466Y-122388897D01*
X201443452Y-122358452D01*
X201473897Y-122333466D01*
X201508633Y-122314899D01*
X201546326Y-122303465D01*
X201591661Y-122299000D01*
X202428339Y-122299000D01*
X202473674Y-122303465D01*
G37*
G36*
X204523674Y-122303465D02*
G01*
X204561367Y-122314899D01*
X204596103Y-122333466D01*
X204626548Y-122358452D01*
X204651534Y-122388897D01*
X204670101Y-122423633D01*
X204681535Y-122461326D01*
X204686000Y-122506661D01*
X204686000Y-123593339D01*
X204681535Y-123638674D01*
X204670101Y-123676367D01*
X204651534Y-123711103D01*
X204626548Y-123741548D01*
X204596103Y-123766534D01*
X204561367Y-123785101D01*
X204523674Y-123796535D01*
X204478339Y-123801000D01*
X203641661Y-123801000D01*
X203596326Y-123796535D01*
X203558633Y-123785101D01*
X203523897Y-123766534D01*
X203493452Y-123741548D01*
X203468466Y-123711103D01*
X203449899Y-123676367D01*
X203438465Y-123638674D01*
X203434000Y-123593339D01*
X203434000Y-122506661D01*
X203438465Y-122461326D01*
X203449899Y-122423633D01*
X203468466Y-122388897D01*
X203493452Y-122358452D01*
X203523897Y-122333466D01*
X203558633Y-122314899D01*
X203596326Y-122303465D01*
X203641661Y-122299000D01*
X204478339Y-122299000D01*
X204523674Y-122303465D01*
G37*
G36*
X81956000Y-122461000D02*
G01*
X80304000Y-122461000D01*
X80304000Y-121059000D01*
X81956000Y-121059000D01*
X81956000Y-122461000D01*
G37*
G36*
X89906000Y-122461000D02*
G01*
X88254000Y-122461000D01*
X88254000Y-121059000D01*
X89906000Y-121059000D01*
X89906000Y-122461000D01*
G37*
G36*
X211306778Y-120120547D02*
G01*
X211473224Y-120189491D01*
X211623022Y-120289583D01*
X211750417Y-120416978D01*
X211850509Y-120566776D01*
X211919453Y-120733222D01*
X211954600Y-120909918D01*
X211954600Y-121090082D01*
X211919453Y-121266778D01*
X211850509Y-121433224D01*
X211750417Y-121583022D01*
X211623022Y-121710417D01*
X211473224Y-121810509D01*
X211306778Y-121879453D01*
X211130082Y-121914600D01*
X210949918Y-121914600D01*
X210773222Y-121879453D01*
X210606776Y-121810509D01*
X210456978Y-121710417D01*
X210329583Y-121583022D01*
X210229491Y-121433224D01*
X210160547Y-121266778D01*
X210125400Y-121090082D01*
X210125400Y-120909918D01*
X210160547Y-120733222D01*
X210229491Y-120566776D01*
X210329583Y-120416978D01*
X210456978Y-120289583D01*
X210606776Y-120189491D01*
X210773222Y-120120547D01*
X210949918Y-120085400D01*
X211130082Y-120085400D01*
X211306778Y-120120547D01*
G37*
G36*
X209414600Y-121914600D02*
G01*
X207585400Y-121914600D01*
X207585400Y-120085400D01*
X209414600Y-120085400D01*
X209414600Y-121914600D01*
G37*
G36*
X223746162Y-117864368D02*
G01*
X224055724Y-117992593D01*
X224055725Y-117992594D01*
X224334324Y-118178747D01*
X224571253Y-118415676D01*
X224695637Y-118601830D01*
X224757407Y-118694276D01*
X224885632Y-119003838D01*
X224951000Y-119332465D01*
X224951000Y-119667535D01*
X224885632Y-119996162D01*
X224757407Y-120305724D01*
X224757406Y-120305725D01*
X224571253Y-120584324D01*
X224334324Y-120821253D01*
X224201627Y-120909918D01*
X224055724Y-121007407D01*
X223746162Y-121135632D01*
X223417535Y-121201000D01*
X223082465Y-121201000D01*
X222753838Y-121135632D01*
X222444276Y-121007407D01*
X222298373Y-120909918D01*
X222165676Y-120821253D01*
X221928747Y-120584324D01*
X221742594Y-120305725D01*
X221742593Y-120305724D01*
X221614368Y-119996162D01*
X221549000Y-119667535D01*
X221549000Y-119332465D01*
X221614368Y-119003838D01*
X221742593Y-118694276D01*
X221804363Y-118601830D01*
X221928747Y-118415676D01*
X222165676Y-118178747D01*
X222444275Y-117992594D01*
X222444276Y-117992593D01*
X222753838Y-117864368D01*
X223082465Y-117799000D01*
X223417535Y-117799000D01*
X223746162Y-117864368D01*
G37*
G36*
X89906000Y-117961000D02*
G01*
X88254000Y-117961000D01*
X88254000Y-116559000D01*
X89906000Y-116559000D01*
X89906000Y-117961000D01*
G37*
G36*
X81956000Y-117961000D02*
G01*
X80304000Y-117961000D01*
X80304000Y-116559000D01*
X81956000Y-116559000D01*
X81956000Y-117961000D01*
G37*
G36*
X217987142Y-115368242D02*
G01*
X218135101Y-115429529D01*
X218268255Y-115518499D01*
X218381501Y-115631745D01*
X218470471Y-115764899D01*
X218531758Y-115912858D01*
X218563000Y-116069925D01*
X218563000Y-116230075D01*
X218531758Y-116387142D01*
X218470471Y-116535101D01*
X218381501Y-116668255D01*
X218268255Y-116781501D01*
X218135101Y-116870471D01*
X217987142Y-116931758D01*
X217830075Y-116963000D01*
X217669925Y-116963000D01*
X217512858Y-116931758D01*
X217364899Y-116870471D01*
X217231745Y-116781501D01*
X217118499Y-116668255D01*
X217029529Y-116535101D01*
X216968242Y-116387142D01*
X216937000Y-116230075D01*
X216937000Y-116069925D01*
X216968242Y-115912858D01*
X217029529Y-115764899D01*
X217118499Y-115631745D01*
X217231745Y-115518499D01*
X217364899Y-115429529D01*
X217512858Y-115368242D01*
X217669925Y-115337000D01*
X217830075Y-115337000D01*
X217987142Y-115368242D01*
G37*
G36*
X220487142Y-115368242D02*
G01*
X220635101Y-115429529D01*
X220768255Y-115518499D01*
X220881501Y-115631745D01*
X220970471Y-115764899D01*
X221031758Y-115912858D01*
X221063000Y-116069925D01*
X221063000Y-116230075D01*
X221031758Y-116387142D01*
X220970471Y-116535101D01*
X220881501Y-116668255D01*
X220768255Y-116781501D01*
X220635101Y-116870471D01*
X220487142Y-116931758D01*
X220330075Y-116963000D01*
X220169925Y-116963000D01*
X220012858Y-116931758D01*
X219864899Y-116870471D01*
X219731745Y-116781501D01*
X219618499Y-116668255D01*
X219529529Y-116535101D01*
X219468242Y-116387142D01*
X219437000Y-116230075D01*
X219437000Y-116069925D01*
X219468242Y-115912858D01*
X219529529Y-115764899D01*
X219618499Y-115631745D01*
X219731745Y-115518499D01*
X219864899Y-115429529D01*
X220012858Y-115368242D01*
X220169925Y-115337000D01*
X220330075Y-115337000D01*
X220487142Y-115368242D01*
G37*
G36*
X220487142Y-113268242D02*
G01*
X220635101Y-113329529D01*
X220768255Y-113418499D01*
X220881501Y-113531745D01*
X220970471Y-113664899D01*
X221031758Y-113812858D01*
X221063000Y-113969925D01*
X221063000Y-114130075D01*
X221031758Y-114287142D01*
X220970471Y-114435101D01*
X220881501Y-114568255D01*
X220768255Y-114681501D01*
X220635101Y-114770471D01*
X220487142Y-114831758D01*
X220330075Y-114863000D01*
X220169925Y-114863000D01*
X220012858Y-114831758D01*
X219864899Y-114770471D01*
X219731745Y-114681501D01*
X219618499Y-114568255D01*
X219529529Y-114435101D01*
X219468242Y-114287142D01*
X219437000Y-114130075D01*
X219437000Y-113969925D01*
X219468242Y-113812858D01*
X219529529Y-113664899D01*
X219618499Y-113531745D01*
X219731745Y-113418499D01*
X219864899Y-113329529D01*
X220012858Y-113268242D01*
X220169925Y-113237000D01*
X220330075Y-113237000D01*
X220487142Y-113268242D01*
G37*
G36*
X224546162Y-111114368D02*
G01*
X224855724Y-111242593D01*
X224855725Y-111242594D01*
X225134324Y-111428747D01*
X225371253Y-111665676D01*
X225400132Y-111708897D01*
X225557407Y-111944276D01*
X225685632Y-112253838D01*
X225751000Y-112582465D01*
X225751000Y-112917535D01*
X225685632Y-113246162D01*
X225557407Y-113555724D01*
X225557406Y-113555725D01*
X225371253Y-113834324D01*
X225134324Y-114071253D01*
X225046290Y-114130075D01*
X224855724Y-114257407D01*
X224546162Y-114385632D01*
X224217535Y-114451000D01*
X223882465Y-114451000D01*
X223553838Y-114385632D01*
X223244276Y-114257407D01*
X223053710Y-114130075D01*
X222965676Y-114071253D01*
X222728747Y-113834324D01*
X222542594Y-113555725D01*
X222542593Y-113555724D01*
X222414368Y-113246162D01*
X222349000Y-112917535D01*
X222349000Y-112582465D01*
X222414368Y-112253838D01*
X222542593Y-111944276D01*
X222699868Y-111708897D01*
X222728747Y-111665676D01*
X222965676Y-111428747D01*
X223244275Y-111242594D01*
X223244276Y-111242593D01*
X223553838Y-111114368D01*
X223882465Y-111049000D01*
X224217535Y-111049000D01*
X224546162Y-111114368D01*
G37*
G36*
X87553674Y-111623465D02*
G01*
X87591367Y-111634899D01*
X87626103Y-111653466D01*
X87656548Y-111678452D01*
X87681534Y-111708897D01*
X87700101Y-111743633D01*
X87711535Y-111781326D01*
X87716000Y-111826661D01*
X87716000Y-112913339D01*
X87711535Y-112958674D01*
X87700101Y-112996367D01*
X87681534Y-113031103D01*
X87656548Y-113061548D01*
X87626103Y-113086534D01*
X87591367Y-113105101D01*
X87553674Y-113116535D01*
X87508339Y-113121000D01*
X86671661Y-113121000D01*
X86626326Y-113116535D01*
X86588633Y-113105101D01*
X86553897Y-113086534D01*
X86523452Y-113061548D01*
X86498466Y-113031103D01*
X86479899Y-112996367D01*
X86468465Y-112958674D01*
X86464000Y-112913339D01*
X86464000Y-111826661D01*
X86468465Y-111781326D01*
X86479899Y-111743633D01*
X86498466Y-111708897D01*
X86523452Y-111678452D01*
X86553897Y-111653466D01*
X86588633Y-111634899D01*
X86626326Y-111623465D01*
X86671661Y-111619000D01*
X87508339Y-111619000D01*
X87553674Y-111623465D01*
G37*
G36*
X85503674Y-111623465D02*
G01*
X85541367Y-111634899D01*
X85576103Y-111653466D01*
X85606548Y-111678452D01*
X85631534Y-111708897D01*
X85650101Y-111743633D01*
X85661535Y-111781326D01*
X85666000Y-111826661D01*
X85666000Y-112913339D01*
X85661535Y-112958674D01*
X85650101Y-112996367D01*
X85631534Y-113031103D01*
X85606548Y-113061548D01*
X85576103Y-113086534D01*
X85541367Y-113105101D01*
X85503674Y-113116535D01*
X85458339Y-113121000D01*
X84621661Y-113121000D01*
X84576326Y-113116535D01*
X84538633Y-113105101D01*
X84503897Y-113086534D01*
X84473452Y-113061548D01*
X84448466Y-113031103D01*
X84429899Y-112996367D01*
X84418465Y-112958674D01*
X84414000Y-112913339D01*
X84414000Y-111826661D01*
X84418465Y-111781326D01*
X84429899Y-111743633D01*
X84448466Y-111708897D01*
X84473452Y-111678452D01*
X84503897Y-111653466D01*
X84538633Y-111634899D01*
X84576326Y-111623465D01*
X84621661Y-111619000D01*
X85458339Y-111619000D01*
X85503674Y-111623465D01*
G37*
G36*
X220487142Y-110668242D02*
G01*
X220635101Y-110729529D01*
X220768255Y-110818499D01*
X220881501Y-110931745D01*
X220970471Y-111064899D01*
X221031758Y-111212858D01*
X221063000Y-111369925D01*
X221063000Y-111530075D01*
X221031758Y-111687142D01*
X220970471Y-111835101D01*
X220881501Y-111968255D01*
X220768255Y-112081501D01*
X220635101Y-112170471D01*
X220487142Y-112231758D01*
X220330075Y-112263000D01*
X220169925Y-112263000D01*
X220012858Y-112231758D01*
X219864899Y-112170471D01*
X219731745Y-112081501D01*
X219618499Y-111968255D01*
X219529529Y-111835101D01*
X219468242Y-111687142D01*
X219437000Y-111530075D01*
X219437000Y-111369925D01*
X219468242Y-111212858D01*
X219529529Y-111064899D01*
X219618499Y-110931745D01*
X219731745Y-110818499D01*
X219864899Y-110729529D01*
X220012858Y-110668242D01*
X220169925Y-110637000D01*
X220330075Y-110637000D01*
X220487142Y-110668242D01*
G37*
G36*
X81951000Y-110851000D02*
G01*
X80299000Y-110851000D01*
X80299000Y-109449000D01*
X81951000Y-109449000D01*
X81951000Y-110851000D01*
G37*
G36*
X89901000Y-110851000D02*
G01*
X88249000Y-110851000D01*
X88249000Y-109449000D01*
X89901000Y-109449000D01*
X89901000Y-110851000D01*
G37*
G36*
X220487142Y-108568242D02*
G01*
X220635101Y-108629529D01*
X220768255Y-108718499D01*
X220881501Y-108831745D01*
X220970471Y-108964899D01*
X221031758Y-109112858D01*
X221063000Y-109269925D01*
X221063000Y-109430075D01*
X221031758Y-109587142D01*
X220970471Y-109735101D01*
X220881501Y-109868255D01*
X220768255Y-109981501D01*
X220635101Y-110070471D01*
X220487142Y-110131758D01*
X220330075Y-110163000D01*
X220169925Y-110163000D01*
X220012858Y-110131758D01*
X219864899Y-110070471D01*
X219731745Y-109981501D01*
X219618499Y-109868255D01*
X219529529Y-109735101D01*
X219468242Y-109587142D01*
X219437000Y-109430075D01*
X219437000Y-109269925D01*
X219468242Y-109112858D01*
X219529529Y-108964899D01*
X219618499Y-108831745D01*
X219731745Y-108718499D01*
X219864899Y-108629529D01*
X220012858Y-108568242D01*
X220169925Y-108537000D01*
X220330075Y-108537000D01*
X220487142Y-108568242D01*
G37*
G36*
X217987142Y-108568242D02*
G01*
X218135101Y-108629529D01*
X218268255Y-108718499D01*
X218381501Y-108831745D01*
X218470471Y-108964899D01*
X218531758Y-109112858D01*
X218563000Y-109269925D01*
X218563000Y-109430075D01*
X218531758Y-109587142D01*
X218470471Y-109735101D01*
X218381501Y-109868255D01*
X218268255Y-109981501D01*
X218135101Y-110070471D01*
X217987142Y-110131758D01*
X217830075Y-110163000D01*
X217669925Y-110163000D01*
X217512858Y-110131758D01*
X217364899Y-110070471D01*
X217231745Y-109981501D01*
X217118499Y-109868255D01*
X217029529Y-109735101D01*
X216968242Y-109587142D01*
X216937000Y-109430075D01*
X216937000Y-109269925D01*
X216968242Y-109112858D01*
X217029529Y-108964899D01*
X217118499Y-108831745D01*
X217231745Y-108718499D01*
X217364899Y-108629529D01*
X217512858Y-108568242D01*
X217669925Y-108537000D01*
X217830075Y-108537000D01*
X217987142Y-108568242D01*
G37*
G36*
X158643674Y-106273465D02*
G01*
X158681367Y-106284899D01*
X158716103Y-106303466D01*
X158746548Y-106328452D01*
X158771534Y-106358897D01*
X158790101Y-106393633D01*
X158801535Y-106431326D01*
X158806000Y-106476661D01*
X158806000Y-107563339D01*
X158801535Y-107608674D01*
X158790101Y-107646367D01*
X158771534Y-107681103D01*
X158746548Y-107711548D01*
X158716103Y-107736534D01*
X158681367Y-107755101D01*
X158643674Y-107766535D01*
X158598339Y-107771000D01*
X157761661Y-107771000D01*
X157716326Y-107766535D01*
X157678633Y-107755101D01*
X157643897Y-107736534D01*
X157613452Y-107711548D01*
X157588466Y-107681103D01*
X157569899Y-107646367D01*
X157558465Y-107608674D01*
X157554000Y-107563339D01*
X157554000Y-106476661D01*
X157558465Y-106431326D01*
X157569899Y-106393633D01*
X157588466Y-106358897D01*
X157613452Y-106328452D01*
X157643897Y-106303466D01*
X157678633Y-106284899D01*
X157716326Y-106273465D01*
X157761661Y-106269000D01*
X158598339Y-106269000D01*
X158643674Y-106273465D01*
G37*
G36*
X156593674Y-106273465D02*
G01*
X156631367Y-106284899D01*
X156666103Y-106303466D01*
X156696548Y-106328452D01*
X156721534Y-106358897D01*
X156740101Y-106393633D01*
X156751535Y-106431326D01*
X156756000Y-106476661D01*
X156756000Y-107563339D01*
X156751535Y-107608674D01*
X156740101Y-107646367D01*
X156721534Y-107681103D01*
X156696548Y-107711548D01*
X156666103Y-107736534D01*
X156631367Y-107755101D01*
X156593674Y-107766535D01*
X156548339Y-107771000D01*
X155711661Y-107771000D01*
X155666326Y-107766535D01*
X155628633Y-107755101D01*
X155593897Y-107736534D01*
X155563452Y-107711548D01*
X155538466Y-107681103D01*
X155519899Y-107646367D01*
X155508465Y-107608674D01*
X155504000Y-107563339D01*
X155504000Y-106476661D01*
X155508465Y-106431326D01*
X155519899Y-106393633D01*
X155538466Y-106358897D01*
X155563452Y-106328452D01*
X155593897Y-106303466D01*
X155628633Y-106284899D01*
X155666326Y-106273465D01*
X155711661Y-106269000D01*
X156548339Y-106269000D01*
X156593674Y-106273465D01*
G37*
G36*
X188023674Y-106263465D02*
G01*
X188061367Y-106274899D01*
X188096103Y-106293466D01*
X188126548Y-106318452D01*
X188151534Y-106348897D01*
X188170101Y-106383633D01*
X188181535Y-106421326D01*
X188186000Y-106466661D01*
X188186000Y-107553339D01*
X188181535Y-107598674D01*
X188170101Y-107636367D01*
X188151534Y-107671103D01*
X188126548Y-107701548D01*
X188096103Y-107726534D01*
X188061367Y-107745101D01*
X188023674Y-107756535D01*
X187978339Y-107761000D01*
X187141661Y-107761000D01*
X187096326Y-107756535D01*
X187058633Y-107745101D01*
X187023897Y-107726534D01*
X186993452Y-107701548D01*
X186968466Y-107671103D01*
X186949899Y-107636367D01*
X186938465Y-107598674D01*
X186934000Y-107553339D01*
X186934000Y-106466661D01*
X186938465Y-106421326D01*
X186949899Y-106383633D01*
X186968466Y-106348897D01*
X186993452Y-106318452D01*
X187023897Y-106293466D01*
X187058633Y-106274899D01*
X187096326Y-106263465D01*
X187141661Y-106259000D01*
X187978339Y-106259000D01*
X188023674Y-106263465D01*
G37*
G36*
X112663674Y-106263465D02*
G01*
X112701367Y-106274899D01*
X112736103Y-106293466D01*
X112766548Y-106318452D01*
X112791534Y-106348897D01*
X112810101Y-106383633D01*
X112821535Y-106421326D01*
X112826000Y-106466661D01*
X112826000Y-107553339D01*
X112821535Y-107598674D01*
X112810101Y-107636367D01*
X112791534Y-107671103D01*
X112766548Y-107701548D01*
X112736103Y-107726534D01*
X112701367Y-107745101D01*
X112663674Y-107756535D01*
X112618339Y-107761000D01*
X111781661Y-107761000D01*
X111736326Y-107756535D01*
X111698633Y-107745101D01*
X111663897Y-107726534D01*
X111633452Y-107701548D01*
X111608466Y-107671103D01*
X111589899Y-107636367D01*
X111578465Y-107598674D01*
X111574000Y-107553339D01*
X111574000Y-106466661D01*
X111578465Y-106421326D01*
X111589899Y-106383633D01*
X111608466Y-106348897D01*
X111633452Y-106318452D01*
X111663897Y-106293466D01*
X111698633Y-106274899D01*
X111736326Y-106263465D01*
X111781661Y-106259000D01*
X112618339Y-106259000D01*
X112663674Y-106263465D01*
G37*
G36*
X185973674Y-106263465D02*
G01*
X186011367Y-106274899D01*
X186046103Y-106293466D01*
X186076548Y-106318452D01*
X186101534Y-106348897D01*
X186120101Y-106383633D01*
X186131535Y-106421326D01*
X186136000Y-106466661D01*
X186136000Y-107553339D01*
X186131535Y-107598674D01*
X186120101Y-107636367D01*
X186101534Y-107671103D01*
X186076548Y-107701548D01*
X186046103Y-107726534D01*
X186011367Y-107745101D01*
X185973674Y-107756535D01*
X185928339Y-107761000D01*
X185091661Y-107761000D01*
X185046326Y-107756535D01*
X185008633Y-107745101D01*
X184973897Y-107726534D01*
X184943452Y-107701548D01*
X184918466Y-107671103D01*
X184899899Y-107636367D01*
X184888465Y-107598674D01*
X184884000Y-107553339D01*
X184884000Y-106466661D01*
X184888465Y-106421326D01*
X184899899Y-106383633D01*
X184918466Y-106348897D01*
X184943452Y-106318452D01*
X184973897Y-106293466D01*
X185008633Y-106274899D01*
X185046326Y-106263465D01*
X185091661Y-106259000D01*
X185928339Y-106259000D01*
X185973674Y-106263465D01*
G37*
G36*
X114713674Y-106263465D02*
G01*
X114751367Y-106274899D01*
X114786103Y-106293466D01*
X114816548Y-106318452D01*
X114841534Y-106348897D01*
X114860101Y-106383633D01*
X114871535Y-106421326D01*
X114876000Y-106466661D01*
X114876000Y-107553339D01*
X114871535Y-107598674D01*
X114860101Y-107636367D01*
X114841534Y-107671103D01*
X114816548Y-107701548D01*
X114786103Y-107726534D01*
X114751367Y-107745101D01*
X114713674Y-107756535D01*
X114668339Y-107761000D01*
X113831661Y-107761000D01*
X113786326Y-107756535D01*
X113748633Y-107745101D01*
X113713897Y-107726534D01*
X113683452Y-107701548D01*
X113658466Y-107671103D01*
X113639899Y-107636367D01*
X113628465Y-107598674D01*
X113624000Y-107553339D01*
X113624000Y-106466661D01*
X113628465Y-106421326D01*
X113639899Y-106383633D01*
X113658466Y-106348897D01*
X113683452Y-106318452D01*
X113713897Y-106293466D01*
X113748633Y-106274899D01*
X113786326Y-106263465D01*
X113831661Y-106259000D01*
X114668339Y-106259000D01*
X114713674Y-106263465D01*
G37*
G36*
X171318674Y-106253465D02*
G01*
X171356367Y-106264899D01*
X171391103Y-106283466D01*
X171421548Y-106308452D01*
X171446534Y-106338897D01*
X171465101Y-106373633D01*
X171476535Y-106411326D01*
X171481000Y-106456661D01*
X171481000Y-107543339D01*
X171476535Y-107588674D01*
X171465101Y-107626367D01*
X171446534Y-107661103D01*
X171421548Y-107691548D01*
X171391103Y-107716534D01*
X171356367Y-107735101D01*
X171318674Y-107746535D01*
X171273339Y-107751000D01*
X170436661Y-107751000D01*
X170391326Y-107746535D01*
X170353633Y-107735101D01*
X170318897Y-107716534D01*
X170288452Y-107691548D01*
X170263466Y-107661103D01*
X170244899Y-107626367D01*
X170233465Y-107588674D01*
X170229000Y-107543339D01*
X170229000Y-106456661D01*
X170233465Y-106411326D01*
X170244899Y-106373633D01*
X170263466Y-106338897D01*
X170288452Y-106308452D01*
X170318897Y-106283466D01*
X170353633Y-106264899D01*
X170391326Y-106253465D01*
X170436661Y-106249000D01*
X171273339Y-106249000D01*
X171318674Y-106253465D01*
G37*
G36*
X127203674Y-106253465D02*
G01*
X127241367Y-106264899D01*
X127276103Y-106283466D01*
X127306548Y-106308452D01*
X127331534Y-106338897D01*
X127350101Y-106373633D01*
X127361535Y-106411326D01*
X127366000Y-106456661D01*
X127366000Y-107543339D01*
X127361535Y-107588674D01*
X127350101Y-107626367D01*
X127331534Y-107661103D01*
X127306548Y-107691548D01*
X127276103Y-107716534D01*
X127241367Y-107735101D01*
X127203674Y-107746535D01*
X127158339Y-107751000D01*
X126321661Y-107751000D01*
X126276326Y-107746535D01*
X126238633Y-107735101D01*
X126203897Y-107716534D01*
X126173452Y-107691548D01*
X126148466Y-107661103D01*
X126129899Y-107626367D01*
X126118465Y-107588674D01*
X126114000Y-107543339D01*
X126114000Y-106456661D01*
X126118465Y-106411326D01*
X126129899Y-106373633D01*
X126148466Y-106338897D01*
X126173452Y-106308452D01*
X126203897Y-106283466D01*
X126238633Y-106264899D01*
X126276326Y-106253465D01*
X126321661Y-106249000D01*
X127158339Y-106249000D01*
X127203674Y-106253465D01*
G37*
G36*
X129253674Y-106253465D02*
G01*
X129291367Y-106264899D01*
X129326103Y-106283466D01*
X129356548Y-106308452D01*
X129381534Y-106338897D01*
X129400101Y-106373633D01*
X129411535Y-106411326D01*
X129416000Y-106456661D01*
X129416000Y-107543339D01*
X129411535Y-107588674D01*
X129400101Y-107626367D01*
X129381534Y-107661103D01*
X129356548Y-107691548D01*
X129326103Y-107716534D01*
X129291367Y-107735101D01*
X129253674Y-107746535D01*
X129208339Y-107751000D01*
X128371661Y-107751000D01*
X128326326Y-107746535D01*
X128288633Y-107735101D01*
X128253897Y-107716534D01*
X128223452Y-107691548D01*
X128198466Y-107661103D01*
X128179899Y-107626367D01*
X128168465Y-107588674D01*
X128164000Y-107543339D01*
X128164000Y-106456661D01*
X128168465Y-106411326D01*
X128179899Y-106373633D01*
X128198466Y-106338897D01*
X128223452Y-106308452D01*
X128253897Y-106283466D01*
X128288633Y-106264899D01*
X128326326Y-106253465D01*
X128371661Y-106249000D01*
X129208339Y-106249000D01*
X129253674Y-106253465D01*
G37*
G36*
X141853674Y-106253465D02*
G01*
X141891367Y-106264899D01*
X141926103Y-106283466D01*
X141956548Y-106308452D01*
X141981534Y-106338897D01*
X142000101Y-106373633D01*
X142011535Y-106411326D01*
X142016000Y-106456661D01*
X142016000Y-107543339D01*
X142011535Y-107588674D01*
X142000101Y-107626367D01*
X141981534Y-107661103D01*
X141956548Y-107691548D01*
X141926103Y-107716534D01*
X141891367Y-107735101D01*
X141853674Y-107746535D01*
X141808339Y-107751000D01*
X140971661Y-107751000D01*
X140926326Y-107746535D01*
X140888633Y-107735101D01*
X140853897Y-107716534D01*
X140823452Y-107691548D01*
X140798466Y-107661103D01*
X140779899Y-107626367D01*
X140768465Y-107588674D01*
X140764000Y-107543339D01*
X140764000Y-106456661D01*
X140768465Y-106411326D01*
X140779899Y-106373633D01*
X140798466Y-106338897D01*
X140823452Y-106308452D01*
X140853897Y-106283466D01*
X140888633Y-106264899D01*
X140926326Y-106253465D01*
X140971661Y-106249000D01*
X141808339Y-106249000D01*
X141853674Y-106253465D01*
G37*
G36*
X143903674Y-106253465D02*
G01*
X143941367Y-106264899D01*
X143976103Y-106283466D01*
X144006548Y-106308452D01*
X144031534Y-106338897D01*
X144050101Y-106373633D01*
X144061535Y-106411326D01*
X144066000Y-106456661D01*
X144066000Y-107543339D01*
X144061535Y-107588674D01*
X144050101Y-107626367D01*
X144031534Y-107661103D01*
X144006548Y-107691548D01*
X143976103Y-107716534D01*
X143941367Y-107735101D01*
X143903674Y-107746535D01*
X143858339Y-107751000D01*
X143021661Y-107751000D01*
X142976326Y-107746535D01*
X142938633Y-107735101D01*
X142903897Y-107716534D01*
X142873452Y-107691548D01*
X142848466Y-107661103D01*
X142829899Y-107626367D01*
X142818465Y-107588674D01*
X142814000Y-107543339D01*
X142814000Y-106456661D01*
X142818465Y-106411326D01*
X142829899Y-106373633D01*
X142848466Y-106338897D01*
X142873452Y-106308452D01*
X142903897Y-106283466D01*
X142938633Y-106264899D01*
X142976326Y-106253465D01*
X143021661Y-106249000D01*
X143858339Y-106249000D01*
X143903674Y-106253465D01*
G37*
G36*
X173368674Y-106253465D02*
G01*
X173406367Y-106264899D01*
X173441103Y-106283466D01*
X173471548Y-106308452D01*
X173496534Y-106338897D01*
X173515101Y-106373633D01*
X173526535Y-106411326D01*
X173531000Y-106456661D01*
X173531000Y-107543339D01*
X173526535Y-107588674D01*
X173515101Y-107626367D01*
X173496534Y-107661103D01*
X173471548Y-107691548D01*
X173441103Y-107716534D01*
X173406367Y-107735101D01*
X173368674Y-107746535D01*
X173323339Y-107751000D01*
X172486661Y-107751000D01*
X172441326Y-107746535D01*
X172403633Y-107735101D01*
X172368897Y-107716534D01*
X172338452Y-107691548D01*
X172313466Y-107661103D01*
X172294899Y-107626367D01*
X172283465Y-107588674D01*
X172279000Y-107543339D01*
X172279000Y-106456661D01*
X172283465Y-106411326D01*
X172294899Y-106373633D01*
X172313466Y-106338897D01*
X172338452Y-106308452D01*
X172368897Y-106283466D01*
X172403633Y-106264899D01*
X172441326Y-106253465D01*
X172486661Y-106249000D01*
X173323339Y-106249000D01*
X173368674Y-106253465D01*
G37*
G36*
X223746162Y-104364368D02*
G01*
X224055724Y-104492593D01*
X224055725Y-104492594D01*
X224334324Y-104678747D01*
X224571253Y-104915676D01*
X224593519Y-104949000D01*
X224757407Y-105194276D01*
X224885632Y-105503838D01*
X224951000Y-105832465D01*
X224951000Y-106167535D01*
X224885632Y-106496162D01*
X224757407Y-106805724D01*
X224757406Y-106805725D01*
X224571253Y-107084324D01*
X224334324Y-107321253D01*
X224188293Y-107418827D01*
X224055724Y-107507407D01*
X223746162Y-107635632D01*
X223417535Y-107701000D01*
X223082465Y-107701000D01*
X222753838Y-107635632D01*
X222444276Y-107507407D01*
X222311707Y-107418827D01*
X222165676Y-107321253D01*
X221928747Y-107084324D01*
X221742594Y-106805725D01*
X221742593Y-106805724D01*
X221614368Y-106496162D01*
X221549000Y-106167535D01*
X221549000Y-105832465D01*
X221614368Y-105503838D01*
X221742593Y-105194276D01*
X221906481Y-104949000D01*
X221928747Y-104915676D01*
X222165676Y-104678747D01*
X222444275Y-104492594D01*
X222444276Y-104492593D01*
X222753838Y-104364368D01*
X223082465Y-104299000D01*
X223417535Y-104299000D01*
X223746162Y-104364368D01*
G37*
G36*
X98033674Y-106193465D02*
G01*
X98071367Y-106204899D01*
X98106103Y-106223466D01*
X98136548Y-106248452D01*
X98161534Y-106278897D01*
X98180101Y-106313633D01*
X98191535Y-106351326D01*
X98196000Y-106396661D01*
X98196000Y-107483339D01*
X98191535Y-107528674D01*
X98180101Y-107566367D01*
X98161534Y-107601103D01*
X98136548Y-107631548D01*
X98106103Y-107656534D01*
X98071367Y-107675101D01*
X98033674Y-107686535D01*
X97988339Y-107691000D01*
X97151661Y-107691000D01*
X97106326Y-107686535D01*
X97068633Y-107675101D01*
X97033897Y-107656534D01*
X97003452Y-107631548D01*
X96978466Y-107601103D01*
X96959899Y-107566367D01*
X96948465Y-107528674D01*
X96944000Y-107483339D01*
X96944000Y-106396661D01*
X96948465Y-106351326D01*
X96959899Y-106313633D01*
X96978466Y-106278897D01*
X97003452Y-106248452D01*
X97033897Y-106223466D01*
X97068633Y-106204899D01*
X97106326Y-106193465D01*
X97151661Y-106189000D01*
X97988339Y-106189000D01*
X98033674Y-106193465D01*
G37*
G36*
X100083674Y-106193465D02*
G01*
X100121367Y-106204899D01*
X100156103Y-106223466D01*
X100186548Y-106248452D01*
X100211534Y-106278897D01*
X100230101Y-106313633D01*
X100241535Y-106351326D01*
X100246000Y-106396661D01*
X100246000Y-107483339D01*
X100241535Y-107528674D01*
X100230101Y-107566367D01*
X100211534Y-107601103D01*
X100186548Y-107631548D01*
X100156103Y-107656534D01*
X100121367Y-107675101D01*
X100083674Y-107686535D01*
X100038339Y-107691000D01*
X99201661Y-107691000D01*
X99156326Y-107686535D01*
X99118633Y-107675101D01*
X99083897Y-107656534D01*
X99053452Y-107631548D01*
X99028466Y-107601103D01*
X99009899Y-107566367D01*
X98998465Y-107528674D01*
X98994000Y-107483339D01*
X98994000Y-106396661D01*
X98998465Y-106351326D01*
X99009899Y-106313633D01*
X99028466Y-106278897D01*
X99053452Y-106248452D01*
X99083897Y-106223466D01*
X99118633Y-106204899D01*
X99156326Y-106193465D01*
X99201661Y-106189000D01*
X100038339Y-106189000D01*
X100083674Y-106193465D01*
G37*
G36*
X81951000Y-106351000D02*
G01*
X80299000Y-106351000D01*
X80299000Y-104949000D01*
X81951000Y-104949000D01*
X81951000Y-106351000D01*
G37*
G36*
X89901000Y-106351000D02*
G01*
X88249000Y-106351000D01*
X88249000Y-104949000D01*
X89901000Y-104949000D01*
X89901000Y-106351000D01*
G37*
M02*
