M48
; DRILL file {KiCad 5.1.5+dfsg1-2} date Tue 18 Feb 2020 10:18:18 PM EET
; FORMAT={-:-/ absolute / metric / decimal}
; #@! TF.CreationDate,2020-02-18T22:18:18+02:00
; #@! TF.GenerationSoftware,Kicad,Pcbnew,5.1.5+dfsg1-2
; #@! TF.FileFunction,Plated,1,2,PTH
FMAT,2
METRIC
T1C0.400
T2C0.600
T3C0.762
T4C0.800
T5C1.000
T6C1.016
T7C2.300
%
G90
G05
T1
X80.1Y-149.6
X81.0Y-119.6
X82.45Y-113.65
X82.5Y-138.35
X82.85Y-126.05
X83.15Y-145.5
X84.175Y-133.375
X84.8Y-109.1
X85.19Y-124.86
X85.85Y-137.4
X86.7Y-123.15
X86.7Y-145.7
X87.0Y-110.3
X88.11Y-134.91
X88.38Y-126.851
X88.44Y-131.41
X88.52Y-129.18
X88.527Y-130.297
X89.608Y-132.908
X90.541Y-118.175
X90.85Y-125.02
X91.55Y-137.35
X91.61Y-105.14
X91.72Y-122.99
X91.91Y-110.95
X91.967Y-118.625
X92.85Y-114.43
X92.85Y-121.45
X92.98Y-128.51
X94.93Y-123.47
X95.0Y-115.9
X95.15Y-125.875
X95.152Y-108.628
X95.411Y-122.025
X95.75Y-144.95
X96.25Y-120.625
X96.391Y-121.826
X96.995Y-125.795
X97.6Y-121.46
X98.319Y-108.758
X98.48Y-132.35
X98.55Y-134.35
X98.69Y-127.27
X98.78Y-130.91
X98.881Y-129.56
X99.078Y-128.365
X99.36Y-123.79
X99.435Y-114.625
X99.976Y-132.908
X100.228Y-109.788
X100.4Y-130.775
X100.435Y-114.625
X100.548Y-125.172
X100.558Y-128.875
X100.776Y-110.625
X100.888Y-122.583
X101.95Y-114.71
X102.0Y-140.74
X102.274Y-110.86
X102.38Y-124.145
X102.45Y-137.2
X102.61Y-112.76
X103.564Y-139.328
X103.69Y-114.55
X103.753Y-118.595
X103.778Y-112.918
X104.5Y-111.03
X104.6Y-144.0
X104.913Y-114.899
X105.5Y-111.71
X105.853Y-118.023
X105.94Y-128.42
X105.97Y-129.67
X106.21Y-105.16
X106.274Y-114.82
X108.15Y-137.3
X108.87Y-132.93
X109.022Y-109.395
X109.15Y-134.65
X109.18Y-120.185
X109.7Y-115.45
X109.91Y-130.31
X110.0Y-117.44
X110.6Y-128.56
X111.66Y-137.42
X111.818Y-122.435
X113.205Y-134.936
X113.704Y-123.44
X113.77Y-109.63
X114.367Y-115.014
X114.54Y-118.39
X114.91Y-140.94
X115.2Y-110.135
X115.325Y-114.727
X115.681Y-126.315
X116.328Y-128.567
X116.533Y-117.785
X117.825Y-112.1
X118.45Y-114.5
X119.01Y-118.11
X119.1Y-137.2
X119.175Y-111.278
X119.45Y-134.3
X119.5Y-132.36
X119.59Y-128.64
X119.61Y-131.17
X119.63Y-130.03
X119.933Y-127.443
X120.027Y-122.975
X120.76Y-126.88
X120.93Y-105.13
X120.96Y-114.75
X121.1Y-110.5
X121.123Y-112.079
X121.125Y-131.92
X121.188Y-133.138
X121.95Y-118.4
X122.058Y-114.396
X122.29Y-105.26
X122.616Y-112.491
X123.45Y-137.4
X124.355Y-119.193
X125.346Y-120.3
X125.601Y-114.895
X127.02Y-128.69
X127.145Y-129.835
X127.597Y-118.379
X127.75Y-112.57
X128.589Y-114.905
X128.744Y-109.62
X129.772Y-114.905
X129.995Y-110.625
X130.318Y-143.22
X130.339Y-132.395
X130.6Y-105.31
X130.768Y-113.362
X130.8Y-134.35
X132.12Y-144.41
X132.15Y-131.09
X133.275Y-137.45
X133.735Y-112.075
X133.75Y-114.56
X134.35Y-105.38
X134.96Y-111.26
X135.34Y-109.15
X135.58Y-112.77
X135.69Y-114.65
X135.79Y-129.1
X135.97Y-134.94
X136.825Y-142.75
X136.89Y-105.52
X137.35Y-113.8
X138.448Y-122.689
X139.28Y-113.7
X139.46Y-135.17
X140.1Y-120.879
X140.3Y-113.61
X140.55Y-137.0
X140.707Y-109.875
X141.125Y-126.829
X141.235Y-114.515
X141.575Y-139.125
X141.977Y-117.555
X142.2Y-134.5
X142.95Y-142.95
X143.2Y-111.075
X143.36Y-114.55
X143.836Y-122.365
X144.65Y-114.57
X144.9Y-132.6
X145.025Y-108.6
X146.554Y-125.965
X146.75Y-132.85
X146.98Y-114.61
X148.45Y-114.57
X148.9Y-112.13
X149.35Y-134.15
X149.57Y-111.05
X150.324Y-114.801
X150.39Y-108.49
X150.5Y-129.0
X150.561Y-112.435
X151.59Y-118.33
X151.665Y-108.815
X152.371Y-112.759
X152.566Y-124.985
X152.86Y-106.054
X153.65Y-107.11
X154.12Y-128.172
X154.28Y-129.18
X154.44Y-105.71
X157.025Y-114.55
X158.021Y-125.435
X158.05Y-114.55
X158.256Y-109.412
X158.27Y-126.885
X158.34Y-136.39
X158.725Y-105.1
X159.35Y-114.57
X159.359Y-110.235
X160.17Y-134.58
X160.675Y-129.725
X161.22Y-111.37
X161.375Y-134.4
X161.425Y-104.875
X161.953Y-119.95
X162.2Y-126.0
X162.35Y-117.6
X162.425Y-137.975
X162.86Y-114.77
X163.625Y-129.3
X163.8Y-126.025
X163.928Y-110.779
X164.06Y-117.75
X164.62Y-112.55
X164.66Y-134.21
X165.075Y-104.825
X165.1Y-133.28
X165.112Y-108.506
X165.95Y-119.65
X166.197Y-108.657
X167.175Y-108.45
X167.45Y-136.95
X168.031Y-124.175
X168.254Y-132.171
X168.37Y-104.46
X168.48Y-133.65
X168.825Y-116.5
X169.549Y-131.104
X169.75Y-118.45
X170.61Y-129.65
X172.78Y-114.56
X172.86Y-109.74
X174.05Y-114.57
X174.2Y-104.75
X174.245Y-110.585
X177.75Y-139.45
X177.835Y-111.905
X177.87Y-114.59
X178.85Y-126.55
X179.46Y-111.14
X179.71Y-112.63
X179.76Y-108.59
X179.79Y-114.78
X180.906Y-121.538
X180.96Y-108.53
X182.34Y-108.4
X182.721Y-121.347
X183.2Y-106.3
X184.55Y-122.65
X187.475Y-109.415
X187.475Y-114.65
X187.6Y-132.1
X188.2Y-130.7
X188.75Y-110.125
X188.75Y-114.625
X189.7Y-130.65
X192.55Y-114.625
X192.569Y-111.755
X193.45Y-110.16
X193.79Y-111.98
X194.39Y-108.7
X194.43Y-114.76
X195.15Y-125.9
X196.1Y-111.05
X199.75Y-107.35
X202.75Y-114.25
X202.99Y-109.12
X208.45Y-106.4
X209.55Y-115.75
X211.25Y-135.05
X216.8Y-118.9
X219.1Y-121.4
X220.2Y-126.3
T2
X83.1Y-110.07
X89.9Y-126.0
X97.41Y-105.2
X97.9Y-137.35
X99.95Y-105.01
X108.3Y-104.8
X112.09Y-105.25
X114.415Y-127.605
X114.59Y-105.23
X124.2Y-116.45
X125.06Y-106.41
X127.0Y-138.6
X137.0Y-130.3
X139.83Y-106.58
X155.535Y-108.657
X155.625Y-113.8
X163.7Y-131.37
X170.235Y-108.995
X184.5Y-142.3
X184.935Y-108.655
X186.2Y-141.9
X186.5Y-140.2
X191.125Y-109.475
T3
X217.75Y-109.35
X217.75Y-116.15
X220.25Y-109.35
X220.25Y-111.45
X220.25Y-114.05
X220.25Y-116.15
T4
X217.3Y-124.6
X217.3Y-127.1
X217.3Y-132.1
X217.3Y-134.6
X222.3Y-129.6
T5
X84.72Y-142.76
X87.26Y-142.76
X89.8Y-142.76
X153.94Y-130.94
X153.94Y-133.48
X153.94Y-136.02
X153.94Y-138.56
X108.0Y-145.71
X108.0Y-148.25
X110.54Y-145.71
X110.54Y-148.25
X113.08Y-145.71
X113.08Y-148.25
X115.62Y-145.71
X115.62Y-148.25
X118.16Y-145.71
X118.16Y-148.25
X120.7Y-145.71
X120.7Y-148.25
X123.24Y-145.71
X123.24Y-148.25
X125.78Y-145.71
X125.78Y-148.25
X128.32Y-145.71
X128.32Y-148.25
X130.86Y-145.71
X130.86Y-148.25
X133.4Y-145.71
X133.4Y-148.25
X135.94Y-145.71
X135.94Y-148.25
X138.48Y-145.71
X138.48Y-148.25
X141.02Y-145.71
X141.02Y-148.25
X143.56Y-145.71
X143.56Y-148.25
X146.1Y-145.71
X146.1Y-148.25
X148.64Y-145.71
X148.64Y-148.25
X151.18Y-145.71
X151.18Y-148.25
X153.72Y-145.71
X153.72Y-148.25
X156.26Y-145.71
X156.26Y-148.25
X158.8Y-145.71
X158.8Y-148.25
X161.34Y-145.71
X161.34Y-148.25
X163.88Y-145.71
X163.88Y-148.25
X166.42Y-145.71
X166.42Y-148.25
X168.96Y-145.71
X168.96Y-148.25
X171.5Y-145.71
X171.5Y-148.25
X174.04Y-145.71
X174.04Y-148.25
X176.58Y-145.71
X176.58Y-148.25
X179.12Y-145.71
X179.12Y-148.25
X181.66Y-145.71
X181.66Y-148.25
X184.2Y-145.71
X184.2Y-148.25
X186.74Y-145.71
X186.74Y-148.25
X183.48Y-132.38
X183.48Y-134.92
X183.48Y-137.46
T6
X173.18Y-127.61
X173.18Y-130.15
X173.18Y-132.69
X175.72Y-127.61
X175.72Y-130.15
X175.72Y-132.69
X208.5Y-121.0
X208.5Y-123.54
X208.5Y-126.08
X208.5Y-128.62
X208.5Y-131.16
X211.04Y-121.0
X211.04Y-123.54
X211.04Y-126.08
X211.04Y-128.62
X211.04Y-131.16
T7
X223.25Y-106.0
X223.25Y-119.5
X224.05Y-112.75
T0
M30
