G04 #@! TF.GenerationSoftware,KiCad,Pcbnew,5.1.5+dfsg1-2*
G04 #@! TF.CreationDate,2020-02-18T22:18:07+02:00*
G04 #@! TF.ProjectId,zxkbd,7a786b62-642e-46b6-9963-61645f706362,rev?*
G04 #@! TF.SameCoordinates,Original*
G04 #@! TF.FileFunction,Paste,Bot*
G04 #@! TF.FilePolarity,Positive*
%FSLAX46Y46*%
G04 Gerber Fmt 4.6, Leading zero omitted, Abs format (unit mm)*
G04 Created by KiCad (PCBNEW 5.1.5+dfsg1-2) date 2020-02-18 22:18:07*
%MOMM*%
%LPD*%
G04 APERTURE LIST*
%ADD10C,0.100000*%
%ADD11R,0.900000X0.900000*%
%ADD12R,1.550000X1.300000*%
G04 APERTURE END LIST*
D10*
G36*
X162854505Y-132386204D02*
G01*
X162878773Y-132389804D01*
X162902572Y-132395765D01*
X162925671Y-132404030D01*
X162947850Y-132414520D01*
X162968893Y-132427132D01*
X162988599Y-132441747D01*
X163006777Y-132458223D01*
X163023253Y-132476401D01*
X163037868Y-132496107D01*
X163050480Y-132517150D01*
X163060970Y-132539329D01*
X163069235Y-132562428D01*
X163075196Y-132586227D01*
X163078796Y-132610495D01*
X163080000Y-132634999D01*
X163080000Y-133285001D01*
X163078796Y-133309505D01*
X163075196Y-133333773D01*
X163069235Y-133357572D01*
X163060970Y-133380671D01*
X163050480Y-133402850D01*
X163037868Y-133423893D01*
X163023253Y-133443599D01*
X163006777Y-133461777D01*
X162988599Y-133478253D01*
X162968893Y-133492868D01*
X162947850Y-133505480D01*
X162925671Y-133515970D01*
X162902572Y-133524235D01*
X162878773Y-133530196D01*
X162854505Y-133533796D01*
X162830001Y-133535000D01*
X161929999Y-133535000D01*
X161905495Y-133533796D01*
X161881227Y-133530196D01*
X161857428Y-133524235D01*
X161834329Y-133515970D01*
X161812150Y-133505480D01*
X161791107Y-133492868D01*
X161771401Y-133478253D01*
X161753223Y-133461777D01*
X161736747Y-133443599D01*
X161722132Y-133423893D01*
X161709520Y-133402850D01*
X161699030Y-133380671D01*
X161690765Y-133357572D01*
X161684804Y-133333773D01*
X161681204Y-133309505D01*
X161680000Y-133285001D01*
X161680000Y-132634999D01*
X161681204Y-132610495D01*
X161684804Y-132586227D01*
X161690765Y-132562428D01*
X161699030Y-132539329D01*
X161709520Y-132517150D01*
X161722132Y-132496107D01*
X161736747Y-132476401D01*
X161753223Y-132458223D01*
X161771401Y-132441747D01*
X161791107Y-132427132D01*
X161812150Y-132414520D01*
X161834329Y-132404030D01*
X161857428Y-132395765D01*
X161881227Y-132389804D01*
X161905495Y-132386204D01*
X161929999Y-132385000D01*
X162830001Y-132385000D01*
X162854505Y-132386204D01*
G37*
G36*
X162854505Y-130336204D02*
G01*
X162878773Y-130339804D01*
X162902572Y-130345765D01*
X162925671Y-130354030D01*
X162947850Y-130364520D01*
X162968893Y-130377132D01*
X162988599Y-130391747D01*
X163006777Y-130408223D01*
X163023253Y-130426401D01*
X163037868Y-130446107D01*
X163050480Y-130467150D01*
X163060970Y-130489329D01*
X163069235Y-130512428D01*
X163075196Y-130536227D01*
X163078796Y-130560495D01*
X163080000Y-130584999D01*
X163080000Y-131235001D01*
X163078796Y-131259505D01*
X163075196Y-131283773D01*
X163069235Y-131307572D01*
X163060970Y-131330671D01*
X163050480Y-131352850D01*
X163037868Y-131373893D01*
X163023253Y-131393599D01*
X163006777Y-131411777D01*
X162988599Y-131428253D01*
X162968893Y-131442868D01*
X162947850Y-131455480D01*
X162925671Y-131465970D01*
X162902572Y-131474235D01*
X162878773Y-131480196D01*
X162854505Y-131483796D01*
X162830001Y-131485000D01*
X161929999Y-131485000D01*
X161905495Y-131483796D01*
X161881227Y-131480196D01*
X161857428Y-131474235D01*
X161834329Y-131465970D01*
X161812150Y-131455480D01*
X161791107Y-131442868D01*
X161771401Y-131428253D01*
X161753223Y-131411777D01*
X161736747Y-131393599D01*
X161722132Y-131373893D01*
X161709520Y-131352850D01*
X161699030Y-131330671D01*
X161690765Y-131307572D01*
X161684804Y-131283773D01*
X161681204Y-131259505D01*
X161680000Y-131235001D01*
X161680000Y-130584999D01*
X161681204Y-130560495D01*
X161684804Y-130536227D01*
X161690765Y-130512428D01*
X161699030Y-130489329D01*
X161709520Y-130467150D01*
X161722132Y-130446107D01*
X161736747Y-130426401D01*
X161753223Y-130408223D01*
X161771401Y-130391747D01*
X161791107Y-130377132D01*
X161812150Y-130364520D01*
X161834329Y-130354030D01*
X161857428Y-130345765D01*
X161881227Y-130339804D01*
X161905495Y-130336204D01*
X161929999Y-130335000D01*
X162830001Y-130335000D01*
X162854505Y-130336204D01*
G37*
G36*
X87439505Y-111671204D02*
G01*
X87463773Y-111674804D01*
X87487572Y-111680765D01*
X87510671Y-111689030D01*
X87532850Y-111699520D01*
X87553893Y-111712132D01*
X87573599Y-111726747D01*
X87591777Y-111743223D01*
X87608253Y-111761401D01*
X87622868Y-111781107D01*
X87635480Y-111802150D01*
X87645970Y-111824329D01*
X87654235Y-111847428D01*
X87660196Y-111871227D01*
X87663796Y-111895495D01*
X87665000Y-111919999D01*
X87665000Y-112820001D01*
X87663796Y-112844505D01*
X87660196Y-112868773D01*
X87654235Y-112892572D01*
X87645970Y-112915671D01*
X87635480Y-112937850D01*
X87622868Y-112958893D01*
X87608253Y-112978599D01*
X87591777Y-112996777D01*
X87573599Y-113013253D01*
X87553893Y-113027868D01*
X87532850Y-113040480D01*
X87510671Y-113050970D01*
X87487572Y-113059235D01*
X87463773Y-113065196D01*
X87439505Y-113068796D01*
X87415001Y-113070000D01*
X86764999Y-113070000D01*
X86740495Y-113068796D01*
X86716227Y-113065196D01*
X86692428Y-113059235D01*
X86669329Y-113050970D01*
X86647150Y-113040480D01*
X86626107Y-113027868D01*
X86606401Y-113013253D01*
X86588223Y-112996777D01*
X86571747Y-112978599D01*
X86557132Y-112958893D01*
X86544520Y-112937850D01*
X86534030Y-112915671D01*
X86525765Y-112892572D01*
X86519804Y-112868773D01*
X86516204Y-112844505D01*
X86515000Y-112820001D01*
X86515000Y-111919999D01*
X86516204Y-111895495D01*
X86519804Y-111871227D01*
X86525765Y-111847428D01*
X86534030Y-111824329D01*
X86544520Y-111802150D01*
X86557132Y-111781107D01*
X86571747Y-111761401D01*
X86588223Y-111743223D01*
X86606401Y-111726747D01*
X86626107Y-111712132D01*
X86647150Y-111699520D01*
X86669329Y-111689030D01*
X86692428Y-111680765D01*
X86716227Y-111674804D01*
X86740495Y-111671204D01*
X86764999Y-111670000D01*
X87415001Y-111670000D01*
X87439505Y-111671204D01*
G37*
G36*
X85389505Y-111671204D02*
G01*
X85413773Y-111674804D01*
X85437572Y-111680765D01*
X85460671Y-111689030D01*
X85482850Y-111699520D01*
X85503893Y-111712132D01*
X85523599Y-111726747D01*
X85541777Y-111743223D01*
X85558253Y-111761401D01*
X85572868Y-111781107D01*
X85585480Y-111802150D01*
X85595970Y-111824329D01*
X85604235Y-111847428D01*
X85610196Y-111871227D01*
X85613796Y-111895495D01*
X85615000Y-111919999D01*
X85615000Y-112820001D01*
X85613796Y-112844505D01*
X85610196Y-112868773D01*
X85604235Y-112892572D01*
X85595970Y-112915671D01*
X85585480Y-112937850D01*
X85572868Y-112958893D01*
X85558253Y-112978599D01*
X85541777Y-112996777D01*
X85523599Y-113013253D01*
X85503893Y-113027868D01*
X85482850Y-113040480D01*
X85460671Y-113050970D01*
X85437572Y-113059235D01*
X85413773Y-113065196D01*
X85389505Y-113068796D01*
X85365001Y-113070000D01*
X84714999Y-113070000D01*
X84690495Y-113068796D01*
X84666227Y-113065196D01*
X84642428Y-113059235D01*
X84619329Y-113050970D01*
X84597150Y-113040480D01*
X84576107Y-113027868D01*
X84556401Y-113013253D01*
X84538223Y-112996777D01*
X84521747Y-112978599D01*
X84507132Y-112958893D01*
X84494520Y-112937850D01*
X84484030Y-112915671D01*
X84475765Y-112892572D01*
X84469804Y-112868773D01*
X84466204Y-112844505D01*
X84465000Y-112820001D01*
X84465000Y-111919999D01*
X84466204Y-111895495D01*
X84469804Y-111871227D01*
X84475765Y-111847428D01*
X84484030Y-111824329D01*
X84494520Y-111802150D01*
X84507132Y-111781107D01*
X84521747Y-111761401D01*
X84538223Y-111743223D01*
X84556401Y-111726747D01*
X84576107Y-111712132D01*
X84597150Y-111699520D01*
X84619329Y-111689030D01*
X84642428Y-111680765D01*
X84666227Y-111674804D01*
X84690495Y-111671204D01*
X84714999Y-111670000D01*
X85365001Y-111670000D01*
X85389505Y-111671204D01*
G37*
G36*
X97919505Y-106241204D02*
G01*
X97943773Y-106244804D01*
X97967572Y-106250765D01*
X97990671Y-106259030D01*
X98012850Y-106269520D01*
X98033893Y-106282132D01*
X98053599Y-106296747D01*
X98071777Y-106313223D01*
X98088253Y-106331401D01*
X98102868Y-106351107D01*
X98115480Y-106372150D01*
X98125970Y-106394329D01*
X98134235Y-106417428D01*
X98140196Y-106441227D01*
X98143796Y-106465495D01*
X98145000Y-106489999D01*
X98145000Y-107390001D01*
X98143796Y-107414505D01*
X98140196Y-107438773D01*
X98134235Y-107462572D01*
X98125970Y-107485671D01*
X98115480Y-107507850D01*
X98102868Y-107528893D01*
X98088253Y-107548599D01*
X98071777Y-107566777D01*
X98053599Y-107583253D01*
X98033893Y-107597868D01*
X98012850Y-107610480D01*
X97990671Y-107620970D01*
X97967572Y-107629235D01*
X97943773Y-107635196D01*
X97919505Y-107638796D01*
X97895001Y-107640000D01*
X97244999Y-107640000D01*
X97220495Y-107638796D01*
X97196227Y-107635196D01*
X97172428Y-107629235D01*
X97149329Y-107620970D01*
X97127150Y-107610480D01*
X97106107Y-107597868D01*
X97086401Y-107583253D01*
X97068223Y-107566777D01*
X97051747Y-107548599D01*
X97037132Y-107528893D01*
X97024520Y-107507850D01*
X97014030Y-107485671D01*
X97005765Y-107462572D01*
X96999804Y-107438773D01*
X96996204Y-107414505D01*
X96995000Y-107390001D01*
X96995000Y-106489999D01*
X96996204Y-106465495D01*
X96999804Y-106441227D01*
X97005765Y-106417428D01*
X97014030Y-106394329D01*
X97024520Y-106372150D01*
X97037132Y-106351107D01*
X97051747Y-106331401D01*
X97068223Y-106313223D01*
X97086401Y-106296747D01*
X97106107Y-106282132D01*
X97127150Y-106269520D01*
X97149329Y-106259030D01*
X97172428Y-106250765D01*
X97196227Y-106244804D01*
X97220495Y-106241204D01*
X97244999Y-106240000D01*
X97895001Y-106240000D01*
X97919505Y-106241204D01*
G37*
G36*
X99969505Y-106241204D02*
G01*
X99993773Y-106244804D01*
X100017572Y-106250765D01*
X100040671Y-106259030D01*
X100062850Y-106269520D01*
X100083893Y-106282132D01*
X100103599Y-106296747D01*
X100121777Y-106313223D01*
X100138253Y-106331401D01*
X100152868Y-106351107D01*
X100165480Y-106372150D01*
X100175970Y-106394329D01*
X100184235Y-106417428D01*
X100190196Y-106441227D01*
X100193796Y-106465495D01*
X100195000Y-106489999D01*
X100195000Y-107390001D01*
X100193796Y-107414505D01*
X100190196Y-107438773D01*
X100184235Y-107462572D01*
X100175970Y-107485671D01*
X100165480Y-107507850D01*
X100152868Y-107528893D01*
X100138253Y-107548599D01*
X100121777Y-107566777D01*
X100103599Y-107583253D01*
X100083893Y-107597868D01*
X100062850Y-107610480D01*
X100040671Y-107620970D01*
X100017572Y-107629235D01*
X99993773Y-107635196D01*
X99969505Y-107638796D01*
X99945001Y-107640000D01*
X99294999Y-107640000D01*
X99270495Y-107638796D01*
X99246227Y-107635196D01*
X99222428Y-107629235D01*
X99199329Y-107620970D01*
X99177150Y-107610480D01*
X99156107Y-107597868D01*
X99136401Y-107583253D01*
X99118223Y-107566777D01*
X99101747Y-107548599D01*
X99087132Y-107528893D01*
X99074520Y-107507850D01*
X99064030Y-107485671D01*
X99055765Y-107462572D01*
X99049804Y-107438773D01*
X99046204Y-107414505D01*
X99045000Y-107390001D01*
X99045000Y-106489999D01*
X99046204Y-106465495D01*
X99049804Y-106441227D01*
X99055765Y-106417428D01*
X99064030Y-106394329D01*
X99074520Y-106372150D01*
X99087132Y-106351107D01*
X99101747Y-106331401D01*
X99118223Y-106313223D01*
X99136401Y-106296747D01*
X99156107Y-106282132D01*
X99177150Y-106269520D01*
X99199329Y-106259030D01*
X99222428Y-106250765D01*
X99246227Y-106244804D01*
X99270495Y-106241204D01*
X99294999Y-106240000D01*
X99945001Y-106240000D01*
X99969505Y-106241204D01*
G37*
G36*
X114599505Y-106311204D02*
G01*
X114623773Y-106314804D01*
X114647572Y-106320765D01*
X114670671Y-106329030D01*
X114692850Y-106339520D01*
X114713893Y-106352132D01*
X114733599Y-106366747D01*
X114751777Y-106383223D01*
X114768253Y-106401401D01*
X114782868Y-106421107D01*
X114795480Y-106442150D01*
X114805970Y-106464329D01*
X114814235Y-106487428D01*
X114820196Y-106511227D01*
X114823796Y-106535495D01*
X114825000Y-106559999D01*
X114825000Y-107460001D01*
X114823796Y-107484505D01*
X114820196Y-107508773D01*
X114814235Y-107532572D01*
X114805970Y-107555671D01*
X114795480Y-107577850D01*
X114782868Y-107598893D01*
X114768253Y-107618599D01*
X114751777Y-107636777D01*
X114733599Y-107653253D01*
X114713893Y-107667868D01*
X114692850Y-107680480D01*
X114670671Y-107690970D01*
X114647572Y-107699235D01*
X114623773Y-107705196D01*
X114599505Y-107708796D01*
X114575001Y-107710000D01*
X113924999Y-107710000D01*
X113900495Y-107708796D01*
X113876227Y-107705196D01*
X113852428Y-107699235D01*
X113829329Y-107690970D01*
X113807150Y-107680480D01*
X113786107Y-107667868D01*
X113766401Y-107653253D01*
X113748223Y-107636777D01*
X113731747Y-107618599D01*
X113717132Y-107598893D01*
X113704520Y-107577850D01*
X113694030Y-107555671D01*
X113685765Y-107532572D01*
X113679804Y-107508773D01*
X113676204Y-107484505D01*
X113675000Y-107460001D01*
X113675000Y-106559999D01*
X113676204Y-106535495D01*
X113679804Y-106511227D01*
X113685765Y-106487428D01*
X113694030Y-106464329D01*
X113704520Y-106442150D01*
X113717132Y-106421107D01*
X113731747Y-106401401D01*
X113748223Y-106383223D01*
X113766401Y-106366747D01*
X113786107Y-106352132D01*
X113807150Y-106339520D01*
X113829329Y-106329030D01*
X113852428Y-106320765D01*
X113876227Y-106314804D01*
X113900495Y-106311204D01*
X113924999Y-106310000D01*
X114575001Y-106310000D01*
X114599505Y-106311204D01*
G37*
G36*
X112549505Y-106311204D02*
G01*
X112573773Y-106314804D01*
X112597572Y-106320765D01*
X112620671Y-106329030D01*
X112642850Y-106339520D01*
X112663893Y-106352132D01*
X112683599Y-106366747D01*
X112701777Y-106383223D01*
X112718253Y-106401401D01*
X112732868Y-106421107D01*
X112745480Y-106442150D01*
X112755970Y-106464329D01*
X112764235Y-106487428D01*
X112770196Y-106511227D01*
X112773796Y-106535495D01*
X112775000Y-106559999D01*
X112775000Y-107460001D01*
X112773796Y-107484505D01*
X112770196Y-107508773D01*
X112764235Y-107532572D01*
X112755970Y-107555671D01*
X112745480Y-107577850D01*
X112732868Y-107598893D01*
X112718253Y-107618599D01*
X112701777Y-107636777D01*
X112683599Y-107653253D01*
X112663893Y-107667868D01*
X112642850Y-107680480D01*
X112620671Y-107690970D01*
X112597572Y-107699235D01*
X112573773Y-107705196D01*
X112549505Y-107708796D01*
X112525001Y-107710000D01*
X111874999Y-107710000D01*
X111850495Y-107708796D01*
X111826227Y-107705196D01*
X111802428Y-107699235D01*
X111779329Y-107690970D01*
X111757150Y-107680480D01*
X111736107Y-107667868D01*
X111716401Y-107653253D01*
X111698223Y-107636777D01*
X111681747Y-107618599D01*
X111667132Y-107598893D01*
X111654520Y-107577850D01*
X111644030Y-107555671D01*
X111635765Y-107532572D01*
X111629804Y-107508773D01*
X111626204Y-107484505D01*
X111625000Y-107460001D01*
X111625000Y-106559999D01*
X111626204Y-106535495D01*
X111629804Y-106511227D01*
X111635765Y-106487428D01*
X111644030Y-106464329D01*
X111654520Y-106442150D01*
X111667132Y-106421107D01*
X111681747Y-106401401D01*
X111698223Y-106383223D01*
X111716401Y-106366747D01*
X111736107Y-106352132D01*
X111757150Y-106339520D01*
X111779329Y-106329030D01*
X111802428Y-106320765D01*
X111826227Y-106314804D01*
X111850495Y-106311204D01*
X111874999Y-106310000D01*
X112525001Y-106310000D01*
X112549505Y-106311204D01*
G37*
G36*
X127089505Y-106301204D02*
G01*
X127113773Y-106304804D01*
X127137572Y-106310765D01*
X127160671Y-106319030D01*
X127182850Y-106329520D01*
X127203893Y-106342132D01*
X127223599Y-106356747D01*
X127241777Y-106373223D01*
X127258253Y-106391401D01*
X127272868Y-106411107D01*
X127285480Y-106432150D01*
X127295970Y-106454329D01*
X127304235Y-106477428D01*
X127310196Y-106501227D01*
X127313796Y-106525495D01*
X127315000Y-106549999D01*
X127315000Y-107450001D01*
X127313796Y-107474505D01*
X127310196Y-107498773D01*
X127304235Y-107522572D01*
X127295970Y-107545671D01*
X127285480Y-107567850D01*
X127272868Y-107588893D01*
X127258253Y-107608599D01*
X127241777Y-107626777D01*
X127223599Y-107643253D01*
X127203893Y-107657868D01*
X127182850Y-107670480D01*
X127160671Y-107680970D01*
X127137572Y-107689235D01*
X127113773Y-107695196D01*
X127089505Y-107698796D01*
X127065001Y-107700000D01*
X126414999Y-107700000D01*
X126390495Y-107698796D01*
X126366227Y-107695196D01*
X126342428Y-107689235D01*
X126319329Y-107680970D01*
X126297150Y-107670480D01*
X126276107Y-107657868D01*
X126256401Y-107643253D01*
X126238223Y-107626777D01*
X126221747Y-107608599D01*
X126207132Y-107588893D01*
X126194520Y-107567850D01*
X126184030Y-107545671D01*
X126175765Y-107522572D01*
X126169804Y-107498773D01*
X126166204Y-107474505D01*
X126165000Y-107450001D01*
X126165000Y-106549999D01*
X126166204Y-106525495D01*
X126169804Y-106501227D01*
X126175765Y-106477428D01*
X126184030Y-106454329D01*
X126194520Y-106432150D01*
X126207132Y-106411107D01*
X126221747Y-106391401D01*
X126238223Y-106373223D01*
X126256401Y-106356747D01*
X126276107Y-106342132D01*
X126297150Y-106329520D01*
X126319329Y-106319030D01*
X126342428Y-106310765D01*
X126366227Y-106304804D01*
X126390495Y-106301204D01*
X126414999Y-106300000D01*
X127065001Y-106300000D01*
X127089505Y-106301204D01*
G37*
G36*
X129139505Y-106301204D02*
G01*
X129163773Y-106304804D01*
X129187572Y-106310765D01*
X129210671Y-106319030D01*
X129232850Y-106329520D01*
X129253893Y-106342132D01*
X129273599Y-106356747D01*
X129291777Y-106373223D01*
X129308253Y-106391401D01*
X129322868Y-106411107D01*
X129335480Y-106432150D01*
X129345970Y-106454329D01*
X129354235Y-106477428D01*
X129360196Y-106501227D01*
X129363796Y-106525495D01*
X129365000Y-106549999D01*
X129365000Y-107450001D01*
X129363796Y-107474505D01*
X129360196Y-107498773D01*
X129354235Y-107522572D01*
X129345970Y-107545671D01*
X129335480Y-107567850D01*
X129322868Y-107588893D01*
X129308253Y-107608599D01*
X129291777Y-107626777D01*
X129273599Y-107643253D01*
X129253893Y-107657868D01*
X129232850Y-107670480D01*
X129210671Y-107680970D01*
X129187572Y-107689235D01*
X129163773Y-107695196D01*
X129139505Y-107698796D01*
X129115001Y-107700000D01*
X128464999Y-107700000D01*
X128440495Y-107698796D01*
X128416227Y-107695196D01*
X128392428Y-107689235D01*
X128369329Y-107680970D01*
X128347150Y-107670480D01*
X128326107Y-107657868D01*
X128306401Y-107643253D01*
X128288223Y-107626777D01*
X128271747Y-107608599D01*
X128257132Y-107588893D01*
X128244520Y-107567850D01*
X128234030Y-107545671D01*
X128225765Y-107522572D01*
X128219804Y-107498773D01*
X128216204Y-107474505D01*
X128215000Y-107450001D01*
X128215000Y-106549999D01*
X128216204Y-106525495D01*
X128219804Y-106501227D01*
X128225765Y-106477428D01*
X128234030Y-106454329D01*
X128244520Y-106432150D01*
X128257132Y-106411107D01*
X128271747Y-106391401D01*
X128288223Y-106373223D01*
X128306401Y-106356747D01*
X128326107Y-106342132D01*
X128347150Y-106329520D01*
X128369329Y-106319030D01*
X128392428Y-106310765D01*
X128416227Y-106304804D01*
X128440495Y-106301204D01*
X128464999Y-106300000D01*
X129115001Y-106300000D01*
X129139505Y-106301204D01*
G37*
G36*
X141739505Y-106301204D02*
G01*
X141763773Y-106304804D01*
X141787572Y-106310765D01*
X141810671Y-106319030D01*
X141832850Y-106329520D01*
X141853893Y-106342132D01*
X141873599Y-106356747D01*
X141891777Y-106373223D01*
X141908253Y-106391401D01*
X141922868Y-106411107D01*
X141935480Y-106432150D01*
X141945970Y-106454329D01*
X141954235Y-106477428D01*
X141960196Y-106501227D01*
X141963796Y-106525495D01*
X141965000Y-106549999D01*
X141965000Y-107450001D01*
X141963796Y-107474505D01*
X141960196Y-107498773D01*
X141954235Y-107522572D01*
X141945970Y-107545671D01*
X141935480Y-107567850D01*
X141922868Y-107588893D01*
X141908253Y-107608599D01*
X141891777Y-107626777D01*
X141873599Y-107643253D01*
X141853893Y-107657868D01*
X141832850Y-107670480D01*
X141810671Y-107680970D01*
X141787572Y-107689235D01*
X141763773Y-107695196D01*
X141739505Y-107698796D01*
X141715001Y-107700000D01*
X141064999Y-107700000D01*
X141040495Y-107698796D01*
X141016227Y-107695196D01*
X140992428Y-107689235D01*
X140969329Y-107680970D01*
X140947150Y-107670480D01*
X140926107Y-107657868D01*
X140906401Y-107643253D01*
X140888223Y-107626777D01*
X140871747Y-107608599D01*
X140857132Y-107588893D01*
X140844520Y-107567850D01*
X140834030Y-107545671D01*
X140825765Y-107522572D01*
X140819804Y-107498773D01*
X140816204Y-107474505D01*
X140815000Y-107450001D01*
X140815000Y-106549999D01*
X140816204Y-106525495D01*
X140819804Y-106501227D01*
X140825765Y-106477428D01*
X140834030Y-106454329D01*
X140844520Y-106432150D01*
X140857132Y-106411107D01*
X140871747Y-106391401D01*
X140888223Y-106373223D01*
X140906401Y-106356747D01*
X140926107Y-106342132D01*
X140947150Y-106329520D01*
X140969329Y-106319030D01*
X140992428Y-106310765D01*
X141016227Y-106304804D01*
X141040495Y-106301204D01*
X141064999Y-106300000D01*
X141715001Y-106300000D01*
X141739505Y-106301204D01*
G37*
G36*
X143789505Y-106301204D02*
G01*
X143813773Y-106304804D01*
X143837572Y-106310765D01*
X143860671Y-106319030D01*
X143882850Y-106329520D01*
X143903893Y-106342132D01*
X143923599Y-106356747D01*
X143941777Y-106373223D01*
X143958253Y-106391401D01*
X143972868Y-106411107D01*
X143985480Y-106432150D01*
X143995970Y-106454329D01*
X144004235Y-106477428D01*
X144010196Y-106501227D01*
X144013796Y-106525495D01*
X144015000Y-106549999D01*
X144015000Y-107450001D01*
X144013796Y-107474505D01*
X144010196Y-107498773D01*
X144004235Y-107522572D01*
X143995970Y-107545671D01*
X143985480Y-107567850D01*
X143972868Y-107588893D01*
X143958253Y-107608599D01*
X143941777Y-107626777D01*
X143923599Y-107643253D01*
X143903893Y-107657868D01*
X143882850Y-107670480D01*
X143860671Y-107680970D01*
X143837572Y-107689235D01*
X143813773Y-107695196D01*
X143789505Y-107698796D01*
X143765001Y-107700000D01*
X143114999Y-107700000D01*
X143090495Y-107698796D01*
X143066227Y-107695196D01*
X143042428Y-107689235D01*
X143019329Y-107680970D01*
X142997150Y-107670480D01*
X142976107Y-107657868D01*
X142956401Y-107643253D01*
X142938223Y-107626777D01*
X142921747Y-107608599D01*
X142907132Y-107588893D01*
X142894520Y-107567850D01*
X142884030Y-107545671D01*
X142875765Y-107522572D01*
X142869804Y-107498773D01*
X142866204Y-107474505D01*
X142865000Y-107450001D01*
X142865000Y-106549999D01*
X142866204Y-106525495D01*
X142869804Y-106501227D01*
X142875765Y-106477428D01*
X142884030Y-106454329D01*
X142894520Y-106432150D01*
X142907132Y-106411107D01*
X142921747Y-106391401D01*
X142938223Y-106373223D01*
X142956401Y-106356747D01*
X142976107Y-106342132D01*
X142997150Y-106329520D01*
X143019329Y-106319030D01*
X143042428Y-106310765D01*
X143066227Y-106304804D01*
X143090495Y-106301204D01*
X143114999Y-106300000D01*
X143765001Y-106300000D01*
X143789505Y-106301204D01*
G37*
G36*
X156479505Y-106321204D02*
G01*
X156503773Y-106324804D01*
X156527572Y-106330765D01*
X156550671Y-106339030D01*
X156572850Y-106349520D01*
X156593893Y-106362132D01*
X156613599Y-106376747D01*
X156631777Y-106393223D01*
X156648253Y-106411401D01*
X156662868Y-106431107D01*
X156675480Y-106452150D01*
X156685970Y-106474329D01*
X156694235Y-106497428D01*
X156700196Y-106521227D01*
X156703796Y-106545495D01*
X156705000Y-106569999D01*
X156705000Y-107470001D01*
X156703796Y-107494505D01*
X156700196Y-107518773D01*
X156694235Y-107542572D01*
X156685970Y-107565671D01*
X156675480Y-107587850D01*
X156662868Y-107608893D01*
X156648253Y-107628599D01*
X156631777Y-107646777D01*
X156613599Y-107663253D01*
X156593893Y-107677868D01*
X156572850Y-107690480D01*
X156550671Y-107700970D01*
X156527572Y-107709235D01*
X156503773Y-107715196D01*
X156479505Y-107718796D01*
X156455001Y-107720000D01*
X155804999Y-107720000D01*
X155780495Y-107718796D01*
X155756227Y-107715196D01*
X155732428Y-107709235D01*
X155709329Y-107700970D01*
X155687150Y-107690480D01*
X155666107Y-107677868D01*
X155646401Y-107663253D01*
X155628223Y-107646777D01*
X155611747Y-107628599D01*
X155597132Y-107608893D01*
X155584520Y-107587850D01*
X155574030Y-107565671D01*
X155565765Y-107542572D01*
X155559804Y-107518773D01*
X155556204Y-107494505D01*
X155555000Y-107470001D01*
X155555000Y-106569999D01*
X155556204Y-106545495D01*
X155559804Y-106521227D01*
X155565765Y-106497428D01*
X155574030Y-106474329D01*
X155584520Y-106452150D01*
X155597132Y-106431107D01*
X155611747Y-106411401D01*
X155628223Y-106393223D01*
X155646401Y-106376747D01*
X155666107Y-106362132D01*
X155687150Y-106349520D01*
X155709329Y-106339030D01*
X155732428Y-106330765D01*
X155756227Y-106324804D01*
X155780495Y-106321204D01*
X155804999Y-106320000D01*
X156455001Y-106320000D01*
X156479505Y-106321204D01*
G37*
G36*
X158529505Y-106321204D02*
G01*
X158553773Y-106324804D01*
X158577572Y-106330765D01*
X158600671Y-106339030D01*
X158622850Y-106349520D01*
X158643893Y-106362132D01*
X158663599Y-106376747D01*
X158681777Y-106393223D01*
X158698253Y-106411401D01*
X158712868Y-106431107D01*
X158725480Y-106452150D01*
X158735970Y-106474329D01*
X158744235Y-106497428D01*
X158750196Y-106521227D01*
X158753796Y-106545495D01*
X158755000Y-106569999D01*
X158755000Y-107470001D01*
X158753796Y-107494505D01*
X158750196Y-107518773D01*
X158744235Y-107542572D01*
X158735970Y-107565671D01*
X158725480Y-107587850D01*
X158712868Y-107608893D01*
X158698253Y-107628599D01*
X158681777Y-107646777D01*
X158663599Y-107663253D01*
X158643893Y-107677868D01*
X158622850Y-107690480D01*
X158600671Y-107700970D01*
X158577572Y-107709235D01*
X158553773Y-107715196D01*
X158529505Y-107718796D01*
X158505001Y-107720000D01*
X157854999Y-107720000D01*
X157830495Y-107718796D01*
X157806227Y-107715196D01*
X157782428Y-107709235D01*
X157759329Y-107700970D01*
X157737150Y-107690480D01*
X157716107Y-107677868D01*
X157696401Y-107663253D01*
X157678223Y-107646777D01*
X157661747Y-107628599D01*
X157647132Y-107608893D01*
X157634520Y-107587850D01*
X157624030Y-107565671D01*
X157615765Y-107542572D01*
X157609804Y-107518773D01*
X157606204Y-107494505D01*
X157605000Y-107470001D01*
X157605000Y-106569999D01*
X157606204Y-106545495D01*
X157609804Y-106521227D01*
X157615765Y-106497428D01*
X157624030Y-106474329D01*
X157634520Y-106452150D01*
X157647132Y-106431107D01*
X157661747Y-106411401D01*
X157678223Y-106393223D01*
X157696401Y-106376747D01*
X157716107Y-106362132D01*
X157737150Y-106349520D01*
X157759329Y-106339030D01*
X157782428Y-106330765D01*
X157806227Y-106324804D01*
X157830495Y-106321204D01*
X157854999Y-106320000D01*
X158505001Y-106320000D01*
X158529505Y-106321204D01*
G37*
G36*
X173254505Y-106301204D02*
G01*
X173278773Y-106304804D01*
X173302572Y-106310765D01*
X173325671Y-106319030D01*
X173347850Y-106329520D01*
X173368893Y-106342132D01*
X173388599Y-106356747D01*
X173406777Y-106373223D01*
X173423253Y-106391401D01*
X173437868Y-106411107D01*
X173450480Y-106432150D01*
X173460970Y-106454329D01*
X173469235Y-106477428D01*
X173475196Y-106501227D01*
X173478796Y-106525495D01*
X173480000Y-106549999D01*
X173480000Y-107450001D01*
X173478796Y-107474505D01*
X173475196Y-107498773D01*
X173469235Y-107522572D01*
X173460970Y-107545671D01*
X173450480Y-107567850D01*
X173437868Y-107588893D01*
X173423253Y-107608599D01*
X173406777Y-107626777D01*
X173388599Y-107643253D01*
X173368893Y-107657868D01*
X173347850Y-107670480D01*
X173325671Y-107680970D01*
X173302572Y-107689235D01*
X173278773Y-107695196D01*
X173254505Y-107698796D01*
X173230001Y-107700000D01*
X172579999Y-107700000D01*
X172555495Y-107698796D01*
X172531227Y-107695196D01*
X172507428Y-107689235D01*
X172484329Y-107680970D01*
X172462150Y-107670480D01*
X172441107Y-107657868D01*
X172421401Y-107643253D01*
X172403223Y-107626777D01*
X172386747Y-107608599D01*
X172372132Y-107588893D01*
X172359520Y-107567850D01*
X172349030Y-107545671D01*
X172340765Y-107522572D01*
X172334804Y-107498773D01*
X172331204Y-107474505D01*
X172330000Y-107450001D01*
X172330000Y-106549999D01*
X172331204Y-106525495D01*
X172334804Y-106501227D01*
X172340765Y-106477428D01*
X172349030Y-106454329D01*
X172359520Y-106432150D01*
X172372132Y-106411107D01*
X172386747Y-106391401D01*
X172403223Y-106373223D01*
X172421401Y-106356747D01*
X172441107Y-106342132D01*
X172462150Y-106329520D01*
X172484329Y-106319030D01*
X172507428Y-106310765D01*
X172531227Y-106304804D01*
X172555495Y-106301204D01*
X172579999Y-106300000D01*
X173230001Y-106300000D01*
X173254505Y-106301204D01*
G37*
G36*
X171204505Y-106301204D02*
G01*
X171228773Y-106304804D01*
X171252572Y-106310765D01*
X171275671Y-106319030D01*
X171297850Y-106329520D01*
X171318893Y-106342132D01*
X171338599Y-106356747D01*
X171356777Y-106373223D01*
X171373253Y-106391401D01*
X171387868Y-106411107D01*
X171400480Y-106432150D01*
X171410970Y-106454329D01*
X171419235Y-106477428D01*
X171425196Y-106501227D01*
X171428796Y-106525495D01*
X171430000Y-106549999D01*
X171430000Y-107450001D01*
X171428796Y-107474505D01*
X171425196Y-107498773D01*
X171419235Y-107522572D01*
X171410970Y-107545671D01*
X171400480Y-107567850D01*
X171387868Y-107588893D01*
X171373253Y-107608599D01*
X171356777Y-107626777D01*
X171338599Y-107643253D01*
X171318893Y-107657868D01*
X171297850Y-107670480D01*
X171275671Y-107680970D01*
X171252572Y-107689235D01*
X171228773Y-107695196D01*
X171204505Y-107698796D01*
X171180001Y-107700000D01*
X170529999Y-107700000D01*
X170505495Y-107698796D01*
X170481227Y-107695196D01*
X170457428Y-107689235D01*
X170434329Y-107680970D01*
X170412150Y-107670480D01*
X170391107Y-107657868D01*
X170371401Y-107643253D01*
X170353223Y-107626777D01*
X170336747Y-107608599D01*
X170322132Y-107588893D01*
X170309520Y-107567850D01*
X170299030Y-107545671D01*
X170290765Y-107522572D01*
X170284804Y-107498773D01*
X170281204Y-107474505D01*
X170280000Y-107450001D01*
X170280000Y-106549999D01*
X170281204Y-106525495D01*
X170284804Y-106501227D01*
X170290765Y-106477428D01*
X170299030Y-106454329D01*
X170309520Y-106432150D01*
X170322132Y-106411107D01*
X170336747Y-106391401D01*
X170353223Y-106373223D01*
X170371401Y-106356747D01*
X170391107Y-106342132D01*
X170412150Y-106329520D01*
X170434329Y-106319030D01*
X170457428Y-106310765D01*
X170481227Y-106304804D01*
X170505495Y-106301204D01*
X170529999Y-106300000D01*
X171180001Y-106300000D01*
X171204505Y-106301204D01*
G37*
G36*
X185859505Y-106311204D02*
G01*
X185883773Y-106314804D01*
X185907572Y-106320765D01*
X185930671Y-106329030D01*
X185952850Y-106339520D01*
X185973893Y-106352132D01*
X185993599Y-106366747D01*
X186011777Y-106383223D01*
X186028253Y-106401401D01*
X186042868Y-106421107D01*
X186055480Y-106442150D01*
X186065970Y-106464329D01*
X186074235Y-106487428D01*
X186080196Y-106511227D01*
X186083796Y-106535495D01*
X186085000Y-106559999D01*
X186085000Y-107460001D01*
X186083796Y-107484505D01*
X186080196Y-107508773D01*
X186074235Y-107532572D01*
X186065970Y-107555671D01*
X186055480Y-107577850D01*
X186042868Y-107598893D01*
X186028253Y-107618599D01*
X186011777Y-107636777D01*
X185993599Y-107653253D01*
X185973893Y-107667868D01*
X185952850Y-107680480D01*
X185930671Y-107690970D01*
X185907572Y-107699235D01*
X185883773Y-107705196D01*
X185859505Y-107708796D01*
X185835001Y-107710000D01*
X185184999Y-107710000D01*
X185160495Y-107708796D01*
X185136227Y-107705196D01*
X185112428Y-107699235D01*
X185089329Y-107690970D01*
X185067150Y-107680480D01*
X185046107Y-107667868D01*
X185026401Y-107653253D01*
X185008223Y-107636777D01*
X184991747Y-107618599D01*
X184977132Y-107598893D01*
X184964520Y-107577850D01*
X184954030Y-107555671D01*
X184945765Y-107532572D01*
X184939804Y-107508773D01*
X184936204Y-107484505D01*
X184935000Y-107460001D01*
X184935000Y-106559999D01*
X184936204Y-106535495D01*
X184939804Y-106511227D01*
X184945765Y-106487428D01*
X184954030Y-106464329D01*
X184964520Y-106442150D01*
X184977132Y-106421107D01*
X184991747Y-106401401D01*
X185008223Y-106383223D01*
X185026401Y-106366747D01*
X185046107Y-106352132D01*
X185067150Y-106339520D01*
X185089329Y-106329030D01*
X185112428Y-106320765D01*
X185136227Y-106314804D01*
X185160495Y-106311204D01*
X185184999Y-106310000D01*
X185835001Y-106310000D01*
X185859505Y-106311204D01*
G37*
G36*
X187909505Y-106311204D02*
G01*
X187933773Y-106314804D01*
X187957572Y-106320765D01*
X187980671Y-106329030D01*
X188002850Y-106339520D01*
X188023893Y-106352132D01*
X188043599Y-106366747D01*
X188061777Y-106383223D01*
X188078253Y-106401401D01*
X188092868Y-106421107D01*
X188105480Y-106442150D01*
X188115970Y-106464329D01*
X188124235Y-106487428D01*
X188130196Y-106511227D01*
X188133796Y-106535495D01*
X188135000Y-106559999D01*
X188135000Y-107460001D01*
X188133796Y-107484505D01*
X188130196Y-107508773D01*
X188124235Y-107532572D01*
X188115970Y-107555671D01*
X188105480Y-107577850D01*
X188092868Y-107598893D01*
X188078253Y-107618599D01*
X188061777Y-107636777D01*
X188043599Y-107653253D01*
X188023893Y-107667868D01*
X188002850Y-107680480D01*
X187980671Y-107690970D01*
X187957572Y-107699235D01*
X187933773Y-107705196D01*
X187909505Y-107708796D01*
X187885001Y-107710000D01*
X187234999Y-107710000D01*
X187210495Y-107708796D01*
X187186227Y-107705196D01*
X187162428Y-107699235D01*
X187139329Y-107690970D01*
X187117150Y-107680480D01*
X187096107Y-107667868D01*
X187076401Y-107653253D01*
X187058223Y-107636777D01*
X187041747Y-107618599D01*
X187027132Y-107598893D01*
X187014520Y-107577850D01*
X187004030Y-107555671D01*
X186995765Y-107532572D01*
X186989804Y-107508773D01*
X186986204Y-107484505D01*
X186985000Y-107460001D01*
X186985000Y-106559999D01*
X186986204Y-106535495D01*
X186989804Y-106511227D01*
X186995765Y-106487428D01*
X187004030Y-106464329D01*
X187014520Y-106442150D01*
X187027132Y-106421107D01*
X187041747Y-106401401D01*
X187058223Y-106383223D01*
X187076401Y-106366747D01*
X187096107Y-106352132D01*
X187117150Y-106339520D01*
X187139329Y-106329030D01*
X187162428Y-106320765D01*
X187186227Y-106314804D01*
X187210495Y-106311204D01*
X187234999Y-106310000D01*
X187885001Y-106310000D01*
X187909505Y-106311204D01*
G37*
G36*
X204439505Y-128471204D02*
G01*
X204463773Y-128474804D01*
X204487572Y-128480765D01*
X204510671Y-128489030D01*
X204532850Y-128499520D01*
X204553893Y-128512132D01*
X204573599Y-128526747D01*
X204591777Y-128543223D01*
X204608253Y-128561401D01*
X204622868Y-128581107D01*
X204635480Y-128602150D01*
X204645970Y-128624329D01*
X204654235Y-128647428D01*
X204660196Y-128671227D01*
X204663796Y-128695495D01*
X204665000Y-128719999D01*
X204665000Y-129620001D01*
X204663796Y-129644505D01*
X204660196Y-129668773D01*
X204654235Y-129692572D01*
X204645970Y-129715671D01*
X204635480Y-129737850D01*
X204622868Y-129758893D01*
X204608253Y-129778599D01*
X204591777Y-129796777D01*
X204573599Y-129813253D01*
X204553893Y-129827868D01*
X204532850Y-129840480D01*
X204510671Y-129850970D01*
X204487572Y-129859235D01*
X204463773Y-129865196D01*
X204439505Y-129868796D01*
X204415001Y-129870000D01*
X203764999Y-129870000D01*
X203740495Y-129868796D01*
X203716227Y-129865196D01*
X203692428Y-129859235D01*
X203669329Y-129850970D01*
X203647150Y-129840480D01*
X203626107Y-129827868D01*
X203606401Y-129813253D01*
X203588223Y-129796777D01*
X203571747Y-129778599D01*
X203557132Y-129758893D01*
X203544520Y-129737850D01*
X203534030Y-129715671D01*
X203525765Y-129692572D01*
X203519804Y-129668773D01*
X203516204Y-129644505D01*
X203515000Y-129620001D01*
X203515000Y-128719999D01*
X203516204Y-128695495D01*
X203519804Y-128671227D01*
X203525765Y-128647428D01*
X203534030Y-128624329D01*
X203544520Y-128602150D01*
X203557132Y-128581107D01*
X203571747Y-128561401D01*
X203588223Y-128543223D01*
X203606401Y-128526747D01*
X203626107Y-128512132D01*
X203647150Y-128499520D01*
X203669329Y-128489030D01*
X203692428Y-128480765D01*
X203716227Y-128474804D01*
X203740495Y-128471204D01*
X203764999Y-128470000D01*
X204415001Y-128470000D01*
X204439505Y-128471204D01*
G37*
G36*
X202389505Y-128471204D02*
G01*
X202413773Y-128474804D01*
X202437572Y-128480765D01*
X202460671Y-128489030D01*
X202482850Y-128499520D01*
X202503893Y-128512132D01*
X202523599Y-128526747D01*
X202541777Y-128543223D01*
X202558253Y-128561401D01*
X202572868Y-128581107D01*
X202585480Y-128602150D01*
X202595970Y-128624329D01*
X202604235Y-128647428D01*
X202610196Y-128671227D01*
X202613796Y-128695495D01*
X202615000Y-128719999D01*
X202615000Y-129620001D01*
X202613796Y-129644505D01*
X202610196Y-129668773D01*
X202604235Y-129692572D01*
X202595970Y-129715671D01*
X202585480Y-129737850D01*
X202572868Y-129758893D01*
X202558253Y-129778599D01*
X202541777Y-129796777D01*
X202523599Y-129813253D01*
X202503893Y-129827868D01*
X202482850Y-129840480D01*
X202460671Y-129850970D01*
X202437572Y-129859235D01*
X202413773Y-129865196D01*
X202389505Y-129868796D01*
X202365001Y-129870000D01*
X201714999Y-129870000D01*
X201690495Y-129868796D01*
X201666227Y-129865196D01*
X201642428Y-129859235D01*
X201619329Y-129850970D01*
X201597150Y-129840480D01*
X201576107Y-129827868D01*
X201556401Y-129813253D01*
X201538223Y-129796777D01*
X201521747Y-129778599D01*
X201507132Y-129758893D01*
X201494520Y-129737850D01*
X201484030Y-129715671D01*
X201475765Y-129692572D01*
X201469804Y-129668773D01*
X201466204Y-129644505D01*
X201465000Y-129620001D01*
X201465000Y-128719999D01*
X201466204Y-128695495D01*
X201469804Y-128671227D01*
X201475765Y-128647428D01*
X201484030Y-128624329D01*
X201494520Y-128602150D01*
X201507132Y-128581107D01*
X201521747Y-128561401D01*
X201538223Y-128543223D01*
X201556401Y-128526747D01*
X201576107Y-128512132D01*
X201597150Y-128499520D01*
X201619329Y-128489030D01*
X201642428Y-128480765D01*
X201666227Y-128474804D01*
X201690495Y-128471204D01*
X201714999Y-128470000D01*
X202365001Y-128470000D01*
X202389505Y-128471204D01*
G37*
G36*
X202359505Y-124381204D02*
G01*
X202383773Y-124384804D01*
X202407572Y-124390765D01*
X202430671Y-124399030D01*
X202452850Y-124409520D01*
X202473893Y-124422132D01*
X202493599Y-124436747D01*
X202511777Y-124453223D01*
X202528253Y-124471401D01*
X202542868Y-124491107D01*
X202555480Y-124512150D01*
X202565970Y-124534329D01*
X202574235Y-124557428D01*
X202580196Y-124581227D01*
X202583796Y-124605495D01*
X202585000Y-124629999D01*
X202585000Y-125530001D01*
X202583796Y-125554505D01*
X202580196Y-125578773D01*
X202574235Y-125602572D01*
X202565970Y-125625671D01*
X202555480Y-125647850D01*
X202542868Y-125668893D01*
X202528253Y-125688599D01*
X202511777Y-125706777D01*
X202493599Y-125723253D01*
X202473893Y-125737868D01*
X202452850Y-125750480D01*
X202430671Y-125760970D01*
X202407572Y-125769235D01*
X202383773Y-125775196D01*
X202359505Y-125778796D01*
X202335001Y-125780000D01*
X201684999Y-125780000D01*
X201660495Y-125778796D01*
X201636227Y-125775196D01*
X201612428Y-125769235D01*
X201589329Y-125760970D01*
X201567150Y-125750480D01*
X201546107Y-125737868D01*
X201526401Y-125723253D01*
X201508223Y-125706777D01*
X201491747Y-125688599D01*
X201477132Y-125668893D01*
X201464520Y-125647850D01*
X201454030Y-125625671D01*
X201445765Y-125602572D01*
X201439804Y-125578773D01*
X201436204Y-125554505D01*
X201435000Y-125530001D01*
X201435000Y-124629999D01*
X201436204Y-124605495D01*
X201439804Y-124581227D01*
X201445765Y-124557428D01*
X201454030Y-124534329D01*
X201464520Y-124512150D01*
X201477132Y-124491107D01*
X201491747Y-124471401D01*
X201508223Y-124453223D01*
X201526401Y-124436747D01*
X201546107Y-124422132D01*
X201567150Y-124409520D01*
X201589329Y-124399030D01*
X201612428Y-124390765D01*
X201636227Y-124384804D01*
X201660495Y-124381204D01*
X201684999Y-124380000D01*
X202335001Y-124380000D01*
X202359505Y-124381204D01*
G37*
G36*
X204409505Y-124381204D02*
G01*
X204433773Y-124384804D01*
X204457572Y-124390765D01*
X204480671Y-124399030D01*
X204502850Y-124409520D01*
X204523893Y-124422132D01*
X204543599Y-124436747D01*
X204561777Y-124453223D01*
X204578253Y-124471401D01*
X204592868Y-124491107D01*
X204605480Y-124512150D01*
X204615970Y-124534329D01*
X204624235Y-124557428D01*
X204630196Y-124581227D01*
X204633796Y-124605495D01*
X204635000Y-124629999D01*
X204635000Y-125530001D01*
X204633796Y-125554505D01*
X204630196Y-125578773D01*
X204624235Y-125602572D01*
X204615970Y-125625671D01*
X204605480Y-125647850D01*
X204592868Y-125668893D01*
X204578253Y-125688599D01*
X204561777Y-125706777D01*
X204543599Y-125723253D01*
X204523893Y-125737868D01*
X204502850Y-125750480D01*
X204480671Y-125760970D01*
X204457572Y-125769235D01*
X204433773Y-125775196D01*
X204409505Y-125778796D01*
X204385001Y-125780000D01*
X203734999Y-125780000D01*
X203710495Y-125778796D01*
X203686227Y-125775196D01*
X203662428Y-125769235D01*
X203639329Y-125760970D01*
X203617150Y-125750480D01*
X203596107Y-125737868D01*
X203576401Y-125723253D01*
X203558223Y-125706777D01*
X203541747Y-125688599D01*
X203527132Y-125668893D01*
X203514520Y-125647850D01*
X203504030Y-125625671D01*
X203495765Y-125602572D01*
X203489804Y-125578773D01*
X203486204Y-125554505D01*
X203485000Y-125530001D01*
X203485000Y-124629999D01*
X203486204Y-124605495D01*
X203489804Y-124581227D01*
X203495765Y-124557428D01*
X203504030Y-124534329D01*
X203514520Y-124512150D01*
X203527132Y-124491107D01*
X203541747Y-124471401D01*
X203558223Y-124453223D01*
X203576401Y-124436747D01*
X203596107Y-124422132D01*
X203617150Y-124409520D01*
X203639329Y-124399030D01*
X203662428Y-124390765D01*
X203686227Y-124384804D01*
X203710495Y-124381204D01*
X203734999Y-124380000D01*
X204385001Y-124380000D01*
X204409505Y-124381204D01*
G37*
G36*
X202374505Y-126411204D02*
G01*
X202398773Y-126414804D01*
X202422572Y-126420765D01*
X202445671Y-126429030D01*
X202467850Y-126439520D01*
X202488893Y-126452132D01*
X202508599Y-126466747D01*
X202526777Y-126483223D01*
X202543253Y-126501401D01*
X202557868Y-126521107D01*
X202570480Y-126542150D01*
X202580970Y-126564329D01*
X202589235Y-126587428D01*
X202595196Y-126611227D01*
X202598796Y-126635495D01*
X202600000Y-126659999D01*
X202600000Y-127560001D01*
X202598796Y-127584505D01*
X202595196Y-127608773D01*
X202589235Y-127632572D01*
X202580970Y-127655671D01*
X202570480Y-127677850D01*
X202557868Y-127698893D01*
X202543253Y-127718599D01*
X202526777Y-127736777D01*
X202508599Y-127753253D01*
X202488893Y-127767868D01*
X202467850Y-127780480D01*
X202445671Y-127790970D01*
X202422572Y-127799235D01*
X202398773Y-127805196D01*
X202374505Y-127808796D01*
X202350001Y-127810000D01*
X201699999Y-127810000D01*
X201675495Y-127808796D01*
X201651227Y-127805196D01*
X201627428Y-127799235D01*
X201604329Y-127790970D01*
X201582150Y-127780480D01*
X201561107Y-127767868D01*
X201541401Y-127753253D01*
X201523223Y-127736777D01*
X201506747Y-127718599D01*
X201492132Y-127698893D01*
X201479520Y-127677850D01*
X201469030Y-127655671D01*
X201460765Y-127632572D01*
X201454804Y-127608773D01*
X201451204Y-127584505D01*
X201450000Y-127560001D01*
X201450000Y-126659999D01*
X201451204Y-126635495D01*
X201454804Y-126611227D01*
X201460765Y-126587428D01*
X201469030Y-126564329D01*
X201479520Y-126542150D01*
X201492132Y-126521107D01*
X201506747Y-126501401D01*
X201523223Y-126483223D01*
X201541401Y-126466747D01*
X201561107Y-126452132D01*
X201582150Y-126439520D01*
X201604329Y-126429030D01*
X201627428Y-126420765D01*
X201651227Y-126414804D01*
X201675495Y-126411204D01*
X201699999Y-126410000D01*
X202350001Y-126410000D01*
X202374505Y-126411204D01*
G37*
G36*
X204424505Y-126411204D02*
G01*
X204448773Y-126414804D01*
X204472572Y-126420765D01*
X204495671Y-126429030D01*
X204517850Y-126439520D01*
X204538893Y-126452132D01*
X204558599Y-126466747D01*
X204576777Y-126483223D01*
X204593253Y-126501401D01*
X204607868Y-126521107D01*
X204620480Y-126542150D01*
X204630970Y-126564329D01*
X204639235Y-126587428D01*
X204645196Y-126611227D01*
X204648796Y-126635495D01*
X204650000Y-126659999D01*
X204650000Y-127560001D01*
X204648796Y-127584505D01*
X204645196Y-127608773D01*
X204639235Y-127632572D01*
X204630970Y-127655671D01*
X204620480Y-127677850D01*
X204607868Y-127698893D01*
X204593253Y-127718599D01*
X204576777Y-127736777D01*
X204558599Y-127753253D01*
X204538893Y-127767868D01*
X204517850Y-127780480D01*
X204495671Y-127790970D01*
X204472572Y-127799235D01*
X204448773Y-127805196D01*
X204424505Y-127808796D01*
X204400001Y-127810000D01*
X203749999Y-127810000D01*
X203725495Y-127808796D01*
X203701227Y-127805196D01*
X203677428Y-127799235D01*
X203654329Y-127790970D01*
X203632150Y-127780480D01*
X203611107Y-127767868D01*
X203591401Y-127753253D01*
X203573223Y-127736777D01*
X203556747Y-127718599D01*
X203542132Y-127698893D01*
X203529520Y-127677850D01*
X203519030Y-127655671D01*
X203510765Y-127632572D01*
X203504804Y-127608773D01*
X203501204Y-127584505D01*
X203500000Y-127560001D01*
X203500000Y-126659999D01*
X203501204Y-126635495D01*
X203504804Y-126611227D01*
X203510765Y-126587428D01*
X203519030Y-126564329D01*
X203529520Y-126542150D01*
X203542132Y-126521107D01*
X203556747Y-126501401D01*
X203573223Y-126483223D01*
X203591401Y-126466747D01*
X203611107Y-126452132D01*
X203632150Y-126439520D01*
X203654329Y-126429030D01*
X203677428Y-126420765D01*
X203701227Y-126414804D01*
X203725495Y-126411204D01*
X203749999Y-126410000D01*
X204400001Y-126410000D01*
X204424505Y-126411204D01*
G37*
G36*
X204409505Y-122351204D02*
G01*
X204433773Y-122354804D01*
X204457572Y-122360765D01*
X204480671Y-122369030D01*
X204502850Y-122379520D01*
X204523893Y-122392132D01*
X204543599Y-122406747D01*
X204561777Y-122423223D01*
X204578253Y-122441401D01*
X204592868Y-122461107D01*
X204605480Y-122482150D01*
X204615970Y-122504329D01*
X204624235Y-122527428D01*
X204630196Y-122551227D01*
X204633796Y-122575495D01*
X204635000Y-122599999D01*
X204635000Y-123500001D01*
X204633796Y-123524505D01*
X204630196Y-123548773D01*
X204624235Y-123572572D01*
X204615970Y-123595671D01*
X204605480Y-123617850D01*
X204592868Y-123638893D01*
X204578253Y-123658599D01*
X204561777Y-123676777D01*
X204543599Y-123693253D01*
X204523893Y-123707868D01*
X204502850Y-123720480D01*
X204480671Y-123730970D01*
X204457572Y-123739235D01*
X204433773Y-123745196D01*
X204409505Y-123748796D01*
X204385001Y-123750000D01*
X203734999Y-123750000D01*
X203710495Y-123748796D01*
X203686227Y-123745196D01*
X203662428Y-123739235D01*
X203639329Y-123730970D01*
X203617150Y-123720480D01*
X203596107Y-123707868D01*
X203576401Y-123693253D01*
X203558223Y-123676777D01*
X203541747Y-123658599D01*
X203527132Y-123638893D01*
X203514520Y-123617850D01*
X203504030Y-123595671D01*
X203495765Y-123572572D01*
X203489804Y-123548773D01*
X203486204Y-123524505D01*
X203485000Y-123500001D01*
X203485000Y-122599999D01*
X203486204Y-122575495D01*
X203489804Y-122551227D01*
X203495765Y-122527428D01*
X203504030Y-122504329D01*
X203514520Y-122482150D01*
X203527132Y-122461107D01*
X203541747Y-122441401D01*
X203558223Y-122423223D01*
X203576401Y-122406747D01*
X203596107Y-122392132D01*
X203617150Y-122379520D01*
X203639329Y-122369030D01*
X203662428Y-122360765D01*
X203686227Y-122354804D01*
X203710495Y-122351204D01*
X203734999Y-122350000D01*
X204385001Y-122350000D01*
X204409505Y-122351204D01*
G37*
G36*
X202359505Y-122351204D02*
G01*
X202383773Y-122354804D01*
X202407572Y-122360765D01*
X202430671Y-122369030D01*
X202452850Y-122379520D01*
X202473893Y-122392132D01*
X202493599Y-122406747D01*
X202511777Y-122423223D01*
X202528253Y-122441401D01*
X202542868Y-122461107D01*
X202555480Y-122482150D01*
X202565970Y-122504329D01*
X202574235Y-122527428D01*
X202580196Y-122551227D01*
X202583796Y-122575495D01*
X202585000Y-122599999D01*
X202585000Y-123500001D01*
X202583796Y-123524505D01*
X202580196Y-123548773D01*
X202574235Y-123572572D01*
X202565970Y-123595671D01*
X202555480Y-123617850D01*
X202542868Y-123638893D01*
X202528253Y-123658599D01*
X202511777Y-123676777D01*
X202493599Y-123693253D01*
X202473893Y-123707868D01*
X202452850Y-123720480D01*
X202430671Y-123730970D01*
X202407572Y-123739235D01*
X202383773Y-123745196D01*
X202359505Y-123748796D01*
X202335001Y-123750000D01*
X201684999Y-123750000D01*
X201660495Y-123748796D01*
X201636227Y-123745196D01*
X201612428Y-123739235D01*
X201589329Y-123730970D01*
X201567150Y-123720480D01*
X201546107Y-123707868D01*
X201526401Y-123693253D01*
X201508223Y-123676777D01*
X201491747Y-123658599D01*
X201477132Y-123638893D01*
X201464520Y-123617850D01*
X201454030Y-123595671D01*
X201445765Y-123572572D01*
X201439804Y-123548773D01*
X201436204Y-123524505D01*
X201435000Y-123500001D01*
X201435000Y-122599999D01*
X201436204Y-122575495D01*
X201439804Y-122551227D01*
X201445765Y-122527428D01*
X201454030Y-122504329D01*
X201464520Y-122482150D01*
X201477132Y-122461107D01*
X201491747Y-122441401D01*
X201508223Y-122423223D01*
X201526401Y-122406747D01*
X201546107Y-122392132D01*
X201567150Y-122379520D01*
X201589329Y-122369030D01*
X201612428Y-122360765D01*
X201636227Y-122354804D01*
X201660495Y-122351204D01*
X201684999Y-122350000D01*
X202335001Y-122350000D01*
X202359505Y-122351204D01*
G37*
D11*
X111140000Y-140100000D03*
X112420000Y-140100000D03*
X108540000Y-140100000D03*
X113740000Y-140100000D03*
X109860000Y-140100000D03*
X111140000Y-143100000D03*
X109860000Y-143100000D03*
X112420000Y-143100000D03*
X108540000Y-143100000D03*
X113740000Y-143100000D03*
D12*
X81125000Y-105650000D03*
X81125000Y-110150000D03*
X89075000Y-110150000D03*
X89075000Y-105650000D03*
X89080000Y-117260000D03*
X89080000Y-121760000D03*
X81130000Y-121760000D03*
X81130000Y-117260000D03*
X170450000Y-136800000D03*
X170450000Y-141300000D03*
X178400000Y-141300000D03*
X178400000Y-136800000D03*
D10*
G36*
X87074505Y-130851204D02*
G01*
X87098773Y-130854804D01*
X87122572Y-130860765D01*
X87145671Y-130869030D01*
X87167850Y-130879520D01*
X87188893Y-130892132D01*
X87208599Y-130906747D01*
X87226777Y-130923223D01*
X87243253Y-130941401D01*
X87257868Y-130961107D01*
X87270480Y-130982150D01*
X87280970Y-131004329D01*
X87289235Y-131027428D01*
X87295196Y-131051227D01*
X87298796Y-131075495D01*
X87300000Y-131099999D01*
X87300000Y-131750001D01*
X87298796Y-131774505D01*
X87295196Y-131798773D01*
X87289235Y-131822572D01*
X87280970Y-131845671D01*
X87270480Y-131867850D01*
X87257868Y-131888893D01*
X87243253Y-131908599D01*
X87226777Y-131926777D01*
X87208599Y-131943253D01*
X87188893Y-131957868D01*
X87167850Y-131970480D01*
X87145671Y-131980970D01*
X87122572Y-131989235D01*
X87098773Y-131995196D01*
X87074505Y-131998796D01*
X87050001Y-132000000D01*
X86149999Y-132000000D01*
X86125495Y-131998796D01*
X86101227Y-131995196D01*
X86077428Y-131989235D01*
X86054329Y-131980970D01*
X86032150Y-131970480D01*
X86011107Y-131957868D01*
X85991401Y-131943253D01*
X85973223Y-131926777D01*
X85956747Y-131908599D01*
X85942132Y-131888893D01*
X85929520Y-131867850D01*
X85919030Y-131845671D01*
X85910765Y-131822572D01*
X85904804Y-131798773D01*
X85901204Y-131774505D01*
X85900000Y-131750001D01*
X85900000Y-131099999D01*
X85901204Y-131075495D01*
X85904804Y-131051227D01*
X85910765Y-131027428D01*
X85919030Y-131004329D01*
X85929520Y-130982150D01*
X85942132Y-130961107D01*
X85956747Y-130941401D01*
X85973223Y-130923223D01*
X85991401Y-130906747D01*
X86011107Y-130892132D01*
X86032150Y-130879520D01*
X86054329Y-130869030D01*
X86077428Y-130860765D01*
X86101227Y-130854804D01*
X86125495Y-130851204D01*
X86149999Y-130850000D01*
X87050001Y-130850000D01*
X87074505Y-130851204D01*
G37*
G36*
X87074505Y-128801204D02*
G01*
X87098773Y-128804804D01*
X87122572Y-128810765D01*
X87145671Y-128819030D01*
X87167850Y-128829520D01*
X87188893Y-128842132D01*
X87208599Y-128856747D01*
X87226777Y-128873223D01*
X87243253Y-128891401D01*
X87257868Y-128911107D01*
X87270480Y-128932150D01*
X87280970Y-128954329D01*
X87289235Y-128977428D01*
X87295196Y-129001227D01*
X87298796Y-129025495D01*
X87300000Y-129049999D01*
X87300000Y-129700001D01*
X87298796Y-129724505D01*
X87295196Y-129748773D01*
X87289235Y-129772572D01*
X87280970Y-129795671D01*
X87270480Y-129817850D01*
X87257868Y-129838893D01*
X87243253Y-129858599D01*
X87226777Y-129876777D01*
X87208599Y-129893253D01*
X87188893Y-129907868D01*
X87167850Y-129920480D01*
X87145671Y-129930970D01*
X87122572Y-129939235D01*
X87098773Y-129945196D01*
X87074505Y-129948796D01*
X87050001Y-129950000D01*
X86149999Y-129950000D01*
X86125495Y-129948796D01*
X86101227Y-129945196D01*
X86077428Y-129939235D01*
X86054329Y-129930970D01*
X86032150Y-129920480D01*
X86011107Y-129907868D01*
X85991401Y-129893253D01*
X85973223Y-129876777D01*
X85956747Y-129858599D01*
X85942132Y-129838893D01*
X85929520Y-129817850D01*
X85919030Y-129795671D01*
X85910765Y-129772572D01*
X85904804Y-129748773D01*
X85901204Y-129724505D01*
X85900000Y-129700001D01*
X85900000Y-129049999D01*
X85901204Y-129025495D01*
X85904804Y-129001227D01*
X85910765Y-128977428D01*
X85919030Y-128954329D01*
X85929520Y-128932150D01*
X85942132Y-128911107D01*
X85956747Y-128891401D01*
X85973223Y-128873223D01*
X85991401Y-128856747D01*
X86011107Y-128842132D01*
X86032150Y-128829520D01*
X86054329Y-128819030D01*
X86077428Y-128810765D01*
X86101227Y-128804804D01*
X86125495Y-128801204D01*
X86149999Y-128800000D01*
X87050001Y-128800000D01*
X87074505Y-128801204D01*
G37*
G36*
X113249505Y-131901204D02*
G01*
X113273773Y-131904804D01*
X113297572Y-131910765D01*
X113320671Y-131919030D01*
X113342850Y-131929520D01*
X113363893Y-131942132D01*
X113383599Y-131956747D01*
X113401777Y-131973223D01*
X113418253Y-131991401D01*
X113432868Y-132011107D01*
X113445480Y-132032150D01*
X113455970Y-132054329D01*
X113464235Y-132077428D01*
X113470196Y-132101227D01*
X113473796Y-132125495D01*
X113475000Y-132149999D01*
X113475000Y-133050001D01*
X113473796Y-133074505D01*
X113470196Y-133098773D01*
X113464235Y-133122572D01*
X113455970Y-133145671D01*
X113445480Y-133167850D01*
X113432868Y-133188893D01*
X113418253Y-133208599D01*
X113401777Y-133226777D01*
X113383599Y-133243253D01*
X113363893Y-133257868D01*
X113342850Y-133270480D01*
X113320671Y-133280970D01*
X113297572Y-133289235D01*
X113273773Y-133295196D01*
X113249505Y-133298796D01*
X113225001Y-133300000D01*
X112574999Y-133300000D01*
X112550495Y-133298796D01*
X112526227Y-133295196D01*
X112502428Y-133289235D01*
X112479329Y-133280970D01*
X112457150Y-133270480D01*
X112436107Y-133257868D01*
X112416401Y-133243253D01*
X112398223Y-133226777D01*
X112381747Y-133208599D01*
X112367132Y-133188893D01*
X112354520Y-133167850D01*
X112344030Y-133145671D01*
X112335765Y-133122572D01*
X112329804Y-133098773D01*
X112326204Y-133074505D01*
X112325000Y-133050001D01*
X112325000Y-132149999D01*
X112326204Y-132125495D01*
X112329804Y-132101227D01*
X112335765Y-132077428D01*
X112344030Y-132054329D01*
X112354520Y-132032150D01*
X112367132Y-132011107D01*
X112381747Y-131991401D01*
X112398223Y-131973223D01*
X112416401Y-131956747D01*
X112436107Y-131942132D01*
X112457150Y-131929520D01*
X112479329Y-131919030D01*
X112502428Y-131910765D01*
X112526227Y-131904804D01*
X112550495Y-131901204D01*
X112574999Y-131900000D01*
X113225001Y-131900000D01*
X113249505Y-131901204D01*
G37*
G36*
X111199505Y-131901204D02*
G01*
X111223773Y-131904804D01*
X111247572Y-131910765D01*
X111270671Y-131919030D01*
X111292850Y-131929520D01*
X111313893Y-131942132D01*
X111333599Y-131956747D01*
X111351777Y-131973223D01*
X111368253Y-131991401D01*
X111382868Y-132011107D01*
X111395480Y-132032150D01*
X111405970Y-132054329D01*
X111414235Y-132077428D01*
X111420196Y-132101227D01*
X111423796Y-132125495D01*
X111425000Y-132149999D01*
X111425000Y-133050001D01*
X111423796Y-133074505D01*
X111420196Y-133098773D01*
X111414235Y-133122572D01*
X111405970Y-133145671D01*
X111395480Y-133167850D01*
X111382868Y-133188893D01*
X111368253Y-133208599D01*
X111351777Y-133226777D01*
X111333599Y-133243253D01*
X111313893Y-133257868D01*
X111292850Y-133270480D01*
X111270671Y-133280970D01*
X111247572Y-133289235D01*
X111223773Y-133295196D01*
X111199505Y-133298796D01*
X111175001Y-133300000D01*
X110524999Y-133300000D01*
X110500495Y-133298796D01*
X110476227Y-133295196D01*
X110452428Y-133289235D01*
X110429329Y-133280970D01*
X110407150Y-133270480D01*
X110386107Y-133257868D01*
X110366401Y-133243253D01*
X110348223Y-133226777D01*
X110331747Y-133208599D01*
X110317132Y-133188893D01*
X110304520Y-133167850D01*
X110294030Y-133145671D01*
X110285765Y-133122572D01*
X110279804Y-133098773D01*
X110276204Y-133074505D01*
X110275000Y-133050001D01*
X110275000Y-132149999D01*
X110276204Y-132125495D01*
X110279804Y-132101227D01*
X110285765Y-132077428D01*
X110294030Y-132054329D01*
X110304520Y-132032150D01*
X110317132Y-132011107D01*
X110331747Y-131991401D01*
X110348223Y-131973223D01*
X110366401Y-131956747D01*
X110386107Y-131942132D01*
X110407150Y-131929520D01*
X110429329Y-131919030D01*
X110452428Y-131910765D01*
X110476227Y-131904804D01*
X110500495Y-131901204D01*
X110524999Y-131900000D01*
X111175001Y-131900000D01*
X111199505Y-131901204D01*
G37*
G36*
X134074505Y-131826204D02*
G01*
X134098773Y-131829804D01*
X134122572Y-131835765D01*
X134145671Y-131844030D01*
X134167850Y-131854520D01*
X134188893Y-131867132D01*
X134208599Y-131881747D01*
X134226777Y-131898223D01*
X134243253Y-131916401D01*
X134257868Y-131936107D01*
X134270480Y-131957150D01*
X134280970Y-131979329D01*
X134289235Y-132002428D01*
X134295196Y-132026227D01*
X134298796Y-132050495D01*
X134300000Y-132074999D01*
X134300000Y-132725001D01*
X134298796Y-132749505D01*
X134295196Y-132773773D01*
X134289235Y-132797572D01*
X134280970Y-132820671D01*
X134270480Y-132842850D01*
X134257868Y-132863893D01*
X134243253Y-132883599D01*
X134226777Y-132901777D01*
X134208599Y-132918253D01*
X134188893Y-132932868D01*
X134167850Y-132945480D01*
X134145671Y-132955970D01*
X134122572Y-132964235D01*
X134098773Y-132970196D01*
X134074505Y-132973796D01*
X134050001Y-132975000D01*
X133149999Y-132975000D01*
X133125495Y-132973796D01*
X133101227Y-132970196D01*
X133077428Y-132964235D01*
X133054329Y-132955970D01*
X133032150Y-132945480D01*
X133011107Y-132932868D01*
X132991401Y-132918253D01*
X132973223Y-132901777D01*
X132956747Y-132883599D01*
X132942132Y-132863893D01*
X132929520Y-132842850D01*
X132919030Y-132820671D01*
X132910765Y-132797572D01*
X132904804Y-132773773D01*
X132901204Y-132749505D01*
X132900000Y-132725001D01*
X132900000Y-132074999D01*
X132901204Y-132050495D01*
X132904804Y-132026227D01*
X132910765Y-132002428D01*
X132919030Y-131979329D01*
X132929520Y-131957150D01*
X132942132Y-131936107D01*
X132956747Y-131916401D01*
X132973223Y-131898223D01*
X132991401Y-131881747D01*
X133011107Y-131867132D01*
X133032150Y-131854520D01*
X133054329Y-131844030D01*
X133077428Y-131835765D01*
X133101227Y-131829804D01*
X133125495Y-131826204D01*
X133149999Y-131825000D01*
X134050001Y-131825000D01*
X134074505Y-131826204D01*
G37*
G36*
X134074505Y-133876204D02*
G01*
X134098773Y-133879804D01*
X134122572Y-133885765D01*
X134145671Y-133894030D01*
X134167850Y-133904520D01*
X134188893Y-133917132D01*
X134208599Y-133931747D01*
X134226777Y-133948223D01*
X134243253Y-133966401D01*
X134257868Y-133986107D01*
X134270480Y-134007150D01*
X134280970Y-134029329D01*
X134289235Y-134052428D01*
X134295196Y-134076227D01*
X134298796Y-134100495D01*
X134300000Y-134124999D01*
X134300000Y-134775001D01*
X134298796Y-134799505D01*
X134295196Y-134823773D01*
X134289235Y-134847572D01*
X134280970Y-134870671D01*
X134270480Y-134892850D01*
X134257868Y-134913893D01*
X134243253Y-134933599D01*
X134226777Y-134951777D01*
X134208599Y-134968253D01*
X134188893Y-134982868D01*
X134167850Y-134995480D01*
X134145671Y-135005970D01*
X134122572Y-135014235D01*
X134098773Y-135020196D01*
X134074505Y-135023796D01*
X134050001Y-135025000D01*
X133149999Y-135025000D01*
X133125495Y-135023796D01*
X133101227Y-135020196D01*
X133077428Y-135014235D01*
X133054329Y-135005970D01*
X133032150Y-134995480D01*
X133011107Y-134982868D01*
X132991401Y-134968253D01*
X132973223Y-134951777D01*
X132956747Y-134933599D01*
X132942132Y-134913893D01*
X132929520Y-134892850D01*
X132919030Y-134870671D01*
X132910765Y-134847572D01*
X132904804Y-134823773D01*
X132901204Y-134799505D01*
X132900000Y-134775001D01*
X132900000Y-134124999D01*
X132901204Y-134100495D01*
X132904804Y-134076227D01*
X132910765Y-134052428D01*
X132919030Y-134029329D01*
X132929520Y-134007150D01*
X132942132Y-133986107D01*
X132956747Y-133966401D01*
X132973223Y-133948223D01*
X132991401Y-133931747D01*
X133011107Y-133917132D01*
X133032150Y-133904520D01*
X133054329Y-133894030D01*
X133077428Y-133885765D01*
X133101227Y-133879804D01*
X133125495Y-133876204D01*
X133149999Y-133875000D01*
X134050001Y-133875000D01*
X134074505Y-133876204D01*
G37*
M02*
