G04 #@! TF.GenerationSoftware,KiCad,Pcbnew,5.1.5+dfsg1-2*
G04 #@! TF.CreationDate,2020-02-18T22:18:07+02:00*
G04 #@! TF.ProjectId,zxkbd,7a786b62-642e-46b6-9963-61645f706362,rev?*
G04 #@! TF.SameCoordinates,Original*
G04 #@! TF.FileFunction,Legend,Bot*
G04 #@! TF.FilePolarity,Positive*
%FSLAX46Y46*%
G04 Gerber Fmt 4.6, Leading zero omitted, Abs format (unit mm)*
G04 Created by KiCad (PCBNEW 5.1.5+dfsg1-2) date 2020-02-18 22:18:07*
%MOMM*%
%LPD*%
G04 APERTURE LIST*
%ADD10C,0.120000*%
%ADD11C,0.150000*%
%ADD12C,0.010000*%
G04 APERTURE END LIST*
D10*
X111000000Y-125100000D02*
X111000000Y-116000000D01*
X171800000Y-125100000D02*
X111000000Y-125100000D01*
X171800000Y-116000000D02*
X171800000Y-125100000D01*
X111000000Y-116000000D02*
X171800000Y-116000000D01*
D11*
X168566666Y-135390476D02*
X168566666Y-135866666D01*
X168852380Y-135295238D02*
X167852380Y-135628571D01*
X168852380Y-135961904D01*
X167852380Y-136152380D02*
X168852380Y-136485714D01*
X167852380Y-136819047D01*
X168852380Y-137723809D02*
X168376190Y-137390476D01*
X168852380Y-137152380D02*
X167852380Y-137152380D01*
X167852380Y-137533333D01*
X167900000Y-137628571D01*
X167947619Y-137676190D01*
X168042857Y-137723809D01*
X168185714Y-137723809D01*
X168280952Y-137676190D01*
X168328571Y-137628571D01*
X168376190Y-137533333D01*
X168376190Y-137152380D01*
X168852380Y-139485714D02*
X168376190Y-139152380D01*
X168852380Y-138914285D02*
X167852380Y-138914285D01*
X167852380Y-139295238D01*
X167900000Y-139390476D01*
X167947619Y-139438095D01*
X168042857Y-139485714D01*
X168185714Y-139485714D01*
X168280952Y-139438095D01*
X168328571Y-139390476D01*
X168376190Y-139295238D01*
X168376190Y-138914285D01*
X168328571Y-139914285D02*
X168328571Y-140247619D01*
X168852380Y-140390476D02*
X168852380Y-139914285D01*
X167852380Y-139914285D01*
X167852380Y-140390476D01*
X168804761Y-140771428D02*
X168852380Y-140914285D01*
X168852380Y-141152380D01*
X168804761Y-141247619D01*
X168757142Y-141295238D01*
X168661904Y-141342857D01*
X168566666Y-141342857D01*
X168471428Y-141295238D01*
X168423809Y-141247619D01*
X168376190Y-141152380D01*
X168328571Y-140961904D01*
X168280952Y-140866666D01*
X168233333Y-140819047D01*
X168138095Y-140771428D01*
X168042857Y-140771428D01*
X167947619Y-140819047D01*
X167900000Y-140866666D01*
X167852380Y-140961904D01*
X167852380Y-141200000D01*
X167900000Y-141342857D01*
X168328571Y-141771428D02*
X168328571Y-142104761D01*
X168852380Y-142247619D02*
X168852380Y-141771428D01*
X167852380Y-141771428D01*
X167852380Y-142247619D01*
X167852380Y-142533333D02*
X167852380Y-143104761D01*
X168852380Y-142819047D02*
X167852380Y-142819047D01*
X151804761Y-132390476D02*
X151852380Y-132533333D01*
X151852380Y-132771428D01*
X151804761Y-132866666D01*
X151757142Y-132914285D01*
X151661904Y-132961904D01*
X151566666Y-132961904D01*
X151471428Y-132914285D01*
X151423809Y-132866666D01*
X151376190Y-132771428D01*
X151328571Y-132580952D01*
X151280952Y-132485714D01*
X151233333Y-132438095D01*
X151138095Y-132390476D01*
X151042857Y-132390476D01*
X150947619Y-132438095D01*
X150900000Y-132485714D01*
X150852380Y-132580952D01*
X150852380Y-132819047D01*
X150900000Y-132961904D01*
X151328571Y-133390476D02*
X151328571Y-133723809D01*
X151852380Y-133866666D02*
X151852380Y-133390476D01*
X150852380Y-133390476D01*
X150852380Y-133866666D01*
X151852380Y-134866666D02*
X151376190Y-134533333D01*
X151852380Y-134295238D02*
X150852380Y-134295238D01*
X150852380Y-134676190D01*
X150900000Y-134771428D01*
X150947619Y-134819047D01*
X151042857Y-134866666D01*
X151185714Y-134866666D01*
X151280952Y-134819047D01*
X151328571Y-134771428D01*
X151376190Y-134676190D01*
X151376190Y-134295238D01*
X151852380Y-135295238D02*
X150852380Y-135295238D01*
X151566666Y-135723809D02*
X151566666Y-136200000D01*
X151852380Y-135628571D02*
X150852380Y-135961904D01*
X151852380Y-136295238D01*
X151852380Y-137104761D02*
X151852380Y-136628571D01*
X150852380Y-136628571D01*
X158033333Y-130452380D02*
X157700000Y-131452380D01*
X157366666Y-130452380D01*
X156461904Y-131357142D02*
X156509523Y-131404761D01*
X156652380Y-131452380D01*
X156747619Y-131452380D01*
X156890476Y-131404761D01*
X156985714Y-131309523D01*
X157033333Y-131214285D01*
X157080952Y-131023809D01*
X157080952Y-130880952D01*
X157033333Y-130690476D01*
X156985714Y-130595238D01*
X156890476Y-130500000D01*
X156747619Y-130452380D01*
X156652380Y-130452380D01*
X156509523Y-130500000D01*
X156461904Y-130547619D01*
X155461904Y-131357142D02*
X155509523Y-131404761D01*
X155652380Y-131452380D01*
X155747619Y-131452380D01*
X155890476Y-131404761D01*
X155985714Y-131309523D01*
X156033333Y-131214285D01*
X156080952Y-131023809D01*
X156080952Y-130880952D01*
X156033333Y-130690476D01*
X155985714Y-130595238D01*
X155890476Y-130500000D01*
X155747619Y-130452380D01*
X155652380Y-130452380D01*
X155509523Y-130500000D01*
X155461904Y-130547619D01*
X157461904Y-138000000D02*
X157557142Y-137952380D01*
X157700000Y-137952380D01*
X157842857Y-138000000D01*
X157938095Y-138095238D01*
X157985714Y-138190476D01*
X158033333Y-138380952D01*
X158033333Y-138523809D01*
X157985714Y-138714285D01*
X157938095Y-138809523D01*
X157842857Y-138904761D01*
X157700000Y-138952380D01*
X157604761Y-138952380D01*
X157461904Y-138904761D01*
X157414285Y-138857142D01*
X157414285Y-138523809D01*
X157604761Y-138523809D01*
X156985714Y-138952380D02*
X156985714Y-137952380D01*
X156414285Y-138952380D01*
X156414285Y-137952380D01*
X155938095Y-138952380D02*
X155938095Y-137952380D01*
X155700000Y-137952380D01*
X155557142Y-138000000D01*
X155461904Y-138095238D01*
X155414285Y-138190476D01*
X155366666Y-138380952D01*
X155366666Y-138523809D01*
X155414285Y-138714285D01*
X155461904Y-138809523D01*
X155557142Y-138904761D01*
X155700000Y-138952380D01*
X155938095Y-138952380D01*
X157761904Y-135552380D02*
X157190476Y-135552380D01*
X157476190Y-136552380D02*
X157476190Y-135552380D01*
X156952380Y-135552380D02*
X156285714Y-136552380D01*
X156285714Y-135552380D02*
X156952380Y-136552380D01*
X155904761Y-136552380D02*
X155904761Y-135552380D01*
X155666666Y-135552380D01*
X155523809Y-135600000D01*
X155428571Y-135695238D01*
X155380952Y-135790476D01*
X155333333Y-135980952D01*
X155333333Y-136123809D01*
X155380952Y-136314285D01*
X155428571Y-136409523D01*
X155523809Y-136504761D01*
X155666666Y-136552380D01*
X155904761Y-136552380D01*
X157266666Y-133952380D02*
X157600000Y-133476190D01*
X157838095Y-133952380D02*
X157838095Y-132952380D01*
X157457142Y-132952380D01*
X157361904Y-133000000D01*
X157314285Y-133047619D01*
X157266666Y-133142857D01*
X157266666Y-133285714D01*
X157314285Y-133380952D01*
X157361904Y-133428571D01*
X157457142Y-133476190D01*
X157838095Y-133476190D01*
X156933333Y-132952380D02*
X156266666Y-133952380D01*
X156266666Y-132952380D02*
X156933333Y-133952380D01*
X155885714Y-133952380D02*
X155885714Y-132952380D01*
X155647619Y-132952380D01*
X155504761Y-133000000D01*
X155409523Y-133095238D01*
X155361904Y-133190476D01*
X155314285Y-133380952D01*
X155314285Y-133523809D01*
X155361904Y-133714285D01*
X155409523Y-133809523D01*
X155504761Y-133904761D01*
X155647619Y-133952380D01*
X155885714Y-133952380D01*
X185590476Y-137952380D02*
X185923809Y-137476190D01*
X186161904Y-137952380D02*
X186161904Y-136952380D01*
X185780952Y-136952380D01*
X185685714Y-137000000D01*
X185638095Y-137047619D01*
X185590476Y-137142857D01*
X185590476Y-137285714D01*
X185638095Y-137380952D01*
X185685714Y-137428571D01*
X185780952Y-137476190D01*
X186161904Y-137476190D01*
X185590476Y-132852380D02*
X186066666Y-132852380D01*
X186066666Y-131852380D01*
X181366666Y-133095238D02*
X181366666Y-133571428D01*
X181652380Y-133000000D02*
X180652380Y-133333333D01*
X181652380Y-133666666D01*
X180652380Y-134000000D02*
X181461904Y-134000000D01*
X181557142Y-134047619D01*
X181604761Y-134095238D01*
X181652380Y-134190476D01*
X181652380Y-134380952D01*
X181604761Y-134476190D01*
X181557142Y-134523809D01*
X181461904Y-134571428D01*
X180652380Y-134571428D01*
X181747619Y-134809523D02*
X181747619Y-135571428D01*
X181652380Y-135809523D02*
X180652380Y-135809523D01*
X181652380Y-136285714D02*
X180652380Y-136285714D01*
X181652380Y-136857142D01*
X180652380Y-136857142D01*
X211995238Y-119104761D02*
X211852380Y-119152380D01*
X211614285Y-119152380D01*
X211519047Y-119104761D01*
X211471428Y-119057142D01*
X211423809Y-118961904D01*
X211423809Y-118866666D01*
X211471428Y-118771428D01*
X211519047Y-118723809D01*
X211614285Y-118676190D01*
X211804761Y-118628571D01*
X211900000Y-118580952D01*
X211947619Y-118533333D01*
X211995238Y-118438095D01*
X211995238Y-118342857D01*
X211947619Y-118247619D01*
X211900000Y-118200000D01*
X211804761Y-118152380D01*
X211566666Y-118152380D01*
X211423809Y-118200000D01*
X210423809Y-119057142D02*
X210471428Y-119104761D01*
X210614285Y-119152380D01*
X210709523Y-119152380D01*
X210852380Y-119104761D01*
X210947619Y-119009523D01*
X210995238Y-118914285D01*
X211042857Y-118723809D01*
X211042857Y-118580952D01*
X210995238Y-118390476D01*
X210947619Y-118295238D01*
X210852380Y-118200000D01*
X210709523Y-118152380D01*
X210614285Y-118152380D01*
X210471428Y-118200000D01*
X210423809Y-118247619D01*
X210042857Y-118866666D02*
X209566666Y-118866666D01*
X210138095Y-119152380D02*
X209804761Y-118152380D01*
X209471428Y-119152380D01*
X208566666Y-119152380D02*
X208900000Y-118676190D01*
X209138095Y-119152380D02*
X209138095Y-118152380D01*
X208757142Y-118152380D01*
X208661904Y-118200000D01*
X208614285Y-118247619D01*
X208566666Y-118342857D01*
X208566666Y-118485714D01*
X208614285Y-118580952D01*
X208661904Y-118628571D01*
X208757142Y-118676190D01*
X209138095Y-118676190D01*
X208280952Y-118152380D02*
X207709523Y-118152380D01*
X207995238Y-119152380D02*
X207995238Y-118152380D01*
X220685714Y-107452380D02*
X220685714Y-106452380D01*
X220304761Y-106452380D01*
X220209523Y-106500000D01*
X220161904Y-106547619D01*
X220114285Y-106642857D01*
X220114285Y-106785714D01*
X220161904Y-106880952D01*
X220209523Y-106928571D01*
X220304761Y-106976190D01*
X220685714Y-106976190D01*
X219733333Y-107404761D02*
X219590476Y-107452380D01*
X219352380Y-107452380D01*
X219257142Y-107404761D01*
X219209523Y-107357142D01*
X219161904Y-107261904D01*
X219161904Y-107166666D01*
X219209523Y-107071428D01*
X219257142Y-107023809D01*
X219352380Y-106976190D01*
X219542857Y-106928571D01*
X219638095Y-106880952D01*
X219685714Y-106833333D01*
X219733333Y-106738095D01*
X219733333Y-106642857D01*
X219685714Y-106547619D01*
X219638095Y-106500000D01*
X219542857Y-106452380D01*
X219304761Y-106452380D01*
X219161904Y-106500000D01*
X218019047Y-106404761D02*
X218876190Y-107690476D01*
X217733333Y-106547619D02*
X217685714Y-106500000D01*
X217590476Y-106452380D01*
X217352380Y-106452380D01*
X217257142Y-106500000D01*
X217209523Y-106547619D01*
X217161904Y-106642857D01*
X217161904Y-106738095D01*
X217209523Y-106880952D01*
X217780952Y-107452380D01*
X217161904Y-107452380D01*
X215971428Y-107452380D02*
X215971428Y-106452380D01*
X215876190Y-107071428D02*
X215590476Y-107452380D01*
X215590476Y-106785714D02*
X215971428Y-107166666D01*
X214780952Y-107404761D02*
X214876190Y-107452380D01*
X215066666Y-107452380D01*
X215161904Y-107404761D01*
X215209523Y-107309523D01*
X215209523Y-106928571D01*
X215161904Y-106833333D01*
X215066666Y-106785714D01*
X214876190Y-106785714D01*
X214780952Y-106833333D01*
X214733333Y-106928571D01*
X214733333Y-107023809D01*
X215209523Y-107119047D01*
X214400000Y-106785714D02*
X214161904Y-107452380D01*
X213923809Y-106785714D02*
X214161904Y-107452380D01*
X214257142Y-107690476D01*
X214304761Y-107738095D01*
X214400000Y-107785714D01*
X213542857Y-107452380D02*
X213542857Y-106452380D01*
X213542857Y-106833333D02*
X213447619Y-106785714D01*
X213257142Y-106785714D01*
X213161904Y-106833333D01*
X213114285Y-106880952D01*
X213066666Y-106976190D01*
X213066666Y-107261904D01*
X213114285Y-107357142D01*
X213161904Y-107404761D01*
X213257142Y-107452380D01*
X213447619Y-107452380D01*
X213542857Y-107404761D01*
X224433333Y-115652380D02*
X224100000Y-116652380D01*
X223766666Y-115652380D01*
X222861904Y-116557142D02*
X222909523Y-116604761D01*
X223052380Y-116652380D01*
X223147619Y-116652380D01*
X223290476Y-116604761D01*
X223385714Y-116509523D01*
X223433333Y-116414285D01*
X223480952Y-116223809D01*
X223480952Y-116080952D01*
X223433333Y-115890476D01*
X223385714Y-115795238D01*
X223290476Y-115700000D01*
X223147619Y-115652380D01*
X223052380Y-115652380D01*
X222909523Y-115700000D01*
X222861904Y-115747619D01*
X221861904Y-116557142D02*
X221909523Y-116604761D01*
X222052380Y-116652380D01*
X222147619Y-116652380D01*
X222290476Y-116604761D01*
X222385714Y-116509523D01*
X222433333Y-116414285D01*
X222480952Y-116223809D01*
X222480952Y-116080952D01*
X222433333Y-115890476D01*
X222385714Y-115795238D01*
X222290476Y-115700000D01*
X222147619Y-115652380D01*
X222052380Y-115652380D01*
X221909523Y-115700000D01*
X221861904Y-115747619D01*
X223861904Y-108900000D02*
X223957142Y-108852380D01*
X224100000Y-108852380D01*
X224242857Y-108900000D01*
X224338095Y-108995238D01*
X224385714Y-109090476D01*
X224433333Y-109280952D01*
X224433333Y-109423809D01*
X224385714Y-109614285D01*
X224338095Y-109709523D01*
X224242857Y-109804761D01*
X224100000Y-109852380D01*
X224004761Y-109852380D01*
X223861904Y-109804761D01*
X223814285Y-109757142D01*
X223814285Y-109423809D01*
X224004761Y-109423809D01*
X223385714Y-109852380D02*
X223385714Y-108852380D01*
X222814285Y-109852380D01*
X222814285Y-108852380D01*
X222338095Y-109852380D02*
X222338095Y-108852380D01*
X222100000Y-108852380D01*
X221957142Y-108900000D01*
X221861904Y-108995238D01*
X221814285Y-109090476D01*
X221766666Y-109280952D01*
X221766666Y-109423809D01*
X221814285Y-109614285D01*
X221861904Y-109709523D01*
X221957142Y-109804761D01*
X222100000Y-109852380D01*
X222338095Y-109852380D01*
X215695238Y-109757142D02*
X215742857Y-109804761D01*
X215885714Y-109852380D01*
X215980952Y-109852380D01*
X216123809Y-109804761D01*
X216219047Y-109709523D01*
X216266666Y-109614285D01*
X216314285Y-109423809D01*
X216314285Y-109280952D01*
X216266666Y-109090476D01*
X216219047Y-108995238D01*
X216123809Y-108900000D01*
X215980952Y-108852380D01*
X215885714Y-108852380D01*
X215742857Y-108900000D01*
X215695238Y-108947619D01*
X214790476Y-109852380D02*
X215266666Y-109852380D01*
X215266666Y-108852380D01*
X214457142Y-109852380D02*
X214457142Y-108852380D01*
X213885714Y-109852380D02*
X214314285Y-109280952D01*
X213885714Y-108852380D02*
X214457142Y-109423809D01*
X218800000Y-111952380D02*
X218800000Y-110952380D01*
X218561904Y-110952380D01*
X218419047Y-111000000D01*
X218323809Y-111095238D01*
X218276190Y-111190476D01*
X218228571Y-111380952D01*
X218228571Y-111523809D01*
X218276190Y-111714285D01*
X218323809Y-111809523D01*
X218419047Y-111904761D01*
X218561904Y-111952380D01*
X218800000Y-111952380D01*
X217847619Y-111666666D02*
X217371428Y-111666666D01*
X217942857Y-111952380D02*
X217609523Y-110952380D01*
X217276190Y-111952380D01*
X217085714Y-110952380D02*
X216514285Y-110952380D01*
X216800000Y-111952380D02*
X216800000Y-110952380D01*
X216228571Y-111666666D02*
X215752380Y-111666666D01*
X216323809Y-111952380D02*
X215990476Y-110952380D01*
X215657142Y-111952380D01*
X214961904Y-130600000D02*
X215057142Y-130552380D01*
X215200000Y-130552380D01*
X215342857Y-130600000D01*
X215438095Y-130695238D01*
X215485714Y-130790476D01*
X215533333Y-130980952D01*
X215533333Y-131123809D01*
X215485714Y-131314285D01*
X215438095Y-131409523D01*
X215342857Y-131504761D01*
X215200000Y-131552380D01*
X215104761Y-131552380D01*
X214961904Y-131504761D01*
X214914285Y-131457142D01*
X214914285Y-131123809D01*
X215104761Y-131123809D01*
X214485714Y-131552380D02*
X214485714Y-130552380D01*
X213914285Y-131552380D01*
X213914285Y-130552380D01*
X213438095Y-131552380D02*
X213438095Y-130552380D01*
X213200000Y-130552380D01*
X213057142Y-130600000D01*
X212961904Y-130695238D01*
X212914285Y-130790476D01*
X212866666Y-130980952D01*
X212866666Y-131123809D01*
X212914285Y-131314285D01*
X212961904Y-131409523D01*
X213057142Y-131504761D01*
X213200000Y-131552380D01*
X213438095Y-131552380D01*
X214961904Y-128100000D02*
X215057142Y-128052380D01*
X215200000Y-128052380D01*
X215342857Y-128100000D01*
X215438095Y-128195238D01*
X215485714Y-128290476D01*
X215533333Y-128480952D01*
X215533333Y-128623809D01*
X215485714Y-128814285D01*
X215438095Y-128909523D01*
X215342857Y-129004761D01*
X215200000Y-129052380D01*
X215104761Y-129052380D01*
X214961904Y-129004761D01*
X214914285Y-128957142D01*
X214914285Y-128623809D01*
X215104761Y-128623809D01*
X214485714Y-129052380D02*
X214485714Y-128052380D01*
X213914285Y-129052380D01*
X213914285Y-128052380D01*
X213438095Y-129052380D02*
X213438095Y-128052380D01*
X213200000Y-128052380D01*
X213057142Y-128100000D01*
X212961904Y-128195238D01*
X212914285Y-128290476D01*
X212866666Y-128480952D01*
X212866666Y-128623809D01*
X212914285Y-128814285D01*
X212961904Y-128909523D01*
X213057142Y-129004761D01*
X213200000Y-129052380D01*
X213438095Y-129052380D01*
X216142857Y-126266666D02*
X215666666Y-126266666D01*
X216238095Y-126552380D02*
X215904761Y-125552380D01*
X215571428Y-126552380D01*
X215238095Y-125552380D02*
X215238095Y-126361904D01*
X215190476Y-126457142D01*
X215142857Y-126504761D01*
X215047619Y-126552380D01*
X214857142Y-126552380D01*
X214761904Y-126504761D01*
X214714285Y-126457142D01*
X214666666Y-126361904D01*
X214666666Y-125552380D01*
X214428571Y-126647619D02*
X213666666Y-126647619D01*
X212857142Y-126552380D02*
X213190476Y-126076190D01*
X213428571Y-126552380D02*
X213428571Y-125552380D01*
X213047619Y-125552380D01*
X212952380Y-125600000D01*
X212904761Y-125647619D01*
X212857142Y-125742857D01*
X212857142Y-125885714D01*
X212904761Y-125980952D01*
X212952380Y-126028571D01*
X213047619Y-126076190D01*
X213428571Y-126076190D01*
X216047619Y-123666666D02*
X215571428Y-123666666D01*
X216142857Y-123952380D02*
X215809523Y-122952380D01*
X215476190Y-123952380D01*
X215142857Y-122952380D02*
X215142857Y-123761904D01*
X215095238Y-123857142D01*
X215047619Y-123904761D01*
X214952380Y-123952380D01*
X214761904Y-123952380D01*
X214666666Y-123904761D01*
X214619047Y-123857142D01*
X214571428Y-123761904D01*
X214571428Y-122952380D01*
X214333333Y-124047619D02*
X213571428Y-124047619D01*
X212857142Y-123952380D02*
X213333333Y-123952380D01*
X213333333Y-122952380D01*
D10*
X198200000Y-129400000D02*
X198800000Y-129800000D01*
X198200000Y-128400000D02*
X198200000Y-129400000D01*
X198200000Y-122800000D02*
X198800000Y-122500000D01*
X198200000Y-124000000D02*
X198200000Y-122800000D01*
D11*
X207133333Y-120552380D02*
X206800000Y-121552380D01*
X206466666Y-120552380D01*
X205561904Y-121457142D02*
X205609523Y-121504761D01*
X205752380Y-121552380D01*
X205847619Y-121552380D01*
X205990476Y-121504761D01*
X206085714Y-121409523D01*
X206133333Y-121314285D01*
X206180952Y-121123809D01*
X206180952Y-120980952D01*
X206133333Y-120790476D01*
X206085714Y-120695238D01*
X205990476Y-120600000D01*
X205847619Y-120552380D01*
X205752380Y-120552380D01*
X205609523Y-120600000D01*
X205561904Y-120647619D01*
X204561904Y-121457142D02*
X204609523Y-121504761D01*
X204752380Y-121552380D01*
X204847619Y-121552380D01*
X204990476Y-121504761D01*
X205085714Y-121409523D01*
X205133333Y-121314285D01*
X205180952Y-121123809D01*
X205180952Y-120980952D01*
X205133333Y-120790476D01*
X205085714Y-120695238D01*
X204990476Y-120600000D01*
X204847619Y-120552380D01*
X204752380Y-120552380D01*
X204609523Y-120600000D01*
X204561904Y-120647619D01*
X206924957Y-129867935D02*
X206958629Y-129766920D01*
X207059644Y-129665904D01*
X207194331Y-129598561D01*
X207329018Y-129598561D01*
X207430034Y-129632233D01*
X207598392Y-129733248D01*
X207699408Y-129834263D01*
X207800423Y-130002622D01*
X207834095Y-130103637D01*
X207834095Y-130238324D01*
X207766751Y-130373011D01*
X207699408Y-130440355D01*
X207564721Y-130507698D01*
X207497377Y-130507698D01*
X207261675Y-130271996D01*
X207396362Y-130137309D01*
X206857614Y-131282148D02*
X206756599Y-130709729D01*
X207261675Y-130878087D02*
X206554568Y-130170981D01*
X206285194Y-130440355D01*
X206251522Y-130541370D01*
X206251522Y-130608713D01*
X206285194Y-130709729D01*
X206386209Y-130810744D01*
X206487225Y-130844416D01*
X206554568Y-130844416D01*
X206655583Y-130810744D01*
X206924957Y-130541370D01*
X206184179Y-131214805D02*
X205948477Y-131450507D01*
X206217851Y-131921912D02*
X206554568Y-131585194D01*
X205847461Y-130878087D01*
X205510744Y-131214805D01*
X205544416Y-131854568D02*
X205308713Y-132090270D01*
X205578087Y-132561675D02*
X205914805Y-132224957D01*
X205207698Y-131517851D01*
X204870981Y-131854568D01*
X205275042Y-132864721D02*
X204567935Y-132157614D01*
X204870981Y-133268782D01*
X204163874Y-132561675D01*
X207075465Y-127623519D02*
X207008122Y-127758206D01*
X207008122Y-127825549D01*
X207041793Y-127926564D01*
X207142809Y-128027580D01*
X207243824Y-128061251D01*
X207311167Y-128061251D01*
X207412183Y-128027580D01*
X207681557Y-127758206D01*
X206974450Y-127051099D01*
X206738748Y-127286801D01*
X206705076Y-127387816D01*
X206705076Y-127455160D01*
X206738748Y-127556175D01*
X206806091Y-127623519D01*
X206907106Y-127657190D01*
X206974450Y-127657190D01*
X207075465Y-127623519D01*
X207311167Y-127387816D01*
X206637732Y-128802030D02*
X206974450Y-128465312D01*
X206267343Y-127758206D01*
X205694923Y-128330625D02*
X206267343Y-128903045D01*
X206301015Y-129004061D01*
X206301015Y-129071404D01*
X206267343Y-129172419D01*
X206132656Y-129307106D01*
X206031641Y-129340778D01*
X205964297Y-129340778D01*
X205863282Y-129307106D01*
X205290862Y-128734687D01*
X205290862Y-129408122D02*
X205055160Y-129643824D01*
X205324534Y-130115228D02*
X205661251Y-129778511D01*
X204954145Y-129071404D01*
X204617427Y-129408122D01*
X206874450Y-125965312D02*
X206773435Y-125392893D01*
X207278511Y-125561251D02*
X206571404Y-124854145D01*
X206302030Y-125123519D01*
X206268358Y-125224534D01*
X206268358Y-125291877D01*
X206302030Y-125392893D01*
X206403045Y-125493908D01*
X206504061Y-125527580D01*
X206571404Y-125527580D01*
X206672419Y-125493908D01*
X206941793Y-125224534D01*
X206201015Y-125897969D02*
X205965312Y-126133671D01*
X206234687Y-126605076D02*
X206571404Y-126268358D01*
X205864297Y-125561251D01*
X205527580Y-125897969D01*
X205931641Y-126908122D02*
X205224534Y-126201015D01*
X205056175Y-126369374D01*
X204988832Y-126504061D01*
X204988832Y-126638748D01*
X205022503Y-126739763D01*
X205123519Y-126908122D01*
X205224534Y-127009137D01*
X205392893Y-127110152D01*
X205493908Y-127143824D01*
X205628595Y-127143824D01*
X205763282Y-127076480D01*
X205931641Y-126908122D01*
X207815228Y-122657190D02*
X207747885Y-122791877D01*
X207579526Y-122960236D01*
X207478511Y-122993908D01*
X207411167Y-122993908D01*
X207310152Y-122960236D01*
X207242809Y-122892893D01*
X207209137Y-122791877D01*
X207209137Y-122724534D01*
X207242809Y-122623519D01*
X207343824Y-122455160D01*
X207377496Y-122354145D01*
X207377496Y-122286801D01*
X207343824Y-122185786D01*
X207276480Y-122118442D01*
X207175465Y-122084771D01*
X207108122Y-122084771D01*
X207007106Y-122118442D01*
X206838748Y-122286801D01*
X206771404Y-122421488D01*
X206670389Y-123195938D02*
X207007106Y-123532656D01*
X206535702Y-122589847D02*
X206670389Y-123195938D01*
X206064297Y-123061251D01*
X206535702Y-124004061D02*
X205828595Y-123296954D01*
X206131641Y-124408122D01*
X205424534Y-123701015D01*
X205323519Y-125081557D02*
X205390862Y-125081557D01*
X205525549Y-125014213D01*
X205592893Y-124946870D01*
X205660236Y-124812183D01*
X205660236Y-124677496D01*
X205626564Y-124576480D01*
X205525549Y-124408122D01*
X205424534Y-124307106D01*
X205256175Y-124206091D01*
X205155160Y-124172419D01*
X205020473Y-124172419D01*
X204885786Y-124239763D01*
X204818442Y-124307106D01*
X204751099Y-124441793D01*
X204751099Y-124509137D01*
X215433333Y-120452380D02*
X215100000Y-121452380D01*
X214766666Y-120452380D01*
X213861904Y-121357142D02*
X213909523Y-121404761D01*
X214052380Y-121452380D01*
X214147619Y-121452380D01*
X214290476Y-121404761D01*
X214385714Y-121309523D01*
X214433333Y-121214285D01*
X214480952Y-121023809D01*
X214480952Y-120880952D01*
X214433333Y-120690476D01*
X214385714Y-120595238D01*
X214290476Y-120500000D01*
X214147619Y-120452380D01*
X214052380Y-120452380D01*
X213909523Y-120500000D01*
X213861904Y-120547619D01*
X212861904Y-121357142D02*
X212909523Y-121404761D01*
X213052380Y-121452380D01*
X213147619Y-121452380D01*
X213290476Y-121404761D01*
X213385714Y-121309523D01*
X213433333Y-121214285D01*
X213480952Y-121023809D01*
X213480952Y-120880952D01*
X213433333Y-120690476D01*
X213385714Y-120595238D01*
X213290476Y-120500000D01*
X213147619Y-120452380D01*
X213052380Y-120452380D01*
X212909523Y-120500000D01*
X212861904Y-120547619D01*
X94900000Y-119952380D02*
X94900000Y-118952380D01*
X94566666Y-119666666D01*
X94233333Y-118952380D01*
X94233333Y-119952380D01*
X93804761Y-119666666D02*
X93328571Y-119666666D01*
X93900000Y-119952380D02*
X93566666Y-118952380D01*
X93233333Y-119952380D01*
X92376190Y-119000000D02*
X92471428Y-118952380D01*
X92614285Y-118952380D01*
X92757142Y-119000000D01*
X92852380Y-119095238D01*
X92900000Y-119190476D01*
X92947619Y-119380952D01*
X92947619Y-119523809D01*
X92900000Y-119714285D01*
X92852380Y-119809523D01*
X92757142Y-119904761D01*
X92614285Y-119952380D01*
X92519047Y-119952380D01*
X92376190Y-119904761D01*
X92328571Y-119857142D01*
X92328571Y-119523809D01*
X92519047Y-119523809D01*
X91900000Y-119952380D02*
X91900000Y-118952380D01*
X90852380Y-119857142D02*
X90900000Y-119904761D01*
X91042857Y-119952380D01*
X91138095Y-119952380D01*
X91280952Y-119904761D01*
X91376190Y-119809523D01*
X91423809Y-119714285D01*
X91471428Y-119523809D01*
X91471428Y-119380952D01*
X91423809Y-119190476D01*
X91376190Y-119095238D01*
X91280952Y-119000000D01*
X91138095Y-118952380D01*
X91042857Y-118952380D01*
X90900000Y-119000000D01*
X90852380Y-119047619D01*
X94152380Y-108452380D02*
X94485714Y-107976190D01*
X94723809Y-108452380D02*
X94723809Y-107452380D01*
X94342857Y-107452380D01*
X94247619Y-107500000D01*
X94200000Y-107547619D01*
X94152380Y-107642857D01*
X94152380Y-107785714D01*
X94200000Y-107880952D01*
X94247619Y-107928571D01*
X94342857Y-107976190D01*
X94723809Y-107976190D01*
X93723809Y-107928571D02*
X93390476Y-107928571D01*
X93247619Y-108452380D02*
X93723809Y-108452380D01*
X93723809Y-107452380D01*
X93247619Y-107452380D01*
X92866666Y-108404761D02*
X92723809Y-108452380D01*
X92485714Y-108452380D01*
X92390476Y-108404761D01*
X92342857Y-108357142D01*
X92295238Y-108261904D01*
X92295238Y-108166666D01*
X92342857Y-108071428D01*
X92390476Y-108023809D01*
X92485714Y-107976190D01*
X92676190Y-107928571D01*
X92771428Y-107880952D01*
X92819047Y-107833333D01*
X92866666Y-107738095D01*
X92866666Y-107642857D01*
X92819047Y-107547619D01*
X92771428Y-107500000D01*
X92676190Y-107452380D01*
X92438095Y-107452380D01*
X92295238Y-107500000D01*
X91866666Y-107928571D02*
X91533333Y-107928571D01*
X91390476Y-108452380D02*
X91866666Y-108452380D01*
X91866666Y-107452380D01*
X91390476Y-107452380D01*
X91104761Y-107452380D02*
X90533333Y-107452380D01*
X90819047Y-108452380D02*
X90819047Y-107452380D01*
D10*
X87300000Y-140000000D02*
X87300000Y-141300000D01*
X86000000Y-140000000D02*
X88500000Y-140000000D01*
X85100000Y-140800000D02*
X85100000Y-141300000D01*
X79300000Y-140800000D02*
X85100000Y-140800000D01*
X89600000Y-140800000D02*
X89600000Y-141300000D01*
X94100000Y-140800000D02*
X89600000Y-140800000D01*
D11*
X88061904Y-138800000D02*
X88157142Y-138752380D01*
X88300000Y-138752380D01*
X88442857Y-138800000D01*
X88538095Y-138895238D01*
X88585714Y-138990476D01*
X88633333Y-139180952D01*
X88633333Y-139323809D01*
X88585714Y-139514285D01*
X88538095Y-139609523D01*
X88442857Y-139704761D01*
X88300000Y-139752380D01*
X88204761Y-139752380D01*
X88061904Y-139704761D01*
X88014285Y-139657142D01*
X88014285Y-139323809D01*
X88204761Y-139323809D01*
X87585714Y-139752380D02*
X87585714Y-138752380D01*
X87014285Y-139752380D01*
X87014285Y-138752380D01*
X86538095Y-139752380D02*
X86538095Y-138752380D01*
X86300000Y-138752380D01*
X86157142Y-138800000D01*
X86061904Y-138895238D01*
X86014285Y-138990476D01*
X85966666Y-139180952D01*
X85966666Y-139323809D01*
X86014285Y-139514285D01*
X86061904Y-139609523D01*
X86157142Y-139704761D01*
X86300000Y-139752380D01*
X86538095Y-139752380D01*
X85223809Y-139552380D02*
X84652380Y-139552380D01*
X84938095Y-140552380D02*
X84938095Y-139552380D01*
X84366666Y-140266666D02*
X83890476Y-140266666D01*
X84461904Y-140552380D02*
X84128571Y-139552380D01*
X83795238Y-140552380D01*
X83461904Y-140552380D02*
X83461904Y-139552380D01*
X83080952Y-139552380D01*
X82985714Y-139600000D01*
X82938095Y-139647619D01*
X82890476Y-139742857D01*
X82890476Y-139885714D01*
X82938095Y-139980952D01*
X82985714Y-140028571D01*
X83080952Y-140076190D01*
X83461904Y-140076190D01*
X81509523Y-139552380D02*
X81319047Y-139552380D01*
X81223809Y-139600000D01*
X81128571Y-139695238D01*
X81080952Y-139885714D01*
X81080952Y-140219047D01*
X81128571Y-140409523D01*
X81223809Y-140504761D01*
X81319047Y-140552380D01*
X81509523Y-140552380D01*
X81604761Y-140504761D01*
X81700000Y-140409523D01*
X81747619Y-140219047D01*
X81747619Y-139885714D01*
X81700000Y-139695238D01*
X81604761Y-139600000D01*
X81509523Y-139552380D01*
X80652380Y-139552380D02*
X80652380Y-140361904D01*
X80604761Y-140457142D01*
X80557142Y-140504761D01*
X80461904Y-140552380D01*
X80271428Y-140552380D01*
X80176190Y-140504761D01*
X80128571Y-140457142D01*
X80080952Y-140361904D01*
X80080952Y-139552380D01*
X79747619Y-139552380D02*
X79176190Y-139552380D01*
X79461904Y-140552380D02*
X79461904Y-139552380D01*
X94157142Y-139552380D02*
X93585714Y-139552380D01*
X93871428Y-140552380D02*
X93871428Y-139552380D01*
X93300000Y-140266666D02*
X92823809Y-140266666D01*
X93395238Y-140552380D02*
X93061904Y-139552380D01*
X92728571Y-140552380D01*
X92395238Y-140552380D02*
X92395238Y-139552380D01*
X92014285Y-139552380D01*
X91919047Y-139600000D01*
X91871428Y-139647619D01*
X91823809Y-139742857D01*
X91823809Y-139885714D01*
X91871428Y-139980952D01*
X91919047Y-140028571D01*
X92014285Y-140076190D01*
X92395238Y-140076190D01*
X90633333Y-140552380D02*
X90633333Y-139552380D01*
X90157142Y-140552380D02*
X90157142Y-139552380D01*
X89585714Y-140552380D01*
X89585714Y-139552380D01*
X187847619Y-144223809D02*
X187847619Y-143652380D01*
X186847619Y-143938095D02*
X187847619Y-143938095D01*
X187133333Y-143366666D02*
X187133333Y-142890476D01*
X186847619Y-143461904D02*
X187847619Y-143128571D01*
X186847619Y-142795238D01*
X186847619Y-142461904D02*
X187847619Y-142461904D01*
X187847619Y-142080952D01*
X187800000Y-141985714D01*
X187752380Y-141938095D01*
X187657142Y-141890476D01*
X187514285Y-141890476D01*
X187419047Y-141938095D01*
X187371428Y-141985714D01*
X187323809Y-142080952D01*
X187323809Y-142461904D01*
X187847619Y-140509523D02*
X187847619Y-140319047D01*
X187800000Y-140223809D01*
X187704761Y-140128571D01*
X187514285Y-140080952D01*
X187180952Y-140080952D01*
X186990476Y-140128571D01*
X186895238Y-140223809D01*
X186847619Y-140319047D01*
X186847619Y-140509523D01*
X186895238Y-140604761D01*
X186990476Y-140700000D01*
X187180952Y-140747619D01*
X187514285Y-140747619D01*
X187704761Y-140700000D01*
X187800000Y-140604761D01*
X187847619Y-140509523D01*
X187847619Y-139652380D02*
X187038095Y-139652380D01*
X186942857Y-139604761D01*
X186895238Y-139557142D01*
X186847619Y-139461904D01*
X186847619Y-139271428D01*
X186895238Y-139176190D01*
X186942857Y-139128571D01*
X187038095Y-139080952D01*
X187847619Y-139080952D01*
X187847619Y-138747619D02*
X187847619Y-138176190D01*
X186847619Y-138461904D02*
X187847619Y-138461904D01*
X184047619Y-144257142D02*
X184047619Y-143685714D01*
X183047619Y-143971428D02*
X184047619Y-143971428D01*
X183333333Y-143400000D02*
X183333333Y-142923809D01*
X183047619Y-143495238D02*
X184047619Y-143161904D01*
X183047619Y-142828571D01*
X183047619Y-142495238D02*
X184047619Y-142495238D01*
X184047619Y-142114285D01*
X184000000Y-142019047D01*
X183952380Y-141971428D01*
X183857142Y-141923809D01*
X183714285Y-141923809D01*
X183619047Y-141971428D01*
X183571428Y-142019047D01*
X183523809Y-142114285D01*
X183523809Y-142495238D01*
X183047619Y-140733333D02*
X184047619Y-140733333D01*
X183047619Y-140257142D02*
X184047619Y-140257142D01*
X183047619Y-139685714D01*
X184047619Y-139685714D01*
X160895238Y-144157142D02*
X160847619Y-144014285D01*
X160847619Y-143776190D01*
X160895238Y-143680952D01*
X160942857Y-143633333D01*
X161038095Y-143585714D01*
X161133333Y-143585714D01*
X161228571Y-143633333D01*
X161276190Y-143680952D01*
X161323809Y-143776190D01*
X161371428Y-143966666D01*
X161419047Y-144061904D01*
X161466666Y-144109523D01*
X161561904Y-144157142D01*
X161657142Y-144157142D01*
X161752380Y-144109523D01*
X161800000Y-144061904D01*
X161847619Y-143966666D01*
X161847619Y-143728571D01*
X161800000Y-143585714D01*
X161847619Y-142966666D02*
X161847619Y-142776190D01*
X161800000Y-142680952D01*
X161704761Y-142585714D01*
X161514285Y-142538095D01*
X161180952Y-142538095D01*
X160990476Y-142585714D01*
X160895238Y-142680952D01*
X160847619Y-142776190D01*
X160847619Y-142966666D01*
X160895238Y-143061904D01*
X160990476Y-143157142D01*
X161180952Y-143204761D01*
X161514285Y-143204761D01*
X161704761Y-143157142D01*
X161800000Y-143061904D01*
X161847619Y-142966666D01*
X161847619Y-142109523D02*
X161038095Y-142109523D01*
X160942857Y-142061904D01*
X160895238Y-142014285D01*
X160847619Y-141919047D01*
X160847619Y-141728571D01*
X160895238Y-141633333D01*
X160942857Y-141585714D01*
X161038095Y-141538095D01*
X161847619Y-141538095D01*
X160847619Y-141061904D02*
X161847619Y-141061904D01*
X160847619Y-140490476D01*
X161847619Y-140490476D01*
X160847619Y-140014285D02*
X161847619Y-140014285D01*
X161847619Y-139776190D01*
X161800000Y-139633333D01*
X161704761Y-139538095D01*
X161609523Y-139490476D01*
X161419047Y-139442857D01*
X161276190Y-139442857D01*
X161085714Y-139490476D01*
X160990476Y-139538095D01*
X160895238Y-139633333D01*
X160847619Y-139776190D01*
X160847619Y-140014285D01*
X154200000Y-143666666D02*
X154247619Y-143761904D01*
X154247619Y-143904761D01*
X154200000Y-144047619D01*
X154104761Y-144142857D01*
X154009523Y-144190476D01*
X153819047Y-144238095D01*
X153676190Y-144238095D01*
X153485714Y-144190476D01*
X153390476Y-144142857D01*
X153295238Y-144047619D01*
X153247619Y-143904761D01*
X153247619Y-143809523D01*
X153295238Y-143666666D01*
X153342857Y-143619047D01*
X153676190Y-143619047D01*
X153676190Y-143809523D01*
X153247619Y-142619047D02*
X153723809Y-142952380D01*
X153247619Y-143190476D02*
X154247619Y-143190476D01*
X154247619Y-142809523D01*
X154200000Y-142714285D01*
X154152380Y-142666666D01*
X154057142Y-142619047D01*
X153914285Y-142619047D01*
X153819047Y-142666666D01*
X153771428Y-142714285D01*
X153723809Y-142809523D01*
X153723809Y-143190476D01*
X153771428Y-142190476D02*
X153771428Y-141857142D01*
X153247619Y-141714285D02*
X153247619Y-142190476D01*
X154247619Y-142190476D01*
X154247619Y-141714285D01*
X153771428Y-141285714D02*
X153771428Y-140952380D01*
X153247619Y-140809523D02*
X153247619Y-141285714D01*
X154247619Y-141285714D01*
X154247619Y-140809523D01*
X153247619Y-140380952D02*
X154247619Y-140380952D01*
X153247619Y-139809523D01*
X154247619Y-139809523D01*
X151171428Y-143909523D02*
X151123809Y-143766666D01*
X151076190Y-143719047D01*
X150980952Y-143671428D01*
X150838095Y-143671428D01*
X150742857Y-143719047D01*
X150695238Y-143766666D01*
X150647619Y-143861904D01*
X150647619Y-144242857D01*
X151647619Y-144242857D01*
X151647619Y-143909523D01*
X151600000Y-143814285D01*
X151552380Y-143766666D01*
X151457142Y-143719047D01*
X151361904Y-143719047D01*
X151266666Y-143766666D01*
X151219047Y-143814285D01*
X151171428Y-143909523D01*
X151171428Y-144242857D01*
X150647619Y-142766666D02*
X150647619Y-143242857D01*
X151647619Y-143242857D01*
X151647619Y-142433333D02*
X150838095Y-142433333D01*
X150742857Y-142385714D01*
X150695238Y-142338095D01*
X150647619Y-142242857D01*
X150647619Y-142052380D01*
X150695238Y-141957142D01*
X150742857Y-141909523D01*
X150838095Y-141861904D01*
X151647619Y-141861904D01*
X151171428Y-141385714D02*
X151171428Y-141052380D01*
X150647619Y-140909523D02*
X150647619Y-141385714D01*
X151647619Y-141385714D01*
X151647619Y-140909523D01*
X148147619Y-143642857D02*
X148623809Y-143976190D01*
X148147619Y-144214285D02*
X149147619Y-144214285D01*
X149147619Y-143833333D01*
X149100000Y-143738095D01*
X149052380Y-143690476D01*
X148957142Y-143642857D01*
X148814285Y-143642857D01*
X148719047Y-143690476D01*
X148671428Y-143738095D01*
X148623809Y-143833333D01*
X148623809Y-144214285D01*
X148671428Y-143214285D02*
X148671428Y-142880952D01*
X148147619Y-142738095D02*
X148147619Y-143214285D01*
X149147619Y-143214285D01*
X149147619Y-142738095D01*
X148147619Y-142309523D02*
X149147619Y-142309523D01*
X149147619Y-142071428D01*
X149100000Y-141928571D01*
X149004761Y-141833333D01*
X148909523Y-141785714D01*
X148719047Y-141738095D01*
X148576190Y-141738095D01*
X148385714Y-141785714D01*
X148290476Y-141833333D01*
X148195238Y-141928571D01*
X148147619Y-142071428D01*
X148147619Y-142309523D01*
X145647619Y-144242857D02*
X146647619Y-144242857D01*
X146171428Y-144242857D02*
X146171428Y-143671428D01*
X145647619Y-143671428D02*
X146647619Y-143671428D01*
X146028571Y-143195238D02*
X146028571Y-142433333D01*
X145647619Y-142814285D02*
X146409523Y-142814285D01*
X146647619Y-142100000D02*
X145647619Y-141766666D01*
X146647619Y-141433333D01*
X145695238Y-140385714D02*
X145647619Y-140242857D01*
X145647619Y-140004761D01*
X145695238Y-139909523D01*
X145742857Y-139861904D01*
X145838095Y-139814285D01*
X145933333Y-139814285D01*
X146028571Y-139861904D01*
X146076190Y-139909523D01*
X146123809Y-140004761D01*
X146171428Y-140195238D01*
X146219047Y-140290476D01*
X146266666Y-140338095D01*
X146361904Y-140385714D01*
X146457142Y-140385714D01*
X146552380Y-140338095D01*
X146600000Y-140290476D01*
X146647619Y-140195238D01*
X146647619Y-139957142D01*
X146600000Y-139814285D01*
X146123809Y-139195238D02*
X145647619Y-139195238D01*
X146647619Y-139528571D02*
X146123809Y-139195238D01*
X146647619Y-138861904D01*
X145647619Y-138528571D02*
X146647619Y-138528571D01*
X145647619Y-137957142D01*
X146647619Y-137957142D01*
X145742857Y-136909523D02*
X145695238Y-136957142D01*
X145647619Y-137100000D01*
X145647619Y-137195238D01*
X145695238Y-137338095D01*
X145790476Y-137433333D01*
X145885714Y-137480952D01*
X146076190Y-137528571D01*
X146219047Y-137528571D01*
X146409523Y-137480952D01*
X146504761Y-137433333D01*
X146600000Y-137338095D01*
X146647619Y-137195238D01*
X146647619Y-137100000D01*
X146600000Y-136957142D01*
X146552380Y-136909523D01*
X138047619Y-144238095D02*
X139047619Y-144238095D01*
X138047619Y-143666666D02*
X138619047Y-144095238D01*
X139047619Y-143666666D02*
X138476190Y-144238095D01*
X138047619Y-143238095D02*
X139047619Y-143238095D01*
X139047619Y-143000000D01*
X139000000Y-142857142D01*
X138904761Y-142761904D01*
X138809523Y-142714285D01*
X138619047Y-142666666D01*
X138476190Y-142666666D01*
X138285714Y-142714285D01*
X138190476Y-142761904D01*
X138095238Y-142857142D01*
X138047619Y-143000000D01*
X138047619Y-143238095D01*
X139047619Y-142047619D02*
X139047619Y-141952380D01*
X139000000Y-141857142D01*
X138952380Y-141809523D01*
X138857142Y-141761904D01*
X138666666Y-141714285D01*
X138428571Y-141714285D01*
X138238095Y-141761904D01*
X138142857Y-141809523D01*
X138095238Y-141857142D01*
X138047619Y-141952380D01*
X138047619Y-142047619D01*
X138095238Y-142142857D01*
X138142857Y-142190476D01*
X138238095Y-142238095D01*
X138428571Y-142285714D01*
X138666666Y-142285714D01*
X138857142Y-142238095D01*
X138952380Y-142190476D01*
X139000000Y-142142857D01*
X139047619Y-142047619D01*
X135447619Y-144238095D02*
X136447619Y-144238095D01*
X135447619Y-143666666D02*
X136019047Y-144095238D01*
X136447619Y-143666666D02*
X135876190Y-144238095D01*
X135447619Y-143238095D02*
X136447619Y-143238095D01*
X136447619Y-143000000D01*
X136400000Y-142857142D01*
X136304761Y-142761904D01*
X136209523Y-142714285D01*
X136019047Y-142666666D01*
X135876190Y-142666666D01*
X135685714Y-142714285D01*
X135590476Y-142761904D01*
X135495238Y-142857142D01*
X135447619Y-143000000D01*
X135447619Y-143238095D01*
X135447619Y-141714285D02*
X135447619Y-142285714D01*
X135447619Y-142000000D02*
X136447619Y-142000000D01*
X136304761Y-142095238D01*
X136209523Y-142190476D01*
X136161904Y-142285714D01*
X132847619Y-144238095D02*
X133847619Y-144238095D01*
X132847619Y-143666666D02*
X133419047Y-144095238D01*
X133847619Y-143666666D02*
X133276190Y-144238095D01*
X132847619Y-143238095D02*
X133847619Y-143238095D01*
X133847619Y-143000000D01*
X133800000Y-142857142D01*
X133704761Y-142761904D01*
X133609523Y-142714285D01*
X133419047Y-142666666D01*
X133276190Y-142666666D01*
X133085714Y-142714285D01*
X132990476Y-142761904D01*
X132895238Y-142857142D01*
X132847619Y-143000000D01*
X132847619Y-143238095D01*
X133752380Y-142285714D02*
X133800000Y-142238095D01*
X133847619Y-142142857D01*
X133847619Y-141904761D01*
X133800000Y-141809523D01*
X133752380Y-141761904D01*
X133657142Y-141714285D01*
X133561904Y-141714285D01*
X133419047Y-141761904D01*
X132847619Y-142333333D01*
X132847619Y-141714285D01*
X130447619Y-144238095D02*
X131447619Y-144238095D01*
X130447619Y-143666666D02*
X131019047Y-144095238D01*
X131447619Y-143666666D02*
X130876190Y-144238095D01*
X130447619Y-143238095D02*
X131447619Y-143238095D01*
X131447619Y-143000000D01*
X131400000Y-142857142D01*
X131304761Y-142761904D01*
X131209523Y-142714285D01*
X131019047Y-142666666D01*
X130876190Y-142666666D01*
X130685714Y-142714285D01*
X130590476Y-142761904D01*
X130495238Y-142857142D01*
X130447619Y-143000000D01*
X130447619Y-143238095D01*
X131114285Y-141809523D02*
X130447619Y-141809523D01*
X131495238Y-142047619D02*
X130780952Y-142285714D01*
X130780952Y-141666666D01*
X127847619Y-144238095D02*
X128847619Y-144238095D01*
X127847619Y-143666666D02*
X128419047Y-144095238D01*
X128847619Y-143666666D02*
X128276190Y-144238095D01*
X127847619Y-143238095D02*
X128847619Y-143238095D01*
X128847619Y-143000000D01*
X128800000Y-142857142D01*
X128704761Y-142761904D01*
X128609523Y-142714285D01*
X128419047Y-142666666D01*
X128276190Y-142666666D01*
X128085714Y-142714285D01*
X127990476Y-142761904D01*
X127895238Y-142857142D01*
X127847619Y-143000000D01*
X127847619Y-143238095D01*
X128847619Y-142333333D02*
X128847619Y-141714285D01*
X128466666Y-142047619D01*
X128466666Y-141904761D01*
X128419047Y-141809523D01*
X128371428Y-141761904D01*
X128276190Y-141714285D01*
X128038095Y-141714285D01*
X127942857Y-141761904D01*
X127895238Y-141809523D01*
X127847619Y-141904761D01*
X127847619Y-142190476D01*
X127895238Y-142285714D01*
X127942857Y-142333333D01*
X125347619Y-144266666D02*
X126347619Y-144266666D01*
X125347619Y-143695238D02*
X125919047Y-144123809D01*
X126347619Y-143695238D02*
X125776190Y-144266666D01*
X125633333Y-143314285D02*
X125633333Y-142838095D01*
X125347619Y-143409523D02*
X126347619Y-143076190D01*
X125347619Y-142742857D01*
X126347619Y-142504761D02*
X126347619Y-141838095D01*
X125347619Y-142266666D01*
X105347619Y-146766666D02*
X106347619Y-146766666D01*
X105347619Y-146195238D02*
X105919047Y-146623809D01*
X106347619Y-146195238D02*
X105776190Y-146766666D01*
X105633333Y-145814285D02*
X105633333Y-145338095D01*
X105347619Y-145909523D02*
X106347619Y-145576190D01*
X105347619Y-145242857D01*
X106347619Y-145004761D02*
X106347619Y-144385714D01*
X105966666Y-144719047D01*
X105966666Y-144576190D01*
X105919047Y-144480952D01*
X105871428Y-144433333D01*
X105776190Y-144385714D01*
X105538095Y-144385714D01*
X105442857Y-144433333D01*
X105395238Y-144480952D01*
X105347619Y-144576190D01*
X105347619Y-144861904D01*
X105395238Y-144957142D01*
X105442857Y-145004761D01*
X122847619Y-144266666D02*
X123847619Y-144266666D01*
X122847619Y-143695238D02*
X123419047Y-144123809D01*
X123847619Y-143695238D02*
X123276190Y-144266666D01*
X123133333Y-143314285D02*
X123133333Y-142838095D01*
X122847619Y-143409523D02*
X123847619Y-143076190D01*
X122847619Y-142742857D01*
X123847619Y-141980952D02*
X123847619Y-142171428D01*
X123800000Y-142266666D01*
X123752380Y-142314285D01*
X123609523Y-142409523D01*
X123419047Y-142457142D01*
X123038095Y-142457142D01*
X122942857Y-142409523D01*
X122895238Y-142361904D01*
X122847619Y-142266666D01*
X122847619Y-142076190D01*
X122895238Y-141980952D01*
X122942857Y-141933333D01*
X123038095Y-141885714D01*
X123276190Y-141885714D01*
X123371428Y-141933333D01*
X123419047Y-141980952D01*
X123466666Y-142076190D01*
X123466666Y-142266666D01*
X123419047Y-142361904D01*
X123371428Y-142409523D01*
X123276190Y-142457142D01*
X120247619Y-144266666D02*
X121247619Y-144266666D01*
X120247619Y-143695238D02*
X120819047Y-144123809D01*
X121247619Y-143695238D02*
X120676190Y-144266666D01*
X120533333Y-143314285D02*
X120533333Y-142838095D01*
X120247619Y-143409523D02*
X121247619Y-143076190D01*
X120247619Y-142742857D01*
X121247619Y-141933333D02*
X121247619Y-142409523D01*
X120771428Y-142457142D01*
X120819047Y-142409523D01*
X120866666Y-142314285D01*
X120866666Y-142076190D01*
X120819047Y-141980952D01*
X120771428Y-141933333D01*
X120676190Y-141885714D01*
X120438095Y-141885714D01*
X120342857Y-141933333D01*
X120295238Y-141980952D01*
X120247619Y-142076190D01*
X120247619Y-142314285D01*
X120295238Y-142409523D01*
X120342857Y-142457142D01*
X117747619Y-144266666D02*
X118747619Y-144266666D01*
X117747619Y-143695238D02*
X118319047Y-144123809D01*
X118747619Y-143695238D02*
X118176190Y-144266666D01*
X118033333Y-143314285D02*
X118033333Y-142838095D01*
X117747619Y-143409523D02*
X118747619Y-143076190D01*
X117747619Y-142742857D01*
X118414285Y-141980952D02*
X117747619Y-141980952D01*
X118795238Y-142219047D02*
X118080952Y-142457142D01*
X118080952Y-141838095D01*
D10*
X107300000Y-144300000D02*
X107000000Y-144700000D01*
X116300000Y-144300000D02*
X116600000Y-144700000D01*
X107300000Y-144300000D02*
X116300000Y-144300000D01*
X107000000Y-143800000D02*
X107300000Y-144300000D01*
X100400000Y-143800000D02*
X107000000Y-143800000D01*
D11*
X106790476Y-143552380D02*
X106790476Y-142552380D01*
X106219047Y-143552380D02*
X106647619Y-142980952D01*
X106219047Y-142552380D02*
X106790476Y-143123809D01*
X105838095Y-143266666D02*
X105361904Y-143266666D01*
X105933333Y-143552380D02*
X105600000Y-142552380D01*
X105266666Y-143552380D01*
X105028571Y-142552380D02*
X104409523Y-142552380D01*
X104742857Y-142933333D01*
X104600000Y-142933333D01*
X104504761Y-142980952D01*
X104457142Y-143028571D01*
X104409523Y-143123809D01*
X104409523Y-143361904D01*
X104457142Y-143457142D01*
X104504761Y-143504761D01*
X104600000Y-143552380D01*
X104885714Y-143552380D01*
X104980952Y-143504761D01*
X105028571Y-143457142D01*
X103980952Y-143171428D02*
X103219047Y-143171428D01*
X102742857Y-143552380D02*
X102742857Y-142552380D01*
X102171428Y-143552380D02*
X102600000Y-142980952D01*
X102171428Y-142552380D02*
X102742857Y-143123809D01*
X101790476Y-143266666D02*
X101314285Y-143266666D01*
X101885714Y-143552380D02*
X101552380Y-142552380D01*
X101219047Y-143552380D01*
X100695238Y-142552380D02*
X100600000Y-142552380D01*
X100504761Y-142600000D01*
X100457142Y-142647619D01*
X100409523Y-142742857D01*
X100361904Y-142933333D01*
X100361904Y-143171428D01*
X100409523Y-143361904D01*
X100457142Y-143457142D01*
X100504761Y-143504761D01*
X100600000Y-143552380D01*
X100695238Y-143552380D01*
X100790476Y-143504761D01*
X100838095Y-143457142D01*
X100885714Y-143361904D01*
X100933333Y-143171428D01*
X100933333Y-142933333D01*
X100885714Y-142742857D01*
X100838095Y-142647619D01*
X100790476Y-142600000D01*
X100695238Y-142552380D01*
X140133333Y-118110714D02*
X139609523Y-118110714D01*
X140133333Y-118777380D01*
X139609523Y-118777380D01*
X139323809Y-118777380D02*
X138800000Y-118110714D01*
X139323809Y-118110714D02*
X138800000Y-118777380D01*
X138419047Y-118777380D02*
X138419047Y-117777380D01*
X138323809Y-118396428D02*
X138038095Y-118777380D01*
X138038095Y-118110714D02*
X138419047Y-118491666D01*
X137609523Y-118777380D02*
X137609523Y-117777380D01*
X137609523Y-118158333D02*
X137514285Y-118110714D01*
X137323809Y-118110714D01*
X137228571Y-118158333D01*
X137180952Y-118205952D01*
X137133333Y-118301190D01*
X137133333Y-118586904D01*
X137180952Y-118682142D01*
X137228571Y-118729761D01*
X137323809Y-118777380D01*
X137514285Y-118777380D01*
X137609523Y-118729761D01*
X136276190Y-118777380D02*
X136276190Y-117777380D01*
X136276190Y-118729761D02*
X136371428Y-118777380D01*
X136561904Y-118777380D01*
X136657142Y-118729761D01*
X136704761Y-118682142D01*
X136752380Y-118586904D01*
X136752380Y-118301190D01*
X136704761Y-118205952D01*
X136657142Y-118158333D01*
X136561904Y-118110714D01*
X136371428Y-118110714D01*
X136276190Y-118158333D01*
X135038095Y-118777380D02*
X135038095Y-118110714D01*
X135038095Y-118301190D02*
X134990476Y-118205952D01*
X134942857Y-118158333D01*
X134847619Y-118110714D01*
X134752380Y-118110714D01*
X134038095Y-118729761D02*
X134133333Y-118777380D01*
X134323809Y-118777380D01*
X134419047Y-118729761D01*
X134466666Y-118634523D01*
X134466666Y-118253571D01*
X134419047Y-118158333D01*
X134323809Y-118110714D01*
X134133333Y-118110714D01*
X134038095Y-118158333D01*
X133990476Y-118253571D01*
X133990476Y-118348809D01*
X134466666Y-118444047D01*
X133657142Y-118110714D02*
X133419047Y-118777380D01*
X133180952Y-118110714D01*
X131514285Y-118777380D02*
X132085714Y-118777380D01*
X131800000Y-118777380D02*
X131800000Y-117777380D01*
X131895238Y-117920238D01*
X131990476Y-118015476D01*
X132085714Y-118063095D01*
X159300000Y-120332142D02*
X159347619Y-120379761D01*
X159490476Y-120427380D01*
X159585714Y-120427380D01*
X159728571Y-120379761D01*
X159823809Y-120284523D01*
X159871428Y-120189285D01*
X159919047Y-119998809D01*
X159919047Y-119855952D01*
X159871428Y-119665476D01*
X159823809Y-119570238D01*
X159728571Y-119475000D01*
X159585714Y-119427380D01*
X159490476Y-119427380D01*
X159347619Y-119475000D01*
X159300000Y-119522619D01*
X158728571Y-120427380D02*
X158823809Y-120379761D01*
X158871428Y-120332142D01*
X158919047Y-120236904D01*
X158919047Y-119951190D01*
X158871428Y-119855952D01*
X158823809Y-119808333D01*
X158728571Y-119760714D01*
X158585714Y-119760714D01*
X158490476Y-119808333D01*
X158442857Y-119855952D01*
X158395238Y-119951190D01*
X158395238Y-120236904D01*
X158442857Y-120332142D01*
X158490476Y-120379761D01*
X158585714Y-120427380D01*
X158728571Y-120427380D01*
X157966666Y-119760714D02*
X157966666Y-120760714D01*
X157966666Y-119808333D02*
X157871428Y-119760714D01*
X157680952Y-119760714D01*
X157585714Y-119808333D01*
X157538095Y-119855952D01*
X157490476Y-119951190D01*
X157490476Y-120236904D01*
X157538095Y-120332142D01*
X157585714Y-120379761D01*
X157680952Y-120427380D01*
X157871428Y-120427380D01*
X157966666Y-120379761D01*
X157157142Y-119760714D02*
X156919047Y-120427380D01*
X156680952Y-119760714D02*
X156919047Y-120427380D01*
X157014285Y-120665476D01*
X157061904Y-120713095D01*
X157157142Y-120760714D01*
X156300000Y-120427380D02*
X156300000Y-119760714D01*
X156300000Y-119951190D02*
X156252380Y-119855952D01*
X156204761Y-119808333D01*
X156109523Y-119760714D01*
X156014285Y-119760714D01*
X155680952Y-120427380D02*
X155680952Y-119760714D01*
X155680952Y-119427380D02*
X155728571Y-119475000D01*
X155680952Y-119522619D01*
X155633333Y-119475000D01*
X155680952Y-119427380D01*
X155680952Y-119522619D01*
X154776190Y-119760714D02*
X154776190Y-120570238D01*
X154823809Y-120665476D01*
X154871428Y-120713095D01*
X154966666Y-120760714D01*
X155109523Y-120760714D01*
X155204761Y-120713095D01*
X154776190Y-120379761D02*
X154871428Y-120427380D01*
X155061904Y-120427380D01*
X155157142Y-120379761D01*
X155204761Y-120332142D01*
X155252380Y-120236904D01*
X155252380Y-119951190D01*
X155204761Y-119855952D01*
X155157142Y-119808333D01*
X155061904Y-119760714D01*
X154871428Y-119760714D01*
X154776190Y-119808333D01*
X154300000Y-120427380D02*
X154300000Y-119427380D01*
X153871428Y-120427380D02*
X153871428Y-119903571D01*
X153919047Y-119808333D01*
X154014285Y-119760714D01*
X154157142Y-119760714D01*
X154252380Y-119808333D01*
X154300000Y-119855952D01*
X153538095Y-119760714D02*
X153157142Y-119760714D01*
X153395238Y-119427380D02*
X153395238Y-120284523D01*
X153347619Y-120379761D01*
X153252380Y-120427380D01*
X153157142Y-120427380D01*
X151252380Y-119665476D02*
X151347619Y-119617857D01*
X151538095Y-119617857D01*
X151633333Y-119665476D01*
X151728571Y-119760714D01*
X151776190Y-119855952D01*
X151776190Y-120046428D01*
X151728571Y-120141666D01*
X151633333Y-120236904D01*
X151538095Y-120284523D01*
X151347619Y-120284523D01*
X151252380Y-120236904D01*
X151442857Y-119284523D02*
X151680952Y-119332142D01*
X151919047Y-119475000D01*
X152061904Y-119713095D01*
X152109523Y-119951190D01*
X152061904Y-120189285D01*
X151919047Y-120427380D01*
X151680952Y-120570238D01*
X151442857Y-120617857D01*
X151204761Y-120570238D01*
X150966666Y-120427380D01*
X150823809Y-120189285D01*
X150776190Y-119951190D01*
X150823809Y-119713095D01*
X150966666Y-119475000D01*
X151204761Y-119332142D01*
X151442857Y-119284523D01*
X149633333Y-119522619D02*
X149585714Y-119475000D01*
X149490476Y-119427380D01*
X149252380Y-119427380D01*
X149157142Y-119475000D01*
X149109523Y-119522619D01*
X149061904Y-119617857D01*
X149061904Y-119713095D01*
X149109523Y-119855952D01*
X149680952Y-120427380D01*
X149061904Y-120427380D01*
X148442857Y-119427380D02*
X148347619Y-119427380D01*
X148252380Y-119475000D01*
X148204761Y-119522619D01*
X148157142Y-119617857D01*
X148109523Y-119808333D01*
X148109523Y-120046428D01*
X148157142Y-120236904D01*
X148204761Y-120332142D01*
X148252380Y-120379761D01*
X148347619Y-120427380D01*
X148442857Y-120427380D01*
X148538095Y-120379761D01*
X148585714Y-120332142D01*
X148633333Y-120236904D01*
X148680952Y-120046428D01*
X148680952Y-119808333D01*
X148633333Y-119617857D01*
X148585714Y-119522619D01*
X148538095Y-119475000D01*
X148442857Y-119427380D01*
X147728571Y-119522619D02*
X147680952Y-119475000D01*
X147585714Y-119427380D01*
X147347619Y-119427380D01*
X147252380Y-119475000D01*
X147204761Y-119522619D01*
X147157142Y-119617857D01*
X147157142Y-119713095D01*
X147204761Y-119855952D01*
X147776190Y-120427380D01*
X147157142Y-120427380D01*
X146538095Y-119427380D02*
X146442857Y-119427380D01*
X146347619Y-119475000D01*
X146300000Y-119522619D01*
X146252380Y-119617857D01*
X146204761Y-119808333D01*
X146204761Y-120046428D01*
X146252380Y-120236904D01*
X146300000Y-120332142D01*
X146347619Y-120379761D01*
X146442857Y-120427380D01*
X146538095Y-120427380D01*
X146633333Y-120379761D01*
X146680952Y-120332142D01*
X146728571Y-120236904D01*
X146776190Y-120046428D01*
X146776190Y-119808333D01*
X146728571Y-119617857D01*
X146680952Y-119522619D01*
X146633333Y-119475000D01*
X146538095Y-119427380D01*
X144728571Y-119427380D02*
X144728571Y-120141666D01*
X144776190Y-120284523D01*
X144871428Y-120379761D01*
X145014285Y-120427380D01*
X145109523Y-120427380D01*
X144109523Y-120427380D02*
X144204761Y-120379761D01*
X144252380Y-120332142D01*
X144300000Y-120236904D01*
X144300000Y-119951190D01*
X144252380Y-119855952D01*
X144204761Y-119808333D01*
X144109523Y-119760714D01*
X143966666Y-119760714D01*
X143871428Y-119808333D01*
X143823809Y-119855952D01*
X143776190Y-119951190D01*
X143776190Y-120236904D01*
X143823809Y-120332142D01*
X143871428Y-120379761D01*
X143966666Y-120427380D01*
X144109523Y-120427380D01*
X143347619Y-120427380D02*
X143347619Y-119427380D01*
X142919047Y-120427380D02*
X142919047Y-119903571D01*
X142966666Y-119808333D01*
X143061904Y-119760714D01*
X143204761Y-119760714D01*
X143300000Y-119808333D01*
X143347619Y-119855952D01*
X142442857Y-119760714D02*
X142442857Y-120427380D01*
X142442857Y-119855952D02*
X142395238Y-119808333D01*
X142300000Y-119760714D01*
X142157142Y-119760714D01*
X142061904Y-119808333D01*
X142014285Y-119903571D01*
X142014285Y-120427380D01*
X140919047Y-119427380D02*
X140347619Y-119427380D01*
X140633333Y-120427380D02*
X140633333Y-119427380D01*
X140061904Y-120379761D02*
X139966666Y-120427380D01*
X139776190Y-120427380D01*
X139680952Y-120379761D01*
X139633333Y-120284523D01*
X139633333Y-120236904D01*
X139680952Y-120141666D01*
X139776190Y-120094047D01*
X139919047Y-120094047D01*
X140014285Y-120046428D01*
X140061904Y-119951190D01*
X140061904Y-119903571D01*
X140014285Y-119808333D01*
X139919047Y-119760714D01*
X139776190Y-119760714D01*
X139680952Y-119808333D01*
X139204761Y-120427380D02*
X139204761Y-119760714D01*
X139204761Y-119427380D02*
X139252380Y-119475000D01*
X139204761Y-119522619D01*
X139157142Y-119475000D01*
X139204761Y-119427380D01*
X139204761Y-119522619D01*
X138585714Y-120427380D02*
X138680952Y-120379761D01*
X138728571Y-120332142D01*
X138776190Y-120236904D01*
X138776190Y-119951190D01*
X138728571Y-119855952D01*
X138680952Y-119808333D01*
X138585714Y-119760714D01*
X138442857Y-119760714D01*
X138347619Y-119808333D01*
X138300000Y-119855952D01*
X138252380Y-119951190D01*
X138252380Y-120236904D01*
X138300000Y-120332142D01*
X138347619Y-120379761D01*
X138442857Y-120427380D01*
X138585714Y-120427380D01*
X137823809Y-120427380D02*
X137823809Y-119760714D01*
X137823809Y-119855952D02*
X137776190Y-119808333D01*
X137680952Y-119760714D01*
X137538095Y-119760714D01*
X137442857Y-119808333D01*
X137395238Y-119903571D01*
X137395238Y-120427380D01*
X137395238Y-119903571D02*
X137347619Y-119808333D01*
X137252380Y-119760714D01*
X137109523Y-119760714D01*
X137014285Y-119808333D01*
X136966666Y-119903571D01*
X136966666Y-120427380D01*
X136490476Y-120427380D02*
X136490476Y-119427380D01*
X136490476Y-119808333D02*
X136395238Y-119760714D01*
X136204761Y-119760714D01*
X136109523Y-119808333D01*
X136061904Y-119855952D01*
X136014285Y-119951190D01*
X136014285Y-120236904D01*
X136061904Y-120332142D01*
X136109523Y-120379761D01*
X136204761Y-120427380D01*
X136395238Y-120427380D01*
X136490476Y-120379761D01*
X135585714Y-120427380D02*
X135585714Y-119760714D01*
X135585714Y-119427380D02*
X135633333Y-119475000D01*
X135585714Y-119522619D01*
X135538095Y-119475000D01*
X135585714Y-119427380D01*
X135585714Y-119522619D01*
X135109523Y-120427380D02*
X135109523Y-119427380D01*
X135014285Y-120046428D02*
X134728571Y-120427380D01*
X134728571Y-119760714D02*
X135109523Y-120141666D01*
X133871428Y-120427380D02*
X133871428Y-119903571D01*
X133919047Y-119808333D01*
X134014285Y-119760714D01*
X134204761Y-119760714D01*
X134300000Y-119808333D01*
X133871428Y-120379761D02*
X133966666Y-120427380D01*
X134204761Y-120427380D01*
X134300000Y-120379761D01*
X134347619Y-120284523D01*
X134347619Y-120189285D01*
X134300000Y-120094047D01*
X134204761Y-120046428D01*
X133966666Y-120046428D01*
X133871428Y-119998809D01*
X133442857Y-120379761D02*
X133347619Y-120427380D01*
X133157142Y-120427380D01*
X133061904Y-120379761D01*
X133014285Y-120284523D01*
X133014285Y-120236904D01*
X133061904Y-120141666D01*
X133157142Y-120094047D01*
X133300000Y-120094047D01*
X133395238Y-120046428D01*
X133442857Y-119951190D01*
X133442857Y-119903571D01*
X133395238Y-119808333D01*
X133300000Y-119760714D01*
X133157142Y-119760714D01*
X133061904Y-119808333D01*
X131061904Y-119760714D02*
X131823809Y-120046428D01*
X131061904Y-120332142D01*
X130585714Y-119760714D02*
X130585714Y-120427380D01*
X130585714Y-119855952D02*
X130538095Y-119808333D01*
X130442857Y-119760714D01*
X130300000Y-119760714D01*
X130204761Y-119808333D01*
X130157142Y-119903571D01*
X130157142Y-120427380D01*
X129252380Y-119760714D02*
X129252380Y-120427380D01*
X129680952Y-119760714D02*
X129680952Y-120284523D01*
X129633333Y-120379761D01*
X129538095Y-120427380D01*
X129395238Y-120427380D01*
X129300000Y-120379761D01*
X129252380Y-120332142D01*
X128347619Y-120379761D02*
X128442857Y-120427380D01*
X128633333Y-120427380D01*
X128728571Y-120379761D01*
X128776190Y-120332142D01*
X128823809Y-120236904D01*
X128823809Y-119951190D01*
X128776190Y-119855952D01*
X128728571Y-119808333D01*
X128633333Y-119760714D01*
X128442857Y-119760714D01*
X128347619Y-119808333D01*
X127776190Y-120427380D02*
X127871428Y-120379761D01*
X127919047Y-120284523D01*
X127919047Y-119427380D01*
X127014285Y-120379761D02*
X127109523Y-120427380D01*
X127300000Y-120427380D01*
X127395238Y-120379761D01*
X127442857Y-120284523D01*
X127442857Y-119903571D01*
X127395238Y-119808333D01*
X127300000Y-119760714D01*
X127109523Y-119760714D01*
X127014285Y-119808333D01*
X126966666Y-119903571D01*
X126966666Y-119998809D01*
X127442857Y-120094047D01*
X126109523Y-120427380D02*
X126109523Y-119903571D01*
X126157142Y-119808333D01*
X126252380Y-119760714D01*
X126442857Y-119760714D01*
X126538095Y-119808333D01*
X126109523Y-120379761D02*
X126204761Y-120427380D01*
X126442857Y-120427380D01*
X126538095Y-120379761D01*
X126585714Y-120284523D01*
X126585714Y-120189285D01*
X126538095Y-120094047D01*
X126442857Y-120046428D01*
X126204761Y-120046428D01*
X126109523Y-119998809D01*
X125633333Y-120427380D02*
X125633333Y-119760714D01*
X125633333Y-119951190D02*
X125585714Y-119855952D01*
X125538095Y-119808333D01*
X125442857Y-119760714D01*
X125347619Y-119760714D01*
X124395238Y-119951190D02*
X124442857Y-119903571D01*
X124538095Y-119855952D01*
X124633333Y-119855952D01*
X124728571Y-119903571D01*
X124776190Y-119951190D01*
X124823809Y-120046428D01*
X124823809Y-120141666D01*
X124776190Y-120236904D01*
X124728571Y-120284523D01*
X124633333Y-120332142D01*
X124538095Y-120332142D01*
X124442857Y-120284523D01*
X124395238Y-120236904D01*
X124395238Y-119855952D02*
X124395238Y-120236904D01*
X124347619Y-120284523D01*
X124300000Y-120284523D01*
X124204761Y-120236904D01*
X124157142Y-120141666D01*
X124157142Y-119903571D01*
X124252380Y-119760714D01*
X124395238Y-119665476D01*
X124585714Y-119617857D01*
X124776190Y-119665476D01*
X124919047Y-119760714D01*
X125014285Y-119903571D01*
X125061904Y-120094047D01*
X125014285Y-120284523D01*
X124919047Y-120427380D01*
X124776190Y-120522619D01*
X124585714Y-120570238D01*
X124395238Y-120522619D01*
X124252380Y-120427380D01*
X123728571Y-120427380D02*
X123728571Y-119760714D01*
X123728571Y-119855952D02*
X123680952Y-119808333D01*
X123585714Y-119760714D01*
X123442857Y-119760714D01*
X123347619Y-119808333D01*
X123300000Y-119903571D01*
X123300000Y-120427380D01*
X123300000Y-119903571D02*
X123252380Y-119808333D01*
X123157142Y-119760714D01*
X123014285Y-119760714D01*
X122919047Y-119808333D01*
X122871428Y-119903571D01*
X122871428Y-120427380D01*
X122014285Y-120379761D02*
X122109523Y-120427380D01*
X122300000Y-120427380D01*
X122395238Y-120379761D01*
X122442857Y-120284523D01*
X122442857Y-119903571D01*
X122395238Y-119808333D01*
X122300000Y-119760714D01*
X122109523Y-119760714D01*
X122014285Y-119808333D01*
X121966666Y-119903571D01*
X121966666Y-119998809D01*
X122442857Y-120094047D01*
X121538095Y-120427380D02*
X121538095Y-119760714D01*
X121538095Y-119855952D02*
X121490476Y-119808333D01*
X121395238Y-119760714D01*
X121252380Y-119760714D01*
X121157142Y-119808333D01*
X121109523Y-119903571D01*
X121109523Y-120427380D01*
X121109523Y-119903571D02*
X121061904Y-119808333D01*
X120966666Y-119760714D01*
X120823809Y-119760714D01*
X120728571Y-119808333D01*
X120680952Y-119903571D01*
X120680952Y-120427380D01*
X120204761Y-120427380D02*
X120204761Y-119427380D01*
X120204761Y-119808333D02*
X120109523Y-119760714D01*
X119919047Y-119760714D01*
X119823809Y-119808333D01*
X119776190Y-119855952D01*
X119728571Y-119951190D01*
X119728571Y-120236904D01*
X119776190Y-120332142D01*
X119823809Y-120379761D01*
X119919047Y-120427380D01*
X120109523Y-120427380D01*
X120204761Y-120379761D01*
X118919047Y-120379761D02*
X119014285Y-120427380D01*
X119204761Y-120427380D01*
X119300000Y-120379761D01*
X119347619Y-120284523D01*
X119347619Y-119903571D01*
X119300000Y-119808333D01*
X119204761Y-119760714D01*
X119014285Y-119760714D01*
X118919047Y-119808333D01*
X118871428Y-119903571D01*
X118871428Y-119998809D01*
X119347619Y-120094047D01*
X118442857Y-120427380D02*
X118442857Y-119760714D01*
X118442857Y-119951190D02*
X118395238Y-119855952D01*
X118347619Y-119808333D01*
X118252380Y-119760714D01*
X118157142Y-119760714D01*
X117823809Y-120332142D02*
X117776190Y-120379761D01*
X117823809Y-120427380D01*
X117871428Y-120379761D01*
X117823809Y-120332142D01*
X117823809Y-120427380D01*
X117490476Y-119760714D02*
X117109523Y-119760714D01*
X117347619Y-120427380D02*
X117347619Y-119570238D01*
X117300000Y-119475000D01*
X117204761Y-119427380D01*
X117109523Y-119427380D01*
X116823809Y-120379761D02*
X116728571Y-120427380D01*
X116538095Y-120427380D01*
X116442857Y-120379761D01*
X116395238Y-120284523D01*
X116395238Y-120236904D01*
X116442857Y-120141666D01*
X116538095Y-120094047D01*
X116680952Y-120094047D01*
X116776190Y-120046428D01*
X116823809Y-119951190D01*
X116823809Y-119903571D01*
X116776190Y-119808333D01*
X116680952Y-119760714D01*
X116538095Y-119760714D01*
X116442857Y-119808333D01*
X116109523Y-119760714D02*
X115728571Y-119760714D01*
X115966666Y-120427380D02*
X115966666Y-119570238D01*
X115919047Y-119475000D01*
X115823809Y-119427380D01*
X115728571Y-119427380D01*
X115395238Y-120332142D02*
X115347619Y-120379761D01*
X115395238Y-120427380D01*
X115442857Y-120379761D01*
X115395238Y-120332142D01*
X115395238Y-120427380D01*
X114776190Y-120427380D02*
X114871428Y-120379761D01*
X114919047Y-120332142D01*
X114966666Y-120236904D01*
X114966666Y-119951190D01*
X114919047Y-119855952D01*
X114871428Y-119808333D01*
X114776190Y-119760714D01*
X114633333Y-119760714D01*
X114538095Y-119808333D01*
X114490476Y-119855952D01*
X114442857Y-119951190D01*
X114442857Y-120236904D01*
X114490476Y-120332142D01*
X114538095Y-120379761D01*
X114633333Y-120427380D01*
X114776190Y-120427380D01*
X114014285Y-120427380D02*
X114014285Y-119760714D01*
X114014285Y-119951190D02*
X113966666Y-119855952D01*
X113919047Y-119808333D01*
X113823809Y-119760714D01*
X113728571Y-119760714D01*
X112966666Y-119760714D02*
X112966666Y-120570238D01*
X113014285Y-120665476D01*
X113061904Y-120713095D01*
X113157142Y-120760714D01*
X113300000Y-120760714D01*
X113395238Y-120713095D01*
X112966666Y-120379761D02*
X113061904Y-120427380D01*
X113252380Y-120427380D01*
X113347619Y-120379761D01*
X113395238Y-120332142D01*
X113442857Y-120236904D01*
X113442857Y-119951190D01*
X113395238Y-119855952D01*
X113347619Y-119808333D01*
X113252380Y-119760714D01*
X113061904Y-119760714D01*
X112966666Y-119808333D01*
X112490476Y-119760714D02*
X111728571Y-120046428D01*
X112490476Y-120332142D01*
X156014285Y-121982142D02*
X156061904Y-122029761D01*
X156204761Y-122077380D01*
X156300000Y-122077380D01*
X156442857Y-122029761D01*
X156538095Y-121934523D01*
X156585714Y-121839285D01*
X156633333Y-121648809D01*
X156633333Y-121505952D01*
X156585714Y-121315476D01*
X156538095Y-121220238D01*
X156442857Y-121125000D01*
X156300000Y-121077380D01*
X156204761Y-121077380D01*
X156061904Y-121125000D01*
X156014285Y-121172619D01*
X155585714Y-122077380D02*
X155585714Y-121410714D01*
X155585714Y-121601190D02*
X155538095Y-121505952D01*
X155490476Y-121458333D01*
X155395238Y-121410714D01*
X155300000Y-121410714D01*
X154585714Y-122029761D02*
X154680952Y-122077380D01*
X154871428Y-122077380D01*
X154966666Y-122029761D01*
X155014285Y-121934523D01*
X155014285Y-121553571D01*
X154966666Y-121458333D01*
X154871428Y-121410714D01*
X154680952Y-121410714D01*
X154585714Y-121458333D01*
X154538095Y-121553571D01*
X154538095Y-121648809D01*
X155014285Y-121744047D01*
X153680952Y-122077380D02*
X153680952Y-121553571D01*
X153728571Y-121458333D01*
X153823809Y-121410714D01*
X154014285Y-121410714D01*
X154109523Y-121458333D01*
X153680952Y-122029761D02*
X153776190Y-122077380D01*
X154014285Y-122077380D01*
X154109523Y-122029761D01*
X154157142Y-121934523D01*
X154157142Y-121839285D01*
X154109523Y-121744047D01*
X154014285Y-121696428D01*
X153776190Y-121696428D01*
X153680952Y-121648809D01*
X153347619Y-121410714D02*
X152966666Y-121410714D01*
X153204761Y-121077380D02*
X153204761Y-121934523D01*
X153157142Y-122029761D01*
X153061904Y-122077380D01*
X152966666Y-122077380D01*
X152633333Y-122077380D02*
X152633333Y-121410714D01*
X152633333Y-121077380D02*
X152680952Y-121125000D01*
X152633333Y-121172619D01*
X152585714Y-121125000D01*
X152633333Y-121077380D01*
X152633333Y-121172619D01*
X152252380Y-121410714D02*
X152014285Y-122077380D01*
X151776190Y-121410714D01*
X151014285Y-122029761D02*
X151109523Y-122077380D01*
X151300000Y-122077380D01*
X151395238Y-122029761D01*
X151442857Y-121934523D01*
X151442857Y-121553571D01*
X151395238Y-121458333D01*
X151300000Y-121410714D01*
X151109523Y-121410714D01*
X151014285Y-121458333D01*
X150966666Y-121553571D01*
X150966666Y-121648809D01*
X151442857Y-121744047D01*
X149204761Y-121982142D02*
X149252380Y-122029761D01*
X149395238Y-122077380D01*
X149490476Y-122077380D01*
X149633333Y-122029761D01*
X149728571Y-121934523D01*
X149776190Y-121839285D01*
X149823809Y-121648809D01*
X149823809Y-121505952D01*
X149776190Y-121315476D01*
X149728571Y-121220238D01*
X149633333Y-121125000D01*
X149490476Y-121077380D01*
X149395238Y-121077380D01*
X149252380Y-121125000D01*
X149204761Y-121172619D01*
X148633333Y-122077380D02*
X148728571Y-122029761D01*
X148776190Y-121982142D01*
X148823809Y-121886904D01*
X148823809Y-121601190D01*
X148776190Y-121505952D01*
X148728571Y-121458333D01*
X148633333Y-121410714D01*
X148490476Y-121410714D01*
X148395238Y-121458333D01*
X148347619Y-121505952D01*
X148300000Y-121601190D01*
X148300000Y-121886904D01*
X148347619Y-121982142D01*
X148395238Y-122029761D01*
X148490476Y-122077380D01*
X148633333Y-122077380D01*
X147871428Y-122077380D02*
X147871428Y-121410714D01*
X147871428Y-121505952D02*
X147823809Y-121458333D01*
X147728571Y-121410714D01*
X147585714Y-121410714D01*
X147490476Y-121458333D01*
X147442857Y-121553571D01*
X147442857Y-122077380D01*
X147442857Y-121553571D02*
X147395238Y-121458333D01*
X147300000Y-121410714D01*
X147157142Y-121410714D01*
X147061904Y-121458333D01*
X147014285Y-121553571D01*
X147014285Y-122077380D01*
X146538095Y-122077380D02*
X146538095Y-121410714D01*
X146538095Y-121505952D02*
X146490476Y-121458333D01*
X146395238Y-121410714D01*
X146252380Y-121410714D01*
X146157142Y-121458333D01*
X146109523Y-121553571D01*
X146109523Y-122077380D01*
X146109523Y-121553571D02*
X146061904Y-121458333D01*
X145966666Y-121410714D01*
X145823809Y-121410714D01*
X145728571Y-121458333D01*
X145680952Y-121553571D01*
X145680952Y-122077380D01*
X145061904Y-122077380D02*
X145157142Y-122029761D01*
X145204761Y-121982142D01*
X145252380Y-121886904D01*
X145252380Y-121601190D01*
X145204761Y-121505952D01*
X145157142Y-121458333D01*
X145061904Y-121410714D01*
X144919047Y-121410714D01*
X144823809Y-121458333D01*
X144776190Y-121505952D01*
X144728571Y-121601190D01*
X144728571Y-121886904D01*
X144776190Y-121982142D01*
X144823809Y-122029761D01*
X144919047Y-122077380D01*
X145061904Y-122077380D01*
X144300000Y-121410714D02*
X144300000Y-122077380D01*
X144300000Y-121505952D02*
X144252380Y-121458333D01*
X144157142Y-121410714D01*
X144014285Y-121410714D01*
X143919047Y-121458333D01*
X143871428Y-121553571D01*
X143871428Y-122077380D01*
X143442857Y-122029761D02*
X143347619Y-122077380D01*
X143157142Y-122077380D01*
X143061904Y-122029761D01*
X143014285Y-121934523D01*
X143014285Y-121886904D01*
X143061904Y-121791666D01*
X143157142Y-121744047D01*
X143300000Y-121744047D01*
X143395238Y-121696428D01*
X143442857Y-121601190D01*
X143442857Y-121553571D01*
X143395238Y-121458333D01*
X143300000Y-121410714D01*
X143157142Y-121410714D01*
X143061904Y-121458333D01*
X141871428Y-121791666D02*
X141395238Y-121791666D01*
X141966666Y-122077380D02*
X141633333Y-121077380D01*
X141300000Y-122077380D01*
X141109523Y-121410714D02*
X140728571Y-121410714D01*
X140966666Y-121077380D02*
X140966666Y-121934523D01*
X140919047Y-122029761D01*
X140823809Y-122077380D01*
X140728571Y-122077380D01*
X140538095Y-121410714D02*
X140157142Y-121410714D01*
X140395238Y-121077380D02*
X140395238Y-121934523D01*
X140347619Y-122029761D01*
X140252380Y-122077380D01*
X140157142Y-122077380D01*
X139823809Y-122077380D02*
X139823809Y-121410714D01*
X139823809Y-121601190D02*
X139776190Y-121505952D01*
X139728571Y-121458333D01*
X139633333Y-121410714D01*
X139538095Y-121410714D01*
X139204761Y-122077380D02*
X139204761Y-121410714D01*
X139204761Y-121077380D02*
X139252380Y-121125000D01*
X139204761Y-121172619D01*
X139157142Y-121125000D01*
X139204761Y-121077380D01*
X139204761Y-121172619D01*
X138728571Y-122077380D02*
X138728571Y-121077380D01*
X138728571Y-121458333D02*
X138633333Y-121410714D01*
X138442857Y-121410714D01*
X138347619Y-121458333D01*
X138300000Y-121505952D01*
X138252380Y-121601190D01*
X138252380Y-121886904D01*
X138300000Y-121982142D01*
X138347619Y-122029761D01*
X138442857Y-122077380D01*
X138633333Y-122077380D01*
X138728571Y-122029761D01*
X137395238Y-121410714D02*
X137395238Y-122077380D01*
X137823809Y-121410714D02*
X137823809Y-121934523D01*
X137776190Y-122029761D01*
X137680952Y-122077380D01*
X137538095Y-122077380D01*
X137442857Y-122029761D01*
X137395238Y-121982142D01*
X137061904Y-121410714D02*
X136680952Y-121410714D01*
X136919047Y-121077380D02*
X136919047Y-121934523D01*
X136871428Y-122029761D01*
X136776190Y-122077380D01*
X136680952Y-122077380D01*
X136347619Y-122077380D02*
X136347619Y-121410714D01*
X136347619Y-121077380D02*
X136395238Y-121125000D01*
X136347619Y-121172619D01*
X136300000Y-121125000D01*
X136347619Y-121077380D01*
X136347619Y-121172619D01*
X135728571Y-122077380D02*
X135823809Y-122029761D01*
X135871428Y-121982142D01*
X135919047Y-121886904D01*
X135919047Y-121601190D01*
X135871428Y-121505952D01*
X135823809Y-121458333D01*
X135728571Y-121410714D01*
X135585714Y-121410714D01*
X135490476Y-121458333D01*
X135442857Y-121505952D01*
X135395238Y-121601190D01*
X135395238Y-121886904D01*
X135442857Y-121982142D01*
X135490476Y-122029761D01*
X135585714Y-122077380D01*
X135728571Y-122077380D01*
X134966666Y-121410714D02*
X134966666Y-122077380D01*
X134966666Y-121505952D02*
X134919047Y-121458333D01*
X134823809Y-121410714D01*
X134680952Y-121410714D01*
X134585714Y-121458333D01*
X134538095Y-121553571D01*
X134538095Y-122077380D01*
X133347619Y-122029761D02*
X133204761Y-122077380D01*
X132966666Y-122077380D01*
X132871428Y-122029761D01*
X132823809Y-121982142D01*
X132776190Y-121886904D01*
X132776190Y-121791666D01*
X132823809Y-121696428D01*
X132871428Y-121648809D01*
X132966666Y-121601190D01*
X133157142Y-121553571D01*
X133252380Y-121505952D01*
X133300000Y-121458333D01*
X133347619Y-121363095D01*
X133347619Y-121267857D01*
X133300000Y-121172619D01*
X133252380Y-121125000D01*
X133157142Y-121077380D01*
X132919047Y-121077380D01*
X132776190Y-121125000D01*
X132347619Y-122077380D02*
X132347619Y-121077380D01*
X131919047Y-122077380D02*
X131919047Y-121553571D01*
X131966666Y-121458333D01*
X132061904Y-121410714D01*
X132204761Y-121410714D01*
X132300000Y-121458333D01*
X132347619Y-121505952D01*
X131014285Y-122077380D02*
X131014285Y-121553571D01*
X131061904Y-121458333D01*
X131157142Y-121410714D01*
X131347619Y-121410714D01*
X131442857Y-121458333D01*
X131014285Y-122029761D02*
X131109523Y-122077380D01*
X131347619Y-122077380D01*
X131442857Y-122029761D01*
X131490476Y-121934523D01*
X131490476Y-121839285D01*
X131442857Y-121744047D01*
X131347619Y-121696428D01*
X131109523Y-121696428D01*
X131014285Y-121648809D01*
X130538095Y-122077380D02*
X130538095Y-121410714D01*
X130538095Y-121601190D02*
X130490476Y-121505952D01*
X130442857Y-121458333D01*
X130347619Y-121410714D01*
X130252380Y-121410714D01*
X129538095Y-122029761D02*
X129633333Y-122077380D01*
X129823809Y-122077380D01*
X129919047Y-122029761D01*
X129966666Y-121934523D01*
X129966666Y-121553571D01*
X129919047Y-121458333D01*
X129823809Y-121410714D01*
X129633333Y-121410714D01*
X129538095Y-121458333D01*
X129490476Y-121553571D01*
X129490476Y-121648809D01*
X129966666Y-121744047D01*
X129061904Y-121696428D02*
X128300000Y-121696428D01*
X127871428Y-121791666D02*
X127395238Y-121791666D01*
X127966666Y-122077380D02*
X127633333Y-121077380D01*
X127300000Y-122077380D01*
X126823809Y-122077380D02*
X126919047Y-122029761D01*
X126966666Y-121934523D01*
X126966666Y-121077380D01*
X126442857Y-122077380D02*
X126442857Y-121410714D01*
X126442857Y-121077380D02*
X126490476Y-121125000D01*
X126442857Y-121172619D01*
X126395238Y-121125000D01*
X126442857Y-121077380D01*
X126442857Y-121172619D01*
X125966666Y-122077380D02*
X125966666Y-121077380D01*
X125871428Y-121696428D02*
X125585714Y-122077380D01*
X125585714Y-121410714D02*
X125966666Y-121791666D01*
X124776190Y-122029761D02*
X124871428Y-122077380D01*
X125061904Y-122077380D01*
X125157142Y-122029761D01*
X125204761Y-121934523D01*
X125204761Y-121553571D01*
X125157142Y-121458333D01*
X125061904Y-121410714D01*
X124871428Y-121410714D01*
X124776190Y-121458333D01*
X124728571Y-121553571D01*
X124728571Y-121648809D01*
X125204761Y-121744047D01*
X123252380Y-122458333D02*
X123300000Y-122410714D01*
X123395238Y-122267857D01*
X123442857Y-122172619D01*
X123490476Y-122029761D01*
X123538095Y-121791666D01*
X123538095Y-121601190D01*
X123490476Y-121363095D01*
X123442857Y-121220238D01*
X123395238Y-121125000D01*
X123300000Y-120982142D01*
X123252380Y-120934523D01*
X122300000Y-121982142D02*
X122347619Y-122029761D01*
X122490476Y-122077380D01*
X122585714Y-122077380D01*
X122728571Y-122029761D01*
X122823809Y-121934523D01*
X122871428Y-121839285D01*
X122919047Y-121648809D01*
X122919047Y-121505952D01*
X122871428Y-121315476D01*
X122823809Y-121220238D01*
X122728571Y-121125000D01*
X122585714Y-121077380D01*
X122490476Y-121077380D01*
X122347619Y-121125000D01*
X122300000Y-121172619D01*
X121300000Y-121982142D02*
X121347619Y-122029761D01*
X121490476Y-122077380D01*
X121585714Y-122077380D01*
X121728571Y-122029761D01*
X121823809Y-121934523D01*
X121871428Y-121839285D01*
X121919047Y-121648809D01*
X121919047Y-121505952D01*
X121871428Y-121315476D01*
X121823809Y-121220238D01*
X121728571Y-121125000D01*
X121585714Y-121077380D01*
X121490476Y-121077380D01*
X121347619Y-121125000D01*
X121300000Y-121172619D01*
X119776190Y-121553571D02*
X119633333Y-121601190D01*
X119585714Y-121648809D01*
X119538095Y-121744047D01*
X119538095Y-121886904D01*
X119585714Y-121982142D01*
X119633333Y-122029761D01*
X119728571Y-122077380D01*
X120109523Y-122077380D01*
X120109523Y-121077380D01*
X119776190Y-121077380D01*
X119680952Y-121125000D01*
X119633333Y-121172619D01*
X119585714Y-121267857D01*
X119585714Y-121363095D01*
X119633333Y-121458333D01*
X119680952Y-121505952D01*
X119776190Y-121553571D01*
X120109523Y-121553571D01*
X118919047Y-121601190D02*
X118919047Y-122077380D01*
X119252380Y-121077380D02*
X118919047Y-121601190D01*
X118585714Y-121077380D01*
X118252380Y-121696428D02*
X117490476Y-121696428D01*
X117061904Y-122029761D02*
X116919047Y-122077380D01*
X116680952Y-122077380D01*
X116585714Y-122029761D01*
X116538095Y-121982142D01*
X116490476Y-121886904D01*
X116490476Y-121791666D01*
X116538095Y-121696428D01*
X116585714Y-121648809D01*
X116680952Y-121601190D01*
X116871428Y-121553571D01*
X116966666Y-121505952D01*
X117014285Y-121458333D01*
X117061904Y-121363095D01*
X117061904Y-121267857D01*
X117014285Y-121172619D01*
X116966666Y-121125000D01*
X116871428Y-121077380D01*
X116633333Y-121077380D01*
X116490476Y-121125000D01*
X116109523Y-121791666D02*
X115633333Y-121791666D01*
X116204761Y-122077380D02*
X115871428Y-121077380D01*
X115538095Y-122077380D01*
X115300000Y-122458333D02*
X115252380Y-122410714D01*
X115157142Y-122267857D01*
X115109523Y-122172619D01*
X115061904Y-122029761D01*
X115014285Y-121791666D01*
X115014285Y-121601190D01*
X115061904Y-121363095D01*
X115109523Y-121220238D01*
X115157142Y-121125000D01*
X115252380Y-120982142D01*
X115300000Y-120934523D01*
X148752380Y-123727380D02*
X148752380Y-122727380D01*
X148323809Y-123727380D02*
X148323809Y-123203571D01*
X148371428Y-123108333D01*
X148466666Y-123060714D01*
X148609523Y-123060714D01*
X148704761Y-123108333D01*
X148752380Y-123155952D01*
X147990476Y-123060714D02*
X147609523Y-123060714D01*
X147847619Y-122727380D02*
X147847619Y-123584523D01*
X147800000Y-123679761D01*
X147704761Y-123727380D01*
X147609523Y-123727380D01*
X147419047Y-123060714D02*
X147038095Y-123060714D01*
X147276190Y-122727380D02*
X147276190Y-123584523D01*
X147228571Y-123679761D01*
X147133333Y-123727380D01*
X147038095Y-123727380D01*
X146704761Y-123060714D02*
X146704761Y-124060714D01*
X146704761Y-123108333D02*
X146609523Y-123060714D01*
X146419047Y-123060714D01*
X146323809Y-123108333D01*
X146276190Y-123155952D01*
X146228571Y-123251190D01*
X146228571Y-123536904D01*
X146276190Y-123632142D01*
X146323809Y-123679761D01*
X146419047Y-123727380D01*
X146609523Y-123727380D01*
X146704761Y-123679761D01*
X145847619Y-123679761D02*
X145752380Y-123727380D01*
X145561904Y-123727380D01*
X145466666Y-123679761D01*
X145419047Y-123584523D01*
X145419047Y-123536904D01*
X145466666Y-123441666D01*
X145561904Y-123394047D01*
X145704761Y-123394047D01*
X145800000Y-123346428D01*
X145847619Y-123251190D01*
X145847619Y-123203571D01*
X145800000Y-123108333D01*
X145704761Y-123060714D01*
X145561904Y-123060714D01*
X145466666Y-123108333D01*
X144990476Y-123632142D02*
X144942857Y-123679761D01*
X144990476Y-123727380D01*
X145038095Y-123679761D01*
X144990476Y-123632142D01*
X144990476Y-123727380D01*
X144990476Y-123108333D02*
X144942857Y-123155952D01*
X144990476Y-123203571D01*
X145038095Y-123155952D01*
X144990476Y-123108333D01*
X144990476Y-123203571D01*
X143800000Y-122679761D02*
X144657142Y-123965476D01*
X142752380Y-122679761D02*
X143609523Y-123965476D01*
X141990476Y-123060714D02*
X141990476Y-123870238D01*
X142038095Y-123965476D01*
X142085714Y-124013095D01*
X142180952Y-124060714D01*
X142323809Y-124060714D01*
X142419047Y-124013095D01*
X141990476Y-123679761D02*
X142085714Y-123727380D01*
X142276190Y-123727380D01*
X142371428Y-123679761D01*
X142419047Y-123632142D01*
X142466666Y-123536904D01*
X142466666Y-123251190D01*
X142419047Y-123155952D01*
X142371428Y-123108333D01*
X142276190Y-123060714D01*
X142085714Y-123060714D01*
X141990476Y-123108333D01*
X141514285Y-123727380D02*
X141514285Y-123060714D01*
X141514285Y-122727380D02*
X141561904Y-122775000D01*
X141514285Y-122822619D01*
X141466666Y-122775000D01*
X141514285Y-122727380D01*
X141514285Y-122822619D01*
X141180952Y-123060714D02*
X140800000Y-123060714D01*
X141038095Y-122727380D02*
X141038095Y-123584523D01*
X140990476Y-123679761D01*
X140895238Y-123727380D01*
X140800000Y-123727380D01*
X140466666Y-123727380D02*
X140466666Y-122727380D01*
X140038095Y-123727380D02*
X140038095Y-123203571D01*
X140085714Y-123108333D01*
X140180952Y-123060714D01*
X140323809Y-123060714D01*
X140419047Y-123108333D01*
X140466666Y-123155952D01*
X139133333Y-123060714D02*
X139133333Y-123727380D01*
X139561904Y-123060714D02*
X139561904Y-123584523D01*
X139514285Y-123679761D01*
X139419047Y-123727380D01*
X139276190Y-123727380D01*
X139180952Y-123679761D01*
X139133333Y-123632142D01*
X138657142Y-123727380D02*
X138657142Y-122727380D01*
X138657142Y-123108333D02*
X138561904Y-123060714D01*
X138371428Y-123060714D01*
X138276190Y-123108333D01*
X138228571Y-123155952D01*
X138180952Y-123251190D01*
X138180952Y-123536904D01*
X138228571Y-123632142D01*
X138276190Y-123679761D01*
X138371428Y-123727380D01*
X138561904Y-123727380D01*
X138657142Y-123679761D01*
X137752380Y-123632142D02*
X137704761Y-123679761D01*
X137752380Y-123727380D01*
X137800000Y-123679761D01*
X137752380Y-123632142D01*
X137752380Y-123727380D01*
X136847619Y-123679761D02*
X136942857Y-123727380D01*
X137133333Y-123727380D01*
X137228571Y-123679761D01*
X137276190Y-123632142D01*
X137323809Y-123536904D01*
X137323809Y-123251190D01*
X137276190Y-123155952D01*
X137228571Y-123108333D01*
X137133333Y-123060714D01*
X136942857Y-123060714D01*
X136847619Y-123108333D01*
X136276190Y-123727380D02*
X136371428Y-123679761D01*
X136419047Y-123632142D01*
X136466666Y-123536904D01*
X136466666Y-123251190D01*
X136419047Y-123155952D01*
X136371428Y-123108333D01*
X136276190Y-123060714D01*
X136133333Y-123060714D01*
X136038095Y-123108333D01*
X135990476Y-123155952D01*
X135942857Y-123251190D01*
X135942857Y-123536904D01*
X135990476Y-123632142D01*
X136038095Y-123679761D01*
X136133333Y-123727380D01*
X136276190Y-123727380D01*
X135514285Y-123727380D02*
X135514285Y-123060714D01*
X135514285Y-123155952D02*
X135466666Y-123108333D01*
X135371428Y-123060714D01*
X135228571Y-123060714D01*
X135133333Y-123108333D01*
X135085714Y-123203571D01*
X135085714Y-123727380D01*
X135085714Y-123203571D02*
X135038095Y-123108333D01*
X134942857Y-123060714D01*
X134800000Y-123060714D01*
X134704761Y-123108333D01*
X134657142Y-123203571D01*
X134657142Y-123727380D01*
X133466666Y-122679761D02*
X134323809Y-123965476D01*
X133133333Y-123060714D02*
X133133333Y-123917857D01*
X133180952Y-124013095D01*
X133276190Y-124060714D01*
X133323809Y-124060714D01*
X133133333Y-122727380D02*
X133180952Y-122775000D01*
X133133333Y-122822619D01*
X133085714Y-122775000D01*
X133133333Y-122727380D01*
X133133333Y-122822619D01*
X132800000Y-123060714D02*
X132419047Y-123060714D01*
X132657142Y-122727380D02*
X132657142Y-123584523D01*
X132609523Y-123679761D01*
X132514285Y-123727380D01*
X132419047Y-123727380D01*
X132133333Y-123679761D02*
X132038095Y-123727380D01*
X131847619Y-123727380D01*
X131752380Y-123679761D01*
X131704761Y-123584523D01*
X131704761Y-123536904D01*
X131752380Y-123441666D01*
X131847619Y-123394047D01*
X131990476Y-123394047D01*
X132085714Y-123346428D01*
X132133333Y-123251190D01*
X132133333Y-123203571D01*
X132085714Y-123108333D01*
X131990476Y-123060714D01*
X131847619Y-123060714D01*
X131752380Y-123108333D01*
X131276190Y-123727380D02*
X131276190Y-123060714D01*
X131276190Y-122727380D02*
X131323809Y-122775000D01*
X131276190Y-122822619D01*
X131228571Y-122775000D01*
X131276190Y-122727380D01*
X131276190Y-122822619D01*
X130657142Y-123727380D02*
X130752380Y-123679761D01*
X130800000Y-123632142D01*
X130847619Y-123536904D01*
X130847619Y-123251190D01*
X130800000Y-123155952D01*
X130752380Y-123108333D01*
X130657142Y-123060714D01*
X130514285Y-123060714D01*
X130419047Y-123108333D01*
X130371428Y-123155952D01*
X130323809Y-123251190D01*
X130323809Y-123536904D01*
X130371428Y-123632142D01*
X130419047Y-123679761D01*
X130514285Y-123727380D01*
X130657142Y-123727380D01*
X129895238Y-123727380D02*
X129895238Y-123060714D01*
X129895238Y-123155952D02*
X129847619Y-123108333D01*
X129752380Y-123060714D01*
X129609523Y-123060714D01*
X129514285Y-123108333D01*
X129466666Y-123203571D01*
X129466666Y-123727380D01*
X129466666Y-123203571D02*
X129419047Y-123108333D01*
X129323809Y-123060714D01*
X129180952Y-123060714D01*
X129085714Y-123108333D01*
X129038095Y-123203571D01*
X129038095Y-123727380D01*
X128561904Y-123727380D02*
X128561904Y-122727380D01*
X128561904Y-123108333D02*
X128466666Y-123060714D01*
X128276190Y-123060714D01*
X128180952Y-123108333D01*
X128133333Y-123155952D01*
X128085714Y-123251190D01*
X128085714Y-123536904D01*
X128133333Y-123632142D01*
X128180952Y-123679761D01*
X128276190Y-123727380D01*
X128466666Y-123727380D01*
X128561904Y-123679761D01*
X126942857Y-122679761D02*
X127800000Y-123965476D01*
X126704761Y-123060714D02*
X126180952Y-123060714D01*
X126704761Y-123727380D01*
X126180952Y-123727380D01*
X125895238Y-123727380D02*
X125371428Y-123060714D01*
X125895238Y-123060714D02*
X125371428Y-123727380D01*
X124990476Y-123727380D02*
X124990476Y-122727380D01*
X124895238Y-123346428D02*
X124609523Y-123727380D01*
X124609523Y-123060714D02*
X124990476Y-123441666D01*
X124180952Y-123727380D02*
X124180952Y-122727380D01*
X124180952Y-123108333D02*
X124085714Y-123060714D01*
X123895238Y-123060714D01*
X123800000Y-123108333D01*
X123752380Y-123155952D01*
X123704761Y-123251190D01*
X123704761Y-123536904D01*
X123752380Y-123632142D01*
X123800000Y-123679761D01*
X123895238Y-123727380D01*
X124085714Y-123727380D01*
X124180952Y-123679761D01*
X122847619Y-123727380D02*
X122847619Y-122727380D01*
X122847619Y-123679761D02*
X122942857Y-123727380D01*
X123133333Y-123727380D01*
X123228571Y-123679761D01*
X123276190Y-123632142D01*
X123323809Y-123536904D01*
X123323809Y-123251190D01*
X123276190Y-123155952D01*
X123228571Y-123108333D01*
X123133333Y-123060714D01*
X122942857Y-123060714D01*
X122847619Y-123108333D01*
D12*
G36*
X169331114Y-123084505D02*
G01*
X169256461Y-123121727D01*
X169190569Y-123190261D01*
X169172423Y-123215648D01*
X169152655Y-123248866D01*
X169139828Y-123284945D01*
X169132490Y-123333098D01*
X169129187Y-123402536D01*
X169128462Y-123494206D01*
X169131737Y-123619830D01*
X169143123Y-123714154D01*
X169164959Y-123784523D01*
X169199581Y-123838286D01*
X169249330Y-123882788D01*
X169252986Y-123885423D01*
X169302015Y-123912377D01*
X169361055Y-123925712D01*
X169436141Y-123929000D01*
X169558205Y-123929000D01*
X169558256Y-124047497D01*
X169559392Y-124113492D01*
X169566314Y-124152202D01*
X169584402Y-124175419D01*
X169619038Y-124194933D01*
X169627355Y-124198920D01*
X169666280Y-124217603D01*
X169696417Y-124229403D01*
X169718826Y-124230422D01*
X169734567Y-124216761D01*
X169744698Y-124184522D01*
X169750277Y-124129804D01*
X169752365Y-124048711D01*
X169752019Y-123937344D01*
X169750300Y-123791802D01*
X169749763Y-123748269D01*
X169747828Y-123598205D01*
X169746096Y-123500042D01*
X169558308Y-123500042D01*
X169557252Y-123583364D01*
X169552562Y-123637880D01*
X169541949Y-123673837D01*
X169523128Y-123701482D01*
X169510350Y-123714965D01*
X169458110Y-123754417D01*
X169411858Y-123757628D01*
X169364133Y-123725049D01*
X169362923Y-123723846D01*
X169343506Y-123698668D01*
X169331693Y-123664447D01*
X169325735Y-123611748D01*
X169323880Y-123531131D01*
X169323846Y-123513271D01*
X169328330Y-123402175D01*
X169342926Y-123325161D01*
X169369350Y-123278147D01*
X169409317Y-123257050D01*
X169432416Y-123254923D01*
X169487238Y-123264900D01*
X169524842Y-123297752D01*
X169547477Y-123357857D01*
X169557394Y-123449598D01*
X169558308Y-123500042D01*
X169746096Y-123500042D01*
X169745778Y-123482060D01*
X169743127Y-123394679D01*
X169739394Y-123330905D01*
X169734093Y-123285582D01*
X169726742Y-123253555D01*
X169716857Y-123229668D01*
X169703954Y-123208764D01*
X169698421Y-123200898D01*
X169625031Y-123126595D01*
X169532240Y-123084467D01*
X169424904Y-123072722D01*
X169331114Y-123084505D01*
G37*
X169331114Y-123084505D02*
X169256461Y-123121727D01*
X169190569Y-123190261D01*
X169172423Y-123215648D01*
X169152655Y-123248866D01*
X169139828Y-123284945D01*
X169132490Y-123333098D01*
X169129187Y-123402536D01*
X169128462Y-123494206D01*
X169131737Y-123619830D01*
X169143123Y-123714154D01*
X169164959Y-123784523D01*
X169199581Y-123838286D01*
X169249330Y-123882788D01*
X169252986Y-123885423D01*
X169302015Y-123912377D01*
X169361055Y-123925712D01*
X169436141Y-123929000D01*
X169558205Y-123929000D01*
X169558256Y-124047497D01*
X169559392Y-124113492D01*
X169566314Y-124152202D01*
X169584402Y-124175419D01*
X169619038Y-124194933D01*
X169627355Y-124198920D01*
X169666280Y-124217603D01*
X169696417Y-124229403D01*
X169718826Y-124230422D01*
X169734567Y-124216761D01*
X169744698Y-124184522D01*
X169750277Y-124129804D01*
X169752365Y-124048711D01*
X169752019Y-123937344D01*
X169750300Y-123791802D01*
X169749763Y-123748269D01*
X169747828Y-123598205D01*
X169746096Y-123500042D01*
X169558308Y-123500042D01*
X169557252Y-123583364D01*
X169552562Y-123637880D01*
X169541949Y-123673837D01*
X169523128Y-123701482D01*
X169510350Y-123714965D01*
X169458110Y-123754417D01*
X169411858Y-123757628D01*
X169364133Y-123725049D01*
X169362923Y-123723846D01*
X169343506Y-123698668D01*
X169331693Y-123664447D01*
X169325735Y-123611748D01*
X169323880Y-123531131D01*
X169323846Y-123513271D01*
X169328330Y-123402175D01*
X169342926Y-123325161D01*
X169369350Y-123278147D01*
X169409317Y-123257050D01*
X169432416Y-123254923D01*
X169487238Y-123264900D01*
X169524842Y-123297752D01*
X169547477Y-123357857D01*
X169557394Y-123449598D01*
X169558308Y-123500042D01*
X169746096Y-123500042D01*
X169745778Y-123482060D01*
X169743127Y-123394679D01*
X169739394Y-123330905D01*
X169734093Y-123285582D01*
X169726742Y-123253555D01*
X169716857Y-123229668D01*
X169703954Y-123208764D01*
X169698421Y-123200898D01*
X169625031Y-123126595D01*
X169532240Y-123084467D01*
X169424904Y-123072722D01*
X169331114Y-123084505D01*
G36*
X167828336Y-123095089D02*
G01*
X167765633Y-123131358D01*
X167722039Y-123167358D01*
X167690155Y-123205075D01*
X167668190Y-123251199D01*
X167654351Y-123312421D01*
X167646847Y-123395431D01*
X167643883Y-123506919D01*
X167643539Y-123587062D01*
X167643539Y-123882065D01*
X167809615Y-123956515D01*
X167819385Y-123633402D01*
X167823421Y-123512729D01*
X167827656Y-123425141D01*
X167832903Y-123364650D01*
X167839975Y-123325268D01*
X167849689Y-123301007D01*
X167862856Y-123285880D01*
X167867081Y-123282606D01*
X167931091Y-123257034D01*
X167995792Y-123267153D01*
X168034308Y-123294000D01*
X168049975Y-123313024D01*
X168060820Y-123337988D01*
X168067712Y-123375834D01*
X168071521Y-123433502D01*
X168073117Y-123517935D01*
X168073385Y-123605928D01*
X168073437Y-123716323D01*
X168075328Y-123794463D01*
X168081655Y-123847165D01*
X168095017Y-123881242D01*
X168118015Y-123903511D01*
X168153246Y-123920787D01*
X168200303Y-123938738D01*
X168251697Y-123958278D01*
X168245579Y-123611485D01*
X168243116Y-123486468D01*
X168240233Y-123394082D01*
X168236102Y-123327881D01*
X168229893Y-123281420D01*
X168220774Y-123248256D01*
X168207917Y-123221944D01*
X168192416Y-123198729D01*
X168117629Y-123124569D01*
X168026372Y-123081684D01*
X167927117Y-123071412D01*
X167828336Y-123095089D01*
G37*
X167828336Y-123095089D02*
X167765633Y-123131358D01*
X167722039Y-123167358D01*
X167690155Y-123205075D01*
X167668190Y-123251199D01*
X167654351Y-123312421D01*
X167646847Y-123395431D01*
X167643883Y-123506919D01*
X167643539Y-123587062D01*
X167643539Y-123882065D01*
X167809615Y-123956515D01*
X167819385Y-123633402D01*
X167823421Y-123512729D01*
X167827656Y-123425141D01*
X167832903Y-123364650D01*
X167839975Y-123325268D01*
X167849689Y-123301007D01*
X167862856Y-123285880D01*
X167867081Y-123282606D01*
X167931091Y-123257034D01*
X167995792Y-123267153D01*
X168034308Y-123294000D01*
X168049975Y-123313024D01*
X168060820Y-123337988D01*
X168067712Y-123375834D01*
X168071521Y-123433502D01*
X168073117Y-123517935D01*
X168073385Y-123605928D01*
X168073437Y-123716323D01*
X168075328Y-123794463D01*
X168081655Y-123847165D01*
X168095017Y-123881242D01*
X168118015Y-123903511D01*
X168153246Y-123920787D01*
X168200303Y-123938738D01*
X168251697Y-123958278D01*
X168245579Y-123611485D01*
X168243116Y-123486468D01*
X168240233Y-123394082D01*
X168236102Y-123327881D01*
X168229893Y-123281420D01*
X168220774Y-123248256D01*
X168207917Y-123221944D01*
X168192416Y-123198729D01*
X168117629Y-123124569D01*
X168026372Y-123081684D01*
X167927117Y-123071412D01*
X167828336Y-123095089D01*
G36*
X170083114Y-123087256D02*
G01*
X169991536Y-123135409D01*
X169923951Y-123212905D01*
X169899943Y-123262727D01*
X169881262Y-123337533D01*
X169871699Y-123432052D01*
X169870792Y-123535210D01*
X169878079Y-123635935D01*
X169893097Y-123723153D01*
X169915385Y-123785791D01*
X169922235Y-123796579D01*
X170003368Y-123877105D01*
X170099734Y-123925336D01*
X170204299Y-123939450D01*
X170310032Y-123917629D01*
X170339457Y-123904547D01*
X170396759Y-123864231D01*
X170447050Y-123810775D01*
X170451803Y-123803995D01*
X170471122Y-123771321D01*
X170483892Y-123736394D01*
X170491436Y-123690414D01*
X170495076Y-123624584D01*
X170496135Y-123530105D01*
X170496154Y-123508923D01*
X170496106Y-123502182D01*
X170300769Y-123502182D01*
X170299632Y-123591349D01*
X170295159Y-123650520D01*
X170285754Y-123688741D01*
X170269824Y-123715053D01*
X170261692Y-123723846D01*
X170214942Y-123757261D01*
X170169553Y-123755737D01*
X170123660Y-123726752D01*
X170096288Y-123695809D01*
X170080077Y-123650643D01*
X170070974Y-123579420D01*
X170070349Y-123571114D01*
X170068796Y-123442037D01*
X170085035Y-123346172D01*
X170118848Y-123284107D01*
X170170016Y-123256432D01*
X170188280Y-123254923D01*
X170236240Y-123262513D01*
X170269047Y-123288808D01*
X170289105Y-123339095D01*
X170298822Y-123418664D01*
X170300769Y-123502182D01*
X170496106Y-123502182D01*
X170495426Y-123408249D01*
X170492371Y-123337906D01*
X170485678Y-123289163D01*
X170474040Y-123253288D01*
X170456147Y-123221548D01*
X170452192Y-123215648D01*
X170385733Y-123136104D01*
X170313315Y-123089929D01*
X170225151Y-123071599D01*
X170195213Y-123070703D01*
X170083114Y-123087256D01*
G37*
X170083114Y-123087256D02*
X169991536Y-123135409D01*
X169923951Y-123212905D01*
X169899943Y-123262727D01*
X169881262Y-123337533D01*
X169871699Y-123432052D01*
X169870792Y-123535210D01*
X169878079Y-123635935D01*
X169893097Y-123723153D01*
X169915385Y-123785791D01*
X169922235Y-123796579D01*
X170003368Y-123877105D01*
X170099734Y-123925336D01*
X170204299Y-123939450D01*
X170310032Y-123917629D01*
X170339457Y-123904547D01*
X170396759Y-123864231D01*
X170447050Y-123810775D01*
X170451803Y-123803995D01*
X170471122Y-123771321D01*
X170483892Y-123736394D01*
X170491436Y-123690414D01*
X170495076Y-123624584D01*
X170496135Y-123530105D01*
X170496154Y-123508923D01*
X170496106Y-123502182D01*
X170300769Y-123502182D01*
X170299632Y-123591349D01*
X170295159Y-123650520D01*
X170285754Y-123688741D01*
X170269824Y-123715053D01*
X170261692Y-123723846D01*
X170214942Y-123757261D01*
X170169553Y-123755737D01*
X170123660Y-123726752D01*
X170096288Y-123695809D01*
X170080077Y-123650643D01*
X170070974Y-123579420D01*
X170070349Y-123571114D01*
X170068796Y-123442037D01*
X170085035Y-123346172D01*
X170118848Y-123284107D01*
X170170016Y-123256432D01*
X170188280Y-123254923D01*
X170236240Y-123262513D01*
X170269047Y-123288808D01*
X170289105Y-123339095D01*
X170298822Y-123418664D01*
X170300769Y-123502182D01*
X170496106Y-123502182D01*
X170495426Y-123408249D01*
X170492371Y-123337906D01*
X170485678Y-123289163D01*
X170474040Y-123253288D01*
X170456147Y-123221548D01*
X170452192Y-123215648D01*
X170385733Y-123136104D01*
X170313315Y-123089929D01*
X170225151Y-123071599D01*
X170195213Y-123070703D01*
X170083114Y-123087256D01*
G36*
X168565746Y-123099745D02*
G01*
X168488714Y-123151567D01*
X168429184Y-123226412D01*
X168393622Y-123321654D01*
X168386429Y-123391756D01*
X168387246Y-123421009D01*
X168394086Y-123443407D01*
X168412888Y-123463474D01*
X168449592Y-123485733D01*
X168510138Y-123514709D01*
X168600466Y-123554927D01*
X168600923Y-123555129D01*
X168684067Y-123593210D01*
X168752247Y-123627025D01*
X168798495Y-123652933D01*
X168815842Y-123667295D01*
X168815846Y-123667411D01*
X168800557Y-123698685D01*
X168764804Y-123733157D01*
X168723758Y-123757990D01*
X168702963Y-123762923D01*
X168646230Y-123745862D01*
X168597373Y-123703133D01*
X168573535Y-123656155D01*
X168550603Y-123621522D01*
X168505682Y-123582081D01*
X168452877Y-123548009D01*
X168406290Y-123529480D01*
X168396548Y-123528462D01*
X168385582Y-123545215D01*
X168384921Y-123588039D01*
X168392980Y-123645781D01*
X168408173Y-123707289D01*
X168428914Y-123761409D01*
X168429962Y-123763510D01*
X168492379Y-123850660D01*
X168573274Y-123909939D01*
X168665144Y-123939034D01*
X168760487Y-123935634D01*
X168851802Y-123897428D01*
X168855862Y-123894741D01*
X168927694Y-123829642D01*
X168974927Y-123744705D01*
X169001066Y-123633021D01*
X169004574Y-123601643D01*
X169010787Y-123453536D01*
X169003339Y-123384468D01*
X168815846Y-123384468D01*
X168813410Y-123427552D01*
X168800086Y-123440126D01*
X168766868Y-123430719D01*
X168714506Y-123408483D01*
X168655976Y-123380610D01*
X168654521Y-123379872D01*
X168604911Y-123353777D01*
X168585000Y-123336363D01*
X168589910Y-123318107D01*
X168610584Y-123294120D01*
X168663181Y-123259406D01*
X168719823Y-123256856D01*
X168770631Y-123282119D01*
X168805724Y-123330847D01*
X168815846Y-123384468D01*
X169003339Y-123384468D01*
X168998008Y-123335036D01*
X168965222Y-123241055D01*
X168919579Y-123175215D01*
X168837198Y-123108681D01*
X168746454Y-123075676D01*
X168653815Y-123073573D01*
X168565746Y-123099745D01*
G37*
X168565746Y-123099745D02*
X168488714Y-123151567D01*
X168429184Y-123226412D01*
X168393622Y-123321654D01*
X168386429Y-123391756D01*
X168387246Y-123421009D01*
X168394086Y-123443407D01*
X168412888Y-123463474D01*
X168449592Y-123485733D01*
X168510138Y-123514709D01*
X168600466Y-123554927D01*
X168600923Y-123555129D01*
X168684067Y-123593210D01*
X168752247Y-123627025D01*
X168798495Y-123652933D01*
X168815842Y-123667295D01*
X168815846Y-123667411D01*
X168800557Y-123698685D01*
X168764804Y-123733157D01*
X168723758Y-123757990D01*
X168702963Y-123762923D01*
X168646230Y-123745862D01*
X168597373Y-123703133D01*
X168573535Y-123656155D01*
X168550603Y-123621522D01*
X168505682Y-123582081D01*
X168452877Y-123548009D01*
X168406290Y-123529480D01*
X168396548Y-123528462D01*
X168385582Y-123545215D01*
X168384921Y-123588039D01*
X168392980Y-123645781D01*
X168408173Y-123707289D01*
X168428914Y-123761409D01*
X168429962Y-123763510D01*
X168492379Y-123850660D01*
X168573274Y-123909939D01*
X168665144Y-123939034D01*
X168760487Y-123935634D01*
X168851802Y-123897428D01*
X168855862Y-123894741D01*
X168927694Y-123829642D01*
X168974927Y-123744705D01*
X169001066Y-123633021D01*
X169004574Y-123601643D01*
X169010787Y-123453536D01*
X169003339Y-123384468D01*
X168815846Y-123384468D01*
X168813410Y-123427552D01*
X168800086Y-123440126D01*
X168766868Y-123430719D01*
X168714506Y-123408483D01*
X168655976Y-123380610D01*
X168654521Y-123379872D01*
X168604911Y-123353777D01*
X168585000Y-123336363D01*
X168589910Y-123318107D01*
X168610584Y-123294120D01*
X168663181Y-123259406D01*
X168719823Y-123256856D01*
X168770631Y-123282119D01*
X168805724Y-123330847D01*
X168815846Y-123384468D01*
X169003339Y-123384468D01*
X168998008Y-123335036D01*
X168965222Y-123241055D01*
X168919579Y-123175215D01*
X168837198Y-123108681D01*
X168746454Y-123075676D01*
X168653815Y-123073573D01*
X168565746Y-123099745D01*
G36*
X166940154Y-122992120D02*
G01*
X166934428Y-123071980D01*
X166927851Y-123119039D01*
X166918738Y-123139566D01*
X166905402Y-123139829D01*
X166901077Y-123137378D01*
X166843556Y-123119636D01*
X166768732Y-123120672D01*
X166692661Y-123138910D01*
X166645082Y-123162505D01*
X166596298Y-123200198D01*
X166560636Y-123242855D01*
X166536155Y-123297057D01*
X166520913Y-123369384D01*
X166512970Y-123466419D01*
X166510384Y-123594742D01*
X166510338Y-123619358D01*
X166510308Y-123895870D01*
X166571839Y-123917320D01*
X166615541Y-123931912D01*
X166639518Y-123938706D01*
X166640223Y-123938769D01*
X166642585Y-123920345D01*
X166644594Y-123869526D01*
X166646099Y-123792993D01*
X166646947Y-123697430D01*
X166647077Y-123639329D01*
X166647349Y-123524771D01*
X166648748Y-123442667D01*
X166652151Y-123386393D01*
X166658433Y-123349326D01*
X166668471Y-123324844D01*
X166683139Y-123306325D01*
X166692298Y-123297406D01*
X166755211Y-123261466D01*
X166823864Y-123258775D01*
X166886152Y-123289170D01*
X166897671Y-123300144D01*
X166914567Y-123320779D01*
X166926286Y-123345256D01*
X166933767Y-123380647D01*
X166937946Y-123434026D01*
X166939763Y-123512466D01*
X166940154Y-123620617D01*
X166940154Y-123895870D01*
X167001685Y-123917320D01*
X167045387Y-123931912D01*
X167069364Y-123938706D01*
X167070070Y-123938769D01*
X167071874Y-123920069D01*
X167073500Y-123867322D01*
X167074883Y-123785557D01*
X167075958Y-123679805D01*
X167076660Y-123555094D01*
X167076923Y-123416455D01*
X167076923Y-122881806D01*
X166949923Y-122828236D01*
X166940154Y-122992120D01*
G37*
X166940154Y-122992120D02*
X166934428Y-123071980D01*
X166927851Y-123119039D01*
X166918738Y-123139566D01*
X166905402Y-123139829D01*
X166901077Y-123137378D01*
X166843556Y-123119636D01*
X166768732Y-123120672D01*
X166692661Y-123138910D01*
X166645082Y-123162505D01*
X166596298Y-123200198D01*
X166560636Y-123242855D01*
X166536155Y-123297057D01*
X166520913Y-123369384D01*
X166512970Y-123466419D01*
X166510384Y-123594742D01*
X166510338Y-123619358D01*
X166510308Y-123895870D01*
X166571839Y-123917320D01*
X166615541Y-123931912D01*
X166639518Y-123938706D01*
X166640223Y-123938769D01*
X166642585Y-123920345D01*
X166644594Y-123869526D01*
X166646099Y-123792993D01*
X166646947Y-123697430D01*
X166647077Y-123639329D01*
X166647349Y-123524771D01*
X166648748Y-123442667D01*
X166652151Y-123386393D01*
X166658433Y-123349326D01*
X166668471Y-123324844D01*
X166683139Y-123306325D01*
X166692298Y-123297406D01*
X166755211Y-123261466D01*
X166823864Y-123258775D01*
X166886152Y-123289170D01*
X166897671Y-123300144D01*
X166914567Y-123320779D01*
X166926286Y-123345256D01*
X166933767Y-123380647D01*
X166937946Y-123434026D01*
X166939763Y-123512466D01*
X166940154Y-123620617D01*
X166940154Y-123895870D01*
X167001685Y-123917320D01*
X167045387Y-123931912D01*
X167069364Y-123938706D01*
X167070070Y-123938769D01*
X167071874Y-123920069D01*
X167073500Y-123867322D01*
X167074883Y-123785557D01*
X167075958Y-123679805D01*
X167076660Y-123555094D01*
X167076923Y-123416455D01*
X167076923Y-122881806D01*
X166949923Y-122828236D01*
X166940154Y-122992120D01*
G36*
X166046499Y-123126303D02*
G01*
X165969940Y-123154733D01*
X165969064Y-123155279D01*
X165921715Y-123190127D01*
X165886759Y-123230852D01*
X165862175Y-123283925D01*
X165845938Y-123355814D01*
X165836025Y-123452992D01*
X165830414Y-123581928D01*
X165829923Y-123600298D01*
X165822859Y-123877287D01*
X165882305Y-123908028D01*
X165925319Y-123928802D01*
X165951290Y-123938646D01*
X165952491Y-123938769D01*
X165956986Y-123920606D01*
X165960556Y-123871612D01*
X165962752Y-123800031D01*
X165963231Y-123742068D01*
X165963242Y-123648170D01*
X165967534Y-123589203D01*
X165982497Y-123561079D01*
X166014518Y-123559706D01*
X166069986Y-123580998D01*
X166153731Y-123620136D01*
X166215311Y-123652643D01*
X166246983Y-123680845D01*
X166256294Y-123711582D01*
X166256308Y-123713104D01*
X166240943Y-123766054D01*
X166195453Y-123794660D01*
X166125834Y-123798803D01*
X166075687Y-123798084D01*
X166049246Y-123812527D01*
X166032757Y-123847218D01*
X166023267Y-123891416D01*
X166036943Y-123916493D01*
X166042093Y-123920082D01*
X166090575Y-123934496D01*
X166158469Y-123936537D01*
X166228388Y-123926983D01*
X166277932Y-123909522D01*
X166346430Y-123851364D01*
X166385366Y-123770408D01*
X166393077Y-123707160D01*
X166387193Y-123650111D01*
X166365899Y-123603542D01*
X166323735Y-123562181D01*
X166255241Y-123520755D01*
X166154956Y-123473993D01*
X166148846Y-123471350D01*
X166058510Y-123429617D01*
X166002765Y-123395391D01*
X165978871Y-123364635D01*
X165984087Y-123333311D01*
X166015672Y-123297383D01*
X166025117Y-123289116D01*
X166088383Y-123257058D01*
X166153936Y-123258407D01*
X166211028Y-123289838D01*
X166248907Y-123348024D01*
X166252426Y-123359446D01*
X166286700Y-123414837D01*
X166330191Y-123441518D01*
X166393077Y-123467960D01*
X166393077Y-123399548D01*
X166373948Y-123300110D01*
X166317169Y-123208902D01*
X166287622Y-123178389D01*
X166220458Y-123139228D01*
X166135044Y-123121500D01*
X166046499Y-123126303D01*
G37*
X166046499Y-123126303D02*
X165969940Y-123154733D01*
X165969064Y-123155279D01*
X165921715Y-123190127D01*
X165886759Y-123230852D01*
X165862175Y-123283925D01*
X165845938Y-123355814D01*
X165836025Y-123452992D01*
X165830414Y-123581928D01*
X165829923Y-123600298D01*
X165822859Y-123877287D01*
X165882305Y-123908028D01*
X165925319Y-123928802D01*
X165951290Y-123938646D01*
X165952491Y-123938769D01*
X165956986Y-123920606D01*
X165960556Y-123871612D01*
X165962752Y-123800031D01*
X165963231Y-123742068D01*
X165963242Y-123648170D01*
X165967534Y-123589203D01*
X165982497Y-123561079D01*
X166014518Y-123559706D01*
X166069986Y-123580998D01*
X166153731Y-123620136D01*
X166215311Y-123652643D01*
X166246983Y-123680845D01*
X166256294Y-123711582D01*
X166256308Y-123713104D01*
X166240943Y-123766054D01*
X166195453Y-123794660D01*
X166125834Y-123798803D01*
X166075687Y-123798084D01*
X166049246Y-123812527D01*
X166032757Y-123847218D01*
X166023267Y-123891416D01*
X166036943Y-123916493D01*
X166042093Y-123920082D01*
X166090575Y-123934496D01*
X166158469Y-123936537D01*
X166228388Y-123926983D01*
X166277932Y-123909522D01*
X166346430Y-123851364D01*
X166385366Y-123770408D01*
X166393077Y-123707160D01*
X166387193Y-123650111D01*
X166365899Y-123603542D01*
X166323735Y-123562181D01*
X166255241Y-123520755D01*
X166154956Y-123473993D01*
X166148846Y-123471350D01*
X166058510Y-123429617D01*
X166002765Y-123395391D01*
X165978871Y-123364635D01*
X165984087Y-123333311D01*
X166015672Y-123297383D01*
X166025117Y-123289116D01*
X166088383Y-123257058D01*
X166153936Y-123258407D01*
X166211028Y-123289838D01*
X166248907Y-123348024D01*
X166252426Y-123359446D01*
X166286700Y-123414837D01*
X166330191Y-123441518D01*
X166393077Y-123467960D01*
X166393077Y-123399548D01*
X166373948Y-123300110D01*
X166317169Y-123208902D01*
X166287622Y-123178389D01*
X166220458Y-123139228D01*
X166135044Y-123121500D01*
X166046499Y-123126303D01*
G36*
X165386638Y-123124670D02*
G01*
X165297883Y-123157421D01*
X165225978Y-123215350D01*
X165197856Y-123256128D01*
X165167198Y-123330954D01*
X165167835Y-123385058D01*
X165200013Y-123421446D01*
X165211919Y-123427633D01*
X165263325Y-123446925D01*
X165289578Y-123441982D01*
X165298470Y-123409587D01*
X165298923Y-123391692D01*
X165315203Y-123325859D01*
X165357635Y-123279807D01*
X165416612Y-123257564D01*
X165482525Y-123263161D01*
X165536105Y-123292229D01*
X165554202Y-123308810D01*
X165567029Y-123328925D01*
X165575694Y-123359332D01*
X165581304Y-123406788D01*
X165584965Y-123478050D01*
X165587785Y-123579875D01*
X165588516Y-123612115D01*
X165591180Y-123722410D01*
X165594208Y-123800036D01*
X165598750Y-123851396D01*
X165605954Y-123882890D01*
X165616967Y-123900920D01*
X165632940Y-123911888D01*
X165643166Y-123916733D01*
X165686594Y-123933301D01*
X165712158Y-123938769D01*
X165720605Y-123920507D01*
X165725761Y-123865296D01*
X165727654Y-123772499D01*
X165726311Y-123641478D01*
X165725893Y-123621269D01*
X165722942Y-123501733D01*
X165719452Y-123414449D01*
X165714486Y-123352591D01*
X165707107Y-123309336D01*
X165696376Y-123277860D01*
X165681355Y-123251339D01*
X165673498Y-123239975D01*
X165628447Y-123189692D01*
X165578060Y-123150581D01*
X165571892Y-123147167D01*
X165481542Y-123120212D01*
X165386638Y-123124670D01*
G37*
X165386638Y-123124670D02*
X165297883Y-123157421D01*
X165225978Y-123215350D01*
X165197856Y-123256128D01*
X165167198Y-123330954D01*
X165167835Y-123385058D01*
X165200013Y-123421446D01*
X165211919Y-123427633D01*
X165263325Y-123446925D01*
X165289578Y-123441982D01*
X165298470Y-123409587D01*
X165298923Y-123391692D01*
X165315203Y-123325859D01*
X165357635Y-123279807D01*
X165416612Y-123257564D01*
X165482525Y-123263161D01*
X165536105Y-123292229D01*
X165554202Y-123308810D01*
X165567029Y-123328925D01*
X165575694Y-123359332D01*
X165581304Y-123406788D01*
X165584965Y-123478050D01*
X165587785Y-123579875D01*
X165588516Y-123612115D01*
X165591180Y-123722410D01*
X165594208Y-123800036D01*
X165598750Y-123851396D01*
X165605954Y-123882890D01*
X165616967Y-123900920D01*
X165632940Y-123911888D01*
X165643166Y-123916733D01*
X165686594Y-123933301D01*
X165712158Y-123938769D01*
X165720605Y-123920507D01*
X165725761Y-123865296D01*
X165727654Y-123772499D01*
X165726311Y-123641478D01*
X165725893Y-123621269D01*
X165722942Y-123501733D01*
X165719452Y-123414449D01*
X165714486Y-123352591D01*
X165707107Y-123309336D01*
X165696376Y-123277860D01*
X165681355Y-123251339D01*
X165673498Y-123239975D01*
X165628447Y-123189692D01*
X165578060Y-123150581D01*
X165571892Y-123147167D01*
X165481542Y-123120212D01*
X165386638Y-123124670D01*
G36*
X164497919Y-123280289D02*
G01*
X164498167Y-123426320D01*
X164499128Y-123538655D01*
X164501206Y-123622678D01*
X164504807Y-123683769D01*
X164510335Y-123727309D01*
X164518196Y-123758679D01*
X164528793Y-123783262D01*
X164536818Y-123797294D01*
X164603272Y-123873388D01*
X164687530Y-123921084D01*
X164780751Y-123938199D01*
X164874100Y-123922546D01*
X164929688Y-123894418D01*
X164988043Y-123845760D01*
X165027814Y-123786333D01*
X165051810Y-123708507D01*
X165062839Y-123604652D01*
X165064401Y-123528462D01*
X165064191Y-123522986D01*
X164927692Y-123522986D01*
X164926859Y-123610355D01*
X164923039Y-123668192D01*
X164914254Y-123706029D01*
X164898526Y-123733398D01*
X164879734Y-123754042D01*
X164816625Y-123793890D01*
X164748863Y-123797295D01*
X164684821Y-123764025D01*
X164679836Y-123759517D01*
X164658561Y-123736067D01*
X164645221Y-123708166D01*
X164637999Y-123666641D01*
X164635077Y-123602316D01*
X164634615Y-123531200D01*
X164635617Y-123441858D01*
X164639762Y-123382258D01*
X164648764Y-123343089D01*
X164664333Y-123315040D01*
X164677098Y-123300144D01*
X164736400Y-123262575D01*
X164804699Y-123258057D01*
X164869890Y-123286753D01*
X164882472Y-123297406D01*
X164903889Y-123321063D01*
X164917256Y-123349251D01*
X164924434Y-123391245D01*
X164927281Y-123456319D01*
X164927692Y-123522986D01*
X165064191Y-123522986D01*
X165059678Y-123405765D01*
X165043638Y-123313577D01*
X165013472Y-123244269D01*
X164966371Y-123190211D01*
X164929688Y-123162505D01*
X164863010Y-123132572D01*
X164785728Y-123118678D01*
X164713890Y-123122397D01*
X164673692Y-123137400D01*
X164657918Y-123141670D01*
X164647450Y-123125750D01*
X164640144Y-123083089D01*
X164634615Y-123018106D01*
X164628563Y-122945732D01*
X164620156Y-122902187D01*
X164604859Y-122877287D01*
X164578136Y-122860845D01*
X164561346Y-122853564D01*
X164497846Y-122826963D01*
X164497919Y-123280289D01*
G37*
X164497919Y-123280289D02*
X164498167Y-123426320D01*
X164499128Y-123538655D01*
X164501206Y-123622678D01*
X164504807Y-123683769D01*
X164510335Y-123727309D01*
X164518196Y-123758679D01*
X164528793Y-123783262D01*
X164536818Y-123797294D01*
X164603272Y-123873388D01*
X164687530Y-123921084D01*
X164780751Y-123938199D01*
X164874100Y-123922546D01*
X164929688Y-123894418D01*
X164988043Y-123845760D01*
X165027814Y-123786333D01*
X165051810Y-123708507D01*
X165062839Y-123604652D01*
X165064401Y-123528462D01*
X165064191Y-123522986D01*
X164927692Y-123522986D01*
X164926859Y-123610355D01*
X164923039Y-123668192D01*
X164914254Y-123706029D01*
X164898526Y-123733398D01*
X164879734Y-123754042D01*
X164816625Y-123793890D01*
X164748863Y-123797295D01*
X164684821Y-123764025D01*
X164679836Y-123759517D01*
X164658561Y-123736067D01*
X164645221Y-123708166D01*
X164637999Y-123666641D01*
X164635077Y-123602316D01*
X164634615Y-123531200D01*
X164635617Y-123441858D01*
X164639762Y-123382258D01*
X164648764Y-123343089D01*
X164664333Y-123315040D01*
X164677098Y-123300144D01*
X164736400Y-123262575D01*
X164804699Y-123258057D01*
X164869890Y-123286753D01*
X164882472Y-123297406D01*
X164903889Y-123321063D01*
X164917256Y-123349251D01*
X164924434Y-123391245D01*
X164927281Y-123456319D01*
X164927692Y-123522986D01*
X165064191Y-123522986D01*
X165059678Y-123405765D01*
X165043638Y-123313577D01*
X165013472Y-123244269D01*
X164966371Y-123190211D01*
X164929688Y-123162505D01*
X164863010Y-123132572D01*
X164785728Y-123118678D01*
X164713890Y-123122397D01*
X164673692Y-123137400D01*
X164657918Y-123141670D01*
X164647450Y-123125750D01*
X164640144Y-123083089D01*
X164634615Y-123018106D01*
X164628563Y-122945732D01*
X164620156Y-122902187D01*
X164604859Y-122877287D01*
X164578136Y-122860845D01*
X164561346Y-122853564D01*
X164497846Y-122826963D01*
X164497919Y-123280289D01*
G36*
X163704071Y-123136662D02*
G01*
X163701089Y-123188068D01*
X163698753Y-123266192D01*
X163697251Y-123364857D01*
X163696769Y-123468343D01*
X163696769Y-123818533D01*
X163758599Y-123880363D01*
X163801207Y-123918462D01*
X163838610Y-123933895D01*
X163889730Y-123932918D01*
X163910022Y-123930433D01*
X163973446Y-123923200D01*
X164025905Y-123919055D01*
X164038692Y-123918672D01*
X164081801Y-123921176D01*
X164143456Y-123927462D01*
X164167362Y-123930433D01*
X164226078Y-123935028D01*
X164265536Y-123925046D01*
X164304662Y-123894228D01*
X164318785Y-123880363D01*
X164380615Y-123818533D01*
X164380615Y-123163503D01*
X164330850Y-123140829D01*
X164287998Y-123124034D01*
X164262927Y-123118154D01*
X164256499Y-123136736D01*
X164250491Y-123188655D01*
X164245303Y-123268172D01*
X164241336Y-123369546D01*
X164239423Y-123455192D01*
X164234077Y-123792231D01*
X164187440Y-123798825D01*
X164145024Y-123794214D01*
X164124240Y-123779287D01*
X164118430Y-123751377D01*
X164113470Y-123691925D01*
X164109754Y-123608466D01*
X164107676Y-123508532D01*
X164107376Y-123457104D01*
X164107077Y-123161054D01*
X164045546Y-123139604D01*
X164001996Y-123125020D01*
X163978306Y-123118219D01*
X163977623Y-123118154D01*
X163975246Y-123136642D01*
X163972634Y-123187906D01*
X163970005Y-123265649D01*
X163967579Y-123363574D01*
X163965885Y-123455192D01*
X163960539Y-123792231D01*
X163843308Y-123792231D01*
X163837928Y-123484746D01*
X163832549Y-123177261D01*
X163775399Y-123147707D01*
X163733203Y-123127413D01*
X163708230Y-123118204D01*
X163707509Y-123118154D01*
X163704071Y-123136662D01*
G37*
X163704071Y-123136662D02*
X163701089Y-123188068D01*
X163698753Y-123266192D01*
X163697251Y-123364857D01*
X163696769Y-123468343D01*
X163696769Y-123818533D01*
X163758599Y-123880363D01*
X163801207Y-123918462D01*
X163838610Y-123933895D01*
X163889730Y-123932918D01*
X163910022Y-123930433D01*
X163973446Y-123923200D01*
X164025905Y-123919055D01*
X164038692Y-123918672D01*
X164081801Y-123921176D01*
X164143456Y-123927462D01*
X164167362Y-123930433D01*
X164226078Y-123935028D01*
X164265536Y-123925046D01*
X164304662Y-123894228D01*
X164318785Y-123880363D01*
X164380615Y-123818533D01*
X164380615Y-123163503D01*
X164330850Y-123140829D01*
X164287998Y-123124034D01*
X164262927Y-123118154D01*
X164256499Y-123136736D01*
X164250491Y-123188655D01*
X164245303Y-123268172D01*
X164241336Y-123369546D01*
X164239423Y-123455192D01*
X164234077Y-123792231D01*
X164187440Y-123798825D01*
X164145024Y-123794214D01*
X164124240Y-123779287D01*
X164118430Y-123751377D01*
X164113470Y-123691925D01*
X164109754Y-123608466D01*
X164107676Y-123508532D01*
X164107376Y-123457104D01*
X164107077Y-123161054D01*
X164045546Y-123139604D01*
X164001996Y-123125020D01*
X163978306Y-123118219D01*
X163977623Y-123118154D01*
X163975246Y-123136642D01*
X163972634Y-123187906D01*
X163970005Y-123265649D01*
X163967579Y-123363574D01*
X163965885Y-123455192D01*
X163960539Y-123792231D01*
X163843308Y-123792231D01*
X163837928Y-123484746D01*
X163832549Y-123177261D01*
X163775399Y-123147707D01*
X163733203Y-123127413D01*
X163708230Y-123118204D01*
X163707509Y-123118154D01*
X163704071Y-123136662D01*
G36*
X163212667Y-123133528D02*
G01*
X163156410Y-123159117D01*
X163112253Y-123190124D01*
X163079899Y-123224795D01*
X163057562Y-123269520D01*
X163043454Y-123330692D01*
X163035789Y-123414701D01*
X163032780Y-123527940D01*
X163032462Y-123602509D01*
X163032462Y-123893420D01*
X163082227Y-123916095D01*
X163121424Y-123932667D01*
X163140843Y-123938769D01*
X163144558Y-123920610D01*
X163147505Y-123871648D01*
X163149309Y-123800153D01*
X163149692Y-123743385D01*
X163151339Y-123661371D01*
X163155778Y-123596309D01*
X163162260Y-123556467D01*
X163167410Y-123548000D01*
X163202023Y-123556646D01*
X163256360Y-123578823D01*
X163319278Y-123608886D01*
X163379632Y-123641192D01*
X163426279Y-123670098D01*
X163448074Y-123689961D01*
X163448161Y-123690175D01*
X163446286Y-123726935D01*
X163429475Y-123762026D01*
X163399961Y-123790528D01*
X163356884Y-123800061D01*
X163320068Y-123798950D01*
X163267926Y-123798133D01*
X163240556Y-123810349D01*
X163224118Y-123842624D01*
X163222045Y-123848710D01*
X163214919Y-123894739D01*
X163233976Y-123922687D01*
X163283647Y-123936007D01*
X163337303Y-123938470D01*
X163433858Y-123920210D01*
X163483841Y-123894131D01*
X163545571Y-123832868D01*
X163578310Y-123757670D01*
X163581247Y-123678211D01*
X163553576Y-123604167D01*
X163511953Y-123557769D01*
X163470396Y-123531793D01*
X163405078Y-123498907D01*
X163328962Y-123465557D01*
X163316274Y-123460461D01*
X163232667Y-123423565D01*
X163184470Y-123391046D01*
X163168970Y-123358718D01*
X163183450Y-123322394D01*
X163208308Y-123294000D01*
X163267061Y-123259039D01*
X163331707Y-123256417D01*
X163390992Y-123283358D01*
X163433661Y-123337088D01*
X163439261Y-123350950D01*
X163471867Y-123401936D01*
X163519470Y-123439787D01*
X163579539Y-123470850D01*
X163579539Y-123382768D01*
X163576003Y-123328951D01*
X163560844Y-123286534D01*
X163527232Y-123241279D01*
X163494965Y-123206420D01*
X163444791Y-123157062D01*
X163405807Y-123130547D01*
X163363936Y-123119911D01*
X163316540Y-123118154D01*
X163212667Y-123133528D01*
G37*
X163212667Y-123133528D02*
X163156410Y-123159117D01*
X163112253Y-123190124D01*
X163079899Y-123224795D01*
X163057562Y-123269520D01*
X163043454Y-123330692D01*
X163035789Y-123414701D01*
X163032780Y-123527940D01*
X163032462Y-123602509D01*
X163032462Y-123893420D01*
X163082227Y-123916095D01*
X163121424Y-123932667D01*
X163140843Y-123938769D01*
X163144558Y-123920610D01*
X163147505Y-123871648D01*
X163149309Y-123800153D01*
X163149692Y-123743385D01*
X163151339Y-123661371D01*
X163155778Y-123596309D01*
X163162260Y-123556467D01*
X163167410Y-123548000D01*
X163202023Y-123556646D01*
X163256360Y-123578823D01*
X163319278Y-123608886D01*
X163379632Y-123641192D01*
X163426279Y-123670098D01*
X163448074Y-123689961D01*
X163448161Y-123690175D01*
X163446286Y-123726935D01*
X163429475Y-123762026D01*
X163399961Y-123790528D01*
X163356884Y-123800061D01*
X163320068Y-123798950D01*
X163267926Y-123798133D01*
X163240556Y-123810349D01*
X163224118Y-123842624D01*
X163222045Y-123848710D01*
X163214919Y-123894739D01*
X163233976Y-123922687D01*
X163283647Y-123936007D01*
X163337303Y-123938470D01*
X163433858Y-123920210D01*
X163483841Y-123894131D01*
X163545571Y-123832868D01*
X163578310Y-123757670D01*
X163581247Y-123678211D01*
X163553576Y-123604167D01*
X163511953Y-123557769D01*
X163470396Y-123531793D01*
X163405078Y-123498907D01*
X163328962Y-123465557D01*
X163316274Y-123460461D01*
X163232667Y-123423565D01*
X163184470Y-123391046D01*
X163168970Y-123358718D01*
X163183450Y-123322394D01*
X163208308Y-123294000D01*
X163267061Y-123259039D01*
X163331707Y-123256417D01*
X163390992Y-123283358D01*
X163433661Y-123337088D01*
X163439261Y-123350950D01*
X163471867Y-123401936D01*
X163519470Y-123439787D01*
X163579539Y-123470850D01*
X163579539Y-123382768D01*
X163576003Y-123328951D01*
X163560844Y-123286534D01*
X163527232Y-123241279D01*
X163494965Y-123206420D01*
X163444791Y-123157062D01*
X163405807Y-123130547D01*
X163363936Y-123119911D01*
X163316540Y-123118154D01*
X163212667Y-123133528D01*
G36*
X162529193Y-123136782D02*
G01*
X162505839Y-123146988D01*
X162450098Y-123191134D01*
X162402431Y-123254967D01*
X162372952Y-123323087D01*
X162368154Y-123356670D01*
X162384240Y-123403556D01*
X162419525Y-123428365D01*
X162457356Y-123443387D01*
X162474679Y-123446155D01*
X162483114Y-123426066D01*
X162499770Y-123382351D01*
X162507077Y-123362598D01*
X162548052Y-123294271D01*
X162607378Y-123260191D01*
X162683448Y-123261239D01*
X162689082Y-123262581D01*
X162729695Y-123281836D01*
X162759552Y-123319375D01*
X162779945Y-123379809D01*
X162792164Y-123467751D01*
X162797500Y-123587813D01*
X162798000Y-123651698D01*
X162798248Y-123752403D01*
X162799874Y-123821054D01*
X162804199Y-123864673D01*
X162812546Y-123890282D01*
X162826235Y-123904903D01*
X162846589Y-123915558D01*
X162847766Y-123916095D01*
X162886962Y-123932667D01*
X162906381Y-123938769D01*
X162909365Y-123920319D01*
X162911919Y-123869323D01*
X162913860Y-123792308D01*
X162915003Y-123695805D01*
X162915231Y-123625184D01*
X162914068Y-123488525D01*
X162909521Y-123384851D01*
X162900001Y-123308108D01*
X162883919Y-123252246D01*
X162859687Y-123211212D01*
X162825714Y-123178954D01*
X162792167Y-123156440D01*
X162711501Y-123126476D01*
X162617619Y-123119718D01*
X162529193Y-123136782D01*
G37*
X162529193Y-123136782D02*
X162505839Y-123146988D01*
X162450098Y-123191134D01*
X162402431Y-123254967D01*
X162372952Y-123323087D01*
X162368154Y-123356670D01*
X162384240Y-123403556D01*
X162419525Y-123428365D01*
X162457356Y-123443387D01*
X162474679Y-123446155D01*
X162483114Y-123426066D01*
X162499770Y-123382351D01*
X162507077Y-123362598D01*
X162548052Y-123294271D01*
X162607378Y-123260191D01*
X162683448Y-123261239D01*
X162689082Y-123262581D01*
X162729695Y-123281836D01*
X162759552Y-123319375D01*
X162779945Y-123379809D01*
X162792164Y-123467751D01*
X162797500Y-123587813D01*
X162798000Y-123651698D01*
X162798248Y-123752403D01*
X162799874Y-123821054D01*
X162804199Y-123864673D01*
X162812546Y-123890282D01*
X162826235Y-123904903D01*
X162846589Y-123915558D01*
X162847766Y-123916095D01*
X162886962Y-123932667D01*
X162906381Y-123938769D01*
X162909365Y-123920319D01*
X162911919Y-123869323D01*
X162913860Y-123792308D01*
X162915003Y-123695805D01*
X162915231Y-123625184D01*
X162914068Y-123488525D01*
X162909521Y-123384851D01*
X162900001Y-123308108D01*
X162883919Y-123252246D01*
X162859687Y-123211212D01*
X162825714Y-123178954D01*
X162792167Y-123156440D01*
X162711501Y-123126476D01*
X162617619Y-123119718D01*
X162529193Y-123136782D01*
G36*
X161854776Y-123147838D02*
G01*
X161777472Y-123198361D01*
X161740186Y-123243590D01*
X161710647Y-123325663D01*
X161708301Y-123390607D01*
X161713615Y-123477445D01*
X161913885Y-123565103D01*
X162011261Y-123609887D01*
X162074887Y-123645913D01*
X162107971Y-123677117D01*
X162113720Y-123707436D01*
X162095342Y-123740805D01*
X162075077Y-123762923D01*
X162016111Y-123798393D01*
X161951976Y-123800879D01*
X161893074Y-123773235D01*
X161849803Y-123718320D01*
X161842064Y-123698928D01*
X161804994Y-123638364D01*
X161762346Y-123612552D01*
X161703846Y-123590471D01*
X161703846Y-123674184D01*
X161709018Y-123731150D01*
X161729277Y-123779189D01*
X161771738Y-123834346D01*
X161778049Y-123841514D01*
X161825280Y-123890585D01*
X161865879Y-123916920D01*
X161916672Y-123929035D01*
X161958780Y-123933003D01*
X162034098Y-123933991D01*
X162087714Y-123921466D01*
X162121162Y-123902869D01*
X162173732Y-123861975D01*
X162210121Y-123817748D01*
X162233150Y-123762126D01*
X162245641Y-123687047D01*
X162250413Y-123584449D01*
X162250794Y-123532376D01*
X162249499Y-123469948D01*
X162131529Y-123469948D01*
X162130161Y-123503438D01*
X162126751Y-123508923D01*
X162104247Y-123501472D01*
X162055818Y-123481753D01*
X161991092Y-123453718D01*
X161977557Y-123447692D01*
X161895756Y-123406096D01*
X161850688Y-123369538D01*
X161840783Y-123335296D01*
X161864474Y-123300648D01*
X161884040Y-123285339D01*
X161954640Y-123254721D01*
X162020720Y-123259780D01*
X162076041Y-123297151D01*
X162114364Y-123363473D01*
X162126651Y-123416116D01*
X162131529Y-123469948D01*
X162249499Y-123469948D01*
X162248270Y-123410720D01*
X162238968Y-123320710D01*
X162220540Y-123255167D01*
X162190640Y-123206912D01*
X162146920Y-123168767D01*
X162127859Y-123156440D01*
X162041274Y-123124336D01*
X161946478Y-123122316D01*
X161854776Y-123147838D01*
G37*
X161854776Y-123147838D02*
X161777472Y-123198361D01*
X161740186Y-123243590D01*
X161710647Y-123325663D01*
X161708301Y-123390607D01*
X161713615Y-123477445D01*
X161913885Y-123565103D01*
X162011261Y-123609887D01*
X162074887Y-123645913D01*
X162107971Y-123677117D01*
X162113720Y-123707436D01*
X162095342Y-123740805D01*
X162075077Y-123762923D01*
X162016111Y-123798393D01*
X161951976Y-123800879D01*
X161893074Y-123773235D01*
X161849803Y-123718320D01*
X161842064Y-123698928D01*
X161804994Y-123638364D01*
X161762346Y-123612552D01*
X161703846Y-123590471D01*
X161703846Y-123674184D01*
X161709018Y-123731150D01*
X161729277Y-123779189D01*
X161771738Y-123834346D01*
X161778049Y-123841514D01*
X161825280Y-123890585D01*
X161865879Y-123916920D01*
X161916672Y-123929035D01*
X161958780Y-123933003D01*
X162034098Y-123933991D01*
X162087714Y-123921466D01*
X162121162Y-123902869D01*
X162173732Y-123861975D01*
X162210121Y-123817748D01*
X162233150Y-123762126D01*
X162245641Y-123687047D01*
X162250413Y-123584449D01*
X162250794Y-123532376D01*
X162249499Y-123469948D01*
X162131529Y-123469948D01*
X162130161Y-123503438D01*
X162126751Y-123508923D01*
X162104247Y-123501472D01*
X162055818Y-123481753D01*
X161991092Y-123453718D01*
X161977557Y-123447692D01*
X161895756Y-123406096D01*
X161850688Y-123369538D01*
X161840783Y-123335296D01*
X161864474Y-123300648D01*
X161884040Y-123285339D01*
X161954640Y-123254721D01*
X162020720Y-123259780D01*
X162076041Y-123297151D01*
X162114364Y-123363473D01*
X162126651Y-123416116D01*
X162131529Y-123469948D01*
X162249499Y-123469948D01*
X162248270Y-123410720D01*
X162238968Y-123320710D01*
X162220540Y-123255167D01*
X162190640Y-123206912D01*
X162146920Y-123168767D01*
X162127859Y-123156440D01*
X162041274Y-123124336D01*
X161946478Y-123122316D01*
X161854776Y-123147838D01*
G36*
X165960122Y-116787776D02*
G01*
X165854388Y-116788355D01*
X165777868Y-116789922D01*
X165725628Y-116792972D01*
X165692737Y-116797996D01*
X165674263Y-116805489D01*
X165665273Y-116815944D01*
X165660837Y-116829853D01*
X165660406Y-116831654D01*
X165653667Y-116864145D01*
X165641192Y-116928252D01*
X165624281Y-117017151D01*
X165604229Y-117124019D01*
X165582336Y-117242033D01*
X165581571Y-117246178D01*
X165559641Y-117361831D01*
X165539123Y-117464014D01*
X165521341Y-117546598D01*
X165507619Y-117603456D01*
X165499282Y-117628458D01*
X165498884Y-117628901D01*
X165474323Y-117641110D01*
X165423685Y-117661456D01*
X165357905Y-117685545D01*
X165357539Y-117685674D01*
X165274683Y-117716818D01*
X165177000Y-117756491D01*
X165084923Y-117796381D01*
X165080566Y-117798353D01*
X164930593Y-117866420D01*
X164598502Y-117639639D01*
X164496626Y-117570504D01*
X164404343Y-117508697D01*
X164326997Y-117457733D01*
X164269936Y-117421127D01*
X164238505Y-117402394D01*
X164235521Y-117401004D01*
X164212679Y-117407190D01*
X164170018Y-117437035D01*
X164105872Y-117491947D01*
X164018579Y-117573334D01*
X163929465Y-117659922D01*
X163843559Y-117745247D01*
X163766673Y-117823108D01*
X163703436Y-117888697D01*
X163658477Y-117937205D01*
X163636424Y-117963825D01*
X163635604Y-117965195D01*
X163633166Y-117983463D01*
X163642350Y-118013295D01*
X163665426Y-118058721D01*
X163704663Y-118123770D01*
X163762330Y-118212470D01*
X163839205Y-118326657D01*
X163907430Y-118427162D01*
X163968418Y-118517303D01*
X164018644Y-118591849D01*
X164054584Y-118645565D01*
X164072713Y-118673218D01*
X164073854Y-118675095D01*
X164071641Y-118701590D01*
X164054862Y-118753086D01*
X164026858Y-118819851D01*
X164016878Y-118841172D01*
X163973328Y-118936159D01*
X163926866Y-119043937D01*
X163889123Y-119137192D01*
X163861927Y-119206406D01*
X163840325Y-119259006D01*
X163827842Y-119286497D01*
X163826291Y-119288616D01*
X163803332Y-119292124D01*
X163749214Y-119301738D01*
X163671132Y-119316089D01*
X163576281Y-119333807D01*
X163471857Y-119353525D01*
X163365056Y-119373874D01*
X163263074Y-119393486D01*
X163173106Y-119410991D01*
X163102347Y-119425022D01*
X163057994Y-119434209D01*
X163047115Y-119436807D01*
X163035878Y-119443218D01*
X163027395Y-119457697D01*
X163021286Y-119485133D01*
X163017168Y-119530411D01*
X163014659Y-119598420D01*
X163013379Y-119694047D01*
X163012946Y-119822180D01*
X163012923Y-119874701D01*
X163012923Y-120301845D01*
X163115500Y-120322091D01*
X163172569Y-120333070D01*
X163257731Y-120349095D01*
X163360628Y-120368233D01*
X163470904Y-120388551D01*
X163501385Y-120394132D01*
X163603145Y-120413917D01*
X163691795Y-120433373D01*
X163759892Y-120450697D01*
X163799996Y-120464088D01*
X163806677Y-120468079D01*
X163823081Y-120496342D01*
X163846601Y-120551109D01*
X163872684Y-120621588D01*
X163877858Y-120636769D01*
X163912044Y-120730896D01*
X163954477Y-120837101D01*
X163996003Y-120932473D01*
X163996208Y-120932916D01*
X164065360Y-121082525D01*
X163610488Y-121751617D01*
X163902500Y-122044116D01*
X163990820Y-122131170D01*
X164071375Y-122207909D01*
X164139640Y-122270237D01*
X164191092Y-122314056D01*
X164221206Y-122335270D01*
X164225526Y-122336616D01*
X164250889Y-122326016D01*
X164302642Y-122296547D01*
X164375132Y-122251705D01*
X164462706Y-122194984D01*
X164557388Y-122131462D01*
X164653484Y-122066668D01*
X164739163Y-122010287D01*
X164808984Y-121965788D01*
X164857506Y-121936639D01*
X164879218Y-121926308D01*
X164905707Y-121935050D01*
X164955938Y-121958087D01*
X165019549Y-121990631D01*
X165026292Y-121994249D01*
X165111954Y-122037210D01*
X165170694Y-122058279D01*
X165207228Y-122058503D01*
X165226269Y-122038928D01*
X165226380Y-122038654D01*
X165235898Y-122015472D01*
X165258597Y-121960441D01*
X165292718Y-121877822D01*
X165336500Y-121771872D01*
X165388184Y-121646852D01*
X165446008Y-121507020D01*
X165502009Y-121371637D01*
X165563553Y-121222234D01*
X165620061Y-121083832D01*
X165669839Y-120960673D01*
X165711194Y-120857002D01*
X165742432Y-120777059D01*
X165761859Y-120725088D01*
X165767846Y-120705692D01*
X165752832Y-120683443D01*
X165713561Y-120647982D01*
X165661193Y-120608887D01*
X165512059Y-120485245D01*
X165395489Y-120343522D01*
X165312882Y-120186704D01*
X165265634Y-120017775D01*
X165255143Y-119839722D01*
X165262769Y-119757539D01*
X165304318Y-119587031D01*
X165375877Y-119436459D01*
X165473005Y-119307309D01*
X165591266Y-119201064D01*
X165726220Y-119119210D01*
X165873429Y-119063232D01*
X166028456Y-119034615D01*
X166186861Y-119034844D01*
X166344206Y-119065405D01*
X166496054Y-119127782D01*
X166637965Y-119223460D01*
X166697197Y-119277572D01*
X166810797Y-119416520D01*
X166889894Y-119568361D01*
X166935014Y-119728667D01*
X166946684Y-119893012D01*
X166925431Y-120056971D01*
X166871780Y-120216118D01*
X166786260Y-120366025D01*
X166669395Y-120502267D01*
X166538807Y-120608887D01*
X166484412Y-120649642D01*
X166445986Y-120684718D01*
X166432154Y-120705726D01*
X166439397Y-120728635D01*
X166459995Y-120783365D01*
X166492254Y-120865672D01*
X166534479Y-120971315D01*
X166584977Y-121096050D01*
X166642052Y-121235636D01*
X166698146Y-121371670D01*
X166760033Y-121521201D01*
X166817356Y-121659767D01*
X166868356Y-121783107D01*
X166911273Y-121886964D01*
X166944347Y-121967080D01*
X166965819Y-122019195D01*
X166973775Y-122038654D01*
X166992571Y-122058423D01*
X167028926Y-122058365D01*
X167087521Y-122037441D01*
X167173032Y-121994613D01*
X167173708Y-121994249D01*
X167238093Y-121961012D01*
X167290139Y-121936802D01*
X167319488Y-121926404D01*
X167320783Y-121926308D01*
X167342876Y-121936855D01*
X167391652Y-121966184D01*
X167461669Y-122010827D01*
X167547486Y-122067314D01*
X167642612Y-122131462D01*
X167739460Y-122196411D01*
X167826747Y-122252896D01*
X167898819Y-122297421D01*
X167950023Y-122326490D01*
X167974474Y-122336616D01*
X167996990Y-122323307D01*
X168042258Y-122286112D01*
X168105756Y-122229128D01*
X168182961Y-122156449D01*
X168269349Y-122072171D01*
X168297601Y-122044016D01*
X168589713Y-121751416D01*
X168367369Y-121425104D01*
X168299798Y-121324897D01*
X168240493Y-121234963D01*
X168192783Y-121160510D01*
X168159993Y-121106751D01*
X168145452Y-121078894D01*
X168145026Y-121076912D01*
X168152692Y-121050655D01*
X168173311Y-120997837D01*
X168203315Y-120927310D01*
X168224375Y-120880093D01*
X168263752Y-120789694D01*
X168300835Y-120698366D01*
X168329585Y-120621200D01*
X168337395Y-120597692D01*
X168359583Y-120534916D01*
X168381273Y-120486411D01*
X168393187Y-120468079D01*
X168419477Y-120456859D01*
X168476858Y-120440954D01*
X168557882Y-120422167D01*
X168655105Y-120402299D01*
X168698615Y-120394132D01*
X168809104Y-120373829D01*
X168915084Y-120354170D01*
X169006199Y-120337088D01*
X169072092Y-120324518D01*
X169084500Y-120322091D01*
X169187077Y-120301845D01*
X169187077Y-119874701D01*
X169186847Y-119734246D01*
X169185901Y-119627979D01*
X169183859Y-119551013D01*
X169180338Y-119498460D01*
X169174957Y-119465433D01*
X169167334Y-119447045D01*
X169157088Y-119438408D01*
X169152885Y-119436807D01*
X169127530Y-119431127D01*
X169071516Y-119419795D01*
X168992036Y-119404179D01*
X168896288Y-119385647D01*
X168791467Y-119365569D01*
X168684768Y-119345312D01*
X168583387Y-119326246D01*
X168494521Y-119309739D01*
X168425363Y-119297159D01*
X168383111Y-119289875D01*
X168373710Y-119288616D01*
X168365193Y-119271763D01*
X168346340Y-119226870D01*
X168320676Y-119162430D01*
X168310877Y-119137192D01*
X168271352Y-119039686D01*
X168224808Y-118931959D01*
X168183123Y-118841172D01*
X168152450Y-118771753D01*
X168132044Y-118714710D01*
X168125232Y-118679777D01*
X168126318Y-118675095D01*
X168140715Y-118652991D01*
X168173588Y-118603831D01*
X168221410Y-118532848D01*
X168280652Y-118445278D01*
X168347785Y-118346357D01*
X168361059Y-118326830D01*
X168438954Y-118211140D01*
X168496213Y-118123044D01*
X168535119Y-118058486D01*
X168557956Y-118013411D01*
X168567006Y-117983763D01*
X168564552Y-117965485D01*
X168564489Y-117965369D01*
X168545173Y-117941361D01*
X168502449Y-117894947D01*
X168440949Y-117830937D01*
X168365302Y-117754145D01*
X168280139Y-117669382D01*
X168270535Y-117659922D01*
X168163210Y-117555989D01*
X168080385Y-117479675D01*
X168020395Y-117429571D01*
X167981577Y-117404270D01*
X167964480Y-117401004D01*
X167939527Y-117415250D01*
X167887745Y-117448156D01*
X167814480Y-117496208D01*
X167725080Y-117555890D01*
X167624889Y-117623688D01*
X167601499Y-117639639D01*
X167269407Y-117866420D01*
X167119435Y-117798353D01*
X167028230Y-117758685D01*
X166930331Y-117718791D01*
X166846169Y-117686983D01*
X166842462Y-117685674D01*
X166776631Y-117661576D01*
X166725884Y-117641200D01*
X166701158Y-117628936D01*
X166701116Y-117628901D01*
X166693271Y-117606734D01*
X166679934Y-117552217D01*
X166662430Y-117471480D01*
X166642083Y-117370650D01*
X166620218Y-117255856D01*
X166618429Y-117246178D01*
X166596496Y-117127904D01*
X166576360Y-117020542D01*
X166559320Y-116930917D01*
X166546672Y-116865851D01*
X166539716Y-116832168D01*
X166539594Y-116831654D01*
X166535361Y-116817325D01*
X166527129Y-116806507D01*
X166509967Y-116798706D01*
X166478942Y-116793429D01*
X166429122Y-116790182D01*
X166355576Y-116788472D01*
X166253371Y-116787807D01*
X166117575Y-116787693D01*
X166100000Y-116787692D01*
X165960122Y-116787776D01*
G37*
X165960122Y-116787776D02*
X165854388Y-116788355D01*
X165777868Y-116789922D01*
X165725628Y-116792972D01*
X165692737Y-116797996D01*
X165674263Y-116805489D01*
X165665273Y-116815944D01*
X165660837Y-116829853D01*
X165660406Y-116831654D01*
X165653667Y-116864145D01*
X165641192Y-116928252D01*
X165624281Y-117017151D01*
X165604229Y-117124019D01*
X165582336Y-117242033D01*
X165581571Y-117246178D01*
X165559641Y-117361831D01*
X165539123Y-117464014D01*
X165521341Y-117546598D01*
X165507619Y-117603456D01*
X165499282Y-117628458D01*
X165498884Y-117628901D01*
X165474323Y-117641110D01*
X165423685Y-117661456D01*
X165357905Y-117685545D01*
X165357539Y-117685674D01*
X165274683Y-117716818D01*
X165177000Y-117756491D01*
X165084923Y-117796381D01*
X165080566Y-117798353D01*
X164930593Y-117866420D01*
X164598502Y-117639639D01*
X164496626Y-117570504D01*
X164404343Y-117508697D01*
X164326997Y-117457733D01*
X164269936Y-117421127D01*
X164238505Y-117402394D01*
X164235521Y-117401004D01*
X164212679Y-117407190D01*
X164170018Y-117437035D01*
X164105872Y-117491947D01*
X164018579Y-117573334D01*
X163929465Y-117659922D01*
X163843559Y-117745247D01*
X163766673Y-117823108D01*
X163703436Y-117888697D01*
X163658477Y-117937205D01*
X163636424Y-117963825D01*
X163635604Y-117965195D01*
X163633166Y-117983463D01*
X163642350Y-118013295D01*
X163665426Y-118058721D01*
X163704663Y-118123770D01*
X163762330Y-118212470D01*
X163839205Y-118326657D01*
X163907430Y-118427162D01*
X163968418Y-118517303D01*
X164018644Y-118591849D01*
X164054584Y-118645565D01*
X164072713Y-118673218D01*
X164073854Y-118675095D01*
X164071641Y-118701590D01*
X164054862Y-118753086D01*
X164026858Y-118819851D01*
X164016878Y-118841172D01*
X163973328Y-118936159D01*
X163926866Y-119043937D01*
X163889123Y-119137192D01*
X163861927Y-119206406D01*
X163840325Y-119259006D01*
X163827842Y-119286497D01*
X163826291Y-119288616D01*
X163803332Y-119292124D01*
X163749214Y-119301738D01*
X163671132Y-119316089D01*
X163576281Y-119333807D01*
X163471857Y-119353525D01*
X163365056Y-119373874D01*
X163263074Y-119393486D01*
X163173106Y-119410991D01*
X163102347Y-119425022D01*
X163057994Y-119434209D01*
X163047115Y-119436807D01*
X163035878Y-119443218D01*
X163027395Y-119457697D01*
X163021286Y-119485133D01*
X163017168Y-119530411D01*
X163014659Y-119598420D01*
X163013379Y-119694047D01*
X163012946Y-119822180D01*
X163012923Y-119874701D01*
X163012923Y-120301845D01*
X163115500Y-120322091D01*
X163172569Y-120333070D01*
X163257731Y-120349095D01*
X163360628Y-120368233D01*
X163470904Y-120388551D01*
X163501385Y-120394132D01*
X163603145Y-120413917D01*
X163691795Y-120433373D01*
X163759892Y-120450697D01*
X163799996Y-120464088D01*
X163806677Y-120468079D01*
X163823081Y-120496342D01*
X163846601Y-120551109D01*
X163872684Y-120621588D01*
X163877858Y-120636769D01*
X163912044Y-120730896D01*
X163954477Y-120837101D01*
X163996003Y-120932473D01*
X163996208Y-120932916D01*
X164065360Y-121082525D01*
X163610488Y-121751617D01*
X163902500Y-122044116D01*
X163990820Y-122131170D01*
X164071375Y-122207909D01*
X164139640Y-122270237D01*
X164191092Y-122314056D01*
X164221206Y-122335270D01*
X164225526Y-122336616D01*
X164250889Y-122326016D01*
X164302642Y-122296547D01*
X164375132Y-122251705D01*
X164462706Y-122194984D01*
X164557388Y-122131462D01*
X164653484Y-122066668D01*
X164739163Y-122010287D01*
X164808984Y-121965788D01*
X164857506Y-121936639D01*
X164879218Y-121926308D01*
X164905707Y-121935050D01*
X164955938Y-121958087D01*
X165019549Y-121990631D01*
X165026292Y-121994249D01*
X165111954Y-122037210D01*
X165170694Y-122058279D01*
X165207228Y-122058503D01*
X165226269Y-122038928D01*
X165226380Y-122038654D01*
X165235898Y-122015472D01*
X165258597Y-121960441D01*
X165292718Y-121877822D01*
X165336500Y-121771872D01*
X165388184Y-121646852D01*
X165446008Y-121507020D01*
X165502009Y-121371637D01*
X165563553Y-121222234D01*
X165620061Y-121083832D01*
X165669839Y-120960673D01*
X165711194Y-120857002D01*
X165742432Y-120777059D01*
X165761859Y-120725088D01*
X165767846Y-120705692D01*
X165752832Y-120683443D01*
X165713561Y-120647982D01*
X165661193Y-120608887D01*
X165512059Y-120485245D01*
X165395489Y-120343522D01*
X165312882Y-120186704D01*
X165265634Y-120017775D01*
X165255143Y-119839722D01*
X165262769Y-119757539D01*
X165304318Y-119587031D01*
X165375877Y-119436459D01*
X165473005Y-119307309D01*
X165591266Y-119201064D01*
X165726220Y-119119210D01*
X165873429Y-119063232D01*
X166028456Y-119034615D01*
X166186861Y-119034844D01*
X166344206Y-119065405D01*
X166496054Y-119127782D01*
X166637965Y-119223460D01*
X166697197Y-119277572D01*
X166810797Y-119416520D01*
X166889894Y-119568361D01*
X166935014Y-119728667D01*
X166946684Y-119893012D01*
X166925431Y-120056971D01*
X166871780Y-120216118D01*
X166786260Y-120366025D01*
X166669395Y-120502267D01*
X166538807Y-120608887D01*
X166484412Y-120649642D01*
X166445986Y-120684718D01*
X166432154Y-120705726D01*
X166439397Y-120728635D01*
X166459995Y-120783365D01*
X166492254Y-120865672D01*
X166534479Y-120971315D01*
X166584977Y-121096050D01*
X166642052Y-121235636D01*
X166698146Y-121371670D01*
X166760033Y-121521201D01*
X166817356Y-121659767D01*
X166868356Y-121783107D01*
X166911273Y-121886964D01*
X166944347Y-121967080D01*
X166965819Y-122019195D01*
X166973775Y-122038654D01*
X166992571Y-122058423D01*
X167028926Y-122058365D01*
X167087521Y-122037441D01*
X167173032Y-121994613D01*
X167173708Y-121994249D01*
X167238093Y-121961012D01*
X167290139Y-121936802D01*
X167319488Y-121926404D01*
X167320783Y-121926308D01*
X167342876Y-121936855D01*
X167391652Y-121966184D01*
X167461669Y-122010827D01*
X167547486Y-122067314D01*
X167642612Y-122131462D01*
X167739460Y-122196411D01*
X167826747Y-122252896D01*
X167898819Y-122297421D01*
X167950023Y-122326490D01*
X167974474Y-122336616D01*
X167996990Y-122323307D01*
X168042258Y-122286112D01*
X168105756Y-122229128D01*
X168182961Y-122156449D01*
X168269349Y-122072171D01*
X168297601Y-122044016D01*
X168589713Y-121751416D01*
X168367369Y-121425104D01*
X168299798Y-121324897D01*
X168240493Y-121234963D01*
X168192783Y-121160510D01*
X168159993Y-121106751D01*
X168145452Y-121078894D01*
X168145026Y-121076912D01*
X168152692Y-121050655D01*
X168173311Y-120997837D01*
X168203315Y-120927310D01*
X168224375Y-120880093D01*
X168263752Y-120789694D01*
X168300835Y-120698366D01*
X168329585Y-120621200D01*
X168337395Y-120597692D01*
X168359583Y-120534916D01*
X168381273Y-120486411D01*
X168393187Y-120468079D01*
X168419477Y-120456859D01*
X168476858Y-120440954D01*
X168557882Y-120422167D01*
X168655105Y-120402299D01*
X168698615Y-120394132D01*
X168809104Y-120373829D01*
X168915084Y-120354170D01*
X169006199Y-120337088D01*
X169072092Y-120324518D01*
X169084500Y-120322091D01*
X169187077Y-120301845D01*
X169187077Y-119874701D01*
X169186847Y-119734246D01*
X169185901Y-119627979D01*
X169183859Y-119551013D01*
X169180338Y-119498460D01*
X169174957Y-119465433D01*
X169167334Y-119447045D01*
X169157088Y-119438408D01*
X169152885Y-119436807D01*
X169127530Y-119431127D01*
X169071516Y-119419795D01*
X168992036Y-119404179D01*
X168896288Y-119385647D01*
X168791467Y-119365569D01*
X168684768Y-119345312D01*
X168583387Y-119326246D01*
X168494521Y-119309739D01*
X168425363Y-119297159D01*
X168383111Y-119289875D01*
X168373710Y-119288616D01*
X168365193Y-119271763D01*
X168346340Y-119226870D01*
X168320676Y-119162430D01*
X168310877Y-119137192D01*
X168271352Y-119039686D01*
X168224808Y-118931959D01*
X168183123Y-118841172D01*
X168152450Y-118771753D01*
X168132044Y-118714710D01*
X168125232Y-118679777D01*
X168126318Y-118675095D01*
X168140715Y-118652991D01*
X168173588Y-118603831D01*
X168221410Y-118532848D01*
X168280652Y-118445278D01*
X168347785Y-118346357D01*
X168361059Y-118326830D01*
X168438954Y-118211140D01*
X168496213Y-118123044D01*
X168535119Y-118058486D01*
X168557956Y-118013411D01*
X168567006Y-117983763D01*
X168564552Y-117965485D01*
X168564489Y-117965369D01*
X168545173Y-117941361D01*
X168502449Y-117894947D01*
X168440949Y-117830937D01*
X168365302Y-117754145D01*
X168280139Y-117669382D01*
X168270535Y-117659922D01*
X168163210Y-117555989D01*
X168080385Y-117479675D01*
X168020395Y-117429571D01*
X167981577Y-117404270D01*
X167964480Y-117401004D01*
X167939527Y-117415250D01*
X167887745Y-117448156D01*
X167814480Y-117496208D01*
X167725080Y-117555890D01*
X167624889Y-117623688D01*
X167601499Y-117639639D01*
X167269407Y-117866420D01*
X167119435Y-117798353D01*
X167028230Y-117758685D01*
X166930331Y-117718791D01*
X166846169Y-117686983D01*
X166842462Y-117685674D01*
X166776631Y-117661576D01*
X166725884Y-117641200D01*
X166701158Y-117628936D01*
X166701116Y-117628901D01*
X166693271Y-117606734D01*
X166679934Y-117552217D01*
X166662430Y-117471480D01*
X166642083Y-117370650D01*
X166620218Y-117255856D01*
X166618429Y-117246178D01*
X166596496Y-117127904D01*
X166576360Y-117020542D01*
X166559320Y-116930917D01*
X166546672Y-116865851D01*
X166539716Y-116832168D01*
X166539594Y-116831654D01*
X166535361Y-116817325D01*
X166527129Y-116806507D01*
X166509967Y-116798706D01*
X166478942Y-116793429D01*
X166429122Y-116790182D01*
X166355576Y-116788472D01*
X166253371Y-116787807D01*
X166117575Y-116787693D01*
X166100000Y-116787692D01*
X165960122Y-116787776D01*
D10*
X163090000Y-131673748D02*
X163090000Y-132196252D01*
X161670000Y-131673748D02*
X161670000Y-132196252D01*
X85803748Y-111660000D02*
X86326252Y-111660000D01*
X85803748Y-113080000D02*
X86326252Y-113080000D01*
X98333748Y-107650000D02*
X98856252Y-107650000D01*
X98333748Y-106230000D02*
X98856252Y-106230000D01*
X112963748Y-106300000D02*
X113486252Y-106300000D01*
X112963748Y-107720000D02*
X113486252Y-107720000D01*
X127503748Y-107710000D02*
X128026252Y-107710000D01*
X127503748Y-106290000D02*
X128026252Y-106290000D01*
X142153748Y-107710000D02*
X142676252Y-107710000D01*
X142153748Y-106290000D02*
X142676252Y-106290000D01*
X156893748Y-107730000D02*
X157416252Y-107730000D01*
X156893748Y-106310000D02*
X157416252Y-106310000D01*
X171618748Y-106290000D02*
X172141252Y-106290000D01*
X171618748Y-107710000D02*
X172141252Y-107710000D01*
X186273748Y-107720000D02*
X186796252Y-107720000D01*
X186273748Y-106300000D02*
X186796252Y-106300000D01*
X203326252Y-128460000D02*
X202803748Y-128460000D01*
X203326252Y-129880000D02*
X202803748Y-129880000D01*
X203296252Y-125790000D02*
X202773748Y-125790000D01*
X203296252Y-124370000D02*
X202773748Y-124370000D01*
X203311252Y-127820000D02*
X202788748Y-127820000D01*
X203311252Y-126400000D02*
X202788748Y-126400000D01*
X203296252Y-122340000D02*
X202773748Y-122340000D01*
X203296252Y-123760000D02*
X202773748Y-123760000D01*
X114410000Y-140550000D02*
X114410000Y-142650000D01*
X107870000Y-140550000D02*
X107870000Y-142650000D01*
X88330000Y-111130000D02*
X88330000Y-111100000D01*
X88330000Y-104670000D02*
X88330000Y-104700000D01*
X81870000Y-104670000D02*
X81870000Y-104700000D01*
X81870000Y-111100000D02*
X81870000Y-111130000D01*
X88330000Y-109200000D02*
X88330000Y-106600000D01*
X81870000Y-111130000D02*
X88330000Y-111130000D01*
X81870000Y-109200000D02*
X81870000Y-106600000D01*
X81870000Y-104670000D02*
X88330000Y-104670000D01*
X81875000Y-116280000D02*
X88335000Y-116280000D01*
X81875000Y-120810000D02*
X81875000Y-118210000D01*
X81875000Y-122740000D02*
X88335000Y-122740000D01*
X88335000Y-120810000D02*
X88335000Y-118210000D01*
X81875000Y-122710000D02*
X81875000Y-122740000D01*
X81875000Y-116280000D02*
X81875000Y-116310000D01*
X88335000Y-116280000D02*
X88335000Y-116310000D01*
X88335000Y-122740000D02*
X88335000Y-122710000D01*
X177655000Y-142280000D02*
X177655000Y-142250000D01*
X177655000Y-135820000D02*
X177655000Y-135850000D01*
X171195000Y-135820000D02*
X171195000Y-135850000D01*
X171195000Y-142250000D02*
X171195000Y-142280000D01*
X177655000Y-140350000D02*
X177655000Y-137750000D01*
X171195000Y-142280000D02*
X177655000Y-142280000D01*
X171195000Y-140350000D02*
X171195000Y-137750000D01*
X171195000Y-135820000D02*
X177655000Y-135820000D01*
X87310000Y-130138748D02*
X87310000Y-130661252D01*
X85890000Y-130138748D02*
X85890000Y-130661252D01*
X112136252Y-131890000D02*
X111613748Y-131890000D01*
X112136252Y-133310000D02*
X111613748Y-133310000D01*
X132890000Y-133163748D02*
X132890000Y-133686252D01*
X134310000Y-133163748D02*
X134310000Y-133686252D01*
D11*
X161087142Y-131768333D02*
X161134761Y-131720714D01*
X161182380Y-131577857D01*
X161182380Y-131482619D01*
X161134761Y-131339761D01*
X161039523Y-131244523D01*
X160944285Y-131196904D01*
X160753809Y-131149285D01*
X160610952Y-131149285D01*
X160420476Y-131196904D01*
X160325238Y-131244523D01*
X160230000Y-131339761D01*
X160182380Y-131482619D01*
X160182380Y-131577857D01*
X160230000Y-131720714D01*
X160277619Y-131768333D01*
X161182380Y-132720714D02*
X161182380Y-132149285D01*
X161182380Y-132435000D02*
X160182380Y-132435000D01*
X160325238Y-132339761D01*
X160420476Y-132244523D01*
X160468095Y-132149285D01*
X163352380Y-132257142D02*
X163352380Y-132352380D01*
X163400000Y-132447619D01*
X163447619Y-132495238D01*
X163542857Y-132542857D01*
X163733333Y-132590476D01*
X163971428Y-132590476D01*
X164161904Y-132542857D01*
X164257142Y-132495238D01*
X164304761Y-132447619D01*
X164352380Y-132352380D01*
X164352380Y-132257142D01*
X164304761Y-132161904D01*
X164257142Y-132114285D01*
X164161904Y-132066666D01*
X163971428Y-132019047D01*
X163733333Y-132019047D01*
X163542857Y-132066666D01*
X163447619Y-132114285D01*
X163400000Y-132161904D01*
X163352380Y-132257142D01*
X164257142Y-133019047D02*
X164304761Y-133066666D01*
X164352380Y-133019047D01*
X164304761Y-132971428D01*
X164257142Y-133019047D01*
X164352380Y-133019047D01*
X164352380Y-134019047D02*
X164352380Y-133447619D01*
X164352380Y-133733333D02*
X163352380Y-133733333D01*
X163495238Y-133638095D01*
X163590476Y-133542857D01*
X163638095Y-133447619D01*
X163685714Y-134876190D02*
X164352380Y-134876190D01*
X163685714Y-134447619D02*
X164209523Y-134447619D01*
X164304761Y-134495238D01*
X164352380Y-134590476D01*
X164352380Y-134733333D01*
X164304761Y-134828571D01*
X164257142Y-134876190D01*
X163828571Y-135685714D02*
X163828571Y-135352380D01*
X164352380Y-135352380D02*
X163352380Y-135352380D01*
X163352380Y-135828571D01*
X86191666Y-114507142D02*
X86239285Y-114554761D01*
X86382142Y-114602380D01*
X86477380Y-114602380D01*
X86620238Y-114554761D01*
X86715476Y-114459523D01*
X86763095Y-114364285D01*
X86810714Y-114173809D01*
X86810714Y-114030952D01*
X86763095Y-113840476D01*
X86715476Y-113745238D01*
X86620238Y-113650000D01*
X86477380Y-113602380D01*
X86382142Y-113602380D01*
X86239285Y-113650000D01*
X86191666Y-113697619D01*
X85810714Y-113697619D02*
X85763095Y-113650000D01*
X85667857Y-113602380D01*
X85429761Y-113602380D01*
X85334523Y-113650000D01*
X85286904Y-113697619D01*
X85239285Y-113792857D01*
X85239285Y-113888095D01*
X85286904Y-114030952D01*
X85858333Y-114602380D01*
X85239285Y-114602380D01*
X83642857Y-111752380D02*
X83547619Y-111752380D01*
X83452380Y-111800000D01*
X83404761Y-111847619D01*
X83357142Y-111942857D01*
X83309523Y-112133333D01*
X83309523Y-112371428D01*
X83357142Y-112561904D01*
X83404761Y-112657142D01*
X83452380Y-112704761D01*
X83547619Y-112752380D01*
X83642857Y-112752380D01*
X83738095Y-112704761D01*
X83785714Y-112657142D01*
X83833333Y-112561904D01*
X83880952Y-112371428D01*
X83880952Y-112133333D01*
X83833333Y-111942857D01*
X83785714Y-111847619D01*
X83738095Y-111800000D01*
X83642857Y-111752380D01*
X82880952Y-112657142D02*
X82833333Y-112704761D01*
X82880952Y-112752380D01*
X82928571Y-112704761D01*
X82880952Y-112657142D01*
X82880952Y-112752380D01*
X81880952Y-112752380D02*
X82452380Y-112752380D01*
X82166666Y-112752380D02*
X82166666Y-111752380D01*
X82261904Y-111895238D01*
X82357142Y-111990476D01*
X82452380Y-112038095D01*
X81023809Y-112085714D02*
X81023809Y-112752380D01*
X81452380Y-112085714D02*
X81452380Y-112609523D01*
X81404761Y-112704761D01*
X81309523Y-112752380D01*
X81166666Y-112752380D01*
X81071428Y-112704761D01*
X81023809Y-112657142D01*
X80214285Y-112228571D02*
X80547619Y-112228571D01*
X80547619Y-112752380D02*
X80547619Y-111752380D01*
X80071428Y-111752380D01*
X98761666Y-108947142D02*
X98809285Y-108994761D01*
X98952142Y-109042380D01*
X99047380Y-109042380D01*
X99190238Y-108994761D01*
X99285476Y-108899523D01*
X99333095Y-108804285D01*
X99380714Y-108613809D01*
X99380714Y-108470952D01*
X99333095Y-108280476D01*
X99285476Y-108185238D01*
X99190238Y-108090000D01*
X99047380Y-108042380D01*
X98952142Y-108042380D01*
X98809285Y-108090000D01*
X98761666Y-108137619D01*
X98428333Y-108042380D02*
X97809285Y-108042380D01*
X98142619Y-108423333D01*
X97999761Y-108423333D01*
X97904523Y-108470952D01*
X97856904Y-108518571D01*
X97809285Y-108613809D01*
X97809285Y-108851904D01*
X97856904Y-108947142D01*
X97904523Y-108994761D01*
X97999761Y-109042380D01*
X98285476Y-109042380D01*
X98380714Y-108994761D01*
X98428333Y-108947142D01*
X101442857Y-104652380D02*
X101347619Y-104652380D01*
X101252380Y-104700000D01*
X101204761Y-104747619D01*
X101157142Y-104842857D01*
X101109523Y-105033333D01*
X101109523Y-105271428D01*
X101157142Y-105461904D01*
X101204761Y-105557142D01*
X101252380Y-105604761D01*
X101347619Y-105652380D01*
X101442857Y-105652380D01*
X101538095Y-105604761D01*
X101585714Y-105557142D01*
X101633333Y-105461904D01*
X101680952Y-105271428D01*
X101680952Y-105033333D01*
X101633333Y-104842857D01*
X101585714Y-104747619D01*
X101538095Y-104700000D01*
X101442857Y-104652380D01*
X100680952Y-105557142D02*
X100633333Y-105604761D01*
X100680952Y-105652380D01*
X100728571Y-105604761D01*
X100680952Y-105557142D01*
X100680952Y-105652380D01*
X99680952Y-105652380D02*
X100252380Y-105652380D01*
X99966666Y-105652380D02*
X99966666Y-104652380D01*
X100061904Y-104795238D01*
X100157142Y-104890476D01*
X100252380Y-104938095D01*
X98823809Y-104985714D02*
X98823809Y-105652380D01*
X99252380Y-104985714D02*
X99252380Y-105509523D01*
X99204761Y-105604761D01*
X99109523Y-105652380D01*
X98966666Y-105652380D01*
X98871428Y-105604761D01*
X98823809Y-105557142D01*
X98014285Y-105128571D02*
X98347619Y-105128571D01*
X98347619Y-105652380D02*
X98347619Y-104652380D01*
X97871428Y-104652380D01*
X113391666Y-109017142D02*
X113439285Y-109064761D01*
X113582142Y-109112380D01*
X113677380Y-109112380D01*
X113820238Y-109064761D01*
X113915476Y-108969523D01*
X113963095Y-108874285D01*
X114010714Y-108683809D01*
X114010714Y-108540952D01*
X113963095Y-108350476D01*
X113915476Y-108255238D01*
X113820238Y-108160000D01*
X113677380Y-108112380D01*
X113582142Y-108112380D01*
X113439285Y-108160000D01*
X113391666Y-108207619D01*
X112534523Y-108445714D02*
X112534523Y-109112380D01*
X112772619Y-108064761D02*
X113010714Y-108779047D01*
X112391666Y-108779047D01*
X116042857Y-104652380D02*
X115947619Y-104652380D01*
X115852380Y-104700000D01*
X115804761Y-104747619D01*
X115757142Y-104842857D01*
X115709523Y-105033333D01*
X115709523Y-105271428D01*
X115757142Y-105461904D01*
X115804761Y-105557142D01*
X115852380Y-105604761D01*
X115947619Y-105652380D01*
X116042857Y-105652380D01*
X116138095Y-105604761D01*
X116185714Y-105557142D01*
X116233333Y-105461904D01*
X116280952Y-105271428D01*
X116280952Y-105033333D01*
X116233333Y-104842857D01*
X116185714Y-104747619D01*
X116138095Y-104700000D01*
X116042857Y-104652380D01*
X115280952Y-105557142D02*
X115233333Y-105604761D01*
X115280952Y-105652380D01*
X115328571Y-105604761D01*
X115280952Y-105557142D01*
X115280952Y-105652380D01*
X114280952Y-105652380D02*
X114852380Y-105652380D01*
X114566666Y-105652380D02*
X114566666Y-104652380D01*
X114661904Y-104795238D01*
X114757142Y-104890476D01*
X114852380Y-104938095D01*
X113423809Y-104985714D02*
X113423809Y-105652380D01*
X113852380Y-104985714D02*
X113852380Y-105509523D01*
X113804761Y-105604761D01*
X113709523Y-105652380D01*
X113566666Y-105652380D01*
X113471428Y-105604761D01*
X113423809Y-105557142D01*
X112614285Y-105128571D02*
X112947619Y-105128571D01*
X112947619Y-105652380D02*
X112947619Y-104652380D01*
X112471428Y-104652380D01*
X127931666Y-109007142D02*
X127979285Y-109054761D01*
X128122142Y-109102380D01*
X128217380Y-109102380D01*
X128360238Y-109054761D01*
X128455476Y-108959523D01*
X128503095Y-108864285D01*
X128550714Y-108673809D01*
X128550714Y-108530952D01*
X128503095Y-108340476D01*
X128455476Y-108245238D01*
X128360238Y-108150000D01*
X128217380Y-108102380D01*
X128122142Y-108102380D01*
X127979285Y-108150000D01*
X127931666Y-108197619D01*
X127026904Y-108102380D02*
X127503095Y-108102380D01*
X127550714Y-108578571D01*
X127503095Y-108530952D01*
X127407857Y-108483333D01*
X127169761Y-108483333D01*
X127074523Y-108530952D01*
X127026904Y-108578571D01*
X126979285Y-108673809D01*
X126979285Y-108911904D01*
X127026904Y-109007142D01*
X127074523Y-109054761D01*
X127169761Y-109102380D01*
X127407857Y-109102380D01*
X127503095Y-109054761D01*
X127550714Y-109007142D01*
X129342857Y-104652380D02*
X129247619Y-104652380D01*
X129152380Y-104700000D01*
X129104761Y-104747619D01*
X129057142Y-104842857D01*
X129009523Y-105033333D01*
X129009523Y-105271428D01*
X129057142Y-105461904D01*
X129104761Y-105557142D01*
X129152380Y-105604761D01*
X129247619Y-105652380D01*
X129342857Y-105652380D01*
X129438095Y-105604761D01*
X129485714Y-105557142D01*
X129533333Y-105461904D01*
X129580952Y-105271428D01*
X129580952Y-105033333D01*
X129533333Y-104842857D01*
X129485714Y-104747619D01*
X129438095Y-104700000D01*
X129342857Y-104652380D01*
X128580952Y-105557142D02*
X128533333Y-105604761D01*
X128580952Y-105652380D01*
X128628571Y-105604761D01*
X128580952Y-105557142D01*
X128580952Y-105652380D01*
X127580952Y-105652380D02*
X128152380Y-105652380D01*
X127866666Y-105652380D02*
X127866666Y-104652380D01*
X127961904Y-104795238D01*
X128057142Y-104890476D01*
X128152380Y-104938095D01*
X126723809Y-104985714D02*
X126723809Y-105652380D01*
X127152380Y-104985714D02*
X127152380Y-105509523D01*
X127104761Y-105604761D01*
X127009523Y-105652380D01*
X126866666Y-105652380D01*
X126771428Y-105604761D01*
X126723809Y-105557142D01*
X125914285Y-105128571D02*
X126247619Y-105128571D01*
X126247619Y-105652380D02*
X126247619Y-104652380D01*
X125771428Y-104652380D01*
X142581666Y-109007142D02*
X142629285Y-109054761D01*
X142772142Y-109102380D01*
X142867380Y-109102380D01*
X143010238Y-109054761D01*
X143105476Y-108959523D01*
X143153095Y-108864285D01*
X143200714Y-108673809D01*
X143200714Y-108530952D01*
X143153095Y-108340476D01*
X143105476Y-108245238D01*
X143010238Y-108150000D01*
X142867380Y-108102380D01*
X142772142Y-108102380D01*
X142629285Y-108150000D01*
X142581666Y-108197619D01*
X141724523Y-108102380D02*
X141915000Y-108102380D01*
X142010238Y-108150000D01*
X142057857Y-108197619D01*
X142153095Y-108340476D01*
X142200714Y-108530952D01*
X142200714Y-108911904D01*
X142153095Y-109007142D01*
X142105476Y-109054761D01*
X142010238Y-109102380D01*
X141819761Y-109102380D01*
X141724523Y-109054761D01*
X141676904Y-109007142D01*
X141629285Y-108911904D01*
X141629285Y-108673809D01*
X141676904Y-108578571D01*
X141724523Y-108530952D01*
X141819761Y-108483333D01*
X142010238Y-108483333D01*
X142105476Y-108530952D01*
X142153095Y-108578571D01*
X142200714Y-108673809D01*
X144057857Y-104802380D02*
X143962619Y-104802380D01*
X143867380Y-104850000D01*
X143819761Y-104897619D01*
X143772142Y-104992857D01*
X143724523Y-105183333D01*
X143724523Y-105421428D01*
X143772142Y-105611904D01*
X143819761Y-105707142D01*
X143867380Y-105754761D01*
X143962619Y-105802380D01*
X144057857Y-105802380D01*
X144153095Y-105754761D01*
X144200714Y-105707142D01*
X144248333Y-105611904D01*
X144295952Y-105421428D01*
X144295952Y-105183333D01*
X144248333Y-104992857D01*
X144200714Y-104897619D01*
X144153095Y-104850000D01*
X144057857Y-104802380D01*
X143295952Y-105707142D02*
X143248333Y-105754761D01*
X143295952Y-105802380D01*
X143343571Y-105754761D01*
X143295952Y-105707142D01*
X143295952Y-105802380D01*
X142295952Y-105802380D02*
X142867380Y-105802380D01*
X142581666Y-105802380D02*
X142581666Y-104802380D01*
X142676904Y-104945238D01*
X142772142Y-105040476D01*
X142867380Y-105088095D01*
X141438809Y-105135714D02*
X141438809Y-105802380D01*
X141867380Y-105135714D02*
X141867380Y-105659523D01*
X141819761Y-105754761D01*
X141724523Y-105802380D01*
X141581666Y-105802380D01*
X141486428Y-105754761D01*
X141438809Y-105707142D01*
X140629285Y-105278571D02*
X140962619Y-105278571D01*
X140962619Y-105802380D02*
X140962619Y-104802380D01*
X140486428Y-104802380D01*
X157321666Y-109027142D02*
X157369285Y-109074761D01*
X157512142Y-109122380D01*
X157607380Y-109122380D01*
X157750238Y-109074761D01*
X157845476Y-108979523D01*
X157893095Y-108884285D01*
X157940714Y-108693809D01*
X157940714Y-108550952D01*
X157893095Y-108360476D01*
X157845476Y-108265238D01*
X157750238Y-108170000D01*
X157607380Y-108122380D01*
X157512142Y-108122380D01*
X157369285Y-108170000D01*
X157321666Y-108217619D01*
X156988333Y-108122380D02*
X156321666Y-108122380D01*
X156750238Y-109122380D01*
X158742857Y-104752380D02*
X158647619Y-104752380D01*
X158552380Y-104800000D01*
X158504761Y-104847619D01*
X158457142Y-104942857D01*
X158409523Y-105133333D01*
X158409523Y-105371428D01*
X158457142Y-105561904D01*
X158504761Y-105657142D01*
X158552380Y-105704761D01*
X158647619Y-105752380D01*
X158742857Y-105752380D01*
X158838095Y-105704761D01*
X158885714Y-105657142D01*
X158933333Y-105561904D01*
X158980952Y-105371428D01*
X158980952Y-105133333D01*
X158933333Y-104942857D01*
X158885714Y-104847619D01*
X158838095Y-104800000D01*
X158742857Y-104752380D01*
X157980952Y-105657142D02*
X157933333Y-105704761D01*
X157980952Y-105752380D01*
X158028571Y-105704761D01*
X157980952Y-105657142D01*
X157980952Y-105752380D01*
X156980952Y-105752380D02*
X157552380Y-105752380D01*
X157266666Y-105752380D02*
X157266666Y-104752380D01*
X157361904Y-104895238D01*
X157457142Y-104990476D01*
X157552380Y-105038095D01*
X156123809Y-105085714D02*
X156123809Y-105752380D01*
X156552380Y-105085714D02*
X156552380Y-105609523D01*
X156504761Y-105704761D01*
X156409523Y-105752380D01*
X156266666Y-105752380D01*
X156171428Y-105704761D01*
X156123809Y-105657142D01*
X155314285Y-105228571D02*
X155647619Y-105228571D01*
X155647619Y-105752380D02*
X155647619Y-104752380D01*
X155171428Y-104752380D01*
X172046666Y-109007142D02*
X172094285Y-109054761D01*
X172237142Y-109102380D01*
X172332380Y-109102380D01*
X172475238Y-109054761D01*
X172570476Y-108959523D01*
X172618095Y-108864285D01*
X172665714Y-108673809D01*
X172665714Y-108530952D01*
X172618095Y-108340476D01*
X172570476Y-108245238D01*
X172475238Y-108150000D01*
X172332380Y-108102380D01*
X172237142Y-108102380D01*
X172094285Y-108150000D01*
X172046666Y-108197619D01*
X171475238Y-108530952D02*
X171570476Y-108483333D01*
X171618095Y-108435714D01*
X171665714Y-108340476D01*
X171665714Y-108292857D01*
X171618095Y-108197619D01*
X171570476Y-108150000D01*
X171475238Y-108102380D01*
X171284761Y-108102380D01*
X171189523Y-108150000D01*
X171141904Y-108197619D01*
X171094285Y-108292857D01*
X171094285Y-108340476D01*
X171141904Y-108435714D01*
X171189523Y-108483333D01*
X171284761Y-108530952D01*
X171475238Y-108530952D01*
X171570476Y-108578571D01*
X171618095Y-108626190D01*
X171665714Y-108721428D01*
X171665714Y-108911904D01*
X171618095Y-109007142D01*
X171570476Y-109054761D01*
X171475238Y-109102380D01*
X171284761Y-109102380D01*
X171189523Y-109054761D01*
X171141904Y-109007142D01*
X171094285Y-108911904D01*
X171094285Y-108721428D01*
X171141904Y-108626190D01*
X171189523Y-108578571D01*
X171284761Y-108530952D01*
X173522857Y-104802380D02*
X173427619Y-104802380D01*
X173332380Y-104850000D01*
X173284761Y-104897619D01*
X173237142Y-104992857D01*
X173189523Y-105183333D01*
X173189523Y-105421428D01*
X173237142Y-105611904D01*
X173284761Y-105707142D01*
X173332380Y-105754761D01*
X173427619Y-105802380D01*
X173522857Y-105802380D01*
X173618095Y-105754761D01*
X173665714Y-105707142D01*
X173713333Y-105611904D01*
X173760952Y-105421428D01*
X173760952Y-105183333D01*
X173713333Y-104992857D01*
X173665714Y-104897619D01*
X173618095Y-104850000D01*
X173522857Y-104802380D01*
X172760952Y-105707142D02*
X172713333Y-105754761D01*
X172760952Y-105802380D01*
X172808571Y-105754761D01*
X172760952Y-105707142D01*
X172760952Y-105802380D01*
X171760952Y-105802380D02*
X172332380Y-105802380D01*
X172046666Y-105802380D02*
X172046666Y-104802380D01*
X172141904Y-104945238D01*
X172237142Y-105040476D01*
X172332380Y-105088095D01*
X170903809Y-105135714D02*
X170903809Y-105802380D01*
X171332380Y-105135714D02*
X171332380Y-105659523D01*
X171284761Y-105754761D01*
X171189523Y-105802380D01*
X171046666Y-105802380D01*
X170951428Y-105754761D01*
X170903809Y-105707142D01*
X170094285Y-105278571D02*
X170427619Y-105278571D01*
X170427619Y-105802380D02*
X170427619Y-104802380D01*
X169951428Y-104802380D01*
X187177857Y-109017142D02*
X187225476Y-109064761D01*
X187368333Y-109112380D01*
X187463571Y-109112380D01*
X187606428Y-109064761D01*
X187701666Y-108969523D01*
X187749285Y-108874285D01*
X187796904Y-108683809D01*
X187796904Y-108540952D01*
X187749285Y-108350476D01*
X187701666Y-108255238D01*
X187606428Y-108160000D01*
X187463571Y-108112380D01*
X187368333Y-108112380D01*
X187225476Y-108160000D01*
X187177857Y-108207619D01*
X186225476Y-109112380D02*
X186796904Y-109112380D01*
X186511190Y-109112380D02*
X186511190Y-108112380D01*
X186606428Y-108255238D01*
X186701666Y-108350476D01*
X186796904Y-108398095D01*
X185273095Y-109112380D02*
X185844523Y-109112380D01*
X185558809Y-109112380D02*
X185558809Y-108112380D01*
X185654047Y-108255238D01*
X185749285Y-108350476D01*
X185844523Y-108398095D01*
X188177857Y-104812380D02*
X188082619Y-104812380D01*
X187987380Y-104860000D01*
X187939761Y-104907619D01*
X187892142Y-105002857D01*
X187844523Y-105193333D01*
X187844523Y-105431428D01*
X187892142Y-105621904D01*
X187939761Y-105717142D01*
X187987380Y-105764761D01*
X188082619Y-105812380D01*
X188177857Y-105812380D01*
X188273095Y-105764761D01*
X188320714Y-105717142D01*
X188368333Y-105621904D01*
X188415952Y-105431428D01*
X188415952Y-105193333D01*
X188368333Y-105002857D01*
X188320714Y-104907619D01*
X188273095Y-104860000D01*
X188177857Y-104812380D01*
X187415952Y-105717142D02*
X187368333Y-105764761D01*
X187415952Y-105812380D01*
X187463571Y-105764761D01*
X187415952Y-105717142D01*
X187415952Y-105812380D01*
X186415952Y-105812380D02*
X186987380Y-105812380D01*
X186701666Y-105812380D02*
X186701666Y-104812380D01*
X186796904Y-104955238D01*
X186892142Y-105050476D01*
X186987380Y-105098095D01*
X185558809Y-105145714D02*
X185558809Y-105812380D01*
X185987380Y-105145714D02*
X185987380Y-105669523D01*
X185939761Y-105764761D01*
X185844523Y-105812380D01*
X185701666Y-105812380D01*
X185606428Y-105764761D01*
X185558809Y-105717142D01*
X184749285Y-105288571D02*
X185082619Y-105288571D01*
X185082619Y-105812380D02*
X185082619Y-104812380D01*
X184606428Y-104812380D01*
X200266666Y-129652380D02*
X200600000Y-129176190D01*
X200838095Y-129652380D02*
X200838095Y-128652380D01*
X200457142Y-128652380D01*
X200361904Y-128700000D01*
X200314285Y-128747619D01*
X200266666Y-128842857D01*
X200266666Y-128985714D01*
X200314285Y-129080952D01*
X200361904Y-129128571D01*
X200457142Y-129176190D01*
X200838095Y-129176190D01*
X199314285Y-129652380D02*
X199885714Y-129652380D01*
X199600000Y-129652380D02*
X199600000Y-128652380D01*
X199695238Y-128795238D01*
X199790476Y-128890476D01*
X199885714Y-128938095D01*
X198085714Y-124938095D02*
X198752380Y-124938095D01*
X197704761Y-124700000D02*
X198419047Y-124461904D01*
X198419047Y-125080952D01*
X197752380Y-125366666D02*
X197752380Y-126033333D01*
X198752380Y-125604761D01*
X197752380Y-126604761D02*
X197752380Y-126700000D01*
X197800000Y-126795238D01*
X197847619Y-126842857D01*
X197942857Y-126890476D01*
X198133333Y-126938095D01*
X198371428Y-126938095D01*
X198561904Y-126890476D01*
X198657142Y-126842857D01*
X198704761Y-126795238D01*
X198752380Y-126700000D01*
X198752380Y-126604761D01*
X198704761Y-126509523D01*
X198657142Y-126461904D01*
X198561904Y-126414285D01*
X198371428Y-126366666D01*
X198133333Y-126366666D01*
X197942857Y-126414285D01*
X197847619Y-126461904D01*
X197800000Y-126509523D01*
X197752380Y-126604761D01*
X198752380Y-127938095D02*
X198276190Y-127604761D01*
X198752380Y-127366666D02*
X197752380Y-127366666D01*
X197752380Y-127747619D01*
X197800000Y-127842857D01*
X197847619Y-127890476D01*
X197942857Y-127938095D01*
X198085714Y-127938095D01*
X198180952Y-127890476D01*
X198228571Y-127842857D01*
X198276190Y-127747619D01*
X198276190Y-127366666D01*
X200266666Y-125452380D02*
X200600000Y-124976190D01*
X200838095Y-125452380D02*
X200838095Y-124452380D01*
X200457142Y-124452380D01*
X200361904Y-124500000D01*
X200314285Y-124547619D01*
X200266666Y-124642857D01*
X200266666Y-124785714D01*
X200314285Y-124880952D01*
X200361904Y-124928571D01*
X200457142Y-124976190D01*
X200838095Y-124976190D01*
X199885714Y-124547619D02*
X199838095Y-124500000D01*
X199742857Y-124452380D01*
X199504761Y-124452380D01*
X199409523Y-124500000D01*
X199361904Y-124547619D01*
X199314285Y-124642857D01*
X199314285Y-124738095D01*
X199361904Y-124880952D01*
X199933333Y-125452380D01*
X199314285Y-125452380D01*
X200266666Y-127552380D02*
X200600000Y-127076190D01*
X200838095Y-127552380D02*
X200838095Y-126552380D01*
X200457142Y-126552380D01*
X200361904Y-126600000D01*
X200314285Y-126647619D01*
X200266666Y-126742857D01*
X200266666Y-126885714D01*
X200314285Y-126980952D01*
X200361904Y-127028571D01*
X200457142Y-127076190D01*
X200838095Y-127076190D01*
X199933333Y-126552380D02*
X199314285Y-126552380D01*
X199647619Y-126933333D01*
X199504761Y-126933333D01*
X199409523Y-126980952D01*
X199361904Y-127028571D01*
X199314285Y-127123809D01*
X199314285Y-127361904D01*
X199361904Y-127457142D01*
X199409523Y-127504761D01*
X199504761Y-127552380D01*
X199790476Y-127552380D01*
X199885714Y-127504761D01*
X199933333Y-127457142D01*
X200266666Y-123552380D02*
X200600000Y-123076190D01*
X200838095Y-123552380D02*
X200838095Y-122552380D01*
X200457142Y-122552380D01*
X200361904Y-122600000D01*
X200314285Y-122647619D01*
X200266666Y-122742857D01*
X200266666Y-122885714D01*
X200314285Y-122980952D01*
X200361904Y-123028571D01*
X200457142Y-123076190D01*
X200838095Y-123076190D01*
X199409523Y-122885714D02*
X199409523Y-123552380D01*
X199647619Y-122504761D02*
X199885714Y-123219047D01*
X199266666Y-123219047D01*
X107452380Y-140109523D02*
X106976190Y-139776190D01*
X107452380Y-139538095D02*
X106452380Y-139538095D01*
X106452380Y-139919047D01*
X106500000Y-140014285D01*
X106547619Y-140061904D01*
X106642857Y-140109523D01*
X106785714Y-140109523D01*
X106880952Y-140061904D01*
X106928571Y-140014285D01*
X106976190Y-139919047D01*
X106976190Y-139538095D01*
X107452380Y-140538095D02*
X106452380Y-140538095D01*
X107452380Y-141109523D01*
X106452380Y-141109523D01*
X106452380Y-142014285D02*
X106452380Y-141823809D01*
X106500000Y-141728571D01*
X106547619Y-141680952D01*
X106690476Y-141585714D01*
X106880952Y-141538095D01*
X107261904Y-141538095D01*
X107357142Y-141585714D01*
X107404761Y-141633333D01*
X107452380Y-141728571D01*
X107452380Y-141919047D01*
X107404761Y-142014285D01*
X107357142Y-142061904D01*
X107261904Y-142109523D01*
X107023809Y-142109523D01*
X106928571Y-142061904D01*
X106880952Y-142014285D01*
X106833333Y-141919047D01*
X106833333Y-141728571D01*
X106880952Y-141633333D01*
X106928571Y-141585714D01*
X107023809Y-141538095D01*
X111790476Y-141385714D02*
X111790476Y-142052380D01*
X112028571Y-141004761D02*
X112266666Y-141719047D01*
X111647619Y-141719047D01*
X111266666Y-142052380D02*
X111266666Y-141052380D01*
X111171428Y-141671428D02*
X110885714Y-142052380D01*
X110885714Y-141385714D02*
X111266666Y-141766666D01*
X110552380Y-141052380D02*
X109885714Y-141052380D01*
X110314285Y-142052380D01*
X86533333Y-107604761D02*
X86390476Y-107652380D01*
X86152380Y-107652380D01*
X86057142Y-107604761D01*
X86009523Y-107557142D01*
X85961904Y-107461904D01*
X85961904Y-107366666D01*
X86009523Y-107271428D01*
X86057142Y-107223809D01*
X86152380Y-107176190D01*
X86342857Y-107128571D01*
X86438095Y-107080952D01*
X86485714Y-107033333D01*
X86533333Y-106938095D01*
X86533333Y-106842857D01*
X86485714Y-106747619D01*
X86438095Y-106700000D01*
X86342857Y-106652380D01*
X86104761Y-106652380D01*
X85961904Y-106700000D01*
X85628571Y-106652380D02*
X85390476Y-107652380D01*
X85200000Y-106938095D01*
X85009523Y-107652380D01*
X84771428Y-106652380D01*
X83866666Y-107652380D02*
X84438095Y-107652380D01*
X84152380Y-107652380D02*
X84152380Y-106652380D01*
X84247619Y-106795238D01*
X84342857Y-106890476D01*
X84438095Y-106938095D01*
X86333333Y-119404761D02*
X86190476Y-119452380D01*
X85952380Y-119452380D01*
X85857142Y-119404761D01*
X85809523Y-119357142D01*
X85761904Y-119261904D01*
X85761904Y-119166666D01*
X85809523Y-119071428D01*
X85857142Y-119023809D01*
X85952380Y-118976190D01*
X86142857Y-118928571D01*
X86238095Y-118880952D01*
X86285714Y-118833333D01*
X86333333Y-118738095D01*
X86333333Y-118642857D01*
X86285714Y-118547619D01*
X86238095Y-118500000D01*
X86142857Y-118452380D01*
X85904761Y-118452380D01*
X85761904Y-118500000D01*
X85428571Y-118452380D02*
X85190476Y-119452380D01*
X85000000Y-118738095D01*
X84809523Y-119452380D01*
X84571428Y-118452380D01*
X84238095Y-118547619D02*
X84190476Y-118500000D01*
X84095238Y-118452380D01*
X83857142Y-118452380D01*
X83761904Y-118500000D01*
X83714285Y-118547619D01*
X83666666Y-118642857D01*
X83666666Y-118738095D01*
X83714285Y-118880952D01*
X84285714Y-119452380D01*
X83666666Y-119452380D01*
X175758333Y-143504761D02*
X175615476Y-143552380D01*
X175377380Y-143552380D01*
X175282142Y-143504761D01*
X175234523Y-143457142D01*
X175186904Y-143361904D01*
X175186904Y-143266666D01*
X175234523Y-143171428D01*
X175282142Y-143123809D01*
X175377380Y-143076190D01*
X175567857Y-143028571D01*
X175663095Y-142980952D01*
X175710714Y-142933333D01*
X175758333Y-142838095D01*
X175758333Y-142742857D01*
X175710714Y-142647619D01*
X175663095Y-142600000D01*
X175567857Y-142552380D01*
X175329761Y-142552380D01*
X175186904Y-142600000D01*
X174853571Y-142552380D02*
X174615476Y-143552380D01*
X174425000Y-142838095D01*
X174234523Y-143552380D01*
X173996428Y-142552380D01*
X173710714Y-142552380D02*
X173091666Y-142552380D01*
X173425000Y-142933333D01*
X173282142Y-142933333D01*
X173186904Y-142980952D01*
X173139285Y-143028571D01*
X173091666Y-143123809D01*
X173091666Y-143361904D01*
X173139285Y-143457142D01*
X173186904Y-143504761D01*
X173282142Y-143552380D01*
X173567857Y-143552380D01*
X173663095Y-143504761D01*
X173710714Y-143457142D01*
X85307142Y-129757142D02*
X85354761Y-129709523D01*
X85402380Y-129566666D01*
X85402380Y-129471428D01*
X85354761Y-129328571D01*
X85259523Y-129233333D01*
X85164285Y-129185714D01*
X84973809Y-129138095D01*
X84830952Y-129138095D01*
X84640476Y-129185714D01*
X84545238Y-129233333D01*
X84450000Y-129328571D01*
X84402380Y-129471428D01*
X84402380Y-129566666D01*
X84450000Y-129709523D01*
X84497619Y-129757142D01*
X85402380Y-130709523D02*
X85402380Y-130138095D01*
X85402380Y-130423809D02*
X84402380Y-130423809D01*
X84545238Y-130328571D01*
X84640476Y-130233333D01*
X84688095Y-130138095D01*
X84402380Y-131614285D02*
X84402380Y-131138095D01*
X84878571Y-131090476D01*
X84830952Y-131138095D01*
X84783333Y-131233333D01*
X84783333Y-131471428D01*
X84830952Y-131566666D01*
X84878571Y-131614285D01*
X84973809Y-131661904D01*
X85211904Y-131661904D01*
X85307142Y-131614285D01*
X85354761Y-131566666D01*
X85402380Y-131471428D01*
X85402380Y-131233333D01*
X85354761Y-131138095D01*
X85307142Y-131090476D01*
X88242857Y-132452380D02*
X88147619Y-132452380D01*
X88052380Y-132500000D01*
X88004761Y-132547619D01*
X87957142Y-132642857D01*
X87909523Y-132833333D01*
X87909523Y-133071428D01*
X87957142Y-133261904D01*
X88004761Y-133357142D01*
X88052380Y-133404761D01*
X88147619Y-133452380D01*
X88242857Y-133452380D01*
X88338095Y-133404761D01*
X88385714Y-133357142D01*
X88433333Y-133261904D01*
X88480952Y-133071428D01*
X88480952Y-132833333D01*
X88433333Y-132642857D01*
X88385714Y-132547619D01*
X88338095Y-132500000D01*
X88242857Y-132452380D01*
X87480952Y-133357142D02*
X87433333Y-133404761D01*
X87480952Y-133452380D01*
X87528571Y-133404761D01*
X87480952Y-133357142D01*
X87480952Y-133452380D01*
X86480952Y-133452380D02*
X87052380Y-133452380D01*
X86766666Y-133452380D02*
X86766666Y-132452380D01*
X86861904Y-132595238D01*
X86957142Y-132690476D01*
X87052380Y-132738095D01*
X85623809Y-132785714D02*
X85623809Y-133452380D01*
X86052380Y-132785714D02*
X86052380Y-133309523D01*
X86004761Y-133404761D01*
X85909523Y-133452380D01*
X85766666Y-133452380D01*
X85671428Y-133404761D01*
X85623809Y-133357142D01*
X84814285Y-132928571D02*
X85147619Y-132928571D01*
X85147619Y-133452380D02*
X85147619Y-132452380D01*
X84671428Y-132452380D01*
X112517857Y-131307142D02*
X112565476Y-131354761D01*
X112708333Y-131402380D01*
X112803571Y-131402380D01*
X112946428Y-131354761D01*
X113041666Y-131259523D01*
X113089285Y-131164285D01*
X113136904Y-130973809D01*
X113136904Y-130830952D01*
X113089285Y-130640476D01*
X113041666Y-130545238D01*
X112946428Y-130450000D01*
X112803571Y-130402380D01*
X112708333Y-130402380D01*
X112565476Y-130450000D01*
X112517857Y-130497619D01*
X111565476Y-131402380D02*
X112136904Y-131402380D01*
X111851190Y-131402380D02*
X111851190Y-130402380D01*
X111946428Y-130545238D01*
X112041666Y-130640476D01*
X112136904Y-130688095D01*
X110708333Y-130402380D02*
X110898809Y-130402380D01*
X110994047Y-130450000D01*
X111041666Y-130497619D01*
X111136904Y-130640476D01*
X111184523Y-130830952D01*
X111184523Y-131211904D01*
X111136904Y-131307142D01*
X111089285Y-131354761D01*
X110994047Y-131402380D01*
X110803571Y-131402380D01*
X110708333Y-131354761D01*
X110660714Y-131307142D01*
X110613095Y-131211904D01*
X110613095Y-130973809D01*
X110660714Y-130878571D01*
X110708333Y-130830952D01*
X110803571Y-130783333D01*
X110994047Y-130783333D01*
X111089285Y-130830952D01*
X111136904Y-130878571D01*
X111184523Y-130973809D01*
X113517857Y-133702380D02*
X113422619Y-133702380D01*
X113327380Y-133750000D01*
X113279761Y-133797619D01*
X113232142Y-133892857D01*
X113184523Y-134083333D01*
X113184523Y-134321428D01*
X113232142Y-134511904D01*
X113279761Y-134607142D01*
X113327380Y-134654761D01*
X113422619Y-134702380D01*
X113517857Y-134702380D01*
X113613095Y-134654761D01*
X113660714Y-134607142D01*
X113708333Y-134511904D01*
X113755952Y-134321428D01*
X113755952Y-134083333D01*
X113708333Y-133892857D01*
X113660714Y-133797619D01*
X113613095Y-133750000D01*
X113517857Y-133702380D01*
X112755952Y-134607142D02*
X112708333Y-134654761D01*
X112755952Y-134702380D01*
X112803571Y-134654761D01*
X112755952Y-134607142D01*
X112755952Y-134702380D01*
X111755952Y-134702380D02*
X112327380Y-134702380D01*
X112041666Y-134702380D02*
X112041666Y-133702380D01*
X112136904Y-133845238D01*
X112232142Y-133940476D01*
X112327380Y-133988095D01*
X110898809Y-134035714D02*
X110898809Y-134702380D01*
X111327380Y-134035714D02*
X111327380Y-134559523D01*
X111279761Y-134654761D01*
X111184523Y-134702380D01*
X111041666Y-134702380D01*
X110946428Y-134654761D01*
X110898809Y-134607142D01*
X110089285Y-134178571D02*
X110422619Y-134178571D01*
X110422619Y-134702380D02*
X110422619Y-133702380D01*
X109946428Y-133702380D01*
X132307142Y-132782142D02*
X132354761Y-132734523D01*
X132402380Y-132591666D01*
X132402380Y-132496428D01*
X132354761Y-132353571D01*
X132259523Y-132258333D01*
X132164285Y-132210714D01*
X131973809Y-132163095D01*
X131830952Y-132163095D01*
X131640476Y-132210714D01*
X131545238Y-132258333D01*
X131450000Y-132353571D01*
X131402380Y-132496428D01*
X131402380Y-132591666D01*
X131450000Y-132734523D01*
X131497619Y-132782142D01*
X132402380Y-133734523D02*
X132402380Y-133163095D01*
X132402380Y-133448809D02*
X131402380Y-133448809D01*
X131545238Y-133353571D01*
X131640476Y-133258333D01*
X131688095Y-133163095D01*
X131402380Y-134067857D02*
X131402380Y-134734523D01*
X132402380Y-134305952D01*
X134702380Y-131782142D02*
X134702380Y-131877380D01*
X134750000Y-131972619D01*
X134797619Y-132020238D01*
X134892857Y-132067857D01*
X135083333Y-132115476D01*
X135321428Y-132115476D01*
X135511904Y-132067857D01*
X135607142Y-132020238D01*
X135654761Y-131972619D01*
X135702380Y-131877380D01*
X135702380Y-131782142D01*
X135654761Y-131686904D01*
X135607142Y-131639285D01*
X135511904Y-131591666D01*
X135321428Y-131544047D01*
X135083333Y-131544047D01*
X134892857Y-131591666D01*
X134797619Y-131639285D01*
X134750000Y-131686904D01*
X134702380Y-131782142D01*
X135607142Y-132544047D02*
X135654761Y-132591666D01*
X135702380Y-132544047D01*
X135654761Y-132496428D01*
X135607142Y-132544047D01*
X135702380Y-132544047D01*
X135702380Y-133544047D02*
X135702380Y-132972619D01*
X135702380Y-133258333D02*
X134702380Y-133258333D01*
X134845238Y-133163095D01*
X134940476Y-133067857D01*
X134988095Y-132972619D01*
X135035714Y-134401190D02*
X135702380Y-134401190D01*
X135035714Y-133972619D02*
X135559523Y-133972619D01*
X135654761Y-134020238D01*
X135702380Y-134115476D01*
X135702380Y-134258333D01*
X135654761Y-134353571D01*
X135607142Y-134401190D01*
X135178571Y-135210714D02*
X135178571Y-134877380D01*
X135702380Y-134877380D02*
X134702380Y-134877380D01*
X134702380Y-135353571D01*
M02*
